<svg width="44" height="44" viewBox="0 0 44 44" fill="none" xmlns="http://www.w3.org/2000/svg">
<g clip-path="url(#clip0_405_5963)">
<path d="M24.8408 9.75932H26.3212L27.3894 8.06824L29.2356 11.799L31.1267 8.06824L32.3634 10.189L33.7379 8.79416L34.8319 9.75932" stroke="white" stroke-width="0.860458" stroke-miterlimit="10" stroke-linecap="round" stroke-linejoin="round"/>
<path d="M33.4185 27.7797V37.4679H21.0293V19.8617H33.4185V24.8177" stroke="white" stroke-width="0.860458" stroke-miterlimit="10" stroke-linecap="round" stroke-linejoin="round"/>
<path d="M25.0255 30.1371C25.8103 30.1371 26.4465 29.5009 26.4465 28.7161C26.4465 27.9313 25.8103 27.295 25.0255 27.295C24.2407 27.295 23.6045 27.9313 23.6045 28.7161C23.6045 29.5009 24.2407 30.1371 25.0255 30.1371Z" stroke="white" stroke-width="0.860458" stroke-miterlimit="10" stroke-linecap="round" stroke-linejoin="round"/>
<path d="M25.0255 35.0419C25.8103 35.0419 26.4465 34.4057 26.4465 33.6208C26.4465 32.836 25.8103 32.1998 25.0255 32.1998C24.2407 32.1998 23.6045 32.836 23.6045 33.6208C23.6045 34.4057 24.2407 35.0419 25.0255 35.0419Z" stroke="white" stroke-width="0.860458" stroke-miterlimit="10" stroke-linecap="round" stroke-linejoin="round"/>
<path d="M20.0433 40.8572H12.9513C12.6219 40.8572 12.355 40.5902 12.355 40.2609V38.0642C12.355 37.7349 12.6219 37.4679 12.9513 37.4679H41.4963C41.8256 37.4679 42.0925 37.7349 42.0925 38.0642V40.2609C42.0925 40.5902 41.8256 40.8572 41.4963 40.8572H22.9965" stroke="white" stroke-width="0.860458" stroke-miterlimit="10" stroke-linecap="round" stroke-linejoin="round"/>
<path d="M17.1797 40.8574H20.0432V42.6041C20.0432 43.008 19.7159 43.3354 19.3119 43.3354H17.911C17.5071 43.3354 17.1797 43.0081 17.1797 42.6041V40.8574Z" stroke="white" stroke-width="0.860458" stroke-miterlimit="10" stroke-linecap="round" stroke-linejoin="round"/>
<path d="M34.4043 40.8574H37.2678V42.6041C37.2678 43.008 36.9405 43.3354 36.5365 43.3354H35.1356C34.7318 43.3354 34.4043 43.0081 34.4043 42.6041V40.8574Z" stroke="white" stroke-width="0.860458" stroke-miterlimit="10" stroke-linecap="round" stroke-linejoin="round"/>
<path d="M14.6621 2.38271V16.3499C14.6621 16.7972 15.0247 17.1599 15.4721 17.1599H19.0632V19.0517C19.0632 19.499 19.4258 19.8617 19.8732 19.8617H34.5748C35.0221 19.8617 35.3848 19.4991 35.3848 19.0517V17.1599H38.9759C39.4232 17.1599 39.7859 16.7973 39.7859 16.3499V2.38271C39.7859 1.93542 39.4233 1.57275 38.9759 1.57275H15.4721C15.0248 1.57275 14.6621 1.93534 14.6621 2.38271Z" stroke="white" stroke-width="0.860458" stroke-miterlimit="10" stroke-linecap="round" stroke-linejoin="round"/>
<path d="M37.5137 14.888V3.84412L16.9332 3.84412L16.9332 14.888L37.5137 14.888Z" stroke="white" stroke-width="0.860458" stroke-miterlimit="10" stroke-linecap="round" stroke-linejoin="round"/>
<path d="M22.1914 17.1603H25.5558" stroke="white" stroke-width="0.860458" stroke-miterlimit="10" stroke-linecap="round" stroke-linejoin="round"/>
<circle cx="27.8167" cy="17.1602" r="0.630218" fill="white"/>
<circle cx="30.036" cy="17.1602" r="0.630218" fill="white"/>
<circle cx="32.2562" cy="17.1602" r="0.630218" fill="white"/>
<path d="M22.1914 3.84412V14.8879" stroke="white" stroke-width="0.860458" stroke-miterlimit="10" stroke-linecap="round" stroke-linejoin="round"/>
<path d="M37.5139 17.1597V23.6036C37.5139 24.274 36.9704 24.8175 36.3001 24.8175H11.126C10.2583 24.8175 9.55486 24.1141 9.55486 23.2464V3.36704C9.55486 2.54632 8.88952 1.88098 8.06881 1.88098H5.43895C4.5895 1.88098 3.90088 2.5696 3.90088 3.41905V11.0438" stroke="white" stroke-width="0.860458" stroke-miterlimit="10" stroke-linecap="round" stroke-linejoin="round"/>
<path d="M23.8737 19.8615V21.2137C23.8737 21.8841 23.3302 22.4276 22.6598 22.4276H12.1049V5.66684C12.1049 4.84613 11.4396 4.18079 10.6188 4.18079H6.4126V12.2503" stroke="white" stroke-width="0.860458" stroke-miterlimit="10" stroke-linecap="round" stroke-linejoin="round"/>
<path d="M6.41235 19.099V20.0795C6.41235 20.7457 5.87229 21.2858 5.20603 21.2858H2.18972C1.52345 21.2858 0.983398 20.7457 0.983398 20.0795V12.2501C0.983398 11.5839 1.52345 11.0438 2.18972 11.0438H5.20603C5.87229 11.0438 6.41235 11.5839 6.41235 12.2501V16.146" stroke="white" stroke-width="0.860458" stroke-miterlimit="10" stroke-linecap="round" stroke-linejoin="round"/>
<path d="M3.69824 21.286V24.2287" stroke="white" stroke-width="0.860458" stroke-miterlimit="10" stroke-linecap="round" stroke-linejoin="round"/>
<path d="M1.30273 26.7059V25.1465C1.30273 24.6395 1.71372 24.2285 2.22067 24.2285H5.17555C5.6825 24.2285 6.09348 24.6395 6.09348 25.1465V26.7059" stroke="white" stroke-width="0.860458" stroke-miterlimit="10" stroke-linecap="round" stroke-linejoin="round"/>
</g>
<defs>
<clipPath id="clip0_405_5963">
<rect width="43.0229" height="43.0229" fill="white" transform="translate(0.0268555 0.942383)"/>
</clipPath>
</defs>
</svg>
