<svg width="44" height="44" viewBox="0 0 44 44" fill="none" xmlns="http://www.w3.org/2000/svg">
<g clip-path="url(#clip0_405_5864)">
<rect width="43.0229" height="43.0229" transform="translate(0.969238 0.154297)" fill="black"/>
<path d="M9.68172 7.71023L9.68164 5.16314C9.68164 3.3498 11.1513 1.88013 12.9647 1.88013C14.0932 1.88013 15.1435 2.46077 15.7435 3.41702L19.6147 9.57971C19.9987 10.1906 20.6701 10.562 21.3911 10.562C22.5499 10.562 23.4893 9.62257 23.4893 8.4638V7.28488C23.4893 6.02108 24.5145 4.99592 25.7783 4.99592C27.042 4.99592 28.0672 6.02108 28.0672 7.28488V14.4442" stroke="white" stroke-width="1.11546" stroke-miterlimit="10" stroke-linecap="round" stroke-linejoin="round"/>
<path d="M6.25244 33.0214V28.041" stroke="white" stroke-width="1.11546" stroke-miterlimit="10" stroke-linecap="round" stroke-linejoin="round"/>
<path d="M13.1104 33.0216V28.042" stroke="white" stroke-width="1.11546" stroke-miterlimit="10" stroke-linecap="round" stroke-linejoin="round"/>
<path d="M7.21289 21.5726V15.8074" stroke="white" stroke-width="1.11546" stroke-miterlimit="10" stroke-linecap="round" stroke-linejoin="round"/>
<path d="M12.1504 21.5726V15.8074" stroke="white" stroke-width="1.11546" stroke-miterlimit="10" stroke-linecap="round" stroke-linejoin="round"/>
<path d="M3.95068 36.7168V34.1808C3.95068 33.5405 4.46998 33.0212 5.11028 33.0212H14.2526C14.893 33.0212 15.4123 33.5405 15.4123 34.1808V36.7168" stroke="white" stroke-width="1.11546" stroke-miterlimit="10" stroke-linecap="round" stroke-linejoin="round"/>
<path d="M29.1703 36.7175H37.8045C38.0167 36.7175 38.2273 36.7547 38.4267 36.8274L42.8101 38.4239C43.1415 38.5446 43.362 38.8596 43.362 39.2123V40.6123C43.362 41.0757 42.9863 41.4513 42.5229 41.4513H2.27873C1.90363 41.4513 1.59961 41.1473 1.59961 40.7722V37.3967C1.59961 37.0215 1.90363 36.7175 2.27873 36.7175H26.2293" stroke="white" stroke-width="1.11546" stroke-miterlimit="10" stroke-linecap="round" stroke-linejoin="round"/>
<path d="M13.0249 9.23682H14.4307C15.3895 9.23682 16.2962 9.67629 16.8902 10.4292L21.3085 16.0213C21.5244 16.2953 21.8538 16.4549 22.2042 16.4549H24.7419" stroke="white" stroke-width="1.11546" stroke-miterlimit="10" stroke-linecap="round" stroke-linejoin="round"/>
<path d="M13.0977 14.9482H14.6194C15.0286 14.9482 15.416 15.1356 15.6698 15.4566L18.6982 19.29C19.3166 20.0732 20.2595 20.5303 21.2586 20.5303H24.7424" stroke="white" stroke-width="1.11546" stroke-miterlimit="10" stroke-linecap="round" stroke-linejoin="round"/>
<path d="M32.9316 22.7935C33.3854 22.602 33.9018 22.4384 34.7847 22.4384C36.911 22.4384 36.911 23.3867 39.0367 23.3867C39.5455 23.3867 39.9327 23.3322 40.2561 23.2497" stroke="white" stroke-width="1.11546" stroke-miterlimit="10" stroke-linecap="round" stroke-linejoin="round"/>
<path d="M40.2563 16.8291V13.5192" stroke="white" stroke-width="1.11546" stroke-miterlimit="10" stroke-linecap="round" stroke-linejoin="round"/>
<path d="M32.9316 16.8291V13.5192" stroke="white" stroke-width="1.11546" stroke-miterlimit="10" stroke-linecap="round" stroke-linejoin="round"/>
<path d="M40.2565 20.1575V27.1949C40.2565 29.2175 38.6162 30.8569 36.5936 30.8569C34.571 30.8569 32.9316 29.2175 32.9316 27.1949V20.1575" stroke="white" stroke-width="1.11546" stroke-miterlimit="10" stroke-linecap="round" stroke-linejoin="round"/>
<path d="M34.0674 10.6296H33.1135C32.3125 10.6296 31.6631 11.279 31.6631 12.0801C31.6631 12.8811 32.3125 13.5305 33.1135 13.5305H40.0743C40.8754 13.5305 41.5247 12.8811 41.5247 12.0801C41.5247 11.2792 40.8754 10.6297 40.0743 10.6297H37.0083" stroke="white" stroke-width="1.11546" stroke-miterlimit="10" stroke-linecap="round" stroke-linejoin="round"/>
<path d="M29.5815 16.8289H41.1028C41.7246 16.8289 42.2288 17.333 42.2288 17.9548V19.0313C42.2288 19.6531 41.7246 20.1572 41.1028 20.1572H29.5815" stroke="white" stroke-width="1.11546" stroke-miterlimit="10" stroke-linecap="round" stroke-linejoin="round"/>
<path d="M24.7349 15.0376V16.3597C24.7349 16.6033 24.8838 16.8222 25.1104 16.9117L25.5505 17.0854C25.7772 17.1749 25.9261 17.3938 25.9261 17.6374V19.3482C25.9261 19.5918 25.7772 19.8107 25.5505 19.9001L25.1104 20.0739C24.8838 20.1634 24.7349 20.3823 24.7349 20.6259V21.9479C24.7349 22.2757 25.0006 22.5414 25.3284 22.5414H28.613C29.1479 22.5414 29.5815 22.1078 29.5815 21.5728V15.4126C29.5815 14.8776 29.1478 14.444 28.613 14.444H25.3284C25.0006 14.4441 24.7349 14.7098 24.7349 15.0376Z" stroke="white" stroke-width="1.11546" stroke-miterlimit="10" stroke-linecap="round" stroke-linejoin="round"/>
<path d="M9.6813 7.71008C7.23765 7.71008 5.25684 9.69124 5.25684 12.1348C5.25684 14.5785 7.23774 16.5593 9.68139 16.5593C12.125 16.5593 14.1059 14.5785 14.1059 12.1347C14.1059 9.69124 12.1249 7.71008 9.6813 7.71008Z" stroke="white" stroke-width="1.11546" stroke-miterlimit="10" stroke-linecap="round" stroke-linejoin="round"/>
<path d="M9.78872 13.636C10.6178 13.5771 11.2421 12.8572 11.1831 12.0282C11.1242 11.1992 10.4044 10.5749 9.57533 10.6338C8.74629 10.6927 8.12199 11.4126 8.18091 12.2416C8.23984 13.0706 8.95968 13.6949 9.78872 13.636Z" stroke="white" stroke-width="1.11546" stroke-miterlimit="10" stroke-linecap="round" stroke-linejoin="round"/>
<path d="M9.93887 29.6618C12.3783 29.5196 14.2406 27.4268 14.0984 24.9874C13.9562 22.548 11.8633 20.6857 9.42387 20.8279C6.98441 20.9702 5.12212 23.063 5.26434 25.5024C5.40656 27.9418 7.49942 29.804 9.93887 29.6618Z" stroke="white" stroke-width="1.11546" stroke-miterlimit="10" stroke-linecap="round" stroke-linejoin="round"/>
<path d="M9.78872 26.7466C10.6178 26.6877 11.2421 25.9678 11.1831 25.1388C11.1242 24.3098 10.4044 23.6855 9.57533 23.7444C8.74629 23.8033 8.12199 24.5231 8.18091 25.3522C8.23984 26.1812 8.95968 26.8055 9.78872 26.7466Z" stroke="white" stroke-width="1.11546" stroke-miterlimit="10" stroke-linecap="round" stroke-linejoin="round"/>
</g>
<defs>
<clipPath id="clip0_405_5864">
<rect width="43.0229" height="43.0229" fill="white" transform="translate(0.969238 0.154297)"/>
</clipPath>
</defs>
</svg>
