<svg width="44" height="40" viewBox="0 0 44 40" fill="none" xmlns="http://www.w3.org/2000/svg">
<path d="M33.8555 8.15796C34.0824 8.20182 34.3043 8.24737 34.5228 8.29467C36.8548 8.79918 38.5219 10.8587 38.5219 13.2446V13.2479" stroke="white" stroke-width="0.860458" stroke-miterlimit="10" stroke-linecap="round" stroke-linejoin="round"/>
<path d="M15.7422 13.2484C15.7422 10.8599 17.411 8.79708 19.7472 8.29761C23.5671 7.47959 27.3731 7.32481 30.937 7.71462" stroke="white" stroke-width="0.860458" stroke-miterlimit="10" stroke-linecap="round" stroke-linejoin="round"/>
<path d="M38.5216 21.4741V26.5362C38.5216 27.9342 37.3886 29.0672 35.9906 29.0672C33.2577 29.0672 20.2251 29.0672 18.2732 29.0672C16.8752 29.0672 15.7422 27.9342 15.7422 26.5362V21.4741" stroke="white" stroke-width="0.860458" stroke-miterlimit="10" stroke-linecap="round" stroke-linejoin="round"/>
<path d="M38.5217 13.248H15.7422V21.474H38.5217V13.248Z" stroke="white" stroke-width="0.860458" stroke-miterlimit="10" stroke-linecap="round" stroke-linejoin="round"/>
<path d="M19.539 26.536C20.238 26.536 20.8046 25.9694 20.8046 25.2704C20.8046 24.5715 20.238 24.0049 19.539 24.0049C18.84 24.0049 18.2734 24.5715 18.2734 25.2704C18.2734 25.9694 18.84 26.536 19.539 26.536Z" stroke="white" stroke-width="0.860458" stroke-miterlimit="10" stroke-linecap="round" stroke-linejoin="round"/>
<path d="M34.725 26.536C35.424 26.536 35.9906 25.9694 35.9906 25.2704C35.9906 24.5715 35.424 24.0049 34.725 24.0049C34.0261 24.0049 33.4595 24.5715 33.4595 25.2704C33.4595 25.9694 34.0261 26.536 34.725 26.536Z" stroke="white" stroke-width="0.860458" stroke-miterlimit="10" stroke-linecap="round" stroke-linejoin="round"/>
<path d="M11.313 39.1914L13.5277 36.6603C13.5392 36.6471 19.7841 29.5101 20.1717 29.0671" stroke="white" stroke-width="0.860458" stroke-miterlimit="10" stroke-linecap="round" stroke-linejoin="round"/>
<path d="M42.951 39.1914C41.9926 38.0961 35.2842 30.4294 34.0923 29.0671" stroke="white" stroke-width="0.860458" stroke-miterlimit="10" stroke-linecap="round" stroke-linejoin="round"/>
<path d="M37.415 32.8638H16.8501" stroke="white" stroke-width="0.860458" stroke-miterlimit="10" stroke-linecap="round" stroke-linejoin="round"/>
<path d="M40.7367 36.6606H13.5278" stroke="white" stroke-width="0.860458" stroke-miterlimit="10" stroke-linecap="round" stroke-linejoin="round"/>
<path d="M21.8628 16.5537V17.5661" stroke="white" stroke-width="0.860458" stroke-miterlimit="10" stroke-linecap="round" stroke-linejoin="round"/>
<path d="M32.4009 16.5537V17.5661" stroke="white" stroke-width="0.860458" stroke-miterlimit="10" stroke-linecap="round" stroke-linejoin="round"/>
<path d="M25.7437 17.5356C26.4788 18.3793 27.7858 18.3794 28.5211 17.5356" stroke="white" stroke-width="0.860458" stroke-miterlimit="10" stroke-linecap="round" stroke-linejoin="round"/>
<path d="M4.35205 33.6653V31.5984" stroke="white" stroke-width="0.860458" stroke-miterlimit="10" stroke-linecap="round" stroke-linejoin="round"/>
<path d="M8.78148 31.5984V37.926C8.78148 38.6246 8.21453 39.1916 7.51591 39.1916H5.61761C4.91908 39.1916 4.35205 38.6246 4.35205 37.926V36.6183" stroke="white" stroke-width="0.860458" stroke-miterlimit="10" stroke-linecap="round" stroke-linejoin="round"/>
<path d="M8.78174 24.6377H8.99266C9.92496 24.6377 10.68 25.3928 10.68 26.3251V29.9108C10.68 30.8431 9.92496 31.5982 8.99266 31.5982C7.31703 31.5982 6.24659 31.5982 4.14149 31.5982C3.20919 31.5982 2.4541 30.8431 2.4541 29.9108V26.3251C2.4541 25.3928 3.20919 24.6377 4.14149 24.6377H4.3524" stroke="white" stroke-width="0.860458" stroke-miterlimit="10" stroke-linecap="round" stroke-linejoin="round"/>
<path d="M4.35205 19.5759V24.638H8.78139V19.5759" stroke="white" stroke-width="0.860458" stroke-miterlimit="10" stroke-linecap="round" stroke-linejoin="round"/>
<path d="M10.2581 19.5758C11.1904 19.5758 11.9455 18.8207 11.9455 17.8884V6.60412C11.9455 3.63352 9.53761 1.22559 6.56693 1.22559C3.59633 1.22559 1.18848 3.63344 1.18848 6.60412V17.8884C1.18848 18.8207 1.94356 19.5758 2.87586 19.5758H4.35234C6.14602 19.5758 8.50144 19.5758 10.2581 19.5758Z" stroke="white" stroke-width="0.860458" stroke-miterlimit="10" stroke-linecap="round" stroke-linejoin="round"/>
<path d="M8.7224 7.11352C9.00347 5.92317 8.26636 4.73035 7.07601 4.44927C5.88566 4.1682 4.69284 4.90531 4.41176 6.09566C4.13069 7.28601 4.8678 8.47883 6.05815 8.75991C7.2485 9.04098 8.44132 8.30387 8.7224 7.11352Z" stroke="white" stroke-width="0.860458" stroke-miterlimit="10" stroke-linecap="round" stroke-linejoin="round"/>
<path d="M8.13255 15.763C8.99742 14.8981 8.99743 13.4959 8.13255 12.631C7.26768 11.7662 5.86544 11.7662 5.00056 12.631C4.13569 13.4959 4.13569 14.8981 5.00056 15.763C5.86544 16.6279 7.26768 16.6279 8.13255 15.763Z" stroke="white" stroke-width="0.860458" stroke-miterlimit="10" stroke-linecap="round" stroke-linejoin="round"/>
<path d="M23.3354 25.2705H30.9286" stroke="white" stroke-width="0.860458" stroke-miterlimit="10" stroke-linecap="round" stroke-linejoin="round"/>
</svg>
