<svg width="44" height="44" viewBox="0 0 44 44" fill="none" xmlns="http://www.w3.org/2000/svg">
<g clip-path="url(#clip0_1422_3927)">
<path d="M23.6852 12.4626C22.3586 11.9059 20.9018 11.5981 19.373 11.5981C13.2124 11.5981 8.21826 16.5923 8.21826 22.7529C8.21826 28.9135 13.2124 33.9076 19.373 33.9076C21.5314 33.9076 23.5462 33.2939 25.2536 32.2324" stroke="white" stroke-width="0.8" stroke-miterlimit="10" stroke-linecap="round" stroke-linejoin="round"/>
<path d="M27.5342 30.3553C28.5727 29.2411 29.3857 27.914 29.9008 26.4468" stroke="white" stroke-width="0.8" stroke-miterlimit="10" stroke-linecap="round" stroke-linejoin="round"/>
<path d="M19.373 7.39982V5.00098" stroke="white" stroke-width="0.8" stroke-miterlimit="10" stroke-linecap="round" stroke-linejoin="round"/>
<path d="M19.373 40.5043V38.1055" stroke="white" stroke-width="0.8" stroke-miterlimit="10" stroke-linecap="round" stroke-linejoin="round"/>
<path d="M4.02043 22.7534H1.62158" stroke="white" stroke-width="0.8" stroke-miterlimit="10" stroke-linecap="round" stroke-linejoin="round"/>
<path d="M11.697 9.45634L10.4976 7.37891" stroke="white" stroke-width="0.8" stroke-miterlimit="10" stroke-linecap="round" stroke-linejoin="round"/>
<path d="M28.2493 38.1254L27.0498 36.0479" stroke="white" stroke-width="0.8" stroke-miterlimit="10" stroke-linecap="round" stroke-linejoin="round"/>
<path d="M6.07752 30.4287L4 31.6282" stroke="white" stroke-width="0.8" stroke-miterlimit="10" stroke-linecap="round" stroke-linejoin="round"/>
<path d="M6.07752 15.0769L4 13.8774" stroke="white" stroke-width="0.8" stroke-miterlimit="10" stroke-linecap="round" stroke-linejoin="round"/>
<path d="M11.697 36.0498L10.4976 38.1273" stroke="white" stroke-width="0.8" stroke-miterlimit="10" stroke-linecap="round" stroke-linejoin="round"/>
<path d="M23.2189 21.5405H19.9238C19.8357 21.5405 19.7685 21.4617 19.7825 21.3747L20.8243 14.866C20.8494 14.7089 20.638 14.6341 20.5588 14.7721L15.403 23.7497C15.3482 23.8451 15.4171 23.9641 15.5272 23.9641H18.8223C18.9104 23.9641 18.9776 24.0429 18.9636 24.1299L17.9218 30.6386C17.8967 30.7956 18.1081 30.8705 18.1873 30.7325L23.3431 21.7549C23.3979 21.6595 23.329 21.5405 23.2189 21.5405Z" stroke="white" stroke-width="0.8" stroke-miterlimit="10" stroke-linecap="round" stroke-linejoin="round"/>
<path d="M34.911 37.081V29.0771H31.1069V42.1621C31.1069 42.394 31.295 42.582 31.5269 42.582H34.4911C34.723 42.582 34.911 42.394 34.911 42.1621V40.0205" stroke="white" stroke-width="0.8" stroke-miterlimit="10" stroke-linecap="round" stroke-linejoin="round"/>
<path d="M28.9042 4.49756V2.45623C28.9042 1.56592 28.1824 0.844238 27.2922 0.844238C26.4019 0.844238 25.6802 1.566 25.6802 2.45623V9.35228H28.9043V7.43701" stroke="white" stroke-width="0.8" stroke-miterlimit="10" stroke-linecap="round" stroke-linejoin="round"/>
<path d="M40.3373 9.35228V2.45623C40.3373 1.56592 39.6155 0.844238 38.7253 0.844238C37.835 0.844238 37.1133 1.566 37.1133 2.45623V9.35228H40.3373Z" stroke="white" stroke-width="0.8" stroke-miterlimit="10" stroke-linecap="round" stroke-linejoin="round"/>
<path d="M24.3574 9.35059C23.9864 9.35059 23.6855 9.65142 23.6855 10.0225V15.9714C23.6855 19.8514 26.0883 23.1961 29.479 24.5947C29.7328 24.6994 29.9011 24.9435 29.9011 25.2181V28.4061C29.9011 28.7771 30.2019 29.0779 30.5729 29.0779H35.4446C35.8157 29.0779 36.1165 28.7771 36.1165 28.4061V25.2181C36.1165 24.9435 36.2847 24.6994 36.5386 24.5947C39.9291 23.1961 42.332 19.8514 42.332 15.9714V10.0225C42.332 9.65142 42.0312 9.35059 41.6601 9.35059H24.3574Z" stroke="white" stroke-width="0.8" stroke-miterlimit="10" stroke-linecap="round" stroke-linejoin="round"/>
</g>
<defs>
<clipPath id="clip0_1422_3927">
<rect width="43" height="43" fill="white" transform="translate(0.476562 0.208984)"/>
</clipPath>
</defs>
</svg>
