<svg width="44" height="44" viewBox="0 0 44 44" fill="none" xmlns="http://www.w3.org/2000/svg">
<g clip-path="url(#clip0_405_6155)">
<path d="M41.2359 36.292H3.2548C2.32662 36.292 1.57422 35.5396 1.57422 34.6114V10.1298C1.57422 9.20162 2.32662 8.44922 3.2548 8.44922H41.2359C42.1641 8.44922 42.9165 9.20162 42.9165 10.1298V34.6114C42.9165 35.5396 42.1641 36.292 41.2359 36.292Z" stroke="white" stroke-miterlimit="10" stroke-linecap="round" stroke-linejoin="round"/>
<path d="M5.80566 19.4177H20.1236C19.9052 15.653 16.7833 12.6678 12.9647 12.6678C9.1459 12.6679 6.02414 15.653 5.80566 19.4177Z" stroke="white" stroke-miterlimit="10" stroke-linecap="round" stroke-linejoin="round"/>
<path d="M12.9644 19.4176L14.2299 16.0427" stroke="white" stroke-miterlimit="10" stroke-linecap="round" stroke-linejoin="round"/>
<path d="M5.79297 23.6362H19.2925" stroke="white" stroke-miterlimit="10" stroke-linecap="round" stroke-linejoin="round"/>
<path d="M19.2925 27.8545H5.79297" stroke="white" stroke-miterlimit="10" stroke-linecap="round" stroke-linejoin="round"/>
<path d="M12.5428 32.0734H5.79297" stroke="white" stroke-miterlimit="10" stroke-linecap="round" stroke-linejoin="round"/>
<path d="M35.3228 32.0731V26.1671" stroke="white" stroke-miterlimit="10" stroke-linecap="round" stroke-linejoin="round"/>
<path d="M35.3228 22.7922V21.1049" stroke="white" stroke-miterlimit="10" stroke-linecap="round" stroke-linejoin="round"/>
<path d="M36.5162 25.6729C37.1752 25.014 37.1752 23.9455 36.5162 23.2865C35.8572 22.6275 34.7887 22.6275 34.1297 23.2865C33.4707 23.9455 33.4707 25.014 34.1297 25.6729C34.7887 26.3319 35.8572 26.3319 36.5162 25.6729Z" stroke="white" stroke-miterlimit="10" stroke-linecap="round" stroke-linejoin="round"/>
<path d="M27.729 32.0733V30.3859" stroke="white" stroke-miterlimit="10" stroke-linecap="round" stroke-linejoin="round"/>
<path d="M27.729 27.0108V21.1049" stroke="white" stroke-miterlimit="10" stroke-linecap="round" stroke-linejoin="round"/>
<path d="M28.376 30.2575C29.2371 29.9008 29.646 28.9137 29.2893 28.0526C28.9326 27.1916 27.9455 26.7827 27.0844 27.1394C26.2234 27.496 25.8145 28.4832 26.1712 29.3442C26.5278 30.2053 27.515 30.6141 28.376 30.2575Z" stroke="white" stroke-miterlimit="10" stroke-linecap="round" stroke-linejoin="round"/>
<path d="M38.6978 12.6678H24.3545V16.8864H38.6978V12.6678Z" stroke="white" stroke-miterlimit="10" stroke-linecap="round" stroke-linejoin="round"/>
</g>
<defs>
<clipPath id="clip0_405_6155">
<rect width="43.0229" height="43.0229" fill="white" transform="translate(0.733887 0.859497)"/>
</clipPath>
</defs>
</svg>
