<svg width="44" height="44" viewBox="0 0 44 44" fill="none" xmlns="http://www.w3.org/2000/svg">
<g clip-path="url(#clip0_405_6177)">
<path d="M22.3799 15.8231V11.0813" stroke="white" stroke-width="0.860458" stroke-miterlimit="10" stroke-linecap="round" stroke-linejoin="round"/>
<path d="M27.356 18.21L29.3685 16.6067H31.4221" stroke="white" stroke-width="0.860458" stroke-miterlimit="10" stroke-linecap="round" stroke-linejoin="round"/>
<path d="M12.1611 16.6067H15.3912L17.4054 18.2108" stroke="white" stroke-width="0.860458" stroke-miterlimit="10" stroke-linecap="round" stroke-linejoin="round"/>
<path d="M22.3799 32.0777V28.5956" stroke="white" stroke-width="0.860458" stroke-miterlimit="10" stroke-linecap="round" stroke-linejoin="round"/>
<path d="M27.356 26.2091L29.3685 27.8124H32.0103" stroke="white" stroke-width="0.860458" stroke-miterlimit="10" stroke-linecap="round" stroke-linejoin="round"/>
<path d="M11.5728 27.8122H15.391L17.4052 26.2081" stroke="white" stroke-width="0.860458" stroke-miterlimit="10" stroke-linecap="round" stroke-linejoin="round"/>
<path d="M28.1922 19.7658C27.2377 17.4987 24.9954 15.9072 22.3813 15.9072C18.9007 15.9072 16.0791 18.7288 16.0791 22.2094C16.0791 25.69 18.9007 28.5116 22.3813 28.5116C25.7046 28.5116 28.4273 25.9391 28.6664 22.6768" stroke="white" stroke-width="0.860458" stroke-miterlimit="10" stroke-linecap="round" stroke-linejoin="round"/>
<path d="M18.7549 20.7958H18.7559C19.7771 20.0582 21.0301 19.6239 22.3817 19.6239C23.7333 19.6239 24.9861 20.0582 26.0074 20.7958H26.0084" stroke="white" stroke-width="0.860458" stroke-miterlimit="10" stroke-linecap="round" stroke-linejoin="round"/>
<path d="M20.1504 22.7312C20.7789 22.2762 21.5498 22.0092 22.382 22.0092C23.2141 22.0092 23.985 22.2761 24.6135 22.7312" stroke="white" stroke-width="0.860458" stroke-miterlimit="10" stroke-linecap="round" stroke-linejoin="round"/>
<path d="M21.543 24.6658C21.7788 24.4965 22.0697 24.3956 22.3813 24.3956C22.693 24.3956 22.9839 24.4964 23.2197 24.6658" stroke="white" stroke-width="0.860458" stroke-miterlimit="10" stroke-linecap="round" stroke-linejoin="round"/>
<path d="M33.8711 13.3174C34.8583 13.3174 35.7091 13.9014 36.0968 14.7429" stroke="white" stroke-width="0.860458" stroke-miterlimit="10" stroke-linecap="round" stroke-linejoin="round"/>
<path d="M39.1776 18.2159C40.831 18.2159 42.1712 16.8756 42.1712 15.2222C42.1712 13.5778 40.8452 12.2437 39.2042 12.2293C38.7601 11.2275 37.7586 10.5277 36.5922 10.5277C35.0347 10.5277 33.7708 11.7744 33.7377 13.3239C32.4472 13.3934 31.4214 14.4588 31.4214 15.7666C31.4214 17.1193 32.518 18.2159 33.8707 18.2159H39.1776Z" stroke="white" stroke-width="0.860458" stroke-miterlimit="10" stroke-linecap="round" stroke-linejoin="round"/>
<path d="M18.5371 6.62732V5.42033C18.5371 5.16874 18.741 4.96472 18.9927 4.96472H25.7697C26.0212 4.96472 26.2253 5.16866 26.2253 5.42033V10.6016C26.2253 10.8532 26.0213 11.0573 25.7697 11.0573H18.9927C18.7411 11.0573 18.5371 10.8533 18.5371 10.6016V9.56834" stroke="white" stroke-width="0.860458" stroke-miterlimit="10" stroke-linecap="round" stroke-linejoin="round"/>
<path d="M25.0649 4.96482V4.02193C25.0649 2.53983 23.8634 1.33838 22.3813 1.33838C20.8992 1.33838 19.6978 2.53983 19.6978 4.02193V4.96482" stroke="white" stroke-width="0.860458" stroke-miterlimit="10" stroke-linecap="round" stroke-linejoin="round"/>
<path d="M22.3813 8.84595V7.17554" stroke="white" stroke-width="0.860458" stroke-miterlimit="10" stroke-linecap="round" stroke-linejoin="round"/>
<path d="M23.0645 7.17578H21.6978" stroke="white" stroke-width="0.860458" stroke-miterlimit="10" stroke-linecap="round" stroke-linejoin="round"/>
<path d="M32.5267 25.5706H41.0663C41.3021 25.5706 41.4934 25.7618 41.4934 25.9977V31.8502C41.4934 32.0861 41.3021 32.2773 41.0663 32.2773H32.5267C32.2909 32.2773 32.0996 32.0861 32.0996 31.8502V25.9977C32.0996 25.7618 32.2909 25.5706 32.5267 25.5706Z" stroke="white" stroke-width="0.860458" stroke-miterlimit="10" stroke-linecap="round" stroke-linejoin="round"/>
<path d="M37.7717 32.3025L38.3697 34.5235H35.2944L35.8924 32.3025" stroke="white" stroke-width="0.860458" stroke-miterlimit="10" stroke-linecap="round" stroke-linejoin="round"/>
<path d="M34.4048 34.5236H39.1885" stroke="white" stroke-width="0.860458" stroke-miterlimit="10" stroke-linecap="round" stroke-linejoin="round"/>
<path d="M24.6667 33.0956C23.9941 32.5889 23.1478 32.3003 22.2331 32.3351C20.2771 32.4095 18.6773 33.9931 18.5845 35.9483C18.5284 37.129 19.0113 38.1981 19.8083 38.9312C20.3132 39.3957 20.5876 40.0597 20.5876 40.7458V40.7892V41.2643C20.5876 42.237 21.3439 43.0654 22.316 43.1C23.3366 43.1363 24.1754 42.3197 24.1754 41.3072V40.7891V40.7458C24.1754 40.0414 24.4812 39.3793 24.993 38.8952C25.7256 38.2024 26.1828 37.2215 26.1828 36.1335C26.1828 35.9667 26.1721 35.8024 26.1512 35.6413" stroke="white" stroke-width="0.860458" stroke-miterlimit="10" stroke-linecap="round" stroke-linejoin="round"/>
<path d="M20.6729 40.7894H24.0898" stroke="white" stroke-width="0.860458" stroke-miterlimit="10" stroke-linecap="round" stroke-linejoin="round"/>
<path d="M11.8097 12.9485V18.5C11.8097 18.7515 11.6058 18.9556 11.3541 18.9556H4.57719C4.3256 18.9556 4.12158 18.7516 4.12158 18.5V12.9485" stroke="white" stroke-width="0.860458" stroke-miterlimit="10" stroke-linecap="round" stroke-linejoin="round"/>
<path d="M7.9662 15.6627C8.5559 15.6627 9.03395 15.1847 9.03395 14.595C9.03395 14.0053 8.5559 13.5272 7.9662 13.5272C7.37649 13.5272 6.89844 14.0053 6.89844 14.595C6.89844 15.1847 7.37649 15.6627 7.9662 15.6627Z" stroke="white" stroke-width="0.860458" stroke-miterlimit="10" stroke-linecap="round" stroke-linejoin="round"/>
<path d="M8.00879 15.729V16.7541" stroke="white" stroke-width="0.860458" stroke-miterlimit="10" stroke-linecap="round" stroke-linejoin="round"/>
<path d="M7.96582 9.78784L13.1373 13.9249" stroke="white" stroke-width="0.860458" stroke-miterlimit="10" stroke-linecap="round" stroke-linejoin="round"/>
<path d="M7.96584 9.78772L2.79443 13.9248" stroke="white" stroke-width="0.860458" stroke-miterlimit="10" stroke-linecap="round" stroke-linejoin="round"/>
<path d="M11.2402 33.0129V34.2239C11.2402 34.688 10.864 35.0641 10.3999 35.0641H5.53219C5.06809 35.0641 4.69189 34.688 4.69189 34.2239V25.8704C4.69189 25.4063 5.06809 25.0302 5.53219 25.0302H10.3999C10.864 25.0302 11.2402 25.4063 11.2402 25.8704V30.0719" stroke="white" stroke-width="0.860458" stroke-miterlimit="10" stroke-linecap="round" stroke-linejoin="round"/>
<path d="M8.05331 27.1309H7.88525" stroke="white" stroke-width="0.860458" stroke-miterlimit="10" stroke-linecap="round" stroke-linejoin="round"/>
</g>
<defs>
<clipPath id="clip0_405_6177">
<rect width="43.0229" height="43.0229" fill="white" transform="translate(0.97168 0.70874)"/>
</clipPath>
</defs>
</svg>
