<svg width="45" height="45" viewBox="0 0 45 45" fill="none" xmlns="http://www.w3.org/2000/svg">
<path d="M39.4419 23.7503L41.6969 21.4795" stroke="white" stroke-miterlimit="10" stroke-linecap="round" stroke-linejoin="round"/>
<path d="M39.8999 31.7512L42.1549 29.4805" stroke="white" stroke-miterlimit="10" stroke-linecap="round" stroke-linejoin="round"/>
<path d="M21.4194 5.60182L23.6744 3.33105" stroke="white" stroke-miterlimit="10" stroke-linecap="round" stroke-linejoin="round"/>
<path d="M13.4741 5.1399L15.7292 2.86914" stroke="white" stroke-miterlimit="10" stroke-linecap="round" stroke-linejoin="round"/>
<path d="M16.6344 32.9493L23.1702 27.6639C23.6058 27.3116 24.0222 26.9355 24.4175 26.5375L39.5312 11.3184C39.5312 11.3184 46.5208 4.67534 43.4427 1.57567C40.3645 -1.52399 33.7674 5.51454 33.7674 5.51454L18.6929 20.6944C18.324 21.0658 17.9742 21.4562 17.6451 21.8636L12.2534 28.5377" stroke="white" stroke-miterlimit="10" stroke-linecap="round" stroke-linejoin="round"/>
<path d="M8.0637 33.5566L6.65133 35.2525C5.90174 36.1873 5.97314 37.5408 6.81683 38.3904C7.65638 39.2359 8.99252 39.3117 9.92116 38.5667L11.6221 37.14" stroke="white" stroke-miterlimit="10" stroke-linecap="round" stroke-linejoin="round"/>
<path d="M38.7968 12.0576L40.3339 39.4974L35.7025 39.4234L26.98 23.962" stroke="white" stroke-miterlimit="10" stroke-linecap="round" stroke-linejoin="round"/>
<path d="M3.52703 24.0811L1.09033 26.5347L18.2231 43.7871L20.6597 41.3334L16.6342 32.9493L12.2531 28.5377L3.52703 24.0811Z" stroke="white" stroke-miterlimit="10" stroke-linecap="round" stroke-linejoin="round"/>
<path d="M33.0308 6.25098L5.78125 4.70312L5.85476 9.36692L21.209 18.1503" stroke="white" stroke-miterlimit="10" stroke-linecap="round" stroke-linejoin="round"/>
</svg>
