<svg width="170" height="18" viewBox="0 0 170 18" fill="none" xmlns="http://www.w3.org/2000/svg">
<path fill-rule="evenodd" clip-rule="evenodd" d="M169.514 4.46897H162.518V17.3617H157.367V4.46897H150.276V17.3617H145.114V11.3306H135.462V17.3617H130.308V11.3002H126.044V12.4955C126.044 17.2727 123.603 17.5 117.948 17.5H112.814C108.293 17.5 105.594 16.3543 105.594 11.4793V6.52072C105.594 1.64619 108.293 0.5 112.814 0.5H119.461C125.166 0.5 125.955 2.59072 125.955 5.82516V6.35781H121.022C121.022 4.70082 120.093 4.49579 118.489 4.49579H113.942C111.409 4.49579 110.755 5.11946 110.755 7.96635V10.0332C110.755 12.8828 111.409 13.5038 113.942 13.5038H118.399C119.709 13.5038 121.022 13.2962 121.022 11.685V11.3002H114.452V7.55898H130.308V0.726895H135.462V7.58669H145.114V0.726895H169.514V4.46897Z" fill="#006CB7"/>
<mask id="mask0_785_7637" style="mask-type:luminance" maskUnits="userSpaceOnUse" x="0" y="0" width="170" height="18">
<path d="M0.874023 17.5H169.514V0.5H0.874023V17.5Z" fill="white"/>
</mask>
<g mask="url(#mask0_785_7637)">
<path fill-rule="evenodd" clip-rule="evenodd" d="M96.7539 16.82H102.194V0.5H96.7539V16.82Z" fill="#006CB7"/>
</g>
<mask id="mask1_785_7637" style="mask-type:luminance" maskUnits="userSpaceOnUse" x="0" y="0" width="170" height="18">
<path d="M0.874023 17.5H169.514V0.5H0.874023V17.5Z" fill="white"/>
</mask>
<g mask="url(#mask1_785_7637)">
<path fill-rule="evenodd" clip-rule="evenodd" d="M95.3941 16.82H80.4341V0.5H85.6891V13.1487H95.3941V16.82Z" fill="#006CB7"/>
</g>
<mask id="mask2_785_7637" style="mask-type:luminance" maskUnits="userSpaceOnUse" x="0" y="0" width="170" height="18">
<path d="M0.874023 17.5H169.514V0.5H0.874023V17.5Z" fill="white"/>
</mask>
<g mask="url(#mask2_785_7637)">
<path fill-rule="evenodd" clip-rule="evenodd" d="M77.0341 6.25125C77.0341 8.4926 76.5349 9.13769 74.1995 9.69538V9.74459C75.7098 10.0207 76.9665 10.6916 76.9665 13.437V16.82H71.8906V14.0713C71.8906 12.3137 71.3872 11.7361 69.8038 11.7361H65.1838V8.06314H70.219C71.59 8.06314 72.0895 7.5092 72.0895 6.30642V5.95641C72.0895 4.47666 71.3583 4.20388 69.7585 4.20388H63.0725V16.82H57.9941V0.526704H72.0656C72.3234 0.505959 72.5699 0.5 72.8038 0.5C76.1176 0.5 77.0341 2.38648 77.0341 5.18553V6.25125Z" fill="#006CB7"/>
</g>
<mask id="mask3_785_7637" style="mask-type:luminance" maskUnits="userSpaceOnUse" x="0" y="0" width="170" height="18">
<path d="M0.874023 17.5H169.514V0.5H0.874023V17.5Z" fill="white"/>
</mask>
<g mask="url(#mask3_785_7637)">
<path fill-rule="evenodd" clip-rule="evenodd" d="M54.594 16.82H37.9354V3.99724L30.5159 16.82H24.3095L16.9574 4.17132H5.72038V6.82604H15.8469V10.4912H5.72038V13.1487H17.534V16.82H0.874023V0.5H20.3798L27.4185 12.6339L34.4252 0.5H54.5899V4.17132H42.7817V6.82604H52.996V10.4912H42.7817V13.1487H54.594V16.82Z" fill="#006CB7"/>
</g>
</svg>
