<svg width="133" height="20" viewBox="0 0 133 20" fill="none" xmlns="http://www.w3.org/2000/svg">
<g clip-path="url(#clip0_405_5832)">
<path fill-rule="evenodd" clip-rule="evenodd" d="M119.933 11.767L121.861 5.09803H121.89L123.82 11.767H119.933ZM126.081 19.63H131.751L125.905 0.327026H117.85L112.002 19.63H117.668L118.705 16.058H125.051L126.081 19.63Z" fill="#E61E1E"/>
<path fill-rule="evenodd" clip-rule="evenodd" d="M25.1418 9.97898C25.1418 8.91598 25.1668 8.29098 25.1908 7.82498C25.3388 4.84598 26.5158 4.49798 28.8018 4.49798C31.0878 4.49798 32.2658 4.84598 32.4148 7.82498C32.4378 8.29098 32.4638 8.91598 32.4638 9.97898C32.4638 11.041 32.4378 11.666 32.4148 12.132C32.2668 15.112 31.0878 15.459 28.8018 15.459C26.5158 15.459 25.3398 15.112 25.1908 12.132C25.1668 11.666 25.1418 11.041 25.1418 9.97898ZM28.8008 19.98C34.6228 19.98 37.4348 18.954 37.8338 13.702C37.9288 12.45 37.9488 11.166 37.9488 9.97898C37.9488 8.79098 37.9278 7.50598 37.8338 6.25598C37.4348 1.00498 34.6228 -0.0200195 28.8008 -0.0200195C22.9798 -0.0200195 20.1688 1.00498 19.7688 6.25598C19.6738 7.50598 19.6558 8.79098 19.6558 9.97898C19.6558 11.166 19.6748 12.45 19.7688 13.702C20.1688 18.954 22.9798 19.98 28.8008 19.98Z" fill="#E61E1E"/>
<path fill-rule="evenodd" clip-rule="evenodd" d="M0.5 0.327026V5.14003H6.27V19.63H12.043V5.14003H17.813V0.327026H0.5Z" fill="#E61E1E"/>
<path d="M89.0761 0.328979H83.6011V19.63H89.0761V0.328979Z" fill="#E61E1E"/>
<path fill-rule="evenodd" clip-rule="evenodd" d="M67.032 7.37498V0.328979H61.583V19.63H67.032V12.188H73.358V19.63H78.808V0.328979H73.358V7.37498H67.032Z" fill="#E61E1E"/>
<path fill-rule="evenodd" clip-rule="evenodd" d="M99.3762 4.742H103.151C104.139 4.742 104.751 5.211 104.751 6.334C104.751 7.298 104.147 7.895 103.151 7.895H99.3762V4.742ZM99.3762 11.702H103.151C104.678 11.702 104.999 12.37 104.999 13.458C104.999 14.548 104.399 15.216 103.151 15.216H99.3762V11.702ZM107.095 9.543C109.523 8.922 110.228 7.471 110.228 5.379C110.228 1.135 107.56 0.328003 103.765 0.328003H93.9312V19.63H104.253C109.009 19.63 110.605 17.584 110.605 14.44C110.604 12.24 110.099 10.304 107.095 9.543Z" fill="#E61E1E"/>
<path fill-rule="evenodd" clip-rule="evenodd" d="M41.123 13.2969H46.314C46.32 14.2349 46.439 14.8629 46.892 15.2049C47.412 15.5949 47.872 15.7239 49.408 15.7239C50.883 15.7239 52.5 15.7239 52.5 13.9059C52.5 12.4699 51.598 12.1439 49.93 12.0529C45.793 11.8319 44.297 11.7159 42.755 10.5729C41.706 9.79394 41.16 8.27394 41.16 6.21694C41.16 2.72394 42.38 1.49694 44.138 0.643939C45.952 -0.239061 53.075 -0.239061 54.993 0.643939C57.401 1.75394 57.473 4.15994 57.473 6.38794H52.293C52.283 5.25294 52.025 4.93094 51.814 4.71794C51.277 4.24394 50.513 4.14194 49.408 4.14194C48.07 4.14194 46.519 4.20294 46.519 5.82694C46.519 7.06694 47.054 7.58394 48.464 7.67494C50.396 7.80094 54.208 7.92294 55.564 8.72494C57.474 9.85394 57.962 11.3759 57.962 13.8649C57.962 17.4589 56.677 18.5139 54.89 19.3049C52.824 20.2159 45.925 20.2159 43.683 19.2339C41.171 18.1359 41.123 15.9559 41.123 13.2969Z" fill="#E61E1E"/>
</g>
<defs>
<clipPath id="clip0_405_5832">
<rect width="132" height="20" fill="white" transform="translate(0.5)"/>
</clipPath>
</defs>
</svg>
