<svg width="145" height="44" viewBox="0 0 145 44" fill="none" xmlns="http://www.w3.org/2000/svg">
<path d="M22.5286 42.138C11.5796 42.138 2.70459 33.261 2.70459 22.31C2.70459 11.361 11.5796 2.48596 22.5286 2.48596C33.4776 2.48596 42.3536 11.361 42.3536 22.31C42.3546 33.261 33.4776 42.138 22.5286 42.138Z" fill="#00B2A9"/>
<path d="M19.3427 21.331L21.5297 17.371L19.5427 13.844C19.2097 13.245 18.5227 12.862 17.8137 12.862H12.2557C11.1307 12.862 10.2217 13.774 10.2217 14.896V32.014H14.4037V16.654H16.7357L19.3427 21.331ZM32.8047 12.861H27.2457C26.5377 12.861 25.8497 13.245 25.5187 13.843L15.4317 32.013H19.8407L22.5297 27.147L25.2197 32.013H29.6287L24.7207 23.145L28.3247 16.653H30.6577V32.013H34.8387V14.895C34.8377 13.773 33.9297 12.861 32.8047 12.861Z" fill="white"/>
<path d="M52.2676 25.859H54.1016V35.706H52.2676V25.859ZM53.1936 23.876C52.5536 23.876 52.0166 23.358 52.0166 22.72C52.0166 22.079 52.5536 21.542 53.1936 21.542C53.8356 21.542 54.3506 22.079 54.3506 22.72C54.3516 23.359 53.8356 23.876 53.1936 23.876Z" fill="#6C6F70"/>
<path d="M63.1227 35.706V28.997C63.1227 27.987 62.6887 27.305 61.6157 27.305C60.6457 27.305 59.6557 27.944 58.7667 28.895V35.707H56.9287V25.859H58.3957L58.6227 27.285C59.5517 26.438 60.7067 25.653 62.1107 25.653C63.9687 25.653 64.9607 26.768 64.9607 28.544V35.707L63.1227 35.706Z" fill="#6C6F70"/>
<path d="M71.1288 35.871C69.3968 35.871 68.2618 35.252 68.2618 33.271V27.408H66.5908V25.859H68.2618V22.771H70.0578V25.859H72.4578L72.4568 27.408H70.0578V32.939C70.0578 33.744 70.3868 34.24 71.4198 34.24C71.7498 34.24 72.2228 34.219 72.4488 34.178L72.6968 35.746C72.3868 35.809 71.7698 35.871 71.1288 35.871Z" fill="#6C6F70"/>
<path d="M114.62 35.871C112.888 35.871 111.753 35.252 111.753 33.271V27.408H110.083V25.859H111.753V22.771H113.55V25.859H115.95L115.948 27.408H113.55V32.939C113.55 33.744 113.879 34.24 114.91 34.24C115.241 34.24 115.714 34.219 115.94 34.178L116.188 35.746C115.879 35.809 115.261 35.871 114.62 35.871Z" fill="#6C6F70"/>
<path d="M78.0274 27.097C76.8914 27.097 75.9234 27.903 75.6324 29.595H80.3794C80.1524 28.007 79.4524 27.097 78.0274 27.097ZM82.2374 30.978H75.5494C75.6114 33.271 76.7054 34.343 78.4184 34.343C79.8424 34.343 80.8744 33.786 81.9474 32.939L82.2154 34.591C81.1644 35.417 79.9044 35.911 78.2744 35.911C75.7144 35.911 73.7124 34.364 73.7124 30.751C73.7124 27.593 75.5704 25.651 78.0484 25.651C80.9174 25.651 82.2374 27.862 82.2374 30.586V30.978Z" fill="#6C6F70"/>
<path d="M87.7998 26.995C86.5628 26.995 85.7988 27.943 85.7988 29.142C85.7988 30.278 86.5838 31.164 87.7998 31.164C89.0598 31.164 89.8438 30.235 89.8438 29.058C89.8438 27.883 89.0178 26.995 87.7998 26.995ZM85.1168 36.779C85.1168 37.563 86.1288 38.142 88.0468 38.142C89.9678 38.142 91.0408 37.48 91.0408 36.654C91.0408 36.056 90.5868 35.644 89.1828 35.396L88.0078 35.19C87.4698 35.087 87.1798 35.024 86.7888 34.943C85.6328 35.519 85.1168 36.097 85.1168 36.779ZM92.8378 25.714L93.1038 27.366L91.2268 27.553C91.4948 28.007 91.6188 28.523 91.6188 29.078C91.6188 31.184 89.8448 32.464 87.8418 32.464C87.5948 32.464 87.3468 32.444 87.0998 32.402C86.8098 32.589 86.6038 32.816 86.6038 33.002C86.6038 33.353 86.9548 33.436 88.6888 33.744L89.3918 33.869C91.4748 34.24 92.7768 34.901 92.7768 36.428C92.7768 38.492 90.5268 39.463 87.9658 39.463C85.4068 39.463 83.3628 38.657 83.3628 36.924C83.3628 35.912 84.0648 35.129 85.4478 34.385C85.0148 34.076 84.8288 33.725 84.8288 33.353C84.8288 32.878 85.1998 32.403 85.8618 32.012C84.7658 31.475 84.0238 30.422 84.0238 29.079C84.0238 26.953 85.7988 25.652 87.7998 25.652C88.7898 25.652 89.6578 25.941 90.3398 26.478L92.8378 25.714Z" fill="#6C6F70"/>
<path d="M96.3986 29.884V35.705H94.5605V25.857H96.0266L96.3355 27.862C97.0385 26.747 98.1735 25.734 99.7825 25.651L100.072 27.407C98.4405 27.49 97.0586 28.585 96.3986 29.884Z" fill="#6C6F70"/>
<path d="M106.617 30.71C102.986 31.06 102.222 32.052 102.222 33.064C102.222 33.869 102.757 34.384 103.686 34.384C104.759 34.384 105.791 33.849 106.617 33.001V30.71ZM106.969 35.706L106.764 34.385C105.979 35.191 104.906 35.912 103.295 35.912C101.52 35.912 100.404 34.839 100.404 33.167C100.404 30.711 102.51 29.741 106.617 29.309V28.895C106.617 27.657 105.875 27.223 104.739 27.223C103.543 27.223 102.408 27.595 101.334 28.069L101.086 26.479C102.264 26.004 103.378 25.653 104.905 25.653C107.299 25.653 108.455 26.623 108.455 28.813V35.707L106.969 35.706Z" fill="#6C6F70"/>
<path d="M121.52 27.097C120.385 27.097 119.416 27.903 119.126 29.595H123.874C123.647 28.007 122.945 27.097 121.52 27.097ZM125.733 30.978H119.045C119.107 33.271 120.2 34.343 121.914 34.343C123.339 34.343 124.37 33.786 125.444 32.939L125.711 34.591C124.659 35.417 123.399 35.911 121.769 35.911C119.21 35.911 117.208 34.364 117.208 30.751C117.208 27.593 119.065 25.651 121.544 25.651C124.412 25.651 125.733 27.862 125.733 30.586V30.978Z" fill="#6C6F70"/>
<path d="M134.237 27.842C133.474 27.448 132.875 27.283 131.822 27.283C130.275 27.283 129.16 28.542 129.16 30.979C129.16 33.145 130.131 34.281 131.45 34.281C132.586 34.281 133.452 33.598 134.237 32.548V27.842ZM134.607 35.706L134.38 34.282C133.638 35.169 132.626 35.912 131.181 35.912C129.056 35.912 127.301 34.365 127.301 31.06C127.301 27.47 129.364 25.735 131.759 25.735C132.73 25.735 133.616 25.921 134.237 26.169V21.215H136.074V35.706H134.607Z" fill="#6C6F70"/>
<path d="M64.4035 18.9239V12.2159C64.4035 11.2039 64.0325 10.5239 62.9605 10.5239C61.9885 10.5239 61.0605 11.1639 60.1735 12.1139V18.9249H58.3365V12.2169C58.3365 11.2049 57.9635 10.5249 56.8905 10.5249C55.9225 10.5249 54.9925 11.1649 54.1055 12.1149V18.9259H52.2695V9.07792H53.7345L53.9615 10.5039C54.8895 9.65692 56.0045 8.87292 57.3875 8.87292C58.8325 8.87292 59.6165 9.49192 59.9875 10.5039C60.8765 9.65692 62.0735 8.87292 63.4565 8.87292C65.3355 8.87292 66.2435 9.98692 66.2435 11.7629V18.9239H64.4035Z" fill="#6C6F70"/>
<path d="M74.5895 13.9289C70.9575 14.2809 70.1945 15.2709 70.1945 16.2829C70.1945 17.0899 70.7305 17.6039 71.6575 17.6039C72.7315 17.6039 73.7635 17.0679 74.5895 16.2199V13.9289ZM74.9405 18.9249L74.7345 17.6039C73.9505 18.4089 72.8765 19.1309 71.2665 19.1309C69.4915 19.1309 68.3755 18.0579 68.3755 16.3859C68.3755 13.9289 70.4805 12.9599 74.5885 12.5269V12.1139C74.5885 10.8759 73.8465 10.4409 72.7095 10.4409C71.5145 10.4409 70.3795 10.8139 69.3055 11.2879L69.0575 9.6989C70.2335 9.2239 71.3505 8.8739 72.8755 8.8739C75.2705 8.8739 76.4265 9.8439 76.4265 12.0309V18.9259H74.9405V18.9249Z" fill="#6C6F70"/>
<path d="M88.3828 9.07799H90.2198V18.924H88.3828V9.07799ZM89.3118 7.09699C88.6708 7.09699 88.1348 6.58199 88.1348 5.94199C88.1348 5.30199 88.6708 4.76599 89.3118 4.76599C89.9518 4.76599 90.4668 5.30299 90.4668 5.94199C90.4668 6.58199 89.9508 7.09699 89.3118 7.09699Z" fill="#6C6F70"/>
<path d="M105.183 18.9239V12.2159C105.183 11.2039 104.812 10.5239 103.74 10.5239C102.768 10.5239 101.839 11.1639 100.953 12.1139V18.9249H99.1154V12.2169C99.1154 11.2049 98.7444 10.5249 97.6714 10.5249C96.7014 10.5249 95.7724 11.1649 94.8854 12.1149V18.9259H93.0464V9.07792H94.5134L94.7404 10.5039C95.6684 9.65692 96.7834 8.87292 98.1664 8.87292C99.6114 8.87292 100.395 9.49192 100.767 10.5039C101.655 9.65692 102.852 8.87292 104.235 8.87292C106.114 8.87292 107.021 9.98692 107.021 11.7629V18.9239H105.183Z" fill="#6C6F70"/>
<path d="M83.3068 13.828L86.5818 9.078H84.5638L82.3108 12.443L80.0428 9.078H77.9488L81.3128 13.889L77.8198 18.925H79.8588L82.2878 15.25L84.7918 18.925H86.8948L83.3068 13.828Z" fill="#6C6F70"/>
<path d="M141.82 35.051L142.513 33.239H143.184V35.703H142.747V33.7H142.735L141.962 35.703H141.663L140.891 33.7H140.88V35.703H140.442V33.24H141.114L141.82 35.051ZM140.184 33.597H139.424V35.703H138.986V33.597H138.227V33.24H140.183L140.184 33.597Z" fill="#6C6F70"/>
</svg>
