<svg width="157" height="38" viewBox="0 0 157 38" fill="none" xmlns="http://www.w3.org/2000/svg">
<g clip-path="url(#clip0_405_5816)">
<path d="M15.7234 27.7975H18.8799V12.891C18.8821 12.0792 18.7238 11.275 18.4141 10.5247C18.1045 9.77431 17.6496 9.09254 17.0756 8.51855C16.5016 7.94456 15.8198 7.48966 15.0694 7.18C14.3191 6.87035 13.5149 6.71204 12.7032 6.71417H3.70638C2.16151 6.71417 0.953125 7.92323 0.953125 9.46608V27.7975H4.10827C4.378 27.7975 4.6457 27.5945 4.6457 27.258V10.137H12.7032C13.0297 10.1364 13.3531 10.2003 13.6549 10.325C13.9566 10.4497 14.2308 10.6328 14.4616 10.8637C14.6924 11.0947 14.8754 11.3689 14.9999 11.6708C15.1245 11.9726 15.1882 12.2961 15.1874 12.6226V27.258C15.1874 27.5945 15.4551 27.7975 15.7234 27.7975ZM80.8507 6.71417H70.4419C69.7041 6.71417 69.1 7.31837 69.1 7.98931V37.9993H72.2551C72.5248 37.9993 72.7925 37.799 72.7925 37.4625V27.7307H80.8507C81.6625 27.7324 82.4666 27.5737 83.2169 27.2637C83.9672 26.9537 84.6489 26.4986 85.2228 25.9244C85.7967 25.3502 86.2515 24.6682 86.5611 23.9178C86.8706 23.1673 87.0289 22.3631 87.0268 21.5512V12.891C86.9573 9.46608 84.2742 6.71417 80.8507 6.71417ZM83.3349 21.8871C83.3354 22.2134 83.2715 22.5367 83.1469 22.8384C83.0222 23.14 82.8392 23.4141 82.6084 23.6448C82.3777 23.8756 82.1036 24.0586 81.802 24.1832C81.5003 24.3079 81.177 24.3718 80.8507 24.3713H72.7925V10.2051H80.8507C81.1771 10.2044 81.5005 10.2682 81.8022 10.3928C82.1039 10.5174 82.378 10.7003 82.6088 10.9311C82.8397 11.162 83.0226 11.4361 83.1472 11.7378C83.2718 12.0395 83.3356 12.3629 83.3349 12.6893V21.8871ZM121.269 10.2051C120.942 10.2044 120.619 10.2682 120.317 10.3927C120.015 10.5173 119.741 10.7002 119.51 10.931C119.279 11.1618 119.095 11.4359 118.971 11.7376C118.846 12.0394 118.782 12.3628 118.782 12.6893V27.3248C118.782 27.5945 118.582 27.8642 118.248 27.8642H115.092V12.891C115.09 12.0792 115.248 11.275 115.557 10.5245C115.867 9.77407 116.322 9.09223 116.896 8.51819C117.47 7.94415 118.151 7.48925 118.902 7.17965C119.652 6.87005 120.456 6.71186 121.268 6.71417H125.497V9.6677C125.498 9.73839 125.484 9.80853 125.458 9.87401C125.431 9.93949 125.392 9.999 125.342 10.049C125.292 10.0991 125.232 10.1387 125.167 10.1655C125.101 10.1923 125.031 10.2058 124.961 10.2051H121.269ZM134.158 7.25026C134.159 7.17956 134.146 7.10936 134.119 7.04382C134.093 6.97829 134.053 6.91876 134.003 6.86876C133.953 6.81876 133.894 6.77931 133.828 6.75276C133.763 6.7262 133.692 6.71308 133.622 6.71417H130.469V27.258C130.469 27.5271 130.668 27.7975 131.001 27.7975H134.158V7.25026ZM149.871 6.71417H141.007V9.73446C141.007 10.0042 141.21 10.2058 141.476 10.2058H149.87C150.196 10.2051 150.52 10.2689 150.822 10.3935C151.123 10.518 151.397 10.701 151.628 10.9318C151.859 11.1626 152.042 11.4368 152.167 11.7385C152.291 12.0402 152.355 12.3636 152.354 12.69V14.2335H144.833C144.021 14.2317 143.217 14.3903 142.467 14.7002C141.717 15.0102 141.035 15.4654 140.461 16.0396C139.888 16.6139 139.433 17.2959 139.124 18.0465C138.815 18.797 138.657 19.6013 138.659 20.413V21.7515C138.657 22.5633 138.815 23.3675 139.124 24.1181C139.433 24.8686 139.888 25.5506 140.461 26.1249C141.035 26.6991 141.717 27.1543 142.467 27.4643C143.217 27.7743 144.021 27.9329 144.833 27.931H154.702C155.441 27.931 156.047 27.3255 156.047 26.6525V13.0251C156.047 9.46608 153.294 6.71417 149.871 6.71417ZM144.833 24.3713C144.506 24.3719 144.183 24.308 143.882 24.1834C143.58 24.0588 143.306 23.8758 143.075 23.645C142.844 23.4142 142.661 23.1401 142.537 22.8385C142.412 22.5368 142.348 22.2135 142.349 21.8871V20.1392C142.348 19.813 142.413 19.4899 142.537 19.1884C142.662 18.887 142.845 18.6131 143.076 18.3825C143.307 18.1519 143.581 17.969 143.882 17.8444C144.184 17.7198 144.507 17.6559 144.833 17.6564H152.354V24.3706L144.833 24.3713Z" fill="#00717D"/>
<path d="M132.347 3.62515C133.348 3.62515 134.16 2.81363 134.16 1.81257C134.16 0.811517 133.348 0 132.347 0C131.346 0 130.535 0.811517 130.535 1.81257C130.535 2.81363 131.346 3.62515 132.347 3.62515Z" fill="#F05128"/>
<path d="M38.2167 15.3745H27.675V12.6219C27.6741 12.2954 27.7378 11.9719 27.8623 11.67C27.9868 11.3681 28.1697 11.0938 28.4006 10.8629C28.6314 10.6319 28.9056 10.4488 29.2074 10.3242C29.5092 10.1995 29.8327 10.1357 30.1592 10.1364H35.7311C36.0577 10.1357 36.3813 10.1995 36.6832 10.3241C36.985 10.4488 37.2593 10.6318 37.4903 10.8628C37.7212 11.0937 37.9043 11.368 38.0289 11.6699C38.1536 11.9718 38.2174 12.2953 38.2167 12.6219V15.3745ZM30.1592 27.7975H41.0347V24.8406C41.0361 24.7786 41.0249 24.717 41.0018 24.6594C40.9787 24.6018 40.9441 24.5495 40.9003 24.5057C40.8564 24.4618 40.8041 24.4273 40.7466 24.4042C40.689 24.3811 40.6274 24.3699 40.5653 24.3713H30.1592C29.8328 24.372 29.5094 24.3082 29.2077 24.1836C28.906 24.0591 28.6319 23.8761 28.401 23.6453C28.1702 23.4145 27.9873 23.1403 27.8627 22.8386C27.7381 22.5369 27.6743 22.2135 27.675 21.8871V18.8668H40.8337C41.8412 18.8668 41.9093 18.2613 41.9093 17.5896V12.8903C41.9114 12.0784 41.753 11.2742 41.4433 10.5237C41.1336 9.77326 40.6785 9.09143 40.1044 8.51742C39.5303 7.94341 38.8483 7.48854 38.0978 7.17897C37.3473 6.86939 36.543 6.71121 35.7311 6.71353H30.1592C29.3474 6.71121 28.5432 6.8694 27.7927 7.17899C27.0423 7.48858 26.3605 7.94347 25.7864 8.5175C25.2124 9.09153 24.7575 9.77337 24.4479 10.5238C24.1383 11.2743 23.9801 12.0785 23.9824 12.8903V21.6835C23.9824 25.0436 26.7343 27.7975 30.1592 27.7975ZM106.362 15.3745H95.8205V12.6219C95.8198 12.2954 95.8836 11.972 96.0082 11.6702C96.1327 11.3684 96.3157 11.0942 96.5465 10.8633C96.7773 10.6323 97.0514 10.4493 97.3531 10.3245C97.6549 10.1998 97.9782 10.1358 98.3047 10.1364H103.879C104.205 10.1356 104.529 10.1993 104.831 10.324C105.132 10.4486 105.407 10.6317 105.638 10.8627C105.868 11.0937 106.051 11.368 106.176 11.6699C106.3 11.9718 106.364 12.2954 106.363 12.6219V15.3745H106.362ZM98.238 27.7975H109.115V24.8406C109.117 24.7787 109.105 24.7171 109.082 24.6596C109.059 24.6021 109.024 24.5499 108.981 24.5061C108.937 24.4623 108.885 24.4278 108.827 24.4046C108.77 24.3814 108.708 24.3701 108.646 24.3713H98.238C97.9116 24.3719 97.5883 24.3081 97.2866 24.1835C96.9849 24.0588 96.7108 23.8759 96.48 23.6451C96.2492 23.4143 96.0662 23.1402 95.9416 22.8385C95.817 22.5368 95.7532 22.2135 95.7538 21.8871V18.8668H108.912C109.921 18.8668 109.988 18.2613 109.988 17.5896V12.8903C109.99 12.0786 109.832 11.2744 109.522 10.5241C109.213 9.77372 108.758 9.09194 108.184 8.51794C107.61 7.94394 106.928 7.48903 106.178 7.17937C105.428 6.8697 104.624 6.71139 103.812 6.71353H98.238C97.4262 6.71139 96.6221 6.8697 95.8717 7.17936C95.1213 7.48901 94.4396 7.94391 93.8656 8.5179C93.2916 9.09189 92.8367 9.77366 92.527 10.524C92.2174 11.2744 92.0591 12.0786 92.0612 12.8903V21.6835C92.1313 25.0436 94.8819 27.7975 98.238 27.7975Z" fill="#00717D"/>
<path d="M54.5319 15.9787C54.2622 15.4413 50.4347 7.92262 50.2351 7.58613C50.0321 7.18356 49.8986 6.78032 49.0928 6.78032H46.2061C45.9363 6.78032 45.6019 6.98194 45.8028 7.38451C45.8028 7.45127 50.9054 17.3213 50.9054 17.3213C50.9054 17.3213 45.8696 27.1907 45.8028 27.2567C45.6012 27.66 45.9363 27.8623 46.2061 27.8623H49.0928C49.8986 27.8623 50.0321 27.3903 50.2351 27.0571C50.4347 26.7207 54.2622 19.1325 54.5319 18.6632C54.6654 18.4602 54.9331 17.8574 54.9331 17.3881C54.9331 16.7845 54.6647 16.1803 54.5319 15.9787ZM60.1038 17.2539C60.1038 17.2539 65.1383 7.38518 65.2064 7.31842C65.408 6.91586 65.0715 6.71423 64.8031 6.71423H61.9164C61.1106 6.71423 60.9757 7.18356 60.7741 7.52005C60.5725 7.85518 56.745 15.4413 56.4773 15.9126C56.3424 16.1803 56.008 16.7845 56.008 17.2545C56.008 17.7259 56.2757 18.3281 56.4112 18.531C56.6789 19.0678 60.5064 26.5858 60.708 26.925C60.9096 27.3248 61.0425 27.7308 61.8483 27.7308H64.7364C65.0041 27.7308 65.3406 27.5271 65.1376 27.1252C65.1383 27.1913 60.1038 17.2539 60.1038 17.2539Z" fill="#F05128"/>
</g>
<defs>
<clipPath id="clip0_405_5816">
<rect width="155.094" height="38" fill="white" transform="translate(0.953125)"/>
</clipPath>
</defs>
</svg>
