<svg width="116" height="49" viewBox="0 0 116 49" fill="none" xmlns="http://www.w3.org/2000/svg">
<g clip-path="url(#clip0_785_7579)">
<path fill-rule="evenodd" clip-rule="evenodd" d="M115.195 0.943604L113.614 8.81558H103.869L95.7803 48.9436H81.101L89.1968 8.81558H79.4175L81.0052 0.943604H115.195Z" fill="#12A033"/>
<path fill-rule="evenodd" clip-rule="evenodd" d="M72.3461 0.943604C76.2291 0.943604 78.7669 4.02305 78.0042 7.82988L75.9379 17.3266H61.5431L63.0339 10.0392C63.2211 9.13508 63.0062 8.55046 61.349 8.55046C59.0816 8.55046 58.5407 8.67282 57.9791 11.358C57.355 14.3219 58.6725 16.2865 59.6848 17.782C60.6972 19.2775 63.2974 21.5413 66.383 24.9402C68.6018 27.3868 72.8662 31.1331 71.9093 35.8372L70.9178 40.3511C69.9748 45.1028 65.2805 48.9436 60.4406 48.9436H42.3986C38.5156 48.9436 35.9847 45.8642 36.7475 42.0437L38.8068 32.5471H53.2016L51.7178 39.8412C51.5306 40.7453 51.7455 41.3367 53.4027 41.3367C55.6632 41.3367 56.2109 41.2144 56.7726 38.536C57.3897 35.5653 56.0792 33.5939 55.0669 32.1052C54.0476 30.6029 51.4474 28.346 48.3687 24.9402C46.1498 22.493 41.8786 18.7541 42.8354 14.05L43.827 9.52936C44.77 4.77762 49.4643 0.943604 54.3041 0.943604H72.3461Z" fill="#12A033"/>
<path fill-rule="evenodd" clip-rule="evenodd" d="M41.7231 0.943604L33.4887 41.8942C32.7158 45.8845 28.2498 48.9436 22.8537 48.9436H5.72825C2.67111 48.9436 0.195312 46.4828 0.195312 43.4305C0.195312 43.0702 0.222669 42.6963 0.30474 42.3496L2.26076 32.5199H16.9241L15.5015 39.6774C15.3716 40.2559 15.3442 41.6019 16.5479 41.6019C18.0594 41.6019 18.9416 41.2484 19.3246 39.3314L27.053 0.943604H41.7231Z" fill="#12A033"/>
</g>
<defs>
<clipPath id="clip0_785_7579">
<rect width="115" height="48" fill="white" transform="translate(0.195312 0.943604)"/>
</clipPath>
</defs>
</svg>
