<svg width="195" height="26" viewBox="0 0 195 26" fill="none" xmlns="http://www.w3.org/2000/svg">
<g clip-path="url(#clip0_405_5827)">
<path d="M38.8089 7.62913V17.025C38.8089 18.0201 38.3019 18.1757 37.8123 18.3319V18.6645H42.1498V18.3319C41.6623 18.1743 41.154 18.0229 41.154 17.025V7.62913C41.154 7.06316 41.3297 6.92496 42.0727 6.92496C44.104 6.92496 45.0998 6.96524 45.822 8.09302L46.0755 7.93816L45.2561 5.53052H34.6873L33.8672 7.93816L34.1214 8.09302C35.0005 6.97982 35.6839 6.92496 37.8908 6.92496C38.6325 6.92635 38.8089 7.06316 38.8089 7.62913ZM43.7505 8.97635C44.3943 9.15205 44.7276 9.3083 44.7276 10.284V17.0243C44.7276 18.0194 44.3964 18.175 43.7505 18.3312V18.6645H51.9346L52.8714 16.3145L52.6158 16.1395C51.7957 17.2201 50.9359 17.4673 49.804 17.4673H47.6936C47.0304 17.4673 46.8741 17.4527 46.8741 16.802V13.9909H49.4318C50.4276 13.9909 50.5832 14.2277 50.7415 14.8132H51.1304V12.002H50.7415C50.5832 12.5889 50.4276 12.8437 49.4318 12.8437H46.8748V10.4798C46.8748 9.99093 47.0311 9.83052 47.6943 9.83052C47.6943 9.83052 49.3359 9.83052 49.4915 9.83052C50.6429 9.83052 51.2498 10.127 52.1283 11.0597L52.3818 10.8861L51.5623 8.63954H43.7505V8.97635ZM54.2762 10.1298L56.7776 13.6618L54.4123 17.0215C53.6908 18.0354 53.2616 18.1708 52.5957 18.3284V18.6604H56.3859V18.3284C55.663 18.1916 55.3505 17.9166 55.8387 17.1583L57.4943 14.575L59.2373 17.0861C59.8818 18.0048 59.1971 18.2548 58.6102 18.3354V18.6687H65.4651V18.3354C64.7818 18.2187 64.4693 17.9833 64.82 17.0479L65.2665 15.8798H69.37L69.8005 17.0479C70.0748 17.8118 69.9762 18.2187 69.1748 18.3354V18.6687H73.3943V18.3354C72.9061 18.1784 72.4568 17.7736 72.2429 17.202L68.9811 8.64579H66.7547L63.6297 16.6187C63.297 17.4409 62.995 17.8368 62.6623 18.0611C62.4054 17.8986 62.1679 17.643 61.8519 17.2062L59.1054 13.3055L61.3255 10.1694C61.9116 9.32843 62.4012 9.15413 62.9866 8.97635V8.64302H59.4109V8.97635C60.1519 9.03468 60.3679 9.44649 59.938 10.0868L58.3894 12.3805L56.9901 10.2798C56.404 9.4208 56.8325 9.06871 57.4783 8.96732V8.63607H52.7332V8.96732C53.3964 9.15205 53.7297 9.34718 54.2762 10.1298ZM67.3609 10.3819L68.9658 14.7576H65.6943L67.3609 10.3819ZM74.3151 18.6645C74.3151 18.5055 74.4714 18.1736 74.6651 18.1736C75.1123 18.3902 75.8769 18.8375 77.2818 18.8375C79.6464 18.8375 81.3047 17.6673 81.3047 15.675C81.3047 13.8 80.2693 13.0368 78.2769 12.5889L76.4602 12.1777C75.4255 11.9437 75.0936 11.6444 75.0936 11.0069C75.0936 10.2645 75.6783 9.77635 76.9686 9.77635C78.4123 9.77635 79.5464 10.4611 80.3665 11.4055L80.6214 11.2298L79.8797 8.64927H79.4102C79.4102 8.86524 79.3137 9.09857 79.1172 9.09857C78.6859 8.86385 78.0227 8.49441 76.8908 8.49441C74.8596 8.49441 73.2783 9.54718 73.2783 11.4618C73.2783 12.9229 74.1575 13.8409 76.0714 14.2722L77.7901 14.6625C78.9415 14.9104 79.3519 15.325 79.3519 16.0493C79.3519 17.0444 78.5526 17.5722 77.2429 17.5722C75.4068 17.5722 74.2359 16.609 73.2783 15.502L73.0227 15.6777L73.8241 18.6666L74.3151 18.6645Z" fill="black"/>
<path d="M87.6318 5.87219C88.2381 6.04719 88.7249 6.20413 88.7249 7.18052V17.0284C88.7249 18.0236 88.2374 18.1805 87.6318 18.3354V18.6673H92.1638V18.3354C91.5582 18.1791 91.0693 18.0257 91.0693 17.0284V7.18052C91.0693 6.20136 91.5582 6.0458 92.1638 5.87219V5.53955H87.6318V5.87219ZM100.073 8.97775C100.658 9.15275 100.992 9.30969 100.992 10.2861V14.3889H100.933L95.8943 8.64441H92.9464V8.97775C93.5325 9.22636 93.9235 9.42497 93.9235 10.2854V17.025C93.9235 17.9618 93.5916 18.1777 92.9464 18.3319V18.6652H96.286V18.3319C95.7582 18.1757 95.2513 17.9625 95.2513 17.025V11.2048H95.3096L101.97 18.8027H102.32V10.2854C102.32 9.3083 102.81 9.15136 103.201 8.97775V8.64372H100.076L100.073 8.97775ZM108.804 12.5916L106.987 12.1819C105.952 11.9472 105.619 11.6479 105.619 11.0097C105.619 10.2708 106.206 9.77774 107.493 9.77774C108.939 9.77774 110.073 10.4632 110.893 11.4069L111.148 11.2312L110.407 8.65066H109.937C109.937 8.86663 109.839 9.10066 109.644 9.10066C109.214 8.86594 108.551 8.4965 107.419 8.4965C105.385 8.4965 103.799 9.54927 103.799 11.4639C103.799 12.9243 104.679 13.843 106.593 14.275L108.309 14.6652C109.462 14.9132 109.873 15.3284 109.873 16.0521C109.873 17.0472 109.076 17.5694 107.763 17.5694C105.931 17.5694 104.749 16.6125 103.798 15.5034L103.543 15.6777L104.344 18.6618H104.832C104.832 18.5034 104.989 18.175 105.183 18.175C105.63 18.3916 106.394 18.8389 107.8 18.8389C110.162 18.8389 111.822 17.6708 111.822 15.6784C111.831 13.8027 110.796 13.0396 108.804 12.5916ZM112.417 8.64511L111.615 11.2257L111.871 11.4007C112.944 9.97358 113.238 9.83747 114.663 9.83747C115.153 9.83747 115.308 9.87705 115.308 10.4819V17.0264C115.308 18.0208 115.015 18.1764 114.215 18.3333V18.6659H118.513V18.3333C117.73 18.1757 117.418 18.0291 117.418 17.0264V10.4819C117.418 9.87705 117.575 9.83747 118.064 9.83747C119.492 9.83747 119.867 9.96872 120.935 11.4007L121.19 11.2257L120.389 8.64511H112.417ZM129.818 15.6972C129.213 14.7208 128.59 14.2896 127.867 14.1139V14.0555C129.585 13.7812 130.564 12.884 130.564 11.4173C130.564 9.47149 129.002 8.64233 126.483 8.64233H121.346V8.97636C121.996 9.15066 122.326 9.3083 122.326 10.284V17.025C122.326 18.0201 121.994 18.175 121.346 18.3319V18.6645H125.544V18.3319C124.939 18.1743 124.528 18.0208 124.528 17.025V14.5236H125.564C126.775 14.5236 126.95 15.0111 127.732 16.6527C128.378 18.0007 129.237 18.8389 130.856 18.8389C131.679 18.8389 132.01 18.6798 132.341 18.5062V18.2319C131.03 18.0402 130.599 16.9673 129.818 15.6972ZM126.246 13.3541H124.526V10.6965C124.526 10.0514 124.685 9.87705 125.176 9.87705H126.287C127.498 9.87705 128.203 10.3465 128.203 11.5173C128.198 12.7486 127.397 13.3541 126.246 13.3541ZM138.705 8.97775C139.212 9.09719 139.701 9.30969 139.701 10.2861V15.2277C139.701 16.8694 139.077 17.593 137.222 17.593C135.25 17.593 134.545 16.8694 134.545 15.2277V10.2861C134.545 9.30969 134.915 9.09441 135.524 8.97775V8.64511H131.424V8.97775C132.028 9.07566 132.419 9.30969 132.419 10.2861V15.3854C132.419 18.059 134.742 18.843 136.932 18.843C139.373 18.843 141.11 18.0201 141.11 15.2243V10.2833C141.11 9.30622 141.407 9.11455 142.011 8.97427V8.64302H138.71L138.705 8.97775ZM149.097 15.1507L146.204 8.64511H142.612V8.97775C143.258 9.15275 143.589 9.30969 143.589 10.2861V17.0257C143.589 17.9027 143.218 18.1354 142.612 18.3326V18.6659H145.796V18.3326C145.133 18.159 144.84 17.9027 144.84 17.0257V10.7368L148.452 18.8229H148.727L152.242 10.7368V17.0257C152.242 18.0208 151.813 18.1937 151.326 18.3326V18.6659H155.426V18.3326C154.782 18.1757 154.449 18.0229 154.449 17.0257V10.2861C154.449 9.30969 154.782 9.15205 155.426 8.97775V8.64511H151.892L149.097 15.1507ZM162.262 17.4743H160.152C159.488 17.4743 159.332 17.4597 159.332 16.8118V14.0007H161.892C162.886 14.0007 163.044 14.2333 163.199 14.8201H163.589V12.0097H163.199C163.044 12.5951 162.888 12.85 161.892 12.85H159.332V10.4868C159.332 9.99858 159.488 9.84024 160.152 9.84024C160.152 9.84024 161.792 9.84024 161.949 9.84024C163.101 9.84024 163.705 10.1347 164.587 11.0666L164.839 10.8909L164.016 8.64441H156.203V8.97844C156.851 9.15274 157.181 9.31038 157.181 10.2861V17.0271C157.181 18.0222 156.85 18.1784 156.203 18.3333V18.6666H164.387L165.326 16.3166L165.07 16.1416C164.253 17.2215 163.393 17.4743 162.262 17.4743ZM172.691 8.97775C173.276 9.15275 173.61 9.30969 173.61 10.2861V14.3889H173.549L168.511 8.64441H165.56V8.97775C166.148 9.22636 166.539 9.42497 166.539 10.2854V17.025C166.539 17.9618 166.205 18.1777 165.56 18.3319V18.6652H168.901V18.3319C168.366 18.1757 167.866 17.9625 167.866 17.025V11.2048H167.924L174.583 18.8027H174.939V10.2854C174.939 9.3083 175.427 9.15136 175.817 8.97775V8.64372H172.693L172.691 8.97775ZM176.733 8.64511L175.933 11.2257L176.187 11.4007C177.262 9.97358 177.555 9.83747 178.98 9.83747C179.469 9.83747 179.626 9.87705 179.626 10.4819V17.0264C179.626 18.0208 179.333 18.1764 178.533 18.3333V18.6659H182.832V18.3333C182.048 18.1757 181.737 18.0291 181.737 17.0264V10.4819C181.737 9.87705 181.896 9.83747 182.387 9.83747C183.813 9.83747 184.187 9.96872 185.255 11.4007L185.51 11.2257L184.71 8.64511H176.733ZM191.03 12.5916L189.215 12.1819C188.181 11.9472 187.85 11.6479 187.85 11.0097C187.85 10.2708 188.434 9.77774 189.721 9.77774C191.166 9.77774 192.3 10.4632 193.122 11.4069L193.368 11.2312L192.633 8.65066H192.158C192.158 8.86663 192.056 9.10066 191.864 9.10066C191.434 8.86594 190.77 8.4965 189.633 8.4965C187.599 8.4965 186.013 9.54927 186.013 11.4639C186.013 12.9243 186.893 13.843 188.805 14.275L190.521 14.6652C191.665 14.9132 192.086 15.3284 192.086 16.0521C192.086 17.0472 191.289 17.5694 189.974 17.5694C188.142 17.5694 186.961 16.6125 186.009 15.5034L185.755 15.6777L186.548 18.6618H187.039C187.039 18.5034 187.197 18.175 187.392 18.175C187.84 18.3916 188.608 18.8389 190.005 18.8389C192.359 18.8389 194.027 17.6708 194.027 15.6784C194.058 13.8027 193.022 13.0396 191.03 12.5916Z" fill="black"/>
<path d="M24.3166 8.53823V5.55282H19.5222L18.9173 8.56601H20.6416L20.0895 11.3431H18.3645L17.7673 14.3486C17.7208 14.5528 17.6861 14.7 17.6652 14.8417C17.5236 15.7639 17.9249 15.7174 19.2159 15.7174L18.6256 18.6736H16.3687C14.2354 18.6736 12.4999 18.6556 12.9506 16.4674C13.0222 16.1334 13.1076 15.7959 13.168 15.4723L13.9743 11.3459H12.3152L12.8687 8.56879H14.527L15.1305 5.55559H13.5798V1.00073H7.83953V10.2521H0.972168C1.14231 12.6507 3.26453 13 4.03883 14.7042C4.57217 15.8785 5.03814 17.9486 6.59509 17.9625C7.78745 17.9771 7.78745 16.4195 9.32286 16.4195C10.8562 16.4195 11.5368 19.3327 12.9006 21.7313C13.9229 23.6146 15.6208 24.8785 17.1597 24.9868C18.4229 25.0743 19.034 24.6452 19.034 24.6452C18.693 23.9591 18.5222 23.275 18.5222 22.2459C18.5222 20.7035 19.7159 19.1625 21.0791 18.1355C22.9534 16.766 24.9986 16.2473 25.6798 16.0806V11.2806C25.6798 11.2806 24.3166 10.5514 24.3166 8.53823ZM16.4965 15.7098L18.5131 5.54865H16.1895L14.1756 15.7098H16.4965ZM19.1361 2.33615H16.8118L16.3673 4.57712H18.6902L19.1361 2.33615Z" fill="#CC0000"/>
</g>
<defs>
<clipPath id="clip0_405_5827">
<rect width="194.444" height="25" fill="white" transform="translate(0.277832 0.5)"/>
</clipPath>
</defs>
</svg>
