<svg width="112" height="80" viewBox="0 0 112 80" fill="none" xmlns="http://www.w3.org/2000/svg">
<mask id="mask0_1571_738" style="mask-type:luminance" maskUnits="userSpaceOnUse" x="1" y="1" width="110" height="77">
<path d="M1.06714 77.9399H110.933V1.29058H1.06714V77.9399Z" fill="white"/>
</mask>
<g mask="url(#mask0_1571_738)">
<path d="M109.185 1.2905L34.8125 1.29897V1.3046C28.9553 1.3046 23.6646 4.71557 21.3251 10.0055L2.52136 54.8869C2.42745 55.1042 2.37622 55.3327 2.37622 55.5669C2.37622 56.512 3.16172 57.2822 4.12653 57.2822L79.1053 57.2766L79.8937 57.223C85.3125 56.7321 90.0255 53.3747 92.1345 48.3838L110.799 3.66887C110.89 3.46291 110.933 3.24002 110.933 3.00868C110.933 2.06071 110.15 1.2905 109.185 1.2905Z" fill="white"/>
<path d="M37.5404 68.5581C36.6382 67.2716 35.1953 67.1277 34.6061 67.1277C32.0106 67.1277 30.4595 69.1618 30.4595 71.1283C30.4595 73.3882 32.2809 75.1543 34.6061 75.1543C35.1896 75.1543 36.6268 75.0132 37.5404 73.7352V74.985H38.6276V67.3364H37.5404V68.5581ZM34.6061 74.1753C32.8615 74.1753 31.5467 72.8831 31.5467 71.1706C31.5467 69.159 33.0864 68.1095 34.6061 68.1095C36.254 68.1095 37.5973 69.475 37.5973 71.1565C37.5973 72.8493 36.2825 74.1753 34.6061 74.1753Z" fill="#0F1F47"/>
<path d="M46.4295 71.3761C46.4295 72.7163 46.0623 73.1931 45.6525 73.5965C45.2512 73.9943 44.7389 74.189 44.0786 74.189C43.3472 74.189 42.7695 73.9548 42.3568 73.4921C41.9982 73.052 41.8246 72.4115 41.8246 71.5426V67.3332H40.7402V71.5567C40.7402 72.6373 40.9679 73.4667 41.4204 74.0169C41.7677 74.4485 42.5731 75.168 44.0786 75.168C45.587 75.168 46.2672 74.3103 46.4864 73.9266V74.9818H47.5166V67.3332H46.4295V71.3761Z" fill="#0F1F47"/>
<path d="M55.6763 68.585C54.7457 67.2731 53.3426 67.1263 52.7705 67.1263C50.8295 67.1263 48.7349 68.6752 48.7349 71.1806C48.7349 73.6351 50.8295 75.153 52.7705 75.153C53.7297 75.153 55.0502 74.7636 55.6763 73.6972V74.2022C55.6763 76.2364 54.222 76.9586 52.9783 76.9586C51.1312 76.9586 50.4055 75.6523 50.1778 75.0909L50.1636 75.0542H49.0223L49.0422 75.1276C49.8135 77.7373 52.2611 77.9404 52.9925 77.9404C53.2003 77.9404 55.0588 77.9009 56.0549 76.5241C56.7607 75.5846 56.7607 74.5577 56.7607 73.7339V67.3351H55.6763V68.585ZM52.7705 74.174C51.1426 74.174 49.822 72.8198 49.822 71.1524C49.822 69.4737 51.1426 68.1053 52.7705 68.1053C54.4013 68.1053 55.7333 69.4737 55.7333 71.1524C55.7333 72.3712 54.7912 74.174 52.7705 74.174Z" fill="#0F1F47"/>
<path d="M66.6275 67.1384C65.9473 67.1384 64.6665 67.4318 64.0689 68.5209C63.4684 67.4318 62.1877 67.1384 61.5075 67.1384C60.813 67.1384 59.9393 67.4347 59.4925 68.0695V67.3303H58.4053V74.9873H59.4925V70.5607C59.4925 69.7763 59.6291 69.3757 59.8311 69.0146C60.1755 68.439 60.7703 68.1202 61.5075 68.1202C62.2446 68.1202 62.8422 68.439 63.1838 69.0146C63.3887 69.3757 63.5253 69.7763 63.5253 70.5607V74.9873H64.6096V70.5607C64.6096 69.7792 64.7462 69.3757 64.9512 69.0146C65.2955 68.439 65.8903 68.1202 66.6275 68.1202C67.3646 68.1202 67.9594 68.439 68.3038 69.0146C68.5087 69.3757 68.6453 69.7792 68.6453 70.5607V74.9873H69.7296V70.4478C69.7296 67.8353 67.7801 67.1384 66.6275 67.1384Z" fill="#0F1F47"/>
<path d="M75.0116 67.1316C72.8031 67.1739 71.0044 68.9795 71.0044 71.1604C71.0044 73.3638 72.8088 75.1582 75.0258 75.1582C76.7306 75.1582 78.2589 74.0805 78.8225 72.4751L78.8481 72.399H77.7011L77.6869 72.4356C77.3966 73.2228 76.52 74.1482 75.0116 74.1764C73.5601 74.1764 72.2253 72.9632 72.1229 71.5582H79.0444L79.0473 71.5074C79.0985 70.6046 78.8993 69.7921 78.4582 69.0896C77.9146 68.1529 76.7249 67.1457 75.0116 67.1316ZM72.1314 70.5792C72.416 68.9598 73.7964 68.1134 75.0258 68.1134C76.2098 68.1134 77.6129 68.8864 77.9345 70.5792H72.1314Z" fill="#0F1F47"/>
<path d="M83.9029 67.1384C82.7645 67.1384 81.9676 67.6914 81.5948 68.2133V67.3303H80.5076V74.9873H81.5948V70.7807C81.5805 69.9118 81.8281 69.1923 82.2863 68.7522C82.8954 68.1654 83.6781 68.1202 83.9029 68.1202C84.1277 68.1202 84.9104 68.1654 85.5194 68.7522C85.9748 69.1867 86.2253 69.9089 86.2253 70.7807V74.9873H87.3124V70.7807C87.3124 69.6212 86.9795 68.6873 86.3505 68.0779C85.693 67.429 84.9388 67.1384 83.9029 67.1384Z" fill="#0F1F47"/>
<path d="M91.1942 64.6633H90.107V67.3322H88.5076V68.314H90.107V74.9893H91.1942V68.314H93.0157V67.3322H91.1942V64.6633Z" fill="#0F1F47"/>
<path d="M97.646 67.1296C95.4374 67.1691 93.6416 68.9776 93.6416 71.1556C93.6416 73.3619 95.4431 75.1562 97.6602 75.1562C99.365 75.1562 100.89 74.0785 101.457 72.4704L101.482 72.397H100.335L100.321 72.4337C100.028 73.218 99.1544 74.1462 97.646 74.1744C96.1945 74.1744 94.8569 72.9584 94.7572 71.5563H101.679L101.682 71.5055C101.733 70.6027 101.534 69.7901 101.09 69.0876C100.549 68.1509 99.3593 67.1437 97.646 67.1296ZM94.7629 70.5773C95.0504 68.9578 96.4307 68.1086 97.6602 68.1086C98.8442 68.1086 100.247 68.8817 100.569 70.5773H94.7629Z" fill="#0F1F47"/>
<path d="M109.84 64.6663V68.5428C108.864 67.2366 107.353 67.135 106.906 67.135C104.31 67.135 102.759 69.1692 102.759 71.1356C102.759 73.3927 104.581 75.1616 106.906 75.1616C107.839 75.1616 109.095 74.7807 109.84 73.7397V74.9839H110.927V64.6663H109.84ZM106.906 74.1826C105.161 74.1826 103.846 72.8905 103.846 71.1751C103.846 69.1663 105.386 68.114 106.906 68.114C108.554 68.114 109.897 69.4823 109.897 71.1638C109.897 72.8566 108.582 74.1826 106.906 74.1826Z" fill="#0F1F47"/>
<path d="M7.96324 64.4005H6.92725V65.9409H7.96324V64.4005Z" fill="#50ADE5"/>
<path d="M3.40438 64.6664H1.15032V65.6341H2.37412V74.019H1.06494V74.9839H4.61395V74.019H3.40438V64.6664Z" fill="#50ADE5"/>
<path d="M8.20854 67.3316H5.95449V68.2993H7.17828V74.0181H5.92603V74.9858H9.43234V74.0181H8.20854V67.3316Z" fill="#50ADE5"/>
<path d="M12.4631 65.1568C11.7886 65.7549 11.763 66.4461 11.7345 67.2812V67.3348H10.5107V68.3307H11.7488V74.0185H10.5107V74.9834H14.0313V74.0185H12.779V68.3307H14.0313V67.3348H12.779L12.7819 67.1712C12.7933 66.6182 12.8046 66.1414 13.2742 65.7944C13.5247 65.5913 13.8463 65.4784 14.259 65.4474L14.3102 65.4417V64.5192L14.2504 64.522C13.4393 64.5728 12.89 64.7703 12.4631 65.1568Z" fill="#50ADE5"/>
<path d="M19.3477 67.3306C17.2047 67.3306 15.4629 69.1024 15.4629 71.2804C15.4629 73.4133 17.2303 75.1484 19.4046 75.1484C20.9586 75.1484 22.3702 74.2456 23.002 72.8491L23.039 72.7701H21.9234L21.9063 72.7983C21.3883 73.6926 20.4662 74.2033 19.3762 74.2033C17.8735 74.2033 16.6298 73.0663 16.5159 71.6049H23.3179V71.2663C23.3179 69.0601 21.5733 67.3306 19.3477 67.3306ZM16.5216 70.7331C16.7208 69.3789 17.9674 68.287 19.3335 68.287C20.839 68.287 22.0828 69.3111 22.3161 70.7331H16.5216Z" fill="#50ADE5"/>
<path d="M26.842 75.1875C27.5792 75.1875 28.1797 74.595 28.1797 73.8643C28.1797 73.1308 27.5792 72.5383 26.842 72.5383C26.1021 72.5383 25.5044 73.1308 25.5044 73.8643C25.5044 74.595 26.1021 75.1875 26.842 75.1875Z" fill="#50ADE5"/>
</g>
<path d="M34.8128 2.25274L34.8186 2.25556C29.1749 2.25556 24.3308 5.60445 22.2219 10.3696L7.53925 45.4273C7.50225 45.5204 7.47949 45.6163 7.47949 45.7235C7.47949 46.141 7.82674 46.4824 8.25649 46.4824L41.8369 46.4796C44.2247 46.4796 45.2635 44.2028 43.4022 42.3831L31.0703 30.9455C24.5899 24.6455 27.3676 10.0396 40.8294 10.0396H106.567C106.909 10.0396 107.199 9.82514 107.304 9.52608L109.905 3.29381C109.942 3.20917 109.962 3.11043 109.962 3.00887C109.962 2.58567 109.615 2.2471 109.185 2.2471L34.8128 2.25274Z" fill="url(#paint0_linear_1571_738)"/>
<path d="M36.6001 3.25431L36.6029 3.25713H34.8783C29.7725 3.25713 25.2131 6.21386 23.2009 10.7957L8.74023 45.3257H41.8369C42.5 45.3257 43.0037 45.0746 43.1859 44.6514C43.3737 44.1972 43.1659 43.6047 42.6451 43.094L30.2905 31.6339C26.6276 28.0762 25.5717 22.0301 27.7262 16.9348C29.8892 11.8254 34.662 8.89129 40.8293 8.89129H106.345L108.704 3.25149L108.701 3.24867L36.6001 3.25431Z" fill="url(#paint1_radial_1571_738)"/>
<path d="M89.152 20.1028C88.2982 20.1028 87.5696 20.6106 87.2623 21.3414L73.1174 55.2225C73.0605 55.3297 73.0264 55.451 73.0264 55.578C73.0264 55.9927 73.3792 56.3341 73.8061 56.3341L78.5192 56.3369L78.5164 56.3313C84.2398 56.3313 89.1776 52.8949 91.2381 48.0197C93.2986 43.1445 91.2466 48.0253 91.2551 48.031L102.497 21.1298C102.531 21.0423 102.551 20.9464 102.551 20.8505C102.551 20.4273 102.201 20.0887 101.774 20.0887L89.152 20.1028Z" fill="url(#paint2_linear_1571_738)"/>
<path d="M89.1522 21.1077C88.768 21.1077 88.4292 21.3305 88.284 21.6775L74.2246 55.3442H76.7406L76.7378 55.333H78.4567C83.5226 55.333 88.0479 52.4242 90.0828 47.9016L101.288 21.0964L89.1522 21.1077Z" fill="url(#paint3_radial_1571_738)"/>
<path d="M40.3882 20.0887C38.4472 20.0887 36.7482 22.4558 38.8059 24.332L50.6311 35.2392C50.6311 35.2392 55.4181 39.615 54.3907 45.8755C53.4856 51.3855 49.6919 54.7598 46.9483 55.973L46.9398 55.9758C46.8744 56.0096 46.8316 56.0745 46.8316 56.1451C46.8316 56.2495 46.9171 56.3369 47.0281 56.3369H60.82C61.6738 56.3369 62.4052 55.8291 62.7097 55.0984L76.9086 21.1213C76.9428 21.0339 76.9597 20.9436 76.9597 20.8505C76.9597 20.4273 76.6125 20.0887 76.1799 20.0887H40.3882Z" fill="url(#paint4_linear_1571_738)"/>
<path d="M40.3882 21.0964C39.8304 21.0964 39.2556 21.4801 39.0507 21.9935C38.8059 22.6086 39.1901 23.1334 39.5629 23.4719L51.3824 34.3791C51.5958 34.5738 56.5878 39.2233 55.4807 45.9747C54.809 50.0656 52.5522 53.3157 50.0533 55.3442H60.7487C61.1329 55.3442 61.4746 55.1185 61.6197 54.7772L75.6961 21.0964H40.3882Z" fill="url(#paint5_radial_1571_738)"/>
<mask id="mask1_1571_738" style="mask-type:luminance" maskUnits="userSpaceOnUse" x="13" y="2" width="97" height="36">
<path d="M13.4246 2.24847H109.962V37.8071H13.4246V2.24847Z" fill="white"/>
</mask>
<g mask="url(#mask1_1571_738)">
<g opacity="0.100006">
<mask id="mask2_1571_738" style="mask-type:luminance" maskUnits="userSpaceOnUse" x="13" y="2" width="97" height="36">
<path d="M13.4246 37.8066H109.959V2.24685H13.4246V37.8066Z" fill="white"/>
</mask>
<g mask="url(#mask2_1571_738)">
<path d="M76.9633 20.8492C76.9633 20.9423 76.9462 21.0326 76.9063 21.1257L70.2665 37.0181C65.3287 37.5316 60.1887 37.8081 54.9093 37.8081C54.1523 37.8081 53.3981 37.7968 52.6467 37.7884C51.6478 36.1633 50.6318 35.2379 50.6318 35.2379L38.8036 24.3279C36.7459 22.4545 38.4507 20.0875 40.3889 20.0875H76.1806C76.6104 20.0875 76.9633 20.426 76.9633 20.8492Z" fill="white"/>
<path d="M102.549 20.8492C102.549 20.9508 102.529 21.0411 102.492 21.1342L98.5443 30.5856C93.4129 32.5407 87.6469 34.1658 81.4055 35.3677L87.2655 21.3458C87.5729 20.6122 88.2986 20.1072 89.1553 20.1072L101.775 20.0875C102.204 20.0875 102.549 20.426 102.549 20.8492Z" fill="white"/>
<path d="M109.961 3.01039C109.961 3.11195 109.941 3.2107 109.904 3.29534L107.309 9.52479C107.198 9.82949 106.908 10.0383 106.563 10.0383H40.8255C27.3666 10.0383 24.5917 24.647 31.0665 30.9442L37.342 36.7617C28.5506 35.6953 20.4479 33.8445 13.4268 31.3758L22.2182 10.3712C24.3299 5.59753 29.1739 2.2571 34.8176 2.2571V2.24863H109.19C109.617 2.24863 109.961 2.58719 109.961 3.01039Z" fill="white"/>
</g>
</g>
</g>
<defs>
<linearGradient id="paint0_linear_1571_738" x1="59.4067" y1="1.18719" x2="57.6276" y2="62.2488" gradientUnits="userSpaceOnUse">
<stop stop-color="#5DA1C2"/>
<stop offset="0.136459" stop-color="#1E4965"/>
<stop offset="0.361282" stop-color="#3882B9"/>
<stop offset="0.445206" stop-color="#5DA1C2"/>
<stop offset="0.540161" stop-color="#3882B9"/>
<stop offset="0.64389" stop-color="#1E4965"/>
<stop offset="0.710846" stop-color="#306187"/>
<stop offset="1" stop-color="#306187"/>
</linearGradient>
<radialGradient id="paint1_radial_1571_738" cx="0" cy="0" r="1" gradientUnits="userSpaceOnUse" gradientTransform="translate(71.1226 6.04341) rotate(144.791) scale(66.8871 65.7342)">
<stop stop-color="#5DA1C2"/>
<stop offset="0.386505" stop-color="#3882B9"/>
<stop offset="0.993866" stop-color="#234964"/>
<stop offset="1" stop-color="#234964"/>
</radialGradient>
<linearGradient id="paint2_linear_1571_738" x1="98.0457" y1="18.7392" x2="73.7453" y2="63.7276" gradientUnits="userSpaceOnUse">
<stop stop-color="#5DA1C2"/>
<stop offset="0.230087" stop-color="#1E4965"/>
<stop offset="0.361282" stop-color="#3882B9"/>
<stop offset="0.445206" stop-color="#5DA1C2"/>
<stop offset="0.540161" stop-color="#3882B9"/>
<stop offset="0.64389" stop-color="#1E4965"/>
<stop offset="0.710846" stop-color="#306187"/>
<stop offset="1" stop-color="#306187"/>
</linearGradient>
<radialGradient id="paint3_radial_1571_738" cx="0" cy="0" r="1" gradientUnits="userSpaceOnUse" gradientTransform="translate(76.279 6.04694) rotate(144.792) scale(62.7713 61.6894)">
<stop stop-color="#5DA1C2"/>
<stop offset="0.386505" stop-color="#3882B9"/>
<stop offset="0.993866" stop-color="#234964"/>
<stop offset="1" stop-color="#234964"/>
</radialGradient>
<linearGradient id="paint4_linear_1571_738" x1="57.4866" y1="19.9921" x2="55.8623" y2="57.9535" gradientUnits="userSpaceOnUse">
<stop stop-color="#5DA1C2"/>
<stop offset="0.136459" stop-color="#1E4965"/>
<stop offset="0.361282" stop-color="#3882B9"/>
<stop offset="0.445206" stop-color="#5DA1C2"/>
<stop offset="0.540161" stop-color="#3882B9"/>
<stop offset="0.64389" stop-color="#1E4965"/>
<stop offset="0.710846" stop-color="#306187"/>
<stop offset="1" stop-color="#306187"/>
</linearGradient>
<radialGradient id="paint5_radial_1571_738" cx="0" cy="0" r="1" gradientUnits="userSpaceOnUse" gradientTransform="translate(76.4404 6.04717) rotate(144.791) scale(62.7736 61.6917)">
<stop stop-color="#5DA1C2"/>
<stop offset="0.386505" stop-color="#3882B9"/>
<stop offset="0.993866" stop-color="#234964"/>
<stop offset="1" stop-color="#234964"/>
</radialGradient>
</defs>
</svg>
