<svg width="37" height="37" viewBox="0 0 37 37" fill="none" xmlns="http://www.w3.org/2000/svg">
<g clip-path="url(#clip0_1411_2017)">
<path d="M17.2327 9.07986V24.9058C15.6669 25.6842 14.5903 27.2993 14.5903 29.1665C14.5903 31.7933 16.7198 33.9228 19.3466 33.9228C21.9734 33.9228 24.1028 31.7933 24.1028 29.1665C24.1028 27.2993 23.0263 25.6842 21.4605 24.9058V5.38732C21.4605 4.2199 20.5141 3.27344 19.3466 3.27344C18.1791 3.27344 17.2327 4.21982 17.2327 5.38732V8.07239" stroke="black" stroke-width="0.8" stroke-miterlimit="10"/>
<path d="M23.574 19.654V5.32153C23.574 2.9866 21.6811 1.09375 19.3462 1.09375C17.0113 1.09375 15.1184 2.9866 15.1184 5.32153V23.7512C13.51 25.0087 12.4761 26.9668 12.4761 29.1666C12.4761 32.9609 15.5519 36.0367 19.3462 36.0367C23.1405 36.0367 26.2163 32.9609 26.2163 29.1666C26.2163 26.9668 25.1824 25.0087 23.574 23.7512V20.7109" stroke="black" stroke-width="0.8" stroke-miterlimit="10"/>
<path d="M17.2324 12.7861H21.4602" stroke="black" stroke-width="0.8" stroke-miterlimit="10"/>
<path d="M17.2324 27.0527V28.1097" stroke="black" stroke-width="0.8" stroke-miterlimit="10"/>
<path d="M28.8398 29.1665H32.0107" stroke="black" stroke-width="0.8" stroke-miterlimit="10"/>
<path d="M28.2217 27.2565L30.6507 25.2183" stroke="black" stroke-width="0.8" stroke-miterlimit="10"/>
<path d="M30.6507 33.1143L28.2217 31.0762" stroke="black" stroke-width="0.8" stroke-miterlimit="10"/>
<path d="M9.83392 29.1665H6.66309" stroke="black" stroke-width="0.8" stroke-miterlimit="10"/>
<path d="M10.4519 27.2565L8.02295 25.2183" stroke="black" stroke-width="0.8" stroke-miterlimit="10"/>
<path d="M8.02295 33.1143L10.4519 31.0762" stroke="black" stroke-width="0.8" stroke-miterlimit="10"/>
</g>
<defs>
<clipPath id="clip0_1411_2017">
<rect width="36" height="36" fill="white" transform="translate(0.677734 0.56543)"/>
</clipPath>
</defs>
</svg>
