<svg width="36" height="36" viewBox="0 0 36 36" fill="none" xmlns="http://www.w3.org/2000/svg">
<g clip-path="url(#clip0_405_1262)">
<path d="M31.5654 3.42847H4.22168V4.52222H31.5654V3.42847Z" fill="black"/>
<path d="M31.5654 17.1003H4.22168V18.1941H31.5654V17.1003Z" fill="black"/>
<path d="M31.5654 18.1941V17.1003C32.4787 17.1003 33.7529 14.7078 33.7529 10.8113C33.7529 6.91479 32.4787 4.52222 31.5654 4.52222V3.42847C33.6969 3.42847 34.8467 7.23198 34.8467 10.8113C34.8467 14.3906 33.6969 18.1941 31.5654 18.1941Z" fill="black"/>
<path d="M4.22168 18.1941C2.09023 18.1941 0.94043 14.3899 0.94043 10.8113C0.94043 7.23267 2.09023 3.42847 4.22168 3.42847C6.35313 3.42847 7.50293 7.23198 7.50293 10.8113C7.50293 14.3906 6.35313 18.1941 4.22168 18.1941ZM4.22168 4.52222C3.3084 4.52222 2.03418 6.91479 2.03418 10.8113C2.03418 14.7078 3.3084 17.1003 4.22168 17.1003C5.13496 17.1003 6.40918 14.7078 6.40918 10.8113C6.40918 6.91479 5.13496 4.52222 4.22168 4.52222Z" fill="black"/>
<path d="M12.0449 19.7131C11.477 19.7126 10.9325 19.4868 10.5309 19.0853C10.1292 18.6838 9.90326 18.1393 9.90254 17.5714V3.97544C9.90254 3.69751 9.79213 3.43096 9.5956 3.23443C9.39907 3.0379 9.13252 2.92749 8.85459 2.92749C8.57666 2.92749 8.31011 3.0379 8.11358 3.23443C7.91705 3.43096 7.80664 3.69751 7.80664 3.97544H6.71289C6.71289 3.40743 6.93853 2.86268 7.34018 2.46103C7.74183 2.05938 8.28658 1.83374 8.85459 1.83374C9.4226 1.83374 9.96735 2.05938 10.369 2.46103C10.7706 2.86268 10.9963 3.40743 10.9963 3.97544V17.5714C10.9967 17.8494 11.1073 18.1158 11.3039 18.3123C11.5005 18.5088 11.767 18.6192 12.0449 18.6194C12.6424 18.6194 13.0929 18.2017 13.0929 17.6473H14.1866C14.1866 18.806 13.246 19.7131 12.0449 19.7131Z" fill="black"/>
<path d="M18.4248 19.7131C17.857 19.7126 17.3125 19.4868 16.911 19.0853C16.5095 18.6837 16.2836 18.1393 16.2831 17.5714V3.97545C16.2761 3.70206 16.1626 3.44222 15.9668 3.25132C15.771 3.06043 15.5083 2.95359 15.2348 2.95359C14.9613 2.95359 14.6987 3.06043 14.5028 3.25132C14.307 3.44222 14.1935 3.70206 14.1865 3.97545H13.0928C13.1028 3.41398 13.3329 2.87888 13.7335 2.48536C14.1341 2.09183 14.6732 1.87134 15.2348 1.87134C15.7964 1.87134 16.3355 2.09183 16.7361 2.48536C17.1367 2.87888 17.3668 3.41398 17.3769 3.97545V17.5714C17.377 17.8493 17.4875 18.1158 17.684 18.3123C17.8805 18.5087 18.1469 18.6192 18.4248 18.6194C19.0223 18.6194 19.4728 18.2017 19.4728 17.6473H20.5665C20.5665 18.806 19.6259 19.7131 18.4248 19.7131Z" fill="black"/>
<path d="M24.8057 19.7131C24.2378 19.7126 23.6934 19.4868 23.2919 19.0853C22.8903 18.6837 22.6645 18.1393 22.664 17.5714V3.97545C22.657 3.70206 22.5435 3.44222 22.3476 3.25132C22.1518 3.06043 21.8892 2.95359 21.6157 2.95359C21.3422 2.95359 21.0795 3.06043 20.8837 3.25132C20.6879 3.44222 20.5744 3.70206 20.5674 3.97545H19.4736C19.4837 3.41398 19.7138 2.87888 20.1144 2.48536C20.515 2.09183 21.0541 1.87134 21.6157 1.87134C22.1772 1.87134 22.7164 2.09183 23.117 2.48536C23.5176 2.87888 23.7477 3.41398 23.7577 3.97545V17.5714C23.7581 17.8493 23.8686 18.1156 24.0651 18.3121C24.2615 18.5085 24.5278 18.619 24.8057 18.6194C25.4031 18.6194 25.8543 18.2017 25.8543 17.6473H26.948C26.948 18.806 26.0102 19.7131 24.8057 19.7131Z" fill="black"/>
<path d="M30.1369 17.6473H29.0432V3.97544C29.0432 3.69751 28.9328 3.43096 28.7362 3.23443C28.5397 3.0379 28.2731 2.92749 27.9952 2.92749C27.7173 2.92749 27.4507 3.0379 27.2542 3.23443C27.0577 3.43096 26.9473 3.69751 26.9473 3.97544H25.8535C25.8535 3.40743 26.0792 2.86268 26.4808 2.46103C26.8825 2.05938 27.4272 1.83374 27.9952 1.83374C28.5632 1.83374 29.108 2.05938 29.5096 2.46103C29.9113 2.86268 30.1369 3.40743 30.1369 3.97544V17.6473Z" fill="black"/>
<path d="M30.1377 17.6472H29.0439V35.3448H30.1377V17.6472Z" fill="black"/>
<path d="M7.80664 17.6472H6.71289V35.3448H7.80664V17.6472Z" fill="black"/>
</g>
<defs>
<clipPath id="clip0_405_1262">
<rect width="35" height="35" fill="white" transform="translate(0.375 0.818604)"/>
</clipPath>
</defs>
</svg>
