<svg width="36" height="36" viewBox="0 0 36 36" fill="none" xmlns="http://www.w3.org/2000/svg">
<g clip-path="url(#clip0_405_1075)">
<path d="M30.0186 33.1972C29.7004 33.1972 29.4883 32.985 29.4883 32.6669V28.5835C29.4883 28.2653 29.7004 28.0532 30.0186 28.0532C30.3368 28.0532 30.5489 28.2653 30.5489 28.5835V32.6669C30.5489 32.985 30.3368 33.1972 30.0186 33.1972Z" fill="black"/>
<path d="M23.92 33.1972C23.6018 33.1972 23.3896 32.985 23.3896 32.6669V28.5835C23.3896 28.2653 23.6018 28.0532 23.92 28.0532C24.2381 28.0532 24.4503 28.2653 24.4503 28.5835V32.6669C24.4503 32.985 24.2381 33.1972 23.92 33.1972Z" fill="black"/>
<path d="M17.875 33.1972C17.5568 33.1972 17.3447 32.985 17.3447 32.6669V28.5835C17.3447 28.2653 17.5568 28.0532 17.875 28.0532C18.1932 28.0532 18.4053 28.2653 18.4053 28.5835V32.6669C18.4053 32.985 18.1932 33.1972 17.875 33.1972Z" fill="black"/>
<path d="M11.8291 33.1972C11.5109 33.1972 11.2988 32.985 11.2988 32.6669V28.5835C11.2988 28.2653 11.5109 28.0532 11.8291 28.0532C12.1473 28.0532 12.3594 28.2653 12.3594 28.5835V32.6669C12.3594 32.985 12.1473 33.1972 11.8291 33.1972Z" fill="black"/>
<path d="M5.73147 7.58364C5.41329 7.58364 5.20117 7.37152 5.20117 7.05333V2.97C5.20117 2.65182 5.41329 2.4397 5.73147 2.4397C6.04966 2.4397 6.26178 2.65182 6.26178 2.97V7.05333C6.26178 7.37152 6.04966 7.58364 5.73147 7.58364Z" fill="black"/>
<path d="M11.8291 7.58364C11.5109 7.58364 11.2988 7.37152 11.2988 7.05333V2.97C11.2988 2.65182 11.5109 2.4397 11.8291 2.4397C12.1473 2.4397 12.3594 2.65182 12.3594 2.97V7.05333C12.3594 7.37152 12.1473 7.58364 11.8291 7.58364Z" fill="black"/>
<path d="M17.875 7.58364C17.5568 7.58364 17.3447 7.37152 17.3447 7.05333V2.97C17.3447 2.65182 17.5568 2.4397 17.875 2.4397C18.1932 2.4397 18.4053 2.65182 18.4053 2.97V7.05333C18.4053 7.37152 18.1932 7.58364 17.875 7.58364Z" fill="black"/>
<path d="M23.92 7.58364C23.6018 7.58364 23.3896 7.37152 23.3896 7.05333V2.97C23.3896 2.65182 23.6018 2.4397 23.92 2.4397C24.2381 2.4397 24.4503 2.65182 24.4503 2.97V7.05333C24.4503 7.37152 24.2381 7.58364 23.92 7.58364Z" fill="black"/>
<path d="M30.0186 7.58364C29.7004 7.58364 29.4883 7.37152 29.4883 7.05333V2.97C29.4883 2.65182 29.7004 2.4397 30.0186 2.4397C30.3368 2.4397 30.5489 2.65182 30.5489 2.97V7.05333C30.5489 7.37152 30.3368 7.58364 30.0186 7.58364Z" fill="black"/>
<path d="M7.0572 9.65174C6.73902 9.65174 6.5269 9.43962 6.5269 9.12143V7.58356H5.04205V9.12143C5.04205 9.43962 4.82993 9.65174 4.51175 9.65174C4.19357 9.65174 3.98145 9.43962 3.98145 9.12143V7.05325C3.98145 6.73507 4.19357 6.52295 4.51175 6.52295H7.0572C7.37539 6.52295 7.58751 6.73507 7.58751 7.05325V9.12143C7.58751 9.43962 7.37539 9.65174 7.0572 9.65174Z" fill="black"/>
<path d="M13.1021 9.65174C12.7839 9.65174 12.5718 9.43962 12.5718 9.12143V7.58356H11.087V9.12143C11.087 9.43962 10.8749 9.65174 10.5567 9.65174C10.2385 9.65174 10.0264 9.43962 10.0264 9.12143V7.05325C10.0264 6.73507 10.2385 6.52295 10.5567 6.52295H13.1021C13.4203 6.52295 13.6324 6.73507 13.6324 7.05325V9.12143C13.6324 9.43962 13.4203 9.65174 13.1021 9.65174Z" fill="black"/>
<path d="M19.148 9.65174C18.8298 9.65174 18.6177 9.43962 18.6177 9.12143V7.58356H17.1329V9.12143C17.1329 9.43962 16.9208 9.65174 16.6026 9.65174C16.2844 9.65174 16.0723 9.43962 16.0723 9.12143V7.05325C16.0723 6.73507 16.2844 6.52295 16.6026 6.52295H19.148C19.4662 6.52295 19.6783 6.73507 19.6783 7.05325V9.12143C19.6783 9.43962 19.4662 9.65174 19.148 9.65174Z" fill="black"/>
<path d="M25.1932 9.65174C24.875 9.65174 24.6629 9.43962 24.6629 9.12143V7.58356H23.178V9.12143C23.178 9.43962 22.9659 9.65174 22.6477 9.65174C22.3296 9.65174 22.1174 9.43962 22.1174 9.12143V7.05325C22.1174 6.73507 22.3296 6.52295 22.6477 6.52295H25.1932C25.5114 6.52295 25.7235 6.73507 25.7235 7.05325V9.12143C25.7235 9.43962 25.5114 9.65174 25.1932 9.65174Z" fill="black"/>
<path d="M31.2916 9.65174C30.9734 9.65174 30.7613 9.43962 30.7613 9.12143V7.58356H29.2764V9.12143C29.2764 9.43962 29.0643 9.65174 28.7461 9.65174C28.4279 9.65174 28.2158 9.43962 28.2158 9.12143V7.05325C28.2158 6.73507 28.4279 6.52295 28.7461 6.52295H31.2916C31.6098 6.52295 31.8219 6.73507 31.8219 7.05325V9.12143C31.8219 9.43962 31.6098 9.65174 31.2916 9.65174Z" fill="black"/>
<path d="M31.2916 29.1139H28.7461C28.4279 29.1139 28.2158 28.9018 28.2158 28.5836V26.5154C28.2158 26.1972 28.4279 25.9851 28.7461 25.9851C29.0643 25.9851 29.2764 26.1972 29.2764 26.5154V28.0533H30.7613V26.5154C30.7613 26.1972 30.9734 25.9851 31.2916 25.9851C31.6098 25.9851 31.8219 26.1972 31.8219 26.5154V28.5836C31.8219 28.9018 31.6098 29.1139 31.2916 29.1139Z" fill="black"/>
<path d="M25.1932 29.1139H22.6477C22.3296 29.1139 22.1174 28.9018 22.1174 28.5836V26.5154C22.1174 26.1972 22.3296 25.9851 22.6477 25.9851C22.9659 25.9851 23.178 26.1972 23.178 26.5154V28.0533H24.6629V26.5154C24.6629 26.1972 24.875 25.9851 25.1932 25.9851C25.5114 25.9851 25.7235 26.1972 25.7235 26.5154V28.5836C25.7235 28.9018 25.5114 29.1139 25.1932 29.1139Z" fill="black"/>
<path d="M19.148 29.1139H16.6026C16.2844 29.1139 16.0723 28.9018 16.0723 28.5836V26.5154C16.0723 26.1972 16.2844 25.9851 16.6026 25.9851C16.9208 25.9851 17.1329 26.1972 17.1329 26.5154V28.0533H18.6177V26.5154C18.6177 26.1972 18.8298 25.9851 19.148 25.9851C19.4662 25.9851 19.6783 26.1972 19.6783 26.5154V28.5836C19.6783 28.9018 19.4662 29.1139 19.148 29.1139Z" fill="black"/>
<path d="M13.1021 29.1139H10.5567C10.2385 29.1139 10.0264 28.9018 10.0264 28.5836V26.5154C10.0264 26.1972 10.2385 25.9851 10.5567 25.9851C10.8749 25.9851 11.087 26.1972 11.087 26.5154V28.0533H12.5718V26.5154C12.5718 26.1972 12.7839 25.9851 13.1021 25.9851C13.4203 25.9851 13.6324 26.1972 13.6324 26.5154V28.5836C13.6324 28.9018 13.4203 29.1139 13.1021 29.1139Z" fill="black"/>
<path d="M7.0572 29.1139H4.51175C4.19357 29.1139 3.98145 28.9018 3.98145 28.5836V26.5154C3.98145 26.1972 4.19357 25.9851 4.51175 25.9851C4.82993 25.9851 5.04205 26.1972 5.04205 26.5154V28.0533H6.5269V26.5154C6.5269 26.1972 6.73902 25.9851 7.0572 25.9851C7.37539 25.9851 7.58751 26.1972 7.58751 26.5154V28.5836C7.58751 28.9018 7.37539 29.1139 7.0572 29.1139Z" fill="black"/>
<path d="M5.73147 33.1972C5.41329 33.1972 5.20117 32.985 5.20117 32.6669V28.5835C5.20117 28.2653 5.41329 28.0532 5.73147 28.0532C6.04966 28.0532 6.26178 28.2653 6.26178 28.5835V32.6669C6.26178 32.985 6.04966 33.1972 5.73147 33.1972Z" fill="black"/>
<path d="M33.2538 24.9245H2.49618C1.59467 24.9245 0.905273 24.2351 0.905273 23.3336V12.3033C0.905273 11.4018 1.59467 10.7124 2.49618 10.7124H33.2538C34.1553 10.7124 34.8447 11.4018 34.8447 12.3033V23.3336C34.8447 24.2351 34.1553 24.9245 33.2538 24.9245ZM2.49618 11.773C2.178 11.773 1.96588 11.9851 1.96588 12.3033V23.3336C1.96588 23.6518 2.178 23.8639 2.49618 23.8639H33.2538C33.5719 23.8639 33.7841 23.6518 33.7841 23.3336V12.3033C33.7841 11.9851 33.5719 11.773 33.2538 11.773H2.49618Z" fill="black"/>
<path d="M15.7537 14.7957H14.2158C13.8977 14.7957 13.6855 14.5836 13.6855 14.2654C13.6855 13.9472 13.8977 13.7351 14.2158 13.7351H15.7537C16.0719 13.7351 16.284 13.9472 16.284 14.2654C16.284 14.5836 16.0719 14.7957 15.7537 14.7957Z" fill="black"/>
<path d="M25.5644 21.9018H10.1856C9.86739 21.9018 9.65527 21.6897 9.65527 21.3715V14.2654C9.65527 13.9472 9.86739 13.7351 10.1856 13.7351H12.0947C12.4128 13.7351 12.625 13.9472 12.625 14.2654C12.625 14.5836 12.4128 14.7957 12.0947 14.7957H10.7159V20.8412H25.0341V14.7957H17.875C17.5568 14.7957 17.3447 14.5836 17.3447 14.2654C17.3447 13.9472 17.5568 13.7351 17.875 13.7351H25.5644C25.8825 13.7351 26.0947 13.9472 26.0947 14.2654V21.3715C26.0947 21.6897 25.8825 21.9018 25.5644 21.9018Z" fill="black"/>
</g>
<defs>
<clipPath id="clip0_405_1075">
<rect width="35" height="35" fill="white" transform="translate(0.375 0.318604)"/>
</clipPath>
</defs>
</svg>
