<svg width="37" height="37" viewBox="0 0 37 37" fill="none" xmlns="http://www.w3.org/2000/svg">
<g clip-path="url(#clip0_1411_1907)">
<path d="M11.2266 4.28573C13.2857 2.2267 16.0234 1.09277 18.9352 1.09277C21.847 1.09277 24.5847 2.2267 26.6437 4.28566" stroke="black" stroke-miterlimit="10" stroke-linecap="round" stroke-linejoin="round"/>
<path d="M13.7959 6.8552C15.1687 5.48249 16.9937 4.72656 18.935 4.72656C20.8762 4.72656 22.7013 5.48256 24.074 6.8552" stroke="black" stroke-miterlimit="10" stroke-linecap="round" stroke-linejoin="round"/>
<path d="M21.5048 9.42469C20.0857 8.00557 17.7848 8.00557 16.3657 9.42469" stroke="black" stroke-miterlimit="10" stroke-linecap="round" stroke-linejoin="round"/>
<path d="M26.6437 32.8452C24.5846 34.9042 21.847 36.0382 18.9351 36.0382C16.0233 36.0382 13.2856 34.9042 11.2266 32.8453" stroke="black" stroke-miterlimit="10" stroke-linecap="round" stroke-linejoin="round"/>
<path d="M17.8908 32.3301C16.3457 32.1091 14.9193 31.3988 13.7959 30.2754" stroke="black" stroke-miterlimit="10" stroke-linecap="round" stroke-linejoin="round"/>
<path d="M24.0739 30.2754C22.9505 31.3988 21.5241 32.1091 19.979 32.3301" stroke="black" stroke-miterlimit="10" stroke-linecap="round" stroke-linejoin="round"/>
<path d="M16.3657 27.7061C17.7848 29.1252 20.0857 29.1252 21.5048 27.7061" stroke="black" stroke-miterlimit="10" stroke-linecap="round" stroke-linejoin="round"/>
<path d="M33.2148 10.8569C35.2739 12.916 36.4078 15.6537 36.4078 18.5656C36.4078 21.4774 35.2739 24.215 33.2149 26.2741" stroke="black" stroke-miterlimit="10" stroke-linecap="round" stroke-linejoin="round"/>
<path d="M30.645 13.4263C32.0177 14.7991 32.7737 16.6241 32.7737 18.5653C32.7737 20.5066 32.0177 22.3317 30.645 23.7043" stroke="black" stroke-miterlimit="10" stroke-linecap="round" stroke-linejoin="round"/>
<path d="M28.0757 21.1352C29.4948 19.716 29.4948 17.4152 28.0757 15.9961" stroke="black" stroke-miterlimit="10" stroke-linecap="round" stroke-linejoin="round"/>
<path d="M4.65536 26.2741C2.59633 24.215 1.4624 21.4773 1.4624 18.5654C1.4624 15.6537 2.59633 12.916 4.65529 10.8569" stroke="black" stroke-miterlimit="10" stroke-linecap="round" stroke-linejoin="round"/>
<path d="M7.22483 23.7043C5.85212 22.3316 5.09619 20.5065 5.09619 18.5653C5.09619 16.6241 5.85219 14.7989 7.22483 13.4263" stroke="black" stroke-miterlimit="10" stroke-linecap="round" stroke-linejoin="round"/>
<path d="M9.79432 15.9961C8.3752 17.4152 8.3752 19.716 9.79432 21.1352" stroke="black" stroke-miterlimit="10" stroke-linecap="round" stroke-linejoin="round"/>
<path d="M25.2632 19.6201V22.0811C25.2632 23.6343 24.004 24.8936 22.4507 24.8936H15.4194C13.8662 24.8936 12.6069 23.6343 12.6069 22.0811V15.0498C12.6069 13.4965 13.8662 12.2373 15.4194 12.2373H22.4507C24.004 12.2373 25.2632 13.4965 25.2632 15.0498V17.5107" stroke="black" stroke-miterlimit="10" stroke-linecap="round" stroke-linejoin="round"/>
<path d="M21.7476 21.3779V15.7529L16.1226 15.7529V21.3779H21.7476Z" stroke="black" stroke-miterlimit="10" stroke-linecap="round" stroke-linejoin="round"/>
</g>
<defs>
<clipPath id="clip0_1411_1907">
<rect width="36" height="36" fill="white" transform="translate(0.935059 0.56543)"/>
</clipPath>
</defs>
</svg>
