<svg width="37" height="37" viewBox="0 0 37 37" fill="none" xmlns="http://www.w3.org/2000/svg">
<path d="M0.885596 9.88002C0.885596 8.68078 1.85778 7.70859 3.05702 7.70859H33.9142C35.1134 7.70859 36.0856 8.68078 36.0856 9.88002V27.641C36.0856 28.8403 35.1134 29.8125 33.9142 29.8125H3.05703C1.85778 29.8125 0.885596 28.8403 0.885596 27.641V9.88002Z" stroke="black" stroke-width="0.8"/>
<path d="M5.77515 7.68115V10.5466" stroke="black" stroke-width="0.8" stroke-linecap="round"/>
<path d="M8.20215 7.68115V10.5466" stroke="black" stroke-width="0.8" stroke-linecap="round"/>
<path d="M10.5757 7.68115V10.5466" stroke="black" stroke-width="0.8" stroke-linecap="round"/>
<path d="M13.0378 7.68115V10.5466" stroke="black" stroke-width="0.8" stroke-linecap="round"/>
<path d="M15.5354 7.68115V10.5466" stroke="black" stroke-width="0.8" stroke-linecap="round"/>
<path d="M17.8384 7.68115V10.5466" stroke="black" stroke-width="0.8" stroke-linecap="round"/>
<path d="M20.3184 7.68115V10.5466" stroke="black" stroke-width="0.8" stroke-linecap="round"/>
<path d="M3.19199 13.7799C3.19199 13.0901 3.75123 12.5309 4.44108 12.5309H32.7706C33.4605 12.5309 34.0197 13.0901 34.0197 13.7799V14.4334C34.0197 14.7624 33.753 15.029 33.4241 15.029C32.6533 15.029 32.0285 15.6539 32.0285 16.4246V18.7272V21.0298C32.0285 21.8005 32.6533 22.4254 33.4241 22.4254C33.753 22.4254 34.0197 22.692 34.0197 23.021V23.6744C34.0197 24.3643 33.4605 24.9235 32.7706 24.9235H4.44108C3.75123 24.9235 3.19199 24.3643 3.19199 23.6744V22.8678C3.19199 22.6234 3.39008 22.4254 3.63443 22.4254C4.32061 22.4254 4.87686 21.8691 4.87686 21.1829V18.7272V16.2715C4.87686 15.5853 4.32061 15.029 3.63443 15.029C3.39008 15.029 3.19199 14.8309 3.19199 14.5866V13.7799Z" stroke="black" stroke-width="0.8" stroke-linejoin="round"/>
<path d="M6.8895 16.1932C6.8895 15.5621 7.40118 15.0504 8.03236 15.0504H28.8442C29.4753 15.0504 29.987 15.5621 29.987 16.1932V21.2112C29.987 21.8424 29.4753 22.354 28.8442 22.354H8.03236C7.40118 22.354 6.8895 21.8424 6.8895 21.2112V16.1932Z" stroke="black" stroke-width="0.8"/>
<circle cx="33.5866" cy="10.2582" r="0.557036" fill="black"/>
<circle cx="33.5866" cy="27.1977" r="0.557036" fill="black"/>
<circle cx="3.34903" cy="27.1977" r="0.557036" fill="black"/>
<circle cx="3.34903" cy="10.2582" r="0.557036" fill="black"/>
<path d="M13.2475 17.4004L10.4761 20.1718" stroke="black" stroke-width="0.8"/>
<path d="M10.3005 17.2949L9.1604 18.435" stroke="black" stroke-width="0.8"/>
</svg>
