<svg width="37" height="37" viewBox="0 0 37 37" fill="none" xmlns="http://www.w3.org/2000/svg">
<path d="M0.782218 14.391V14.441H0.832218H7.37602H7.42602V14.391V13.7652V13.7152H7.37602H1.97456L5.39784 10.3043L5.3979 10.3042C5.81623 9.88588 6.13605 9.51156 6.35621 9.1814C6.5849 8.85202 6.74189 8.5389 6.82542 8.24218C6.91742 7.9384 6.96347 7.62984 6.96347 7.31665C6.96347 6.79142 6.83439 6.33701 6.57422 5.95577C6.32348 5.566 5.96185 5.26994 5.49174 5.06704C5.03037 4.85492 4.48344 4.7498 3.85244 4.7498C3.13964 4.7498 2.49827 4.86404 1.9291 5.09355L1.92883 5.09365C1.36896 5.32311 0.904319 5.64947 0.536 6.07304L0.503547 6.11036L0.540512 6.14322L1.03028 6.57856L1.06788 6.61198L1.10107 6.57418C1.42259 6.208 1.80167 5.93605 2.23862 5.75767C2.68499 5.57915 3.20446 5.48922 3.79802 5.48922C4.58048 5.48922 5.16543 5.66469 5.56108 6.00758L5.56108 6.00759L5.56157 6.008C5.95701 6.34193 6.15603 6.7988 6.15603 7.38468C6.15603 7.6153 6.12056 7.85086 6.04925 8.09152L6.04923 8.09151L6.04879 8.09317C5.9871 8.33112 5.86305 8.59353 5.67467 8.88065C5.4867 9.15806 5.20351 9.48648 4.82382 9.86617L0.796982 13.8658L0.782218 13.8805V13.9013V14.391ZM10.0548 13.1207L10.0552 13.1211C10.5135 13.561 11.0495 13.9046 11.6629 14.1517L11.6635 14.152C12.2775 14.3902 12.9457 14.5091 13.6678 14.5091C14.326 14.5091 14.9527 14.4085 15.5477 14.2071L15.5481 14.207C16.1452 13.9989 16.6583 13.6923 17.0868 13.2867L17.119 13.29V13.256L17.1354 13.2402L17.119 13.2181V9.67025V9.62025H17.069H16.4024H16.3524V9.67025V12.9191C16.0181 13.1844 15.6576 13.3825 15.2707 13.5138L15.2704 13.5139C14.7772 13.6843 14.2522 13.7696 13.695 13.7696C13.084 13.7696 12.519 13.6663 11.9993 13.4603C11.4792 13.254 11.0268 12.9628 10.6417 12.5867C10.2566 12.2105 9.95651 11.7717 9.7414 11.2698C9.53558 10.7686 9.43238 10.222 9.43238 9.62943C9.43238 9.0369 9.53558 8.49028 9.7414 7.98902C9.95651 7.48721 10.2566 7.04839 10.6417 6.67219C11.0268 6.29607 11.4792 6.00486 11.9993 5.7986C12.519 5.59253 13.084 5.48922 13.695 5.48922C14.2705 5.48922 14.7999 5.57463 15.2838 5.74487L15.2841 5.74497C15.7752 5.91463 16.227 6.20062 16.6395 6.60414L16.6759 6.63979L16.7109 6.60267L17.1462 6.14011L17.1787 6.10553L17.1459 6.07125C16.7232 5.6302 16.2133 5.2996 15.617 5.07941C15.0214 4.8595 14.3761 4.7498 13.6814 4.7498C12.9502 4.7498 12.2772 4.87321 11.663 5.12069C11.0586 5.35883 10.527 5.69789 10.0688 6.1378C9.61029 6.57797 9.25722 7.09616 9.00974 7.69191C8.76204 8.27912 8.63855 8.92518 8.63855 9.62943C8.63855 10.3338 8.76206 10.9843 9.0097 11.5805L9.0098 11.5807C9.25723 12.1672 9.60562 12.6807 10.0548 13.1207Z" fill="black" stroke="black" stroke-width="0.1"/>
<path d="M29.9118 7.7334L5.98584 31.6594" stroke="black"/>
<path d="M21.3778 30.7554L21.3781 30.7555C21.9919 30.9937 22.6511 31.1126 23.3552 31.1126C24.0948 31.1126 24.7149 30.9939 25.2134 30.754C25.7197 30.5146 26.0997 30.1818 26.3503 29.755C26.6093 29.3294 26.7383 28.8488 26.7383 28.3145C26.7383 27.503 26.4518 26.8406 25.878 26.3316C25.3489 25.8622 24.5768 25.6125 23.5689 25.5756L26.3605 21.9918L26.371 21.9783V21.9611V21.4713V21.4213H26.321H20.3486H20.2986V21.4713V22.0972V22.1472H20.3486H25.3253L22.5676 25.6716L22.557 25.6851V25.7024V26.2057V26.2557H22.607H23.2056C24.1527 26.2557 24.8365 26.45 25.2677 26.8283L25.2677 26.8283L25.2685 26.829C25.7098 27.1997 25.9309 27.6931 25.9309 28.3145C25.9309 28.9451 25.7096 29.443 25.2685 29.8135L25.2681 29.8138C24.8361 30.1841 24.2012 30.3732 23.3552 30.3732C22.708 30.3732 22.1206 30.2653 21.5923 30.0505C21.0715 29.826 20.6704 29.5488 20.3864 29.2205L20.3434 29.1708L20.307 29.2254L19.9533 29.756L19.932 29.788L19.9574 29.8168C20.2994 30.2051 20.7738 30.5174 21.3778 30.7554ZM29.5187 29.7242L29.5191 29.7246C29.9773 30.1645 30.5134 30.5081 31.1267 30.7552L31.1273 30.7555C31.7413 30.9937 32.4096 31.1126 33.1317 31.1126C33.7899 31.1126 34.4166 31.012 35.0116 30.8106L35.012 30.8105C35.609 30.6024 36.1222 30.2958 36.5507 29.8902L36.5828 29.8935V29.8595L36.5993 29.8438L36.5828 29.8216V26.2738V26.2238H36.5328H35.8662H35.8162V26.2738V29.5226C35.482 29.7879 35.1215 29.9861 34.7346 30.1173L34.7343 30.1174C34.2411 30.2878 33.716 30.3732 33.1589 30.3732C32.5479 30.3732 31.9828 30.2699 31.4632 30.0638C30.943 29.8575 30.4907 29.5663 30.1056 29.1902C29.7204 28.814 29.4204 28.3752 29.2053 27.8734C28.9994 27.3721 28.8963 26.8255 28.8963 26.2329C28.8963 25.6404 28.9994 25.0938 29.2053 24.5925C29.4204 24.0907 29.7204 23.6519 30.1056 23.2757C30.4907 22.8996 30.943 22.6084 31.4632 22.4021C31.9828 22.196 32.5479 22.0927 33.1589 22.0927C33.7344 22.0927 34.2638 22.1781 34.7477 22.3484L34.7479 22.3485C35.2391 22.5181 35.6909 22.8041 36.1033 23.2077L36.1398 23.2433L36.1747 23.2062L36.6101 22.7436L36.6426 22.7091L36.6098 22.6748C36.1871 22.2337 35.6772 21.9031 35.0809 21.6829C34.4853 21.463 33.8399 21.3533 33.1453 21.3533C32.4141 21.3533 31.7411 21.4767 31.1269 21.7242C30.5225 21.9623 29.9909 22.3014 29.5327 22.7413C29.0742 23.1815 28.7211 23.6997 28.4736 24.2954C28.2259 24.8826 28.1024 25.5287 28.1024 26.2329C28.1024 26.9373 28.2259 27.5878 28.4736 28.184L28.4737 28.1842C28.7211 28.7707 29.0695 29.2842 29.5187 29.7242Z" fill="black" stroke="black" stroke-width="0.1"/>
</svg>
