<svg width="36" height="36" viewBox="0 0 36 36" fill="none" xmlns="http://www.w3.org/2000/svg">
<g clip-path="url(#clip0_1458_3293)">
<mask id="path-1-inside-1_1458_3293" fill="white">
<path d="M28.8259 13.7876H22.8115V10.179C22.8106 10.0634 22.7767 9.95055 22.7139 9.85355C22.651 9.75662 22.5618 9.67964 22.4567 9.6316L26.3299 4.72994C26.7866 4.07662 26.9651 3.26874 26.8265 2.48383C26.6877 1.69891 26.2431 1.00117 25.5902 0.543942C25.264 0.315562 24.8958 0.154211 24.5069 0.0692596C24.1179 -0.0156997 23.7159 -0.0225668 23.3242 0.0490512C22.9326 0.120662 22.5591 0.26934 22.2254 0.486442C21.8916 0.703552 21.6043 0.984766 21.3801 1.31378L16.2859 9.57748H13.79C13.6305 9.57748 13.4775 9.64084 13.3647 9.7537C13.2519 9.86648 13.1885 10.0194 13.1885 10.179V13.7876H7.17419C7.01468 13.7876 6.8617 13.8509 6.74891 13.9637C6.63612 14.0765 6.57275 14.2295 6.57275 14.389V27.6206C6.57275 27.7801 6.63612 27.9331 6.74891 28.0459C6.8617 28.1587 7.01468 28.222 7.17419 28.222H8.37706V35.4393C8.37706 35.5988 8.44043 35.7517 8.55322 35.8645C8.66601 35.9773 8.81899 36.0407 8.9785 36.0407H11.3842C11.5438 36.0407 11.6967 35.9773 11.8095 35.8645C11.9223 35.7517 11.9857 35.5988 11.9857 35.4393V28.222H16.1957V35.4393C16.1957 35.5988 16.2591 35.7517 16.3719 35.8645C16.4847 35.9773 16.6377 36.0407 16.7972 36.0407H19.2029C19.3624 36.0407 19.5154 35.9773 19.6282 35.8645C19.7409 35.7517 19.8044 35.5988 19.8044 35.4393V28.222H24.6159V35.4393C24.6159 35.5988 24.6792 35.7517 24.792 35.8645C24.9048 35.9773 25.0578 36.0407 25.2173 36.0407H27.623C27.7825 36.0407 27.9355 35.9773 28.0483 35.8645C28.1611 35.7517 28.2244 35.5988 28.2244 35.4393V28.222H28.8259C28.9854 28.222 29.1384 28.1587 29.2511 28.0459C29.3639 27.9331 29.4274 27.7801 29.4274 27.6206V14.389C29.4274 14.2295 29.3639 14.0765 29.2511 13.9637C29.1384 13.8509 28.9854 13.7876 28.8259 13.7876ZM22.3845 1.96934C22.6616 1.57847 23.082 1.31298 23.5541 1.23074C24.0261 1.1485 24.5116 1.25617 24.9046 1.5303C25.1424 1.69634 25.3363 1.91783 25.4694 2.17562C25.6024 2.43341 25.6708 2.71973 25.6683 3.00983C25.6691 3.36693 25.5645 3.71631 25.3676 4.01423L20.9651 9.57748H17.6993L22.3845 1.96934ZM14.3914 10.7804H21.6087V13.7876H14.3914V10.7804ZM11.9857 14.9904H24.0144V22.8091H11.9857V14.9904ZM10.7828 34.8378H9.57993V28.222H10.7828V34.8378ZM18.6014 34.8378H17.3986V28.222H18.6014V34.8378ZM27.0216 34.8378H25.8187V28.222H27.0216V34.8378ZM28.2244 27.0192H7.77563V14.9904H10.7828V23.4105C10.7828 23.5701 10.8462 23.723 10.959 23.8358C11.0718 23.9486 11.2247 24.0119 11.3842 24.0119H24.6159C24.7754 24.0119 24.9283 23.9486 25.0411 23.8358C25.1539 23.723 25.2173 23.5701 25.2173 23.4105V14.9904H28.2244V27.0192Z"/>
</mask>
<path d="M28.8259 13.7876H22.8115V10.179C22.8106 10.0634 22.7767 9.95055 22.7139 9.85355C22.651 9.75662 22.5618 9.67964 22.4567 9.6316L26.3299 4.72994C26.7866 4.07662 26.9651 3.26874 26.8265 2.48383C26.6877 1.69891 26.2431 1.00117 25.5902 0.543942C25.264 0.315562 24.8958 0.154211 24.5069 0.0692596C24.1179 -0.0156997 23.7159 -0.0225668 23.3242 0.0490512C22.9326 0.120662 22.5591 0.26934 22.2254 0.486442C21.8916 0.703552 21.6043 0.984766 21.3801 1.31378L16.2859 9.57748H13.79C13.6305 9.57748 13.4775 9.64084 13.3647 9.7537C13.2519 9.86648 13.1885 10.0194 13.1885 10.179V13.7876H7.17419C7.01468 13.7876 6.8617 13.8509 6.74891 13.9637C6.63612 14.0765 6.57275 14.2295 6.57275 14.389V27.6206C6.57275 27.7801 6.63612 27.9331 6.74891 28.0459C6.8617 28.1587 7.01468 28.222 7.17419 28.222H8.37706V35.4393C8.37706 35.5988 8.44043 35.7517 8.55322 35.8645C8.66601 35.9773 8.81899 36.0407 8.9785 36.0407H11.3842C11.5438 36.0407 11.6967 35.9773 11.8095 35.8645C11.9223 35.7517 11.9857 35.5988 11.9857 35.4393V28.222H16.1957V35.4393C16.1957 35.5988 16.2591 35.7517 16.3719 35.8645C16.4847 35.9773 16.6377 36.0407 16.7972 36.0407H19.2029C19.3624 36.0407 19.5154 35.9773 19.6282 35.8645C19.7409 35.7517 19.8044 35.5988 19.8044 35.4393V28.222H24.6159V35.4393C24.6159 35.5988 24.6792 35.7517 24.792 35.8645C24.9048 35.9773 25.0578 36.0407 25.2173 36.0407H27.623C27.7825 36.0407 27.9355 35.9773 28.0483 35.8645C28.1611 35.7517 28.2244 35.5988 28.2244 35.4393V28.222H28.8259C28.9854 28.222 29.1384 28.1587 29.2511 28.0459C29.3639 27.9331 29.4274 27.7801 29.4274 27.6206V14.389C29.4274 14.2295 29.3639 14.0765 29.2511 13.9637C29.1384 13.8509 28.9854 13.7876 28.8259 13.7876ZM22.3845 1.96934C22.6616 1.57847 23.082 1.31298 23.5541 1.23074C24.0261 1.1485 24.5116 1.25617 24.9046 1.5303C25.1424 1.69634 25.3363 1.91783 25.4694 2.17562C25.6024 2.43341 25.6708 2.71973 25.6683 3.00983C25.6691 3.36693 25.5645 3.71631 25.3676 4.01423L20.9651 9.57748H17.6993L22.3845 1.96934ZM14.3914 10.7804H21.6087V13.7876H14.3914V10.7804ZM11.9857 14.9904H24.0144V22.8091H11.9857V14.9904ZM10.7828 34.8378H9.57993V28.222H10.7828V34.8378ZM18.6014 34.8378H17.3986V28.222H18.6014V34.8378ZM27.0216 34.8378H25.8187V28.222H27.0216V34.8378ZM28.2244 27.0192H7.77563V14.9904H10.7828V23.4105C10.7828 23.5701 10.8462 23.723 10.959 23.8358C11.0718 23.9486 11.2247 24.0119 11.3842 24.0119H24.6159C24.7754 24.0119 24.9283 23.9486 25.0411 23.8358C25.1539 23.723 25.2173 23.5701 25.2173 23.4105V14.9904H28.2244V27.0192Z" fill="black" stroke="white" stroke-width="0.4" mask="url(#path-1-inside-1_1458_3293)"/>
<mask id="path-2-inside-2_1458_3293" fill="white">
<path d="M13.9382 17.9975C14.6026 17.9975 15.1411 17.459 15.1411 16.7947C15.1411 16.1304 14.6026 15.5918 13.9382 15.5918C13.2739 15.5918 12.7354 16.1304 12.7354 16.7947C12.7354 17.459 13.2739 17.9975 13.9382 17.9975Z"/>
</mask>
<path d="M13.9382 17.9975C14.6026 17.9975 15.1411 17.459 15.1411 16.7947C15.1411 16.1304 14.6026 15.5918 13.9382 15.5918C13.2739 15.5918 12.7354 16.1304 12.7354 16.7947C12.7354 17.459 13.2739 17.9975 13.9382 17.9975Z" fill="black" stroke="white" stroke-width="0.4" mask="url(#path-2-inside-2_1458_3293)"/>
</g>
<defs>
<clipPath id="clip0_1458_3293">
<rect width="36" height="36" fill="white"/>
</clipPath>
</defs>
</svg>
