<svg width="37" height="37" viewBox="0 0 37 37" fill="none" xmlns="http://www.w3.org/2000/svg">
<g clip-path="url(#clip0_1411_1892)">
<path d="M27.0822 24.5716C27.0822 29.095 23.4153 32.7619 18.8919 32.7619C14.3686 32.7619 10.7017 29.095 10.7017 24.5716C10.7017 20.0483 14.3685 16.3813 18.8919 16.3813C22.5815 16.3813 25.7013 18.821 26.7261 22.1752" stroke="black" stroke-width="0.7" stroke-miterlimit="10" stroke-linecap="round" stroke-linejoin="round"/>
<path d="M18.892 30.5779C22.2091 30.5779 24.8982 27.8888 24.8982 24.5717C24.8982 21.2545 22.2091 18.5654 18.892 18.5654C15.5748 18.5654 12.8857 21.2545 12.8857 24.5717C12.8857 27.8888 15.5748 30.5779 18.892 30.5779Z" stroke="black" stroke-width="0.7" stroke-miterlimit="10" stroke-linecap="round" stroke-linejoin="round"/>
<path d="M20.1127 23.4796C19.8128 23.1445 19.3769 22.9336 18.8918 22.9336C18.4066 22.9336 17.9709 23.1445 17.6709 23.4796" stroke="black" stroke-width="0.7" stroke-miterlimit="10" stroke-linecap="round" stroke-linejoin="round"/>
<path d="M17.6709 25.6636C17.9709 25.9987 18.4067 26.2096 18.8918 26.2096C19.377 26.2096 19.8128 25.9987 20.1127 25.6636" stroke="black" stroke-width="0.7" stroke-miterlimit="10" stroke-linecap="round" stroke-linejoin="round"/>
<path d="M22.5557 23.4796C22.0858 21.9008 20.6233 20.7495 18.8919 20.7495C17.1604 20.7495 15.6979 21.9008 15.228 23.4796" stroke="black" stroke-width="0.7" stroke-miterlimit="10" stroke-linecap="round" stroke-linejoin="round"/>
<path d="M15.228 25.6636C15.6979 27.2424 17.1604 28.3937 18.8919 28.3937C20.6233 28.3937 22.0859 27.2424 22.5557 25.6636" stroke="black" stroke-width="0.7" stroke-miterlimit="10" stroke-linecap="round" stroke-linejoin="round"/>
<path d="M16.708 30.2383V36.0379" stroke="black" stroke-width="0.7" stroke-miterlimit="10" stroke-linecap="round" stroke-linejoin="round"/>
<path d="M21.0757 30.2383V36.0379" stroke="black" stroke-width="0.7" stroke-miterlimit="10" stroke-linecap="round" stroke-linejoin="round"/>
<path d="M15.0308 12.5202C17.1631 10.3878 20.6203 10.3878 22.7527 12.5202" stroke="black" stroke-width="0.7" stroke-miterlimit="10" stroke-linecap="round" stroke-linejoin="round"/>
<path d="M16.5752 14.065C17.8546 12.7856 19.929 12.7856 21.2084 14.065" stroke="black" stroke-width="0.7" stroke-miterlimit="10" stroke-linecap="round" stroke-linejoin="round"/>
<path d="M17.7207 1.44434V4.98084C17.7207 5.07795 17.642 5.15662 17.5449 5.15662H16.7254C16.5861 5.15662 16.5022 5.31089 16.5778 5.42782L18.665 8.65671C18.7343 8.76387 18.891 8.76387 18.9603 8.65671L21.0476 5.42782C21.1232 5.31089 21.0392 5.15662 20.8999 5.15662H20.0804C19.9833 5.15662 19.9047 5.07795 19.9047 4.98084V1.44434C19.9047 1.2502 19.7472 1.09277 19.5531 1.09277H18.0722C17.8781 1.09277 17.7207 1.2502 17.7207 1.44434Z" stroke="black" stroke-width="0.7" stroke-miterlimit="10" stroke-linecap="round" stroke-linejoin="round"/>
<path d="M10.2348 4.25402V4.98084C10.2348 5.07795 10.1562 5.15662 10.0591 5.15662H9.23957C9.10028 5.15662 9.01633 5.31089 9.09191 5.42782L11.1792 8.65671C11.2485 8.76387 11.4052 8.76387 11.4744 8.65671L13.5617 5.42782C13.6373 5.31089 13.5534 5.15662 13.4141 5.15662H12.5947C12.4976 5.15662 12.4189 5.07795 12.4189 4.98084V1.44434C12.4189 1.2502 12.2615 1.09277 12.0673 1.09277H10.5864C10.3923 1.09277 10.2348 1.2502 10.2348 1.44434V1.79309" stroke="black" stroke-width="0.7" stroke-miterlimit="10" stroke-linecap="round" stroke-linejoin="round"/>
<path d="M27.5487 1.44434V4.98084C27.5487 5.07795 27.6274 5.15662 27.7245 5.15662H28.544C28.6833 5.15662 28.7672 5.31089 28.6916 5.42782L26.6043 8.65671C26.5351 8.76387 26.3783 8.76387 26.3091 8.65671L24.2218 5.42782C24.1462 5.31089 24.2302 5.15662 24.3695 5.15662H25.1889C25.286 5.15662 25.3647 5.07795 25.3647 4.98084V1.44434C25.3647 1.2502 25.5222 1.09277 25.7163 1.09277H27.1972C27.3913 1.09277 27.5487 1.2502 27.5487 1.44434Z" stroke="black" stroke-width="0.7" stroke-miterlimit="10" stroke-linecap="round" stroke-linejoin="round"/>
</g>
<defs>
<clipPath id="clip0_1411_1892">
<rect width="36" height="36" fill="white" transform="translate(0.89209 0.56543)"/>
</clipPath>
</defs>
</svg>
