<svg width="37" height="37" viewBox="0 0 37 37" fill="none" xmlns="http://www.w3.org/2000/svg">
<g clip-path="url(#clip0_1411_1859)">
<circle cx="16.665" cy="19.6572" r="0.527344" fill="black"/>
<circle cx="21.0332" cy="19.6572" r="0.527344" fill="black"/>
<circle cx="16.665" cy="24.0254" r="0.527344" fill="black"/>
<circle cx="21.0332" cy="24.0254" r="0.527344" fill="black"/>
<path d="M24.6729 26.9873C27.5851 26.9873 27.5851 28.3936 30.4973 28.3936C32.4226 28.3936 33.0751 27.779 34.1377 27.3624" stroke="black" stroke-width="0.7" stroke-miterlimit="10" stroke-linecap="round" stroke-linejoin="round"/>
<path d="M3.9248 26.7713C4.54911 27.0568 5.2573 27.3018 6.47272 27.3018C9.38478 27.3018 9.38478 25.8955 12.2968 25.8955" stroke="black" stroke-width="0.7" stroke-miterlimit="10" stroke-linecap="round" stroke-linejoin="round"/>
<path d="M26.4937 22.3877H30.5103C30.7044 22.3877 30.8618 22.2303 30.8618 22.0361V18.3711C30.8618 18.177 30.7044 18.0195 30.5103 18.0195H26.4937" stroke="black" stroke-width="0.7" stroke-miterlimit="10" stroke-linecap="round" stroke-linejoin="round"/>
<path d="M21.8357 26.4135C20.9775 26.9751 19.9516 27.3017 18.8493 27.3017C15.8338 27.3017 13.3892 24.8571 13.3892 21.8415C13.3892 18.826 15.8338 16.3813 18.8493 16.3813C21.8649 16.3813 24.3095 18.826 24.3095 21.8415C24.3095 22.8402 24.0414 23.7763 23.5732 24.5817" stroke="black" stroke-width="0.7" stroke-miterlimit="10" stroke-linecap="round" stroke-linejoin="round"/>
<path d="M28.6772 17.4736V22.9338" stroke="black" stroke-width="0.7" stroke-miterlimit="10" stroke-linecap="round" stroke-linejoin="round"/>
<path d="M11.2046 22.3877H7.18799C6.99386 22.3877 6.83643 22.2303 6.83643 22.0361V18.3711C6.83643 18.177 6.99386 18.0195 7.18799 18.0195H11.2046" stroke="black" stroke-width="0.7" stroke-miterlimit="10" stroke-linecap="round" stroke-linejoin="round"/>
<path d="M9.021 17.4736V22.9338" stroke="black" stroke-width="0.7" stroke-miterlimit="10" stroke-linecap="round" stroke-linejoin="round"/>
<path d="M14.9883 31.1626C17.1206 33.295 20.5778 33.295 22.7102 31.1626" stroke="black" stroke-width="0.7" stroke-miterlimit="10" stroke-linecap="round" stroke-linejoin="round"/>
<path d="M16.5327 29.6182C17.8121 30.8976 19.8865 30.8976 21.1659 29.6182" stroke="black" stroke-width="0.7" stroke-miterlimit="10" stroke-linecap="round" stroke-linejoin="round"/>
<path d="M22.8188 7.17529L24.3094 7.79271L23.692 9.28326" stroke="black" stroke-width="0.7" stroke-miterlimit="10" stroke-linecap="round" stroke-linejoin="round"/>
<path d="M13.3892 7.79203C14.4517 8.64731 15.9665 8.64731 17.0291 7.7921L17.0294 7.79182C18.0919 6.93661 19.6065 6.93661 20.6691 7.79168L20.67 7.79238C21.7325 8.64745 23.247 8.64745 24.3096 7.79238" stroke="black" stroke-width="0.7" stroke-miterlimit="10" stroke-linecap="round" stroke-linejoin="round"/>
<path d="M22.8188 11.4917L24.3094 12.1091L23.692 13.5997" stroke="black" stroke-width="0.7" stroke-miterlimit="10" stroke-linecap="round" stroke-linejoin="round"/>
<path d="M13.3892 12.1089C14.4517 12.9642 15.9665 12.9642 17.0291 12.109L17.0294 12.1087C18.0919 11.2535 19.6065 11.2535 20.6691 12.1086L20.67 12.1093C21.7325 12.9643 23.247 12.9643 24.3096 12.1093" stroke="black" stroke-width="0.7" stroke-miterlimit="10" stroke-linecap="round" stroke-linejoin="round"/>
<path d="M10.598 6.11914C9.93906 7.39405 9.56689 8.84122 9.56689 10.3753C9.56689 13.2228 10.8491 15.7709 12.8676 17.4736" stroke="black" stroke-width="0.7" stroke-miterlimit="10" stroke-linecap="round" stroke-linejoin="round"/>
<path d="M24.8308 17.4734C26.8494 15.7706 28.1316 13.2227 28.1316 10.3751C28.1316 5.24859 23.9757 1.09277 18.8492 1.09277C16.1272 1.09277 13.6789 2.26446 11.981 4.13091" stroke="black" stroke-width="0.7" stroke-miterlimit="10" stroke-linecap="round" stroke-linejoin="round"/>
<path d="M1.37646 31.2073V35.3348C1.37646 35.7231 1.69125 36.0379 2.07959 36.0379H35.6187C36.007 36.0379 36.3218 35.7231 36.3218 35.3348V20.3945C36.3218 19.9764 35.9589 19.6521 35.543 19.6953C33.4859 19.9089 33.1531 20.9553 30.8616 21.0557" stroke="black" stroke-width="0.7" stroke-miterlimit="10" stroke-linecap="round" stroke-linejoin="round"/>
<path d="M6.83665 21.0558C4.54503 20.9553 4.21231 19.909 2.15525 19.6953C1.73935 19.652 1.37646 19.9764 1.37646 20.3945V28.7463" stroke="black" stroke-width="0.7" stroke-miterlimit="10" stroke-linecap="round" stroke-linejoin="round"/>
<path d="M15.5019 17.4736H11.5562C11.362 17.4736 11.2046 17.6311 11.2046 17.8252V22.5823C11.2046 22.7764 11.362 22.9338 11.5562 22.9338H13.4276" stroke="black" stroke-width="0.7" stroke-miterlimit="10" stroke-linecap="round" stroke-linejoin="round"/>
<path d="M24.2706 22.9338H26.1421C26.3362 22.9338 26.4936 22.7764 26.4936 22.5823V17.8252C26.4936 17.6311 26.3362 17.4736 26.1421 17.4736H22.1963" stroke="black" stroke-width="0.7" stroke-miterlimit="10" stroke-linecap="round" stroke-linejoin="round"/>
</g>
<defs>
<clipPath id="clip0_1411_1859">
<rect width="36" height="36" fill="white" transform="translate(0.849121 0.56543)"/>
</clipPath>
</defs>
</svg>
