<svg width="37" height="37" viewBox="0 0 37 37" fill="none" xmlns="http://www.w3.org/2000/svg">
<g clip-path="url(#clip0_1412_3614)">
<path d="M7.82364 34.2061L2.63127 29.0137C1.41662 27.7991 0.820021 26.0982 1.00972 24.391C1.14444 23.1786 1.62046 22.0293 2.38251 21.0768L16.4966 3.6873C17.7196 2.1585 19.5712 1.26855 21.529 1.26855H24.7534C25.8929 1.26855 26.9858 1.72123 27.7915 2.52694L34.3104 9.04589C35.1161 9.85167 35.5688 10.9445 35.5688 12.084V15.3083C35.5688 17.2661 34.6789 19.1177 33.1501 20.3407L15.7607 34.4549C14.8081 35.2169 13.6589 35.6929 12.4465 35.8276H12.4464C10.7391 36.0173 9.03829 35.4207 7.82364 34.2061Z" stroke="black" stroke-miterlimit="10" stroke-linecap="round" stroke-linejoin="round"/>
<path d="M35.1689 10.2763L33.0761 12.369C30.6994 14.7457 26.8451 14.7457 24.4684 12.369C22.0924 9.99296 22.0915 6.13794 24.4684 3.76117L26.5611 1.66846" stroke="black" stroke-miterlimit="10" stroke-linecap="round" stroke-linejoin="round"/>
<path d="M27.7595 10.8681C28.7482 10.8681 29.5497 10.0665 29.5497 9.07782C29.5497 8.08911 28.7482 7.2876 27.7595 7.2876C26.7707 7.2876 25.9692 8.08911 25.9692 9.07782C25.9692 10.0665 26.7707 10.8681 27.7595 10.8681Z" stroke="black" stroke-miterlimit="10" stroke-linecap="round" stroke-linejoin="round"/>
<path d="M17.886 22.5319C19.8634 22.5319 21.4664 20.9289 21.4664 18.9515C21.4664 16.9741 19.8634 15.3711 17.886 15.3711C15.9087 15.3711 14.3057 16.9741 14.3057 18.9515C14.3057 20.9289 15.9087 22.5319 17.886 22.5319Z" stroke="black" stroke-miterlimit="10" stroke-linecap="round" stroke-linejoin="round"/>
<path d="M3.7583 19.3559C5.76453 19.889 7.90287 19.3137 9.37071 17.8458L16.6199 10.5967C17.1791 10.0374 18.0859 10.0374 18.6452 10.5967L26.2404 18.1919C26.7996 18.7511 26.7996 19.6579 26.2404 20.2172L18.9913 27.4663C17.5234 28.9341 16.9481 31.0725 17.4813 33.0787" stroke="black" stroke-miterlimit="10" stroke-linecap="round" stroke-linejoin="round"/>
<path d="M8.26505 23.5084L4.7207 27.0527L9.78408 32.1161L13.3284 28.5718L8.26505 23.5084Z" stroke="black" stroke-miterlimit="10" stroke-linecap="round" stroke-linejoin="round"/>
<path d="M13.3291 23.5086C12.4901 22.6697 11.13 22.6697 10.291 23.5086L9.27832 24.5213L12.3164 27.5594L13.3291 26.5467C14.1681 25.7077 14.1681 24.3475 13.3291 23.5086Z" stroke="black" stroke-miterlimit="10" stroke-linecap="round" stroke-linejoin="round"/>
<path d="M7.4052 3.9668C4.65001 3.9668 2.41309 6.19929 2.41309 8.95891" stroke="black" stroke-miterlimit="10" stroke-linecap="round" stroke-linejoin="round"/>
<path d="M8.04426 6.52588C6.34875 6.52588 4.97217 7.89972 4.97217 9.59797" stroke="black" stroke-miterlimit="10" stroke-linecap="round" stroke-linejoin="round"/>
<circle cx="7.86865" cy="9.42236" r="0.703125" fill="black"/>
</g>
<defs>
<clipPath id="clip0_1412_3614">
<rect width="36" height="36" fill="white" transform="translate(0.271973 0.56543)"/>
</clipPath>
</defs>
</svg>
