<svg width="37" height="37" viewBox="0 0 37 37" fill="none" xmlns="http://www.w3.org/2000/svg">
<g clip-path="url(#clip0_1410_620)">
<path d="M34.6508 13.4117V13.3919V3.38651C34.6508 2.21665 33.7027 1.26855 32.5329 1.26855H25.4729C24.3031 1.26855 23.355 2.21672 23.355 3.38651V13.4117" stroke="black" stroke-width="0.8" stroke-miterlimit="10" stroke-linecap="round" stroke-linejoin="round"/>
<path d="M31.1212 1.26855H26.8853V6.91648H31.1212V1.26855Z" stroke="black" stroke-width="0.8" stroke-miterlimit="10" stroke-linecap="round" stroke-linejoin="round"/>
<path d="M30.4148 13.2705H33.9448C35.1145 13.2705 36.0627 14.2187 36.0627 15.3885V19.6244L33.2388 23.1544H24.7668L21.9429 19.6244V15.3885C21.9429 14.2187 22.8911 13.2705 24.0608 13.2705H26.8848" stroke="black" stroke-width="0.8" stroke-miterlimit="10" stroke-linecap="round" stroke-linejoin="round"/>
<path d="M28.6574 19.6242H28.6431C27.6723 19.6242 26.8853 18.8372 26.8853 17.8664V10.4463H30.4152V17.8664C30.4152 18.8372 29.6283 19.6242 28.6574 19.6242Z" stroke="black" stroke-width="0.8" stroke-miterlimit="10" stroke-linecap="round" stroke-linejoin="round"/>
<path d="M33.239 23.1543H24.7671V26.6843H33.239V23.1543Z" stroke="black" stroke-width="0.8" stroke-miterlimit="10" stroke-linecap="round" stroke-linejoin="round"/>
<path d="M31.8271 26.6846H26.1792V30.2145H31.8271V26.6846Z" stroke="black" stroke-width="0.8" stroke-miterlimit="10" stroke-linecap="round" stroke-linejoin="round"/>
<path d="M30.4148 30.2144H27.5908V35.8623H30.4148V30.2144Z" stroke="black" stroke-width="0.8" stroke-miterlimit="10" stroke-linecap="round" stroke-linejoin="round"/>
<path d="M17.0097 14.6825H3.57861C2.41361 14.6825 1.46924 13.7381 1.46924 12.5731V3.37793C1.46924 2.21292 2.41361 1.26855 3.57861 1.26855H17.0097C18.1747 1.26855 19.1191 2.21292 19.1191 3.37793V12.5731C19.1191 13.7381 18.1747 14.6825 17.0097 14.6825Z" stroke="black" stroke-width="0.8" stroke-miterlimit="10" stroke-linecap="round" stroke-linejoin="round"/>
<path d="M13.471 11.1523H7.11698L4.99902 9.03432V4.79834H15.5889V9.03432L13.471 11.1523Z" stroke="black" stroke-width="0.8" stroke-miterlimit="10" stroke-linecap="round" stroke-linejoin="round"/>
<path d="M8.5293 4.79834V6.91629" stroke="black" stroke-width="0.8" stroke-miterlimit="10" stroke-linecap="round" stroke-linejoin="round"/>
<path d="M12.0591 4.79834V6.91629" stroke="black" stroke-width="0.8" stroke-miterlimit="10" stroke-linecap="round" stroke-linejoin="round"/>
</g>
<defs>
<clipPath id="clip0_1410_620">
<rect width="36" height="36" fill="white" transform="translate(0.766113 0.56543)"/>
</clipPath>
</defs>
</svg>
