<svg width="36" height="36" viewBox="0 0 36 36" fill="none" xmlns="http://www.w3.org/2000/svg">
<g clip-path="url(#clip0_405_1349)">
<path d="M34.5508 18.4683L32.4253 17.2411L32.5028 17.1069C32.6747 16.8085 32.7211 16.4541 32.632 16.1214C32.5429 15.7888 32.3254 15.5051 32.0274 15.3326L12.9533 4.3202C12.6549 4.14834 12.3005 4.10187 11.9679 4.191C11.6353 4.28012 11.3516 4.49757 11.1791 4.79561L11.1016 4.92988L8.97601 3.70269C8.67759 3.5309 8.32321 3.48447 7.99061 3.57359C7.65801 3.66271 7.37432 3.88011 7.20178 4.17809L4.02088 9.68757C3.84909 9.98599 3.80266 10.3404 3.89178 10.673C3.9809 11.0056 4.19829 11.2893 4.49628 11.4618L6.62183 12.689L6.54431 12.8233C6.3835 13.1038 6.33337 13.4343 6.40375 13.7499C6.47413 14.0655 6.65995 14.3434 6.92472 14.5291L3.86318 19.8318C3.79972 19.9417 3.78253 20.0723 3.81537 20.1949C3.84822 20.3175 3.92842 20.422 4.03832 20.4855C4.14823 20.5489 4.27885 20.5661 4.40143 20.5333C4.52402 20.5004 4.62853 20.4202 4.69199 20.3103L7.74765 15.0178L25.3659 25.1896L22.3102 30.4822C22.2467 30.5921 22.2295 30.7227 22.2624 30.8453C22.2952 30.9679 22.3754 31.0724 22.4853 31.1359C22.5952 31.1993 22.7259 31.2165 22.8484 31.1837C22.971 31.1508 23.0756 31.0706 23.139 30.9607L26.2005 25.658C26.4937 25.7947 26.8274 25.8168 27.1361 25.7201C27.4448 25.6233 27.7061 25.4146 27.8687 25.1349L27.9463 25.0007L30.0711 26.2274C30.3695 26.3992 30.7239 26.4456 31.0565 26.3565C31.3891 26.2674 31.6728 26.05 31.8453 25.752L35.0262 20.2425C35.198 19.9441 35.2444 19.5898 35.1553 19.2571C35.0662 18.9245 34.8488 18.6409 34.5508 18.4683ZM16.2776 7.34458L17.4984 8.04937L12.5218 16.669L11.3011 15.9642L16.2776 7.34458ZM10.4723 15.4857L9.25153 14.7809L14.2281 6.16128L15.4488 6.86607L10.4723 15.4857ZM18.3272 8.52789L19.5491 9.23335L14.5725 17.853L13.3506 17.1475L18.3272 8.52789ZM20.3767 9.71119L21.5974 10.416L16.6209 19.0356L15.4013 18.3315L20.3767 9.71119ZM22.4262 10.8945L23.647 11.5993L18.6704 20.2189L17.4497 19.5141L22.4262 10.8945ZM24.4758 12.0778L25.6965 12.7826L20.7199 21.4022L19.4992 20.6974L24.4758 12.0778ZM26.5253 13.2611L27.746 13.9659L22.7695 22.5855L21.5488 21.8807L26.5253 13.2611ZM28.5749 14.4444L29.7956 15.1492L24.819 23.7688L23.5983 23.064L28.5749 14.4444ZM4.9748 10.633C4.89635 10.5876 4.83911 10.513 4.81566 10.4254C4.7922 10.3379 4.80444 10.2446 4.84969 10.1661L8.03059 4.65661C8.07597 4.57816 8.15062 4.52092 8.23816 4.49747C8.3257 4.47401 8.41897 4.48625 8.49749 4.5315L10.623 5.75869L7.10035 11.8602L4.9748 10.633ZM7.37313 13.3018L12.0079 5.27412C12.0532 5.19562 12.1279 5.13833 12.2154 5.11487C12.303 5.09141 12.3963 5.10369 12.4748 5.14902L13.3983 5.68222L8.42177 14.3019L7.49823 13.7687C7.41978 13.7233 7.36255 13.6486 7.33909 13.5611C7.31564 13.4736 7.32788 13.3803 7.37313 13.3018ZM27.0392 24.656C26.9938 24.7344 26.9192 24.7917 26.8316 24.8151C26.7441 24.8386 26.6508 24.8264 26.5723 24.7811L25.6488 24.2479L30.6253 15.6282L31.5489 16.1614C31.6274 16.2068 31.6847 16.2814 31.7081 16.369C31.7316 16.4565 31.7193 16.5498 31.674 16.6283L27.0392 24.656ZM31.0165 25.2735C30.9711 25.3519 30.8964 25.4091 30.8089 25.4325C30.7214 25.456 30.6282 25.4438 30.5496 25.3986L28.4241 24.1714L31.9468 18.0699L34.0723 19.2971C34.1507 19.3426 34.2079 19.4172 34.2313 19.5047C34.2548 19.5922 34.2426 19.6855 34.1974 19.764L31.0165 25.2735Z" fill="black"/>
</g>
<defs>
<clipPath id="clip0_405_1349">
<rect width="35" height="35" fill="white" transform="translate(0.375 0.318604)"/>
</clipPath>
</defs>
</svg>
