<svg width="37" height="37" viewBox="0 0 37 37" fill="none" xmlns="http://www.w3.org/2000/svg">
<g clip-path="url(#clip0_1410_653)">
<path d="M11.4183 3.38672H14.9483V10.4467H4.3584V3.38672H7.88837" stroke="black" stroke-width="0.7" stroke-miterlimit="10" stroke-linecap="round" stroke-linejoin="round"/>
<path d="M11.4182 1.26855H7.88818V6.91648H11.4182V1.26855Z" stroke="black" stroke-width="0.7" stroke-miterlimit="10" stroke-linecap="round" stroke-linejoin="round"/>
<path d="M4.3584 6.9165H14.9483" stroke="black" stroke-width="0.7" stroke-miterlimit="10" stroke-linecap="round" stroke-linejoin="round"/>
<path d="M14.2422 21.7422H5.06431L2.94629 19.6242V10.4463H16.3602V19.6242L14.2422 21.7422Z" stroke="black" stroke-width="0.7" stroke-miterlimit="10" stroke-linecap="round" stroke-linejoin="round"/>
<path d="M14.2424 21.7427H5.06445V24.5666H14.2424V21.7427Z" stroke="black" stroke-width="0.7" stroke-miterlimit="10" stroke-linecap="round" stroke-linejoin="round"/>
<path d="M12.83 24.5664H6.47607V27.3904H12.83V24.5664Z" stroke="black" stroke-width="0.7" stroke-miterlimit="10" stroke-linecap="round" stroke-linejoin="round"/>
<path d="M11.0652 27.3901H8.24121V35.8621H11.0652V27.3901Z" stroke="black" stroke-width="0.7" stroke-miterlimit="10" stroke-linecap="round" stroke-linejoin="round"/>
<path d="M9.66643 17.5062H9.64062C7.89315 17.5062 6.47656 16.0896 6.47656 14.3422V10.4463H12.8305V14.3422C12.8305 16.0896 11.4139 17.5062 9.66643 17.5062Z" stroke="black" stroke-width="0.7" stroke-miterlimit="10" stroke-linecap="round" stroke-linejoin="round"/>
<path d="M24.8322 33.7446H21.3022V26.6846H31.8922V33.7446H28.3622" stroke="black" stroke-width="0.7" stroke-miterlimit="10" stroke-linecap="round" stroke-linejoin="round"/>
<path d="M28.362 30.2144H24.832V35.8623H28.362V30.2144Z" stroke="black" stroke-width="0.7" stroke-miterlimit="10" stroke-linecap="round" stroke-linejoin="round"/>
<path d="M31.8922 30.2144H21.3022" stroke="black" stroke-width="0.7" stroke-miterlimit="10" stroke-linecap="round" stroke-linejoin="round"/>
<path d="M22.0082 15.3887H31.1861L33.3041 17.5067V26.6846H19.8901V17.5067L22.0082 15.3887Z" stroke="black" stroke-width="0.7" stroke-miterlimit="10" stroke-linecap="round" stroke-linejoin="round"/>
<path d="M22.0081 15.3887L31.186 15.3887V12.5647L22.0081 12.5647V15.3887Z" stroke="black" stroke-width="0.7" stroke-miterlimit="10" stroke-linecap="round" stroke-linejoin="round"/>
<path d="M23.42 12.5645H29.7739V9.74049H23.42V12.5645Z" stroke="black" stroke-width="0.7" stroke-miterlimit="10" stroke-linecap="round" stroke-linejoin="round"/>
<path d="M25.1853 9.74072H28.0093V1.26877H25.1853V9.74072Z" stroke="black" stroke-width="0.7" stroke-miterlimit="10" stroke-linecap="round" stroke-linejoin="round"/>
<path d="M26.584 19.6245H26.6098C28.3573 19.6245 29.7739 21.0411 29.7739 22.7886V26.6844H23.4199V22.7886C23.4199 21.0411 24.8365 19.6245 26.584 19.6245Z" stroke="black" stroke-width="0.7" stroke-miterlimit="10" stroke-linecap="round" stroke-linejoin="round"/>
</g>
<defs>
<clipPath id="clip0_1410_653">
<rect width="36" height="36" fill="white" transform="translate(0.125 0.56543)"/>
</clipPath>
</defs>
</svg>
