<svg width="37" height="37" viewBox="0 0 37 37" fill="none" xmlns="http://www.w3.org/2000/svg">
<g clip-path="url(#clip0_1557_391)">
<path d="M26.2887 21.7332L30.5889 28.2392C30.5889 28.2392 30.4147 28.9942 29.7177 29.6912C29.0545 30.3544 28.2657 30.5624 28.2657 30.5624L21.7598 26.2622C22.4416 25.9149 23.2925 25.3138 24.3164 24.2899C25.3392 23.2671 25.9414 22.4151 26.2887 21.7332Z" stroke="black" stroke-miterlimit="10" stroke-linecap="round" stroke-linejoin="round"/>
<path d="M30.5888 28.2389L34.422 32.0721L32.0988 34.3952L28.2656 30.562C28.2656 30.562 29.0543 30.3541 29.7176 29.6908C30.4145 28.9939 30.5888 28.2389 30.5888 28.2389Z" stroke="black" stroke-miterlimit="10" stroke-linecap="round" stroke-linejoin="round"/>
<path d="M27.2103 26.0052C27.6546 25.5017 27.9787 25.0475 28.2122 24.6433" stroke="black" stroke-miterlimit="10" stroke-linecap="round" stroke-linejoin="round"/>
<path d="M8.75132 3.49783C8.75132 3.49783 9.93195 5.22114 7.58975 7.56334C5.24656 9.90653 3.52423 8.72492 3.52423 8.72492C3.52423 8.72492 2.34361 7.00161 4.68581 4.65941C7.02894 2.31628 8.75132 3.49783 8.75132 3.49783Z" stroke="black" stroke-miterlimit="10" stroke-linecap="round" stroke-linejoin="round"/>
<path d="M8.75053 3.49752L12.6807 7.42771C12.3938 8.17577 11.7729 9.18692 10.4929 10.467C9.21283 11.747 8.20168 12.3679 7.45421 12.6554L3.52344 8.72461C3.52344 8.72461 5.24605 9.90593 7.58895 7.56303C9.93127 5.22072 8.75053 3.49752 8.75053 3.49752Z" stroke="black" stroke-miterlimit="10" stroke-linecap="round" stroke-linejoin="round"/>
<path d="M14.7786 7.23987L14.1688 6.59328C13.617 6.04147 12.9236 6.51307 12.8505 6.86154C12.8156 7.02997 12.761 7.21815 12.6804 7.42775C12.3935 8.17575 11.7727 9.18684 10.4928 10.4667C9.21293 11.7466 8.20184 12.3674 7.45442 12.6548C7.24476 12.7356 7.056 12.7896 6.88821 12.825C6.53916 12.8976 6.01511 13.5896 6.61995 14.1433L10.0658 17.3927L11.5758 18.3221L19.7259 26.1505C20.1819 26.5565 20.8485 26.6541 21.4549 26.4044C22.1826 26.0903 23.1338 25.4712 24.3156 24.2894C25.4962 23.1088 26.1164 22.1564 26.4306 21.4287C26.5549 21.1255 26.5932 20.8073 26.5496 20.5082C26.5055 20.2085 26.3794 19.928 26.1768 19.6997L19.5961 12.8488" stroke="black" stroke-miterlimit="10" stroke-linecap="round" stroke-linejoin="round"/>
<circle cx="17.3198" cy="9.9292" r="0.821358" transform="rotate(-45 17.3198 9.9292)" fill="black"/>
<path d="M15.9529 15.9265C13.5852 18.2942 12.1373 18.4074 11.5762 18.3228" stroke="black" stroke-miterlimit="10" stroke-linecap="round" stroke-linejoin="round"/>
<path d="M20.6836 13.981L20.6842 13.9816C20.7351 14.6078 20.5033 16.0221 18.2756 18.2498C16.048 20.4774 14.6349 20.7092 14.008 20.6589" stroke="black" stroke-miterlimit="10" stroke-linecap="round" stroke-linejoin="round"/>
<path d="M16.4322 22.9874C17.1036 23.0037 18.4846 22.6867 20.5989 20.5724C22.7138 18.4574 23.0296 17.0765 23.0134 16.4051" stroke="black" stroke-miterlimit="10" stroke-linecap="round" stroke-linejoin="round"/>
<path d="M7.58958 7.56321L7.00879 6.98242" stroke="black" stroke-miterlimit="10" stroke-linecap="round" stroke-linejoin="round"/>
</g>
<defs>
<clipPath id="clip0_1557_391">
<rect width="36" height="36" fill="white" transform="translate(0.921875 0.702637)"/>
</clipPath>
</defs>
</svg>
