<svg width="37" height="37" viewBox="0 0 37 37" fill="none" xmlns="http://www.w3.org/2000/svg">
<g clip-path="url(#clip0_1410_705)">
<path d="M35.7944 15.8779V24.7471C35.7944 25.6046 35.0992 26.2998 34.2417 26.2998H7.81396" stroke="black" stroke-width="0.7" stroke-miterlimit="10" stroke-linecap="round" stroke-linejoin="round"/>
<path d="M5.26707 26.2998H2.40183C1.5443 26.2998 0.849121 25.6046 0.849121 24.7471V12.3838C0.849121 11.5262 1.5443 10.8311 2.40183 10.8311H34.2417C35.0992 10.8311 35.7944 11.5262 35.7944 12.3838V13.3466" stroke="black" stroke-width="0.7" stroke-miterlimit="10" stroke-linecap="round" stroke-linejoin="round"/>
<path d="M2.9585 23.8682V13.2627C2.9585 13.0847 3.10278 12.9404 3.28074 12.9404H33.3627C33.5407 12.9404 33.685 13.0847 33.685 13.2627V23.8681C33.685 24.0461 33.5407 24.1904 33.3627 24.1904H3.28074C3.10278 24.1904 2.9585 24.0461 2.9585 23.8682Z" stroke="black" stroke-width="0.7" stroke-miterlimit="10" stroke-linecap="round" stroke-linejoin="round"/>
<path d="M5.06787 17.9854V15.6299C5.06787 15.3095 5.32761 15.0498 5.64795 15.0498H30.9956C31.3159 15.0498 31.5757 15.3095 31.5757 15.6299V17.9854C31.5757 18.3057 31.3159 18.5654 30.9956 18.5654H5.64795C5.32761 18.5654 5.06787 18.3057 5.06787 17.9854Z" stroke="black" stroke-width="0.7" stroke-miterlimit="10" stroke-linecap="round" stroke-linejoin="round"/>
<path d="M10.5256 20.6748H9.49773C9.19912 20.6748 8.95703 20.4327 8.95703 20.1341V18.5654H11.0664V20.1341C11.0663 20.4327 10.8243 20.6748 10.5256 20.6748Z" stroke="black" stroke-width="0.7" stroke-miterlimit="10" stroke-linecap="round" stroke-linejoin="round"/>
<path d="M16.0657 20.6748H15.0378C14.7392 20.6748 14.4971 20.4327 14.4971 20.1341V18.5654H16.6064V20.1341C16.6064 20.4327 16.3644 20.6748 16.0657 20.6748Z" stroke="black" stroke-width="0.7" stroke-miterlimit="10" stroke-linecap="round" stroke-linejoin="round"/>
<path d="M21.6057 20.6748H20.5778C20.2792 20.6748 20.0371 20.4327 20.0371 20.1341V18.5654H22.1465V20.1341C22.1464 20.4327 21.9043 20.6748 21.6057 20.6748Z" stroke="black" stroke-width="0.7" stroke-miterlimit="10" stroke-linecap="round" stroke-linejoin="round"/>
<path d="M27.1457 20.6748H26.1179C25.8192 20.6748 25.5771 20.4327 25.5771 20.1341V18.5654H27.6865V20.1341C27.6865 20.4327 27.4444 20.6748 27.1457 20.6748Z" stroke="black" stroke-width="0.7" stroke-miterlimit="10" stroke-linecap="round" stroke-linejoin="round"/>
</g>
<defs>
<clipPath id="clip0_1410_705">
<rect width="36" height="36" fill="white" transform="translate(0.321777 0.56543)"/>
</clipPath>
</defs>
</svg>
