<svg width="36" height="36" viewBox="0 0 36 36" fill="none" xmlns="http://www.w3.org/2000/svg">
<path d="M17.7139 19.1026C14.6433 19.1026 11.7494 18.4449 9.56612 17.2498C7.30134 16.0119 6.05371 14.3341 6.05371 12.5294C6.05371 10.8814 7.11738 9.31236 9.0488 8.10997C10.8914 6.9635 13.4106 6.2191 16.1428 6.01465L16.2064 6.86575C13.6095 7.06039 11.2278 7.75954 9.49996 8.83474C7.82806 9.87536 6.90738 11.1874 6.90738 12.5294C6.90738 14.008 7.99708 15.4182 9.97588 16.5011C12.0371 17.6284 14.7842 18.249 17.7139 18.249C20.6437 18.249 23.3908 17.6284 25.452 16.5011C27.4304 15.4182 28.5201 14.008 28.5201 12.5294C28.5201 11.1874 27.5994 9.87536 25.9275 8.83474C24.2001 7.75954 21.8184 7.06039 19.2211 6.86575L19.2851 6.01465C22.0169 6.2191 24.5352 6.9635 26.3787 8.10997C28.3101 9.31236 29.3737 10.8814 29.3737 12.5294C29.3737 14.3341 28.1265 16.0107 25.8618 17.2498C23.6781 18.4449 20.7846 19.1026 17.7139 19.1026Z" fill="black"/>
<path d="M17.7141 27.6855C14.6434 27.6855 11.7499 27.0278 9.56667 25.8327C7.30189 24.5948 6.05469 22.917 6.05469 21.1123H6.90835C6.90835 22.5909 7.99806 24.0011 9.97643 25.084C12.0372 26.2113 14.7839 26.8319 17.7141 26.8319C20.6443 26.8319 23.3909 26.2113 25.4521 25.0857C27.4305 24.0028 28.5202 22.5926 28.5202 21.114H29.3739C29.3739 22.9187 28.1267 24.5953 25.8619 25.8344C23.6782 27.0278 20.7847 27.6855 17.7141 27.6855Z" fill="black"/>
<path d="M6.05469 12.5288H6.90835V21.112H6.05469V12.5288Z" fill="black"/>
<path d="M28.5195 12.5288H29.3732V21.1124H28.5195V12.5288Z" fill="black"/>
<path d="M17.2869 24.1858H18.1405V30.8901H17.2869V24.1858Z" fill="black"/>
<path d="M7.11133 26.9553L10.4397 20.9063L11.1875 21.3177L7.85914 27.3668L7.11133 26.9553Z" fill="black"/>
<path d="M27.5638 27.3677L26.282 25.0376L24.2354 21.3177L24.9832 20.9062L27.0298 24.6261L28.3116 26.9562L27.5638 27.3677Z" fill="black"/>
<path d="M18.0554 12.9554H17.3725C16.9415 12.955 16.5284 12.7836 16.2236 12.4789C15.9189 12.1741 15.7475 11.761 15.7471 11.33V0.5H19.6791V11.33C19.6786 11.7607 19.5075 12.1736 19.2031 12.4783C18.8987 12.7829 18.486 12.9545 18.0554 12.9554ZM16.6016 1.35367V11.33C16.6018 11.5345 16.6831 11.7305 16.8276 11.8752C16.9721 12.0198 17.168 12.1013 17.3725 12.1018H18.0554C18.26 12.1015 18.4561 12.0202 18.6008 11.8755C18.7455 11.7308 18.8269 11.5346 18.8271 11.33V1.35367H16.6016Z" fill="black"/>
<path d="M17.7146 35.5C17.2165 35.5 16.7296 35.3523 16.3155 35.0756C15.9014 34.7989 15.5786 34.4056 15.388 33.9454C15.1974 33.4853 15.1475 32.9789 15.2447 32.4904C15.3418 32.0019 15.5817 31.5532 15.9339 31.201C16.2861 30.8488 16.7348 30.6089 17.2233 30.5118C17.7118 30.4146 18.2182 30.4645 18.6783 30.6551C19.1385 30.8457 19.5318 31.1685 19.8085 31.5826C20.0852 31.9967 20.2329 32.4836 20.2329 32.9817C20.2321 33.6494 19.9666 34.2894 19.4945 34.7615C19.0223 35.2336 18.3823 35.4992 17.7146 35.5ZM17.7146 31.317C17.3854 31.317 17.0635 31.4147 16.7898 31.5976C16.516 31.7805 16.3027 32.0405 16.1767 32.3447C16.0507 32.6488 16.0177 32.9835 16.0819 33.3065C16.1462 33.6294 16.3047 33.926 16.5375 34.1588C16.7703 34.3916 17.0669 34.5501 17.3898 34.6144C17.7128 34.6786 18.0475 34.6456 18.3516 34.5196C18.6558 34.3936 18.9158 34.1803 19.0987 33.9065C19.2816 33.6328 19.3793 33.3109 19.3793 32.9817C19.3787 32.5404 19.2031 32.1173 18.8911 31.8052C18.579 31.4932 18.1559 31.3176 17.7146 31.317Z" fill="black"/>
<path d="M6.48121 31.5144C5.98313 31.5144 5.49624 31.3667 5.08211 31.09C4.66797 30.8133 4.34519 30.42 4.15459 29.9598C3.96398 29.4997 3.91411 28.9933 4.01128 28.5048C4.10845 28.0163 4.3483 27.5676 4.70049 27.2154C5.05268 26.8632 5.5014 26.6233 5.98991 26.5262C6.47841 26.429 6.98476 26.4789 7.44493 26.6695C7.90509 26.8601 8.2984 27.1829 8.57511 27.597C8.85183 28.0111 8.99952 28.498 8.99952 28.9961C8.99873 29.6638 8.73316 30.3038 8.26105 30.7759C7.78895 31.2481 7.14886 31.5136 6.48121 31.5144ZM6.48121 27.3315C6.15197 27.3315 5.83013 27.4291 5.55638 27.612C5.28263 27.7949 5.06927 28.0549 4.94327 28.3591C4.81728 28.6632 4.78431 28.9979 4.84854 29.3209C4.91278 29.6438 5.07132 29.9404 5.30412 30.1732C5.53693 30.406 5.83354 30.5645 6.15645 30.6288C6.47936 30.693 6.81407 30.66 7.11824 30.534C7.42242 30.408 7.6824 30.1947 7.86531 29.9209C8.04823 29.6472 8.14586 29.3253 8.14586 28.9961C8.14597 28.7774 8.103 28.5609 8.01939 28.3588C7.93578 28.1567 7.81318 27.9731 7.6586 27.8185C7.50401 27.6638 7.32046 27.5411 7.11844 27.4574C6.91642 27.3737 6.69989 27.3306 6.48121 27.3306V27.3315Z" fill="black"/>
<path d="M28.948 31.5144C28.4499 31.5144 27.963 31.3667 27.5489 31.09C27.1348 30.8133 26.812 30.42 26.6214 29.9598C26.4308 29.4997 26.3809 28.9933 26.4781 28.5048C26.5752 28.0163 26.8151 27.5676 27.1673 27.2154C27.5195 26.8632 27.9682 26.6233 28.4567 26.5262C28.9452 26.429 29.4516 26.4789 29.9117 26.6695C30.3719 26.8601 30.7652 27.1829 31.0419 27.597C31.3186 28.0111 31.4663 28.498 31.4663 28.9961C31.4655 29.6638 31.2 30.3038 30.7279 30.7759C30.2557 31.2481 29.6157 31.5136 28.948 31.5144ZM28.948 27.3315C28.6188 27.3315 28.2969 27.4291 28.0232 27.612C27.7494 27.7949 27.5361 28.0549 27.4101 28.3591C27.2841 28.6632 27.2511 28.9979 27.3153 29.3209C27.3796 29.6438 27.5381 29.9404 27.7709 30.1732C28.0037 30.406 28.3003 30.5645 28.6232 30.6288C28.9462 30.693 29.2809 30.66 29.585 30.534C29.8892 30.408 30.1492 30.1947 30.3321 29.9209C30.515 29.6472 30.6127 29.3253 30.6127 28.9961C30.6123 28.5546 30.4369 28.1313 30.1248 27.8191C29.8127 27.5068 29.3895 27.3312 28.948 27.3306V27.3315Z" fill="black"/>
</svg>
