<svg width="37" height="37" viewBox="0 0 37 37" fill="none" xmlns="http://www.w3.org/2000/svg">
<g clip-path="url(#clip0_1411_1971)">
<path d="M16.5259 25.9502H8.01807C4.23188 25.9502 1.1626 22.8809 1.1626 19.0947C1.1626 15.3085 4.23188 12.2393 8.01807 12.2393H17.5806" stroke="black" stroke-miterlimit="10"/>
<path d="M24.9634 25.9502H20.7446" stroke="black" stroke-miterlimit="10"/>
<path d="M19.6899 12.2393H29.2524C33.0386 12.2393 36.1079 15.3085 36.1079 19.0947C36.1079 22.8809 33.0386 25.9502 29.2524 25.9502H26.0181" stroke="black" stroke-miterlimit="10"/>
<path d="M12.3071 14.3486H29.1821C31.8033 14.3486 33.9282 16.4735 33.9282 19.0947C33.9282 21.7159 31.8033 23.8408 29.1821 23.8408H8.08838C5.4672 23.8408 3.34229 21.7159 3.34229 19.0947C3.34229 16.4735 5.4672 14.3486 8.08838 14.3486H11.2524" stroke="black" stroke-width="0.5" stroke-miterlimit="10"/>
<path d="M29.1821 23.8408C31.8033 23.8408 33.9282 21.7159 33.9282 19.0947C33.9282 16.4735 31.8033 14.3486 29.1821 14.3486C26.5609 14.3486 24.436 16.4735 24.436 19.0947C24.436 21.7159 26.5609 23.8408 29.1821 23.8408Z" stroke="black" stroke-width="0.5" stroke-miterlimit="10"/>
<path d="M29.1821 21.7314C30.6383 21.7314 31.8188 20.5509 31.8188 19.0947C31.8188 17.6385 30.6383 16.458 29.1821 16.458C27.7259 16.458 26.5454 17.6385 26.5454 19.0947C26.5454 20.5509 27.7259 21.7314 29.1821 21.7314Z" stroke="black" stroke-width="0.5" stroke-miterlimit="10"/>
<path d="M8.08838 21.7314C9.5446 21.7314 10.7251 20.5509 10.7251 19.0947C10.7251 17.6385 9.5446 16.458 8.08838 16.458C6.63216 16.458 5.45166 17.6385 5.45166 19.0947C5.45166 20.5509 6.63216 21.7314 8.08838 21.7314Z" stroke="black" stroke-miterlimit="10"/>
<path d="M14.4165 19.0947H22.854" stroke="black" stroke-miterlimit="10"/>
<path d="M17.5806 14.3484V11.2075H19.6899V14.3484" stroke="black" stroke-miterlimit="10"/>
<path d="M16.5259 23.8408V30.1651H20.7446V23.8408" stroke="black" stroke-miterlimit="10"/>
<path d="M29.1816 9.60254V6.43848" stroke="black" stroke-miterlimit="10"/>
<path d="M27.276 10.2192L25.2422 7.79541" stroke="black" stroke-miterlimit="10"/>
<path d="M33.1212 7.79541L31.0874 10.2192" stroke="black" stroke-miterlimit="10"/>
</g>
<defs>
<clipPath id="clip0_1411_1971">
<rect width="36" height="36" fill="white" transform="translate(0.635254 0.56543)"/>
</clipPath>
</defs>
</svg>
