<svg width="37" height="37" viewBox="0 0 37 37" fill="none" xmlns="http://www.w3.org/2000/svg">
<g clip-path="url(#clip0_1411_1986)">
<mask id="mask0_1411_1986" style="mask-type:luminance" maskUnits="userSpaceOnUse" x="0" y="0" width="37" height="37">
<path d="M0.592773 0.565434H36.5928V36.5654H0.592773V0.565434Z" fill="white"/>
</mask>
<g mask="url(#mask0_1411_1986)">
<path d="M20.2222 1.26855L9.5 21.9915H16.9638V35.8623L27.6858 15.1394H20.2222V1.26855Z" stroke="black" stroke-miterlimit="10" stroke-linecap="round" stroke-linejoin="round"/>
</g>
<path d="M30.6348 9.28906L32.9535 6.9703" stroke="black" stroke-miterlimit="10" stroke-linecap="round" stroke-linejoin="round"/>
<mask id="mask1_1411_1986" style="mask-type:luminance" maskUnits="userSpaceOnUse" x="0" y="0" width="37" height="37">
<path d="M0.592773 0.565434H36.5928V36.5654H0.592773V0.565434Z" fill="white"/>
</mask>
<g mask="url(#mask1_1411_1986)">
<path d="M32.0928 12.8096H34.5927" stroke="black" stroke-miterlimit="10" stroke-linecap="round" stroke-linejoin="round"/>
</g>
<path d="M27.1143 7.83057V5.33075" stroke="black" stroke-miterlimit="10" stroke-linecap="round" stroke-linejoin="round"/>
<path d="M6.55119 27.8419L4.23242 30.1606" stroke="black" stroke-miterlimit="10" stroke-linecap="round" stroke-linejoin="round"/>
<mask id="mask2_1411_1986" style="mask-type:luminance" maskUnits="userSpaceOnUse" x="0" y="0" width="37" height="37">
<path d="M0.592773 0.565434H36.5928V36.5654H0.592773V0.565434Z" fill="white"/>
</mask>
<g mask="url(#mask2_1411_1986)">
<path d="M5.09259 24.3213H2.59277" stroke="black" stroke-miterlimit="10" stroke-linecap="round" stroke-linejoin="round"/>
</g>
<path d="M10.0713 29.3V31.7998" stroke="black" stroke-miterlimit="10" stroke-linecap="round" stroke-linejoin="round"/>
</g>
<defs>
<clipPath id="clip0_1411_1986">
<rect width="36" height="36" fill="white" transform="translate(0.592773 0.56543)"/>
</clipPath>
</defs>
</svg>
