<svg width="37" height="37" viewBox="0 0 37 37" fill="none" xmlns="http://www.w3.org/2000/svg">
<g clip-path="url(#clip0_1411_1944)">
<path d="M12.2056 3.91083C10.8667 5.40659 10.0527 7.38187 10.0527 9.54729C10.0527 14.2166 13.8379 18.0018 18.5072 18.0018C23.1766 18.0018 26.9618 14.2166 26.9618 9.54729C26.9618 4.87798 23.1765 1.09277 18.5072 1.09277C16.8494 1.09277 15.3031 1.56991 13.998 2.39433" stroke="black" stroke-width="0.8" stroke-miterlimit="10" stroke-linecap="round" stroke-linejoin="round"/>
<path d="M18.5071 15.7471C21.9312 15.7471 24.707 12.9712 24.707 9.54711C24.707 6.12298 21.9312 3.34717 18.5071 3.34717C15.0829 3.34717 12.3071 6.12298 12.3071 9.54711C12.3071 12.9712 15.0829 15.7471 18.5071 15.7471Z" stroke="black" stroke-width="0.8" stroke-miterlimit="10" stroke-linecap="round" stroke-linejoin="round"/>
<path d="M4.97998 36.0381H32.0344" stroke="black" stroke-width="0.8" stroke-miterlimit="10" stroke-linecap="round" stroke-linejoin="round"/>
<path d="M4.97998 32.0928C9.19184 33.1841 13.7482 33.7836 18.5072 33.7836C23.2662 33.7836 27.8226 33.1841 32.0344 32.0928" stroke="black" stroke-width="0.8" stroke-miterlimit="10" stroke-linecap="round" stroke-linejoin="round"/>
<path d="M4.97998 27.5835C9.19184 30.1299 13.7482 31.5289 18.5072 31.5289C23.2662 31.5289 27.8226 30.1299 32.0344 27.5835" stroke="black" stroke-width="0.8" stroke-miterlimit="10" stroke-linecap="round" stroke-linejoin="round"/>
<path d="M18.5073 28.147V29.2742" stroke="black" stroke-width="0.8" stroke-miterlimit="10" stroke-linecap="round" stroke-linejoin="round"/>
<path d="M19.0709 28.1472H17.9437C17.3211 28.1472 16.8164 27.6425 16.8164 27.0199V21.3836C16.8164 20.761 17.3211 20.2563 17.9437 20.2563H19.0709C19.6935 20.2563 20.1982 20.761 20.1982 21.3836V27.0199C20.1982 27.6425 19.6935 28.1472 19.0709 28.1472Z" stroke="black" stroke-width="0.8" stroke-miterlimit="10" stroke-linecap="round" stroke-linejoin="round"/>
<path d="M17.3799 18.002V20.2565" stroke="black" stroke-width="0.8" stroke-miterlimit="10" stroke-linecap="round" stroke-linejoin="round"/>
<path d="M19.6343 18.002V20.2565" stroke="black" stroke-width="0.8" stroke-miterlimit="10" stroke-linecap="round" stroke-linejoin="round"/>
<path d="M16.8164 25.8926H20.1982" stroke="black" stroke-width="0.8" stroke-miterlimit="10" stroke-linecap="round" stroke-linejoin="round"/>
<path d="M18.5071 10.6744C19.1297 10.6744 19.6344 10.1697 19.6344 9.54717C19.6344 8.92461 19.1297 8.41992 18.5071 8.41992C17.8846 8.41992 17.3799 8.92461 17.3799 9.54717C17.3799 10.1697 17.8846 10.6744 18.5071 10.6744Z" stroke="black" stroke-width="0.8" stroke-miterlimit="10" stroke-linecap="round" stroke-linejoin="round"/>
<path d="M18.5073 3.34717V4.47442" stroke="black" stroke-width="0.8" stroke-miterlimit="10" stroke-linecap="round" stroke-linejoin="round"/>
<path d="M18.5073 14.6201V15.7474" stroke="black" stroke-width="0.8" stroke-miterlimit="10" stroke-linecap="round" stroke-linejoin="round"/>
<path d="M24.7073 9.54736H23.5801" stroke="black" stroke-width="0.8" stroke-miterlimit="10" stroke-linecap="round" stroke-linejoin="round"/>
<path d="M13.4344 9.54736H12.3071" stroke="black" stroke-width="0.8" stroke-miterlimit="10" stroke-linecap="round" stroke-linejoin="round"/>
<path d="M22.8914 5.16309L22.0942 5.96022" stroke="black" stroke-width="0.8" stroke-miterlimit="10" stroke-linecap="round" stroke-linejoin="round"/>
<path d="M14.9202 13.1343L14.123 13.9314" stroke="black" stroke-width="0.8" stroke-miterlimit="10" stroke-linecap="round" stroke-linejoin="round"/>
<path d="M22.8914 13.9314L22.0942 13.1343" stroke="black" stroke-width="0.8" stroke-miterlimit="10" stroke-linecap="round" stroke-linejoin="round"/>
<path d="M14.9202 5.96022L14.123 5.16309" stroke="black" stroke-width="0.8" stroke-miterlimit="10" stroke-linecap="round" stroke-linejoin="round"/>
<path d="M17.9586 10.6445L17.3799 11.8019" stroke="black" stroke-width="0.8" stroke-miterlimit="10" stroke-linecap="round" stroke-linejoin="round"/>
<path d="M20.1982 6.16553L19.0835 8.395" stroke="black" stroke-width="0.8" stroke-miterlimit="10" stroke-linecap="round" stroke-linejoin="round"/>
<path d="M11.7437 19.1289V26.4562" stroke="black" stroke-width="0.8" stroke-miterlimit="10" stroke-linecap="round" stroke-linejoin="round"/>
<path d="M10.0527 24.7651L11.7436 27.0197L13.4346 24.7651" stroke="black" stroke-width="0.8" stroke-miterlimit="10" stroke-linecap="round" stroke-linejoin="round"/>
<path d="M25.271 19.1289V26.4562" stroke="black" stroke-width="0.8" stroke-miterlimit="10" stroke-linecap="round" stroke-linejoin="round"/>
<path d="M23.5801 24.7651L25.271 27.0197L26.9619 24.7651" stroke="black" stroke-width="0.8" stroke-miterlimit="10" stroke-linecap="round" stroke-linejoin="round"/>
</g>
<defs>
<clipPath id="clip0_1411_1944">
<rect width="36" height="36" fill="white" transform="translate(0.507324 0.56543)"/>
</clipPath>
</defs>
</svg>
