<svg width="36" height="36" viewBox="0 0 36 36" fill="none" xmlns="http://www.w3.org/2000/svg">
<g clip-path="url(#clip0_405_1335)">
<path d="M29.6971 0.997553C28.774 0.115399 27.3203 0.115399 26.3972 0.997553L21.8192 5.57555C21.5202 5.86813 21.406 6.30117 21.5217 6.70314L6.75869 21.4667C6.35706 21.3564 5.9271 21.4694 5.63169 21.7631L1.05311 26.3411C0.143756 27.2531 0.143756 28.7289 1.05311 29.641L6.05227 34.6396C6.48986 35.0772 7.08337 35.323 7.70223 35.323C8.32109 35.323 8.9146 35.0772 9.35219 34.6396L13.9302 30.0616C14.2291 29.769 14.3434 29.3359 14.2277 28.934L28.9913 14.1704C29.3927 14.2871 29.8257 14.1732 30.1177 13.8741L34.6963 9.29605C35.6056 8.38402 35.6056 6.90817 34.6963 5.99614L29.6971 0.997553ZM22.2339 7.64055L24.7312 10.1372L23.4829 11.3856C23.3735 11.4949 23.312 11.6433 23.3119 11.798V12.5277C23.3113 13.1782 22.7841 13.7054 22.1336 13.7061H20.6747C19.3801 13.7073 18.331 14.7565 18.3297 16.0511V17.5094C18.329 18.1597 17.8022 18.6868 17.1519 18.6877H15.6936C14.399 18.689 13.3499 19.7381 13.3486 21.0327V22.4911C13.3476 23.1414 12.8207 23.6684 12.1703 23.6694H11.4411C11.2864 23.6694 11.1381 23.7309 11.0287 23.8403L10.1951 24.6733L7.69844 22.1766L22.2339 7.64055ZM8.52561 33.8147C8.0639 34.2557 7.33707 34.2557 6.87536 33.8147L1.87619 28.8161C1.6573 28.5973 1.53431 28.3005 1.53431 27.991C1.53431 27.6815 1.6573 27.3847 1.87619 27.1659L6.45477 22.5879L13.1048 29.2379L8.52561 33.8147ZM13.5131 27.9966L11.0164 25.4999L11.6791 24.8378H12.1668C13.4612 24.8362 14.5102 23.7872 14.5118 22.4928V21.0345C14.5127 20.3841 15.0397 19.8571 15.6901 19.8561H17.1484C18.4429 19.8549 19.4919 18.8056 19.4929 17.5111V16.0528C19.4938 15.4024 20.0208 14.8754 20.6712 14.8745H22.1295C23.424 14.8729 24.4729 13.8239 24.4745 12.5295V12.0412L25.5519 10.9638L28.0486 13.4605L13.5131 27.9966ZM33.8714 8.47122L29.2929 13.0492L22.6429 6.39922L27.2209 1.82122C27.6826 1.38025 28.4094 1.38025 28.8711 1.82122L33.8703 6.8198C34.0897 7.0385 34.2131 7.33548 34.2133 7.64527C34.2135 7.95506 34.0905 8.25221 33.8714 8.47122Z" fill="black"/>
<path d="M29.2903 9.72478C29.0615 9.50372 28.6976 9.50688 28.4726 9.73189C28.2476 9.9569 28.2444 10.3207 28.4655 10.5496L28.8808 10.965C29.1097 11.186 29.4736 11.1829 29.6986 10.9578C29.9236 10.7328 29.9267 10.369 29.7057 10.1401L29.2903 9.72478Z" fill="black"/>
<path d="M25.553 5.98797C25.3241 5.7669 24.9603 5.77006 24.7353 5.99507C24.5103 6.22008 24.5071 6.58391 24.7282 6.8128L26.8049 8.88888C27.0338 9.10995 27.3976 9.10679 27.6226 8.88178C27.8476 8.65677 27.8508 8.29294 27.6297 8.06405L25.553 5.98797Z" fill="black"/>
<path d="M10.1963 29.649C10.4252 29.8701 10.789 29.8669 11.014 29.6419C11.239 29.4169 11.2422 29.0531 11.0211 28.8242L10.6058 28.4089C10.3769 28.1878 10.0131 28.191 9.78804 28.416C9.56303 28.641 9.55987 29.0048 9.78094 29.2337L10.1963 29.649Z" fill="black"/>
<path d="M6.04384 24.6723C5.81612 24.9 5.81612 25.2693 6.04384 25.4971L8.11934 27.5732C8.34823 27.7942 8.71206 27.7911 8.93707 27.5661C9.16208 27.3411 9.16524 26.9772 8.94417 26.7483L6.86867 24.6723C6.64088 24.4445 6.27163 24.4445 6.04384 24.6723Z" fill="black"/>
</g>
<defs>
<clipPath id="clip0_405_1335">
<rect width="35" height="35" fill="white" transform="translate(0.375 0.318604)"/>
</clipPath>
</defs>
</svg>
