<svg width="37" height="37" viewBox="0 0 37 37" fill="none" xmlns="http://www.w3.org/2000/svg">
<g clip-path="url(#clip0_1410_500)">
<path d="M26.6001 30.7253V35.756C26.6001 35.9115 26.4741 36.0375 26.3186 36.0375H24.7703C24.6147 36.0375 24.4888 35.9115 24.4888 35.756V23.1533" stroke="black" stroke-width="0.7" stroke-miterlimit="10" stroke-linecap="round" stroke-linejoin="round"/>
<path d="M26.6001 28.2621V23.1533" stroke="black" stroke-width="0.7" stroke-miterlimit="10" stroke-linecap="round" stroke-linejoin="round"/>
<path d="M27.1609 19.0488V22.5903C27.1609 22.9013 26.9083 23.1533 26.5979 23.1533H24.4908C24.1797 23.1533 23.9277 22.9013 23.9277 22.5903V19.0488" stroke="black" stroke-width="0.7" stroke-miterlimit="10" stroke-linecap="round" stroke-linejoin="round"/>
<path d="M23.2939 9.25838V3.48734C23.2939 3.17627 23.5459 2.92432 23.857 2.92432H27.2323C27.5434 2.92432 27.7954 3.17627 27.7954 3.48734V9.25838" stroke="black" stroke-width="0.7" stroke-miterlimit="10" stroke-linecap="round" stroke-linejoin="round"/>
<path d="M27.0799 19.0513H24.0093C23.011 19.0513 22.2017 18.2419 22.2017 17.2436V9.82133C22.2017 9.5104 22.4538 9.2583 22.7647 9.2583H28.3246C28.6355 9.2583 28.8876 9.5104 28.8876 9.82133V17.2436C28.8875 18.2419 28.0783 19.0513 27.0799 19.0513Z" stroke="black" stroke-width="0.7" stroke-miterlimit="10" stroke-linecap="round" stroke-linejoin="round"/>
<path d="M23.9282 21.0029H27.1611" stroke="black" stroke-width="0.7" stroke-miterlimit="10" stroke-linecap="round" stroke-linejoin="round"/>
<path d="M12.9776 23.1533V35.756C12.9776 35.9115 12.8516 36.0375 12.6961 36.0375H11.1477C10.9922 36.0375 10.8662 35.9115 10.8662 35.756V23.1533" stroke="black" stroke-width="0.7" stroke-miterlimit="10" stroke-linecap="round" stroke-linejoin="round"/>
<path d="M13.5389 19.0488V22.5903C13.5389 22.9013 13.2869 23.1533 12.9758 23.1533H10.8687C10.5583 23.1533 10.3057 22.9013 10.3057 22.5903V19.0488" stroke="black" stroke-width="0.7" stroke-miterlimit="10" stroke-linecap="round" stroke-linejoin="round"/>
<path d="M11.9219 5.70587V1.09326" stroke="black" stroke-width="0.7" stroke-miterlimit="10" stroke-linecap="round" stroke-linejoin="round"/>
<path d="M10.0864 9.25876V6.26908C10.0864 5.95801 10.3384 5.70605 10.6495 5.70605H13.1943C13.5054 5.70605 13.7574 5.95801 13.7574 6.26908V9.25876" stroke="black" stroke-width="0.7" stroke-miterlimit="10" stroke-linecap="round" stroke-linejoin="round"/>
<path d="M8.5791 14.3739V17.2439C8.5791 18.2426 9.38845 19.0513 10.3871 19.0513H13.4577C14.4557 19.0513 15.2651 18.2426 15.2651 17.2439V9.82182C15.2651 9.51074 15.0131 9.25879 14.702 9.25879H13.7576H10.0866H9.14213C8.83106 9.25879 8.5791 9.51074 8.5791 9.82182V11.9107" stroke="black" stroke-width="0.7" stroke-miterlimit="10" stroke-linecap="round" stroke-linejoin="round"/>
<path d="M10.3057 21.0029H13.5385" stroke="black" stroke-width="0.7" stroke-miterlimit="10" stroke-linecap="round" stroke-linejoin="round"/>
<path d="M23.2939 7.14697H27.7951" stroke="black" stroke-width="0.7" stroke-miterlimit="10" stroke-linecap="round" stroke-linejoin="round"/>
<path d="M23.2939 5.03564H27.7951" stroke="black" stroke-width="0.7" stroke-miterlimit="10" stroke-linecap="round" stroke-linejoin="round"/>
</g>
<defs>
<clipPath id="clip0_1410_500">
<rect width="36" height="36" fill="white" transform="translate(0.733398 0.56543)"/>
</clipPath>
</defs>
</svg>
