<svg width="38" height="37" viewBox="0 0 38 37" fill="none" xmlns="http://www.w3.org/2000/svg">
<path fill-rule="evenodd" clip-rule="evenodd" d="M6.04718 11.9801C5.96557 12.1573 5.93538 12.2506 5.93538 12.2506L5.17322 11.4885L1.77671 8.09195C1.23328 7.54852 1.23328 6.66745 1.77671 6.12402L6.9458 0.954933C7.48923 0.411506 8.3703 0.411507 8.91372 0.954934L12.3102 4.35144L13.0724 5.1136C13.0724 5.1136 13.0403 5.12398 12.978 5.14903L13.8366 6.00758L14.1234 5.72076C14.6292 5.21497 15.4492 5.21497 15.955 5.72076L32.1782 21.9439C32.684 22.4497 32.684 23.2698 32.1782 23.7755L31.8913 24.0624L32.7673 24.9383C32.7924 24.8761 32.8028 24.844 32.8028 24.844L33.5649 25.6061L36.9614 29.0026C37.5049 29.5461 37.5049 30.4271 36.9614 30.9706L31.7923 36.1397C31.2489 36.6831 30.3678 36.6831 29.8244 36.1397L26.4279 32.7431L25.6657 31.981C25.6657 31.981 25.7591 31.9508 25.9363 31.8692L25.0104 30.9433L24.9308 31.0229C24.425 31.5287 23.6049 31.5287 23.0992 31.0229L6.87597 14.7997C6.3702 14.294 6.37018 13.474 6.87592 12.9682L6.95559 12.8885L6.04718 11.9801ZM8.06766 13.1646L8.08064 13.1776L7.58307 13.6752C7.46781 13.7905 7.46782 13.9774 7.58308 14.0926L9.26004 15.7696C9.39391 15.594 9.56868 15.3719 9.78999 15.1034C10.4131 14.3475 11.4052 13.2239 12.8922 11.737C14.3792 10.25 15.5027 9.25784 16.2586 8.63475C16.5271 8.41344 16.7493 8.23867 16.9248 8.1048L15.2479 6.42787C15.1326 6.3126 14.9458 6.3126 14.8305 6.42787L14.1304 7.12798L14.1271 7.1247L13.8333 7.41852L12.048 5.63326C11.3342 6.06823 10.2762 6.83561 8.96681 8.14503C7.74333 9.36852 6.99307 10.3725 6.54504 11.0813L6.55382 11.0725L8.3568 12.8755L8.06766 13.1646ZM17.6388 8.81873C17.4621 8.95092 17.2139 9.14326 16.8947 9.40639C16.1655 10.0075 15.0655 10.9778 13.5993 12.4441C12.1331 13.9103 11.1627 15.0102 10.5616 15.7395C10.2985 16.0587 10.1062 16.3068 9.97398 16.4835L20.775 27.2846C20.9518 27.1524 21.2001 26.9599 21.5197 26.6965C22.2489 26.0954 23.3488 25.1251 24.8151 23.6588C26.2813 22.1926 27.2516 21.0927 27.8527 20.3635C28.1156 20.0446 28.3078 19.7966 28.44 19.6199L17.6388 8.81873ZM29.1539 20.3339C29.0201 20.5094 28.8455 20.7313 28.6244 20.9995C28.0013 21.7554 27.0091 22.879 25.5222 24.3659C24.0352 25.8529 22.9117 26.8451 22.1557 27.4682C21.887 27.6897 21.6647 27.8646 21.489 27.9985L23.8063 30.3158C23.9215 30.4311 24.1084 30.4311 24.2237 30.3158L24.3033 30.2362L24.3025 30.2354L25.0096 29.5283L26.8439 31.3625L26.8351 31.3713C27.5439 30.9233 28.5478 30.173 29.7713 28.9496C31.0808 27.6401 31.8481 26.5822 32.2831 25.8683L30.4783 24.0635L30.7721 23.7697L30.771 23.7685L31.4711 23.0684C31.5863 22.9532 31.5863 22.7663 31.4711 22.651L29.1539 20.3339ZM11.4018 4.85718L8.20662 1.66204C8.05372 1.50914 7.80581 1.50914 7.65291 1.66204L2.48382 6.83113C2.33091 6.98403 2.33092 7.23194 2.48382 7.38484L5.67896 10.58C6.16692 9.80226 6.96886 8.72877 8.2597 7.43792C9.55055 6.14708 10.624 5.34514 11.4018 4.85718ZM33.0592 26.5146L36.2543 29.7097C36.4072 29.8626 36.4072 30.1105 36.2543 30.2635L31.0852 35.4325C30.9323 35.5854 30.6844 35.5854 30.5315 35.4325L27.3364 32.2374C28.1141 31.7494 29.1876 30.9475 30.4784 29.6567C31.7693 28.3658 32.5712 27.2923 33.0592 26.5146Z" fill="black"/>
</svg>
