<svg width="36" height="36" viewBox="0 0 36 36" fill="none" xmlns="http://www.w3.org/2000/svg">
<path fill-rule="evenodd" clip-rule="evenodd" d="M31.7791 8.9914L28.4185 2.93986C27.9545 2.10569 26.9725 1.84992 26.2305 2.36949L2.71221 18.8033C1.96858 19.3229 1.74056 20.4236 2.20374 21.2586L5.56473 27.3106L31.7791 8.9914ZM33.1279 8.0488L29.7667 1.99786C28.8404 0.329518 26.8772 -0.182926 25.3891 0.857112L1.87165 17.291C0.384377 18.331 -0.0716558 20.5332 0.854711 22.2015L4.21516 28.2538L3.18347 28.9747C2.81165 29.235 2.69724 29.7848 2.92923 30.2028C3.16122 30.6208 3.65142 30.7473 4.02323 30.4871L8.58138 27.3018L12.8004 34.8987C13.0324 35.3158 13.5218 35.4442 13.8944 35.1839C14.2662 34.9237 14.3806 34.3747 14.1486 33.9558L9.92991 26.3595L29.0929 12.9683L33.3126 20.5652C33.5446 20.9831 34.034 21.1106 34.4066 20.8504C34.7792 20.5901 34.8928 20.0411 34.6608 19.6223L30.4416 12.0258L35.0009 8.8397C35.3727 8.57947 35.4871 8.03048 35.2551 7.61251C35.0232 7.19453 34.533 7.06709 34.1603 7.32732L33.1279 8.0488Z" fill="black"/>
<path d="M28.4185 2.93986L28.6371 2.81849L28.637 2.81834L28.4185 2.93986ZM31.7791 8.9914L31.9223 9.19632L32.1071 9.06716L31.9977 8.87003L31.7791 8.9914ZM26.2305 2.36949L26.3737 2.57442L26.3739 2.57428L26.2305 2.36949ZM2.71221 18.8033L2.8554 19.0083L2.85541 19.0083L2.71221 18.8033ZM2.20374 21.2586L1.98512 21.3799L1.98518 21.38L2.20374 21.2586ZM5.56473 27.3106L5.34617 27.432L5.48074 27.6743L5.70793 27.5156L5.56473 27.3106ZM29.7667 1.99786L29.5482 2.11922L29.5482 2.11926L29.7667 1.99786ZM33.1279 8.0488L32.9094 8.1702L33.044 8.41247L33.2711 8.25372L33.1279 8.0488ZM25.3891 0.857112L25.5323 1.06204L25.5323 1.06202L25.3891 0.857112ZM1.87165 17.291L1.72845 17.086L1.72838 17.0861L1.87165 17.291ZM0.854711 22.2015L1.07328 22.0802L1.07328 22.0802L0.854711 22.2015ZM4.21516 28.2538L4.35836 28.4587L4.54318 28.3295L4.43373 28.1324L4.21516 28.2538ZM3.18347 28.9747L3.04026 28.7698L3.04012 28.7699L3.18347 28.9747ZM4.02323 30.4871L3.88003 30.2822L3.87988 30.2823L4.02323 30.4871ZM8.58138 27.3018L8.79994 27.1805L8.66537 26.9382L8.43818 27.0969L8.58138 27.3018ZM12.8004 34.8987L12.5818 35.0201L12.5819 35.0203L12.8004 34.8987ZM13.8944 35.1839L14.0375 35.3889L14.0377 35.3887L13.8944 35.1839ZM14.1486 33.9558L14.3673 33.8347L14.3672 33.8345L14.1486 33.9558ZM9.92991 26.3595L9.78671 26.1546L9.60188 26.2837L9.71136 26.4809L9.92991 26.3595ZM29.0929 12.9683L29.3114 12.8469L29.1768 12.6046L28.9497 12.7634L29.0929 12.9683ZM33.3126 20.5652L33.5312 20.4438L33.5311 20.4438L33.3126 20.5652ZM34.4066 20.8504L34.2634 20.6454L34.4066 20.8504ZM34.6608 19.6223L34.8795 19.5011L34.8794 19.5009L34.6608 19.6223ZM30.4416 12.0258L30.2984 11.8209L30.1135 11.95L30.223 12.1472L30.4416 12.0258ZM35.0009 8.8397L35.1441 9.04462L35.1443 9.04452L35.0009 8.8397ZM35.2551 7.61251L35.0366 7.73383L35.0366 7.73383L35.2551 7.61251ZM34.1603 7.32732L34.0172 7.12236L34.0171 7.1224L34.1603 7.32732ZM28.1999 3.06124L31.5605 9.11277L31.9977 8.87003L28.6371 2.81849L28.1999 3.06124ZM26.3739 2.57428C26.9829 2.14785 27.8011 2.34411 28.2 3.06138L28.637 2.81834C28.108 1.86728 26.9622 1.55198 26.0871 2.1647L26.3739 2.57428ZM2.85541 19.0083L26.3737 2.57442L26.0873 2.16456L2.56902 18.5984L2.85541 19.0083ZM2.42236 21.1374C2.01623 20.4051 2.22512 19.4486 2.8554 19.0083L2.56903 18.5984C1.71203 19.1972 1.46489 20.442 1.98512 21.3799L2.42236 21.1374ZM5.78329 27.1893L2.4223 21.1372L1.98518 21.38L5.34617 27.432L5.78329 27.1893ZM31.6359 8.78648L5.42153 27.1057L5.70793 27.5156L31.9223 9.19632L31.6359 8.78648ZM29.5482 2.11926L32.9094 8.1702L33.3465 7.9274L29.9853 1.87646L29.5482 2.11926ZM25.5323 1.06202C26.8876 0.114819 28.6869 0.568116 29.5482 2.11922L29.9853 1.87649C28.9938 0.0909201 26.8668 -0.480672 25.2459 0.6522L25.5323 1.06202ZM2.01485 17.4959L25.5323 1.06204L25.2459 0.652188L1.72845 17.086L2.01485 17.4959ZM1.07328 22.0802C0.204096 20.5148 0.640829 18.4567 2.01492 17.4958L1.72838 17.0861C0.127925 18.2053 -0.347407 20.5515 0.636144 22.3229L1.07328 22.0802ZM4.43373 28.1324L1.07328 22.0802L0.636142 22.3229L3.99659 28.3751L4.43373 28.1324ZM3.32667 29.1797L4.35836 28.4587L4.07196 28.0488L3.04026 28.7698L3.32667 29.1797ZM3.14782 30.0815C2.97305 29.7666 3.06798 29.3607 3.32682 29.1796L3.04012 28.7699C2.55532 29.1092 2.42143 29.8031 2.71064 30.3241L3.14782 30.0815ZM3.87988 30.2823C3.64048 30.4498 3.31443 30.3817 3.14782 30.0815L2.71064 30.3241C3.00801 30.8599 3.66235 31.0448 4.16658 30.6919L3.87988 30.2823ZM8.43818 27.0969L3.88003 30.2822L4.16644 30.692L8.72458 27.5068L8.43818 27.0969ZM13.0189 34.7774L8.79994 27.1805L8.36282 27.4232L12.5818 35.0201L13.0189 34.7774ZM13.7512 34.979C13.5116 35.1463 13.1858 35.0775 13.0188 34.7772L12.5819 35.0203C12.8789 35.5542 13.5319 35.742 14.0375 35.3889L13.7512 34.979ZM13.9299 34.077C14.1049 34.3929 14.0098 34.798 13.751 34.9791L14.0377 35.3887C14.5226 35.0494 14.6563 34.3565 14.3673 33.8347L13.9299 34.077ZM9.71136 26.4809L13.93 34.0772L14.3672 33.8345L10.1485 26.2381L9.71136 26.4809ZM28.9497 12.7634L9.78671 26.1546L10.0731 26.5644L29.2361 13.1732L28.9497 12.7634ZM33.5311 20.4438L29.3114 12.8469L28.8743 13.0897L33.094 20.6866L33.5311 20.4438ZM34.2634 20.6454C34.0235 20.813 33.698 20.7444 33.5312 20.4438L33.094 20.6865C33.3912 21.2219 34.0444 21.4082 34.5497 21.0553L34.2634 20.6454ZM34.4421 19.7434C34.6173 20.0596 34.5225 20.4644 34.2634 20.6454L34.5497 21.0553C35.0359 20.7158 35.1684 20.0227 34.8795 19.5011L34.4421 19.7434ZM30.223 12.1472L34.4423 19.7437L34.8794 19.5009L30.6601 11.9044L30.223 12.1472ZM34.8577 8.63478L30.2984 11.8209L30.5848 12.2307L35.1441 9.04462L34.8577 8.63478ZM35.0366 7.73383C35.2113 8.04863 35.1165 8.45367 34.8576 8.63488L35.1443 9.04452C35.629 8.70526 35.763 8.01233 35.4737 7.49118L35.0366 7.73383ZM34.3035 7.53228C34.5435 7.36465 34.8698 7.43337 35.0366 7.73383L35.4737 7.49119C35.1765 6.9557 34.5224 6.76953 34.0172 7.12236L34.3035 7.53228ZM33.2711 8.25372L34.3036 7.53224L34.0171 7.1224L32.9847 7.84388L33.2711 8.25372Z" fill="#FEFDFB"/>
</svg>
