<svg width="37" height="37" viewBox="0 0 37 37" fill="none" xmlns="http://www.w3.org/2000/svg">
<g clip-path="url(#clip0_1410_516)">
<path d="M8.89307 27.0029L8.89307 10.1279L1.86182 10.1279L1.86182 27.0029H8.89307Z" stroke="black" stroke-miterlimit="10" stroke-linecap="round" stroke-linejoin="round"/>
<path d="M13.1118 24.8936L13.1118 12.2373H8.89307L8.89307 24.8936H13.1118Z" stroke="black" stroke-miterlimit="10" stroke-linecap="round" stroke-linejoin="round"/>
<path d="M15.2212 22.7842H13.1118" stroke="black" stroke-miterlimit="10" stroke-linecap="round" stroke-linejoin="round"/>
<path d="M15.2212 14.3467H13.1118" stroke="black" stroke-miterlimit="10" stroke-linecap="round" stroke-linejoin="round"/>
<path d="M13.1118 18.5654H18.0337" stroke="black" stroke-miterlimit="10" stroke-linecap="round" stroke-linejoin="round"/>
<path d="M35.7524 27.0029L35.7524 10.1279L28.7212 10.1279L28.7212 27.0029L35.7524 27.0029Z" stroke="black" stroke-miterlimit="10" stroke-linecap="round" stroke-linejoin="round"/>
<path d="M28.7212 24.8936L28.7212 12.2373L24.5024 12.2373L24.5024 24.8936L28.7212 24.8936Z" stroke="black" stroke-miterlimit="10" stroke-linecap="round" stroke-linejoin="round"/>
<path d="M19.4399 22.7842H24.5024" stroke="black" stroke-miterlimit="10" stroke-linecap="round" stroke-linejoin="round"/>
<path d="M19.4399 14.3467H24.5024" stroke="black" stroke-miterlimit="10" stroke-linecap="round" stroke-linejoin="round"/>
<path d="M24.5024 18.5654H22.2524" stroke="black" stroke-miterlimit="10" stroke-linecap="round" stroke-linejoin="round"/>
</g>
<defs>
<clipPath id="clip0_1410_516">
<rect width="36" height="36" fill="white" transform="translate(0.807129 0.56543)"/>
</clipPath>
</defs>
</svg>
