<svg width="37" height="37" viewBox="0 0 37 37" fill="none" xmlns="http://www.w3.org/2000/svg">
<g clip-path="url(#clip0_1410_695)">
<path d="M6.89448 18.6357H3.85156C2.68655 18.6357 1.74219 19.5801 1.74219 20.7451V33.4014C1.74219 34.5664 2.68655 35.5107 3.85156 35.5107H33.5234C34.6884 35.5107 35.6328 34.5664 35.6328 33.4014V20.7451C35.6328 19.5801 34.6884 18.6357 33.5234 18.6357H10.793" stroke="black" stroke-miterlimit="10" stroke-linecap="round" stroke-linejoin="round"/>
<path d="M11.6562 7.24512H6.03125V14.6583C6.03125 17.205 7.04291 19.6475 8.84375 21.4482C10.6446 19.6474 11.6562 17.205 11.6562 14.6583V7.24512Z" stroke="black" stroke-miterlimit="10" stroke-linecap="round" stroke-linejoin="round"/>
<path d="M18.6875 31.292C20.2408 31.292 21.5 30.0328 21.5 28.4795C21.5 26.9262 20.2408 25.667 18.6875 25.667C17.1342 25.667 15.875 26.9262 15.875 28.4795C15.875 30.0328 17.1342 31.292 18.6875 31.292Z" stroke="black" stroke-miterlimit="10" stroke-linecap="round" stroke-linejoin="round"/>
<path d="M8.84375 31.292C10.3971 31.292 11.6562 30.0328 11.6562 28.4795C11.6562 26.9262 10.3971 25.667 8.84375 25.667C7.29045 25.667 6.03125 26.9262 6.03125 28.4795C6.03125 30.0328 7.29045 31.292 8.84375 31.292Z" stroke="black" stroke-miterlimit="10" stroke-linecap="round" stroke-linejoin="round"/>
<path d="M28.5312 31.292C30.0846 31.292 31.3438 30.0328 31.3438 28.4795C31.3438 26.9262 30.0846 25.667 28.5312 25.667C26.9779 25.667 25.7188 26.9262 25.7188 28.4795C25.7188 30.0328 26.9779 31.292 28.5312 31.292Z" stroke="black" stroke-miterlimit="10" stroke-linecap="round" stroke-linejoin="round"/>
<path d="M16.5781 1.62012H8.14062C6.19902 1.62012 4.625 3.19413 4.625 5.13574V5.83887C4.625 6.61554 5.25458 7.24512 6.03125 7.24512H12.1934C13.1569 7.24512 14.0378 6.70069 14.4688 5.83887H16.5781C17.7431 5.83887 18.6875 4.8945 18.6875 3.72949C18.6875 2.56448 17.7431 1.62012 16.5781 1.62012Z" stroke="black" stroke-miterlimit="10" stroke-linecap="round" stroke-linejoin="round"/>
<path d="M18.6875 3.72949H25.0156C26.1806 3.72949 27.125 4.67386 27.125 5.83887V8.65137C27.125 9.81638 28.0694 10.7607 29.2344 10.7607H35.6328" stroke="black" stroke-miterlimit="10" stroke-linecap="round" stroke-linejoin="round"/>
<path d="M6.03125 11.4639H11.6562" stroke="black" stroke-miterlimit="10" stroke-linecap="round" stroke-linejoin="round"/>
</g>
<defs>
<clipPath id="clip0_1410_695">
<rect width="36" height="36" fill="white" transform="translate(0.6875 0.56543)"/>
</clipPath>
</defs>
</svg>
