<svg width="37" height="37" viewBox="0 0 37 37" fill="none" xmlns="http://www.w3.org/2000/svg">
<g clip-path="url(#clip0_1411_1925)">
<path d="M5.45621 4.5987H6.42252C6.94937 4.5987 7.37652 5.02578 7.37652 5.5527V14.698C7.37652 15.2249 6.94944 15.652 6.42252 15.652H2.03115C1.50423 15.652 1.07715 15.2249 1.07715 14.698V5.55263C1.07715 5.02578 1.50423 4.59863 2.03115 4.59863H2.99387" stroke="black" stroke-width="0.7" stroke-miterlimit="10" stroke-linecap="round" stroke-linejoin="round"/>
<path d="M6.42252 13.3759H2.03115C1.5043 13.3759 1.07715 12.9488 1.07715 12.4219V7.82851C1.07715 7.30166 1.50423 6.87451 2.03115 6.87451H6.42252C6.94937 6.87451 7.37652 7.30159 7.37652 7.82851V12.4219C7.37652 12.9487 6.94937 13.3759 6.42252 13.3759Z" stroke="black" stroke-width="0.7" stroke-miterlimit="10" stroke-linecap="round" stroke-linejoin="round"/>
<path d="M7.37646 12.367H12.1671C12.5697 12.367 12.8962 12.0405 12.8962 11.6378V8.61244C12.8962 8.20976 12.5697 7.8833 12.1671 7.8833H7.37646V12.367Z" stroke="black" stroke-width="0.7" stroke-miterlimit="10" stroke-linecap="round" stroke-linejoin="round"/>
<path d="M12.8965 11.3322H15.1228C15.5255 11.3322 15.8519 11.0058 15.8519 10.6031V9.64809C15.8519 9.24541 15.5255 8.91895 15.1228 8.91895H12.8965V11.3322Z" stroke="black" stroke-width="0.7" stroke-miterlimit="10" stroke-linecap="round" stroke-linejoin="round"/>
<path d="M3.27539 32.5316V15.6519H5.17861V32.5316" stroke="black" stroke-width="0.7" stroke-miterlimit="10" stroke-linecap="round" stroke-linejoin="round"/>
<path d="M9.20459 7.8833V12.367" stroke="black" stroke-width="0.7" stroke-miterlimit="10" stroke-linecap="round" stroke-linejoin="round"/>
<path d="M11.0327 7.8833V12.367" stroke="black" stroke-width="0.7" stroke-miterlimit="10" stroke-linecap="round" stroke-linejoin="round"/>
<path d="M30.6771 15.652H35.0685C35.5954 15.652 36.0225 15.225 36.0225 14.698V5.55263C36.0225 5.02578 35.5954 4.59863 35.0685 4.59863H30.6771C30.1503 4.59863 29.7231 5.02571 29.7231 5.55263V14.698C29.7231 15.2249 30.1503 15.652 30.6771 15.652Z" stroke="black" stroke-width="0.7" stroke-miterlimit="10" stroke-linecap="round" stroke-linejoin="round"/>
<path d="M34.1047 13.3759H35.0685C35.5954 13.3759 36.0225 12.9488 36.0225 12.4219V7.82851C36.0225 7.30166 35.5954 6.87451 35.0685 6.87451H30.6771C30.1503 6.87451 29.7231 7.30159 29.7231 7.82851V12.4219C29.7231 12.9487 30.1502 13.3759 30.6771 13.3759H31.6385" stroke="black" stroke-width="0.7" stroke-miterlimit="10" stroke-linecap="round" stroke-linejoin="round"/>
<path d="M29.7229 12.367H24.9323C24.5296 12.367 24.2031 12.0405 24.2031 11.6378V8.61244C24.2031 8.20976 24.5296 7.8833 24.9323 7.8833H29.7229V12.367Z" stroke="black" stroke-width="0.7" stroke-miterlimit="10" stroke-linecap="round" stroke-linejoin="round"/>
<path d="M24.2035 11.3322H21.9772C21.5745 11.3322 21.248 11.0058 21.248 10.6031V9.64809C21.248 9.24541 21.5745 8.91895 21.9772 8.91895H24.2035V11.3322Z" stroke="black" stroke-width="0.7" stroke-miterlimit="10" stroke-linecap="round" stroke-linejoin="round"/>
<path d="M33.8241 32.5316V15.6519H31.9209V32.5316" stroke="black" stroke-width="0.7" stroke-miterlimit="10" stroke-linecap="round" stroke-linejoin="round"/>
<path d="M27.895 7.8833V12.367" stroke="black" stroke-width="0.7" stroke-miterlimit="10" stroke-linecap="round" stroke-linejoin="round"/>
<path d="M26.0669 7.8833V12.367" stroke="black" stroke-width="0.7" stroke-miterlimit="10" stroke-linecap="round" stroke-linejoin="round"/>
<path d="M15.8516 10.1255H21.2479" stroke="black" stroke-width="0.7" stroke-miterlimit="10" stroke-linecap="round" stroke-linejoin="round"/>
</g>
<defs>
<clipPath id="clip0_1411_1925">
<rect width="36" height="36" fill="white" transform="translate(0.549805 0.56543)"/>
</clipPath>
</defs>
</svg>
