<svg width="37" height="37" viewBox="0 0 37 37" fill="none" xmlns="http://www.w3.org/2000/svg">
<g clip-path="url(#clip0_1411_1845)">
<path d="M13.3462 10.9214C13.9493 10.9214 14.4382 10.4324 14.4382 9.82933C14.4382 9.22622 13.9493 8.7373 13.3462 8.7373C12.7431 8.7373 12.2542 9.22622 12.2542 9.82933C12.2542 10.4324 12.7431 10.9214 13.3462 10.9214Z" stroke="black" stroke-miterlimit="10" stroke-linecap="round" stroke-linejoin="round"/>
<path d="M24.2663 10.9214C24.8694 10.9214 25.3584 10.4324 25.3584 9.82933C25.3584 9.22622 24.8694 8.7373 24.2663 8.7373C23.6632 8.7373 23.1743 9.22622 23.1743 9.82933C23.1743 10.4324 23.6632 10.9214 24.2663 10.9214Z" stroke="black" stroke-miterlimit="10" stroke-linecap="round" stroke-linejoin="round"/>
<path d="M14.438 9.82907H16.6221L17.7141 7.64502L19.8982 12.0131L20.9902 9.82907H23.1743" stroke="black" stroke-miterlimit="10" stroke-linecap="round" stroke-linejoin="round"/>
<path d="M26.5861 22.2314C25.1387 19.4067 22.1982 17.4736 18.8062 17.4736C13.9812 17.4736 10.0698 21.385 10.0698 26.21C10.0698 29.8616 12.3102 32.9899 15.4913 34.2955M22.1048 34.3021C25.2945 33.0005 27.5425 29.8678 27.5425 26.21C27.5425 25.5994 27.4798 25.0034 27.3607 24.4281" stroke="black" stroke-miterlimit="10" stroke-linecap="round" stroke-linejoin="round"/>
<path d="M13.4819 25.0015C13.3973 25.3712 13.3507 25.7546 13.3463 26.1475C13.328 27.7889 14.034 29.2657 15.1646 30.2783C15.3996 30.4888 15.53 30.7923 15.53 31.1079V35.3349C15.53 35.7233 15.8448 36.0381 16.2331 36.0381H21.3791C21.7674 36.0381 22.0822 35.7233 22.0822 35.3349V31.108C22.0822 30.7932 22.2114 30.4898 22.4459 30.2798C23.5631 29.28 24.2662 27.827 24.2662 26.2097C24.2662 23.1503 21.7502 20.6786 18.6744 20.7511C17.0132 20.7902 15.5299 21.5834 14.5528 22.7975M18.8062 24.0256C20.0124 24.0256 20.9902 25.0034 20.9902 26.2096C20.9902 27.4158 20.0124 28.3938 18.8062 28.3938C17.6 28.3938 16.6221 27.4159 16.6221 26.2097C16.6221 25.0035 17.6 24.0256 18.8062 24.0256Z" stroke="black" stroke-miterlimit="10" stroke-linecap="round" stroke-linejoin="round"/>
<path d="M17.7141 31.5605C18.0669 31.6322 18.4321 31.6698 18.8061 31.6698C19.1801 31.6698 19.5453 31.6322 19.8982 31.5605" stroke="black" stroke-miterlimit="10" stroke-linecap="round" stroke-linejoin="round"/>
<path d="M31.271 22.3486C33.4034 24.481 33.4034 27.9382 31.271 30.0706" stroke="black" stroke-miterlimit="10" stroke-linecap="round" stroke-linejoin="round"/>
<path d="M29.7266 23.8931C31.006 25.1725 31.006 27.2468 29.7266 28.5262" stroke="black" stroke-miterlimit="10" stroke-linecap="round" stroke-linejoin="round"/>
<path d="M6.34146 22.3486C4.2091 24.481 4.2091 27.9382 6.34146 30.0706" stroke="black" stroke-miterlimit="10" stroke-linecap="round" stroke-linejoin="round"/>
<path d="M7.88582 23.8931C6.60642 25.1725 6.60642 27.2468 7.88582 28.5262" stroke="black" stroke-miterlimit="10" stroke-linecap="round" stroke-linejoin="round"/>
<path d="M10.8186 6.28516C10.3373 7.36832 10.0698 8.56757 10.0698 9.82926C10.0698 13.5598 12.408 16.7441 15.6988 17.9968" stroke="black" stroke-miterlimit="10" stroke-linecap="round" stroke-linejoin="round"/>
<path d="M21.8762 18.0107C25.1867 16.768 27.5426 13.5737 27.5426 9.8291C27.5426 5.00419 23.6312 1.09277 18.8063 1.09277C16.109 1.09277 13.6973 2.31509 12.0947 4.23602" stroke="black" stroke-miterlimit="10" stroke-linecap="round" stroke-linejoin="round"/>
</g>
<defs>
<clipPath id="clip0_1411_1845">
<rect width="36" height="36" fill="white" transform="translate(0.806152 0.56543)"/>
</clipPath>
</defs>
</svg>
