<svg width="37" height="37" viewBox="0 0 37 37" fill="none" xmlns="http://www.w3.org/2000/svg">
<g clip-path="url(#clip0_1410_556)">
<path d="M13.7446 5.60156V1.65612C13.7446 1.34484 13.997 1.09249 14.3083 1.09249H22.1991C22.5104 1.09249 22.7628 1.34484 22.7628 1.65612V5.60156" stroke="black" stroke-width="0.7" stroke-miterlimit="10" stroke-linecap="round" stroke-linejoin="round"/>
<path d="M12.0537 7.85658V16.8747C12.0537 19.365 14.0725 21.3838 16.5628 21.3838H19.9446C22.4349 21.3838 24.4536 19.365 24.4536 16.8747V7.85658" stroke="black" stroke-width="0.7" stroke-miterlimit="10" stroke-linecap="round" stroke-linejoin="round"/>
<path d="M8.67188 7.85658V20.2565C8.67188 20.8791 9.17658 21.3838 9.7992 21.3838H10.9264C11.549 21.3838 12.0537 20.8791 12.0537 20.2565V7.85658" stroke="black" stroke-width="0.7" stroke-miterlimit="10" stroke-linecap="round" stroke-linejoin="round"/>
<path d="M23.3261 7.85645H28.3989C28.7102 7.85645 28.9626 7.60409 28.9626 7.29282V6.16557C28.9626 5.85423 28.7102 5.60195 28.3989 5.60195H8.10806C7.79686 5.60195 7.54443 5.85423 7.54443 6.16557V7.29282C7.54443 7.60409 7.79686 7.85645 8.10806 7.85645H21.0714" stroke="black" stroke-width="0.7" stroke-miterlimit="10" stroke-linecap="round" stroke-linejoin="round"/>
<path d="M15.999 21.3835V24.7653C15.999 25.3879 16.5037 25.8926 17.1263 25.8926H19.3808C20.0034 25.8926 20.5081 25.3879 20.5081 24.7653V21.3835" stroke="black" stroke-width="0.7" stroke-miterlimit="10" stroke-linecap="round" stroke-linejoin="round"/>
<path d="M15.999 23.6382H20.5081" stroke="black" stroke-width="0.7" stroke-miterlimit="10" stroke-linecap="round" stroke-linejoin="round"/>
<path d="M8.67188 15.7471H12.0537" stroke="black" stroke-width="0.7" stroke-miterlimit="10" stroke-linecap="round" stroke-linejoin="round"/>
<path d="M24.4536 7.85658V20.2565C24.4536 20.8791 24.9583 21.3838 25.5809 21.3838H26.7081C27.3307 21.3838 27.8354 20.8791 27.8354 20.2565V7.85658" stroke="black" stroke-width="0.7" stroke-miterlimit="10" stroke-linecap="round" stroke-linejoin="round"/>
<path d="M24.4536 15.7471H27.8354" stroke="black" stroke-width="0.7" stroke-miterlimit="10" stroke-linecap="round" stroke-linejoin="round"/>
<path d="M11.4899 5.60156V3.91069C11.4899 3.59934 11.2376 3.34706 10.9263 3.34706H9.79905C9.4877 3.34706 9.23535 3.59934 9.23535 3.91069V5.60156" stroke="black" stroke-width="0.7" stroke-miterlimit="10" stroke-linecap="round" stroke-linejoin="round"/>
<path d="M27.2717 5.60156V3.91069C27.2717 3.59934 27.0193 3.34706 26.708 3.34706H25.5807C25.2694 3.34706 25.0171 3.59934 25.0171 3.91069V5.60156" stroke="black" stroke-width="0.7" stroke-miterlimit="10" stroke-linecap="round" stroke-linejoin="round"/>
<path d="M17.1265 27.02V25.8928" stroke="black" stroke-width="0.7" stroke-miterlimit="10" stroke-linecap="round" stroke-linejoin="round"/>
<path d="M17.1265 36.0381V29.2745" stroke="black" stroke-width="0.7" stroke-miterlimit="10" stroke-linecap="round" stroke-linejoin="round"/>
<path d="M19.3809 25.8926V36.0381" stroke="black" stroke-width="0.7" stroke-miterlimit="10" stroke-linecap="round" stroke-linejoin="round"/>
<path d="M19.9445 10.111H16.5626C16.2514 10.111 15.999 10.3634 15.999 10.6746V12.3655C15.999 12.6768 16.2514 12.9292 16.5626 12.9292H19.9445C20.2557 12.9292 20.5081 12.6768 20.5081 12.3655V10.6746C20.5081 10.3634 20.2557 10.111 19.9445 10.111Z" stroke="black" stroke-width="0.7" stroke-miterlimit="10" stroke-linecap="round" stroke-linejoin="round"/>
<path d="M19.9443 15.1836H16.5625" stroke="black" stroke-width="0.7" stroke-miterlimit="10" stroke-linecap="round" stroke-linejoin="round"/>
<path d="M17.1265 17.438H19.381" stroke="black" stroke-width="0.7" stroke-miterlimit="10" stroke-linecap="round" stroke-linejoin="round"/>
</g>
<defs>
<clipPath id="clip0_1410_556">
<rect width="36" height="36" fill="white" transform="translate(0.253418 0.56543)"/>
</clipPath>
</defs>
</svg>
