<svg width="36" height="37" viewBox="0 0 36 37" fill="none" xmlns="http://www.w3.org/2000/svg">
<g clip-path="url(#clip0_1483_152)">
<mask id="path-1-inside-1_1483_152" fill="white">
<path d="M14.4582 1.4043H10.5979H7.289H3.42874C1.90833 1.4043 0.671387 2.64124 0.671387 4.16165V15.1911C0.671387 16.5223 1.62047 17.6363 2.87727 17.8927V35.5955H6.18609V17.9484H7.289V35.5955H10.5979V17.9484H11.7008V35.5955H15.0097V17.8927C16.2664 17.6363 17.2155 16.5229 17.2155 15.1911V4.16165C17.2155 2.64124 15.9786 1.4043 14.4582 1.4043ZM9.49488 2.50724V4.76882C9.31679 4.73242 9.13206 4.71312 8.94345 4.71312C8.75483 4.71312 8.5701 4.73242 8.39201 4.76882V2.50724H9.49488ZM8.94345 5.81606C9.85559 5.81606 10.5979 6.55834 10.5979 7.47047C10.5979 8.38261 9.85559 9.12492 8.94345 9.12492C8.0313 9.12492 7.289 8.38261 7.289 7.47047C7.289 6.55834 8.0313 5.81606 8.94345 5.81606ZM5.08315 34.4925H3.98021V17.9484H5.08315V34.4925ZM9.49488 34.4925H8.39201V17.9484H9.49488V34.4925ZM12.8038 34.4925V17.9484H13.9066V34.4925H12.8038ZM14.4582 16.8454H3.42874C2.51661 16.8454 1.77433 16.1032 1.77433 15.1911V14.6396H13.9066V13.5367H1.77433V4.16165C1.77433 3.24952 2.51661 2.50724 3.42874 2.50724H7.289V5.27893C6.62341 5.78298 6.18609 6.57378 6.18609 7.47047C6.18609 8.99087 7.42305 10.2278 8.94345 10.2278C10.4638 10.2278 11.7008 8.99087 11.7008 7.47047C11.7008 6.57323 11.2635 5.78242 10.5979 5.27893V2.50724H14.4582C15.3703 2.50724 16.1125 3.24952 16.1125 4.16165V13.5367H15.0097V14.6396H16.1125V15.1911C16.1125 16.1032 15.3703 16.8454 14.4582 16.8454Z"/>
</mask>
<path d="M14.4582 1.4043H10.5979H7.289H3.42874C1.90833 1.4043 0.671387 2.64124 0.671387 4.16165V15.1911C0.671387 16.5223 1.62047 17.6363 2.87727 17.8927V35.5955H6.18609V17.9484H7.289V35.5955H10.5979V17.9484H11.7008V35.5955H15.0097V17.8927C16.2664 17.6363 17.2155 16.5229 17.2155 15.1911V4.16165C17.2155 2.64124 15.9786 1.4043 14.4582 1.4043ZM9.49488 2.50724V4.76882C9.31679 4.73242 9.13206 4.71312 8.94345 4.71312C8.75483 4.71312 8.5701 4.73242 8.39201 4.76882V2.50724H9.49488ZM8.94345 5.81606C9.85559 5.81606 10.5979 6.55834 10.5979 7.47047C10.5979 8.38261 9.85559 9.12492 8.94345 9.12492C8.0313 9.12492 7.289 8.38261 7.289 7.47047C7.289 6.55834 8.0313 5.81606 8.94345 5.81606ZM5.08315 34.4925H3.98021V17.9484H5.08315V34.4925ZM9.49488 34.4925H8.39201V17.9484H9.49488V34.4925ZM12.8038 34.4925V17.9484H13.9066V34.4925H12.8038ZM14.4582 16.8454H3.42874C2.51661 16.8454 1.77433 16.1032 1.77433 15.1911V14.6396H13.9066V13.5367H1.77433V4.16165C1.77433 3.24952 2.51661 2.50724 3.42874 2.50724H7.289V5.27893C6.62341 5.78298 6.18609 6.57378 6.18609 7.47047C6.18609 8.99087 7.42305 10.2278 8.94345 10.2278C10.4638 10.2278 11.7008 8.99087 11.7008 7.47047C11.7008 6.57323 11.2635 5.78242 10.5979 5.27893V2.50724H14.4582C15.3703 2.50724 16.1125 3.24952 16.1125 4.16165V13.5367H15.0097V14.6396H16.1125V15.1911C16.1125 16.1032 15.3703 16.8454 14.4582 16.8454Z" fill="black" stroke="white" stroke-width="0.4" mask="url(#path-1-inside-1_1483_152)"/>
<mask id="path-2-inside-2_1483_152" fill="white">
<path d="M2.87744 3.61035H3.98038V4.71329H2.87744V3.61035Z"/>
</mask>
<path d="M2.87744 3.61035H3.98038V4.71329H2.87744V3.61035Z" fill="black" stroke="white" stroke-width="0.4" mask="url(#path-2-inside-2_1483_152)"/>
<mask id="path-3-inside-3_1483_152" fill="white">
<path d="M2.87744 8.02246H3.98038V9.12547H2.87744V8.02246Z"/>
</mask>
<path d="M2.87744 8.02246H3.98038V9.12547H2.87744V8.02246Z" fill="black" stroke="white" stroke-width="0.4" mask="url(#path-3-inside-3_1483_152)"/>
<mask id="path-4-inside-4_1483_152" fill="white">
<path d="M2.87744 5.81641H3.98038V6.91935H2.87744V5.81641Z"/>
</mask>
<path d="M2.87744 5.81641H3.98038V6.91935H2.87744V5.81641Z" fill="black" stroke="white" stroke-width="0.4" mask="url(#path-4-inside-4_1483_152)"/>
<mask id="path-5-inside-5_1483_152" fill="white">
<path d="M27.6934 10.2277C28.6056 10.2277 29.3478 9.4855 29.3478 8.57336C29.3478 7.66122 28.6056 6.91895 27.6934 6.91895C26.7813 6.91895 26.0391 7.66122 26.0391 8.57336C26.0391 9.4855 26.7813 10.2277 27.6934 10.2277ZM27.6934 8.02185C27.9973 8.02185 28.2449 8.26947 28.2449 8.57336C28.2449 8.87724 27.9973 9.12486 27.6934 9.12486C27.3896 9.12486 27.1419 8.87724 27.1419 8.57336C27.1419 8.26947 27.3896 8.02185 27.6934 8.02185Z"/>
</mask>
<path d="M27.6934 10.2277C28.6056 10.2277 29.3478 9.4855 29.3478 8.57336C29.3478 7.66122 28.6056 6.91895 27.6934 6.91895C26.7813 6.91895 26.0391 7.66122 26.0391 8.57336C26.0391 9.4855 26.7813 10.2277 27.6934 10.2277ZM27.6934 8.02185C27.9973 8.02185 28.2449 8.26947 28.2449 8.57336C28.2449 8.87724 27.9973 9.12486 27.6934 9.12486C27.3896 9.12486 27.1419 8.87724 27.1419 8.57336C27.1419 8.26947 27.3896 8.02185 27.6934 8.02185Z" fill="black" stroke="white" stroke-width="0.4" mask="url(#path-5-inside-5_1483_152)"/>
<mask id="path-6-inside-6_1483_152" fill="white">
<path d="M31.5537 13.5371H32.6567V14.64H31.5537V13.5371Z"/>
</mask>
<path d="M31.5537 13.5371H32.6567V14.64H31.5537V13.5371Z" fill="black" stroke="white" stroke-width="0.4" mask="url(#path-6-inside-6_1483_152)"/>
<mask id="path-7-inside-7_1483_152" fill="white">
<path d="M24.936 13.5371H30.4508V14.64H24.936V13.5371Z"/>
</mask>
<path d="M24.936 13.5371H30.4508V14.64H24.936V13.5371Z" fill="black" stroke="white" stroke-width="0.4" mask="url(#path-7-inside-7_1483_152)"/>
<mask id="path-8-inside-8_1483_152" fill="white">
<path d="M22.7305 13.5371H23.8335V14.64H22.7305V13.5371Z"/>
</mask>
<path d="M22.7305 13.5371H23.8335V14.64H22.7305V13.5371Z" fill="black" stroke="white" stroke-width="0.4" mask="url(#path-8-inside-8_1483_152)"/>
<mask id="path-9-inside-9_1483_152" fill="white">
<path d="M22.7305 15.7432H32.657V16.846H22.7305V15.7432Z"/>
</mask>
<path d="M22.7305 15.7432H32.657V16.846H22.7305V15.7432Z" fill="black" stroke="white" stroke-width="0.4" mask="url(#path-9-inside-9_1483_152)"/>
<mask id="path-10-inside-10_1483_152" fill="white">
<path d="M31.5537 17.9482H32.6567V19.0511H31.5537V17.9482Z"/>
</mask>
<path d="M31.5537 17.9482H32.6567V19.0511H31.5537V17.9482Z" fill="black" stroke="white" stroke-width="0.4" mask="url(#path-10-inside-10_1483_152)"/>
<mask id="path-11-inside-11_1483_152" fill="white">
<path d="M24.936 17.9482H30.4508V19.0511H24.936V17.9482Z"/>
</mask>
<path d="M24.936 17.9482H30.4508V19.0511H24.936V17.9482Z" fill="black" stroke="white" stroke-width="0.4" mask="url(#path-11-inside-11_1483_152)"/>
<mask id="path-12-inside-12_1483_152" fill="white">
<path d="M22.7305 17.9482H23.8335V19.0511H22.7305V17.9482Z"/>
</mask>
<path d="M22.7305 17.9482H23.8335V19.0511H22.7305V17.9482Z" fill="black" stroke="white" stroke-width="0.4" mask="url(#path-12-inside-12_1483_152)"/>
<mask id="path-13-inside-13_1483_152" fill="white">
<path d="M34.8627 7.82813L32.37 4.71289H23.0171L20.5244 7.82813V21.257H21.6274V25.6687H22.7303V35.5953H23.8333V25.6687H24.9362V21.257H26.0392V25.6687H27.1421V35.5953H28.2451V25.6687H29.3479V21.257H30.451V25.6687H31.5538V35.5953H32.6568V25.6687H33.7597V21.257H34.8627V7.82813ZM23.5465 5.81583H31.8406L33.7597 8.2153V11.3306H21.6274V8.2153L23.5465 5.81583ZM23.8333 24.5659H22.7303V21.257H23.8333V24.5659ZM28.2451 24.5659H27.1421V21.257H28.2451V24.5659ZM32.6568 24.5659H31.5538V21.257H32.6568V24.5659ZM21.6274 20.1541V12.4334H33.7597V20.1541H21.6274Z"/>
</mask>
<path d="M34.8627 7.82813L32.37 4.71289H23.0171L20.5244 7.82813V21.257H21.6274V25.6687H22.7303V35.5953H23.8333V25.6687H24.9362V21.257H26.0392V25.6687H27.1421V35.5953H28.2451V25.6687H29.3479V21.257H30.451V25.6687H31.5538V35.5953H32.6568V25.6687H33.7597V21.257H34.8627V7.82813ZM23.5465 5.81583H31.8406L33.7597 8.2153V11.3306H21.6274V8.2153L23.5465 5.81583ZM23.8333 24.5659H22.7303V21.257H23.8333V24.5659ZM28.2451 24.5659H27.1421V21.257H28.2451V24.5659ZM32.6568 24.5659H31.5538V21.257H32.6568V24.5659ZM21.6274 20.1541V12.4334H33.7597V20.1541H21.6274Z" fill="black" stroke="white" stroke-width="0.4" mask="url(#path-13-inside-13_1483_152)"/>
</g>
<defs>
<clipPath id="clip0_1483_152">
<rect width="35.2941" height="36" fill="white" transform="translate(0.120117 0.5)"/>
</clipPath>
</defs>
</svg>
