<svg width="37" height="37" viewBox="0 0 37 37" fill="none" xmlns="http://www.w3.org/2000/svg">
<g clip-path="url(#clip0_1411_2040)">
<path d="M18.7201 22.6852C23.4273 22.6852 27.2433 18.8692 27.2433 14.162C27.2433 9.45467 23.4273 5.63867 18.7201 5.63867C14.0128 5.63867 10.1968 9.45467 10.1968 14.162C10.1968 18.8692 14.0128 22.6852 18.7201 22.6852Z" stroke="black" stroke-width="0.8" stroke-miterlimit="10" stroke-linecap="round" stroke-linejoin="round"/>
<path d="M18.7201 20.4123C22.1721 20.4123 24.9704 17.614 24.9704 14.162C24.9704 10.71 22.1721 7.91162 18.7201 7.91162C15.2681 7.91162 12.4697 10.71 12.4697 14.162C12.4697 17.614 15.2681 20.4123 18.7201 20.4123Z" stroke="black" stroke-width="0.8" stroke-miterlimit="10" stroke-linecap="round" stroke-linejoin="round"/>
<path d="M18.7202 18.1391C20.9169 18.1391 22.6977 16.3583 22.6977 14.1616C22.6977 11.9649 20.9169 10.1841 18.7202 10.1841C16.5235 10.1841 14.7427 11.9649 14.7427 14.1616C14.7427 16.3583 16.5235 18.1391 18.7202 18.1391Z" stroke="black" stroke-width="0.8" stroke-miterlimit="10" stroke-linecap="round" stroke-linejoin="round"/>
<path d="M18.7203 15.8663C19.6617 15.8663 20.4249 15.1031 20.4249 14.1617C20.4249 13.2202 19.6617 12.457 18.7203 12.457C17.7788 12.457 17.0156 13.2202 17.0156 14.1617C17.0156 15.1031 17.7788 15.8663 18.7203 15.8663Z" stroke="black" stroke-width="0.8" stroke-miterlimit="10" stroke-linecap="round" stroke-linejoin="round"/>
<path d="M6.36133 19.142V3.9341C6.36133 2.36473 7.63328 1.09277 9.20266 1.09277H28.2377C29.807 1.09277 31.079 2.36473 31.079 3.9341V7.30699" stroke="black" stroke-width="0.8" stroke-miterlimit="10" stroke-linecap="round" stroke-linejoin="round"/>
<path d="M31.079 9.76807V24.3895C31.079 25.9589 29.807 27.2309 28.2377 27.2309H9.20266C7.63328 27.2309 6.36133 25.9589 6.36133 24.3895V21.6031" stroke="black" stroke-width="0.8" stroke-miterlimit="10" stroke-linecap="round" stroke-linejoin="round"/>
<path d="M27.6697 5.63864C28.2973 5.63864 28.8061 5.12983 28.8061 4.50218C28.8061 3.87453 28.2973 3.36572 27.6697 3.36572C27.042 3.36572 26.5332 3.87453 26.5332 4.50218C26.5332 5.12983 27.042 5.63864 27.6697 5.63864Z" stroke="black" stroke-width="0.8" stroke-miterlimit="10" stroke-linecap="round" stroke-linejoin="round"/>
<path d="M9.77074 5.63864C10.3984 5.63864 10.9072 5.12983 10.9072 4.50218C10.9072 3.87453 10.3984 3.36572 9.77074 3.36572C9.14309 3.36572 8.63428 3.87453 8.63428 4.50218C8.63428 5.12983 9.14309 5.63864 9.77074 5.63864Z" stroke="black" stroke-width="0.8" stroke-miterlimit="10" stroke-linecap="round" stroke-linejoin="round"/>
<path d="M27.6697 24.958C28.2973 24.958 28.8061 24.4492 28.8061 23.8215C28.8061 23.1939 28.2973 22.6851 27.6697 22.6851C27.042 22.6851 26.5332 23.1939 26.5332 23.8215C26.5332 24.4492 27.042 24.958 27.6697 24.958Z" stroke="black" stroke-width="0.8" stroke-miterlimit="10" stroke-linecap="round" stroke-linejoin="round"/>
<path d="M9.77074 24.958C10.3984 24.958 10.9072 24.4492 10.9072 23.8215C10.9072 23.1939 10.3984 22.6851 9.77074 22.6851C9.14309 22.6851 8.63428 23.1939 8.63428 23.8215C8.63428 24.4492 9.14309 24.958 9.77074 24.958Z" stroke="black" stroke-width="0.8" stroke-miterlimit="10" stroke-linecap="round" stroke-linejoin="round"/>
<path d="M17.584 33.197V34.9021C17.584 35.2156 17.7113 35.4997 17.9166 35.705C18.1226 35.911 18.4066 36.0383 18.7202 36.0383C19.3481 36.0383 19.8565 35.5292 19.8565 34.9021V27.231H17.584V30.736" stroke="black" stroke-width="0.8" stroke-miterlimit="10" stroke-linecap="round" stroke-linejoin="round"/>
<path d="M13.0382 27.231H15.311V34.9019C15.311 35.5295 14.8022 36.0384 14.1745 36.0384C13.5469 36.0384 13.0381 35.5296 13.0381 34.9019L13.0382 27.231Z" stroke="black" stroke-width="0.8" stroke-miterlimit="10" stroke-linecap="round" stroke-linejoin="round"/>
<path d="M24.4022 27.231H22.1294V34.9019C22.1294 35.5295 22.6382 36.0384 23.2659 36.0384C23.8935 36.0384 24.4023 35.5296 24.4023 34.9019V27.231H24.4022Z" stroke="black" stroke-width="0.8" stroke-miterlimit="10" stroke-linecap="round" stroke-linejoin="round"/>
</g>
<defs>
<clipPath id="clip0_1411_2040">
<rect width="36" height="36" fill="white" transform="translate(0.720215 0.56543)"/>
</clipPath>
</defs>
</svg>
