<svg width="36" height="37" viewBox="0 0 36 37" fill="none" xmlns="http://www.w3.org/2000/svg">
<path d="M6.5 16.2374L5.00628 14.7437C4.84219 14.5796 4.75 14.3571 4.75 14.125V1.875C4.75 1.39175 5.14175 1 5.625 1H23.125C23.3571 1 23.5796 1.09219 23.7437 1.25628L30.7437 8.25628C30.9078 8.42038 31 8.64294 31 8.875V31.625C31 34.0412 29.0412 36 26.625 36H9.125C6.70875 36 4.75 34.0412 4.75 31.625V21.125C4.75 20.8929 4.84219 20.6704 5.00628 20.5063L6.5 19.0126V16.2374ZM6.5 2.75V13.7626L7.99372 15.2563C8.15781 15.4204 8.25 15.6429 8.25 15.875V19.375C8.25 19.6071 8.15781 19.8296 7.99372 19.9937L6.5 21.4874V31.625C6.5 33.0747 7.67525 34.25 9.125 34.25H26.625C28.0747 34.25 29.25 33.0747 29.25 31.625V9.23744L22.7626 2.75H6.5ZM14.375 30.75C13.6761 30.75 13.2593 29.9711 13.647 29.3896L17.147 24.1396C17.4933 23.6201 18.2567 23.6201 18.603 24.1396L22.103 29.3896C22.4907 29.9711 22.0739 30.75 21.375 30.75H14.375ZM19.74 29L17.875 26.2024L16.01 29H19.74ZM8.25 5.375C8.25 4.89175 8.64175 4.5 9.125 4.5C9.60825 4.5 10 4.89175 10 5.375V10.625C10 11.1082 9.60825 11.5 9.125 11.5C8.64175 11.5 8.25 11.1082 8.25 10.625V5.375ZM11.75 5.375C11.75 4.89175 12.1418 4.5 12.625 4.5C13.1082 4.5 13.5 4.89175 13.5 5.375V10.625C13.5 11.1082 13.1082 11.5 12.625 11.5C12.1418 11.5 11.75 11.1082 11.75 10.625V5.375ZM15.25 5.375C15.25 4.89175 15.6418 4.5 16.125 4.5C16.6082 4.5 17 4.89175 17 5.375V10.625C17 11.1082 16.6082 11.5 16.125 11.5C15.6418 11.5 15.25 11.1082 15.25 10.625V5.375ZM18.75 5.375C18.75 4.89175 19.1418 4.5 19.625 4.5C20.1082 4.5 20.5 4.89175 20.5 5.375V10.625C20.5 11.1082 20.1082 11.5 19.625 11.5C19.1418 11.5 18.75 11.1082 18.75 10.625V5.375ZM22.25 7.125C22.25 6.64175 22.6418 6.25 23.125 6.25C23.6082 6.25 24 6.64175 24 7.125V10.625C24 11.1082 23.6082 11.5 23.125 11.5C22.6418 11.5 22.25 11.1082 22.25 10.625V7.125Z" fill="black" stroke="#FEFDFC" stroke-width="0.4"/>
</svg>
