<svg width="36" height="36" viewBox="0 0 36 36" fill="none" xmlns="http://www.w3.org/2000/svg">
<g clip-path="url(#clip0_405_1275)">
<path fill-rule="evenodd" clip-rule="evenodd" d="M28.1289 20.0061H27.4453V9.8889C27.4453 4.61184 23.152 0.318604 17.875 0.318604C12.5979 0.318604 8.30468 4.61184 8.30468 9.8889V20.0061H7.62109C7.24354 20.0061 6.9375 20.3122 6.9375 20.6897V23.424C6.9375 23.8015 7.24354 24.1076 7.62109 24.1076H11.0391V27.2215C10.6014 27.7184 10.3555 28.3614 10.3555 29.0295C10.3555 29.6976 10.6014 30.3407 11.0391 30.8375V34.6349C11.0391 35.0124 11.3451 35.3185 11.7226 35.3185H14.457C14.8346 35.3185 15.1406 35.0124 15.1406 34.6349V30.8375C15.5782 30.3406 15.8242 29.6976 15.8242 29.0295C15.8242 28.3614 15.5782 27.7183 15.1406 27.2215V24.1076H20.6093V27.2215C20.1717 27.7184 19.9258 28.3614 19.9258 29.0295C19.9258 29.6976 20.1717 30.3407 20.6093 30.8375V34.6349C20.6093 35.0124 20.9154 35.3185 21.2929 35.3185H24.0273C24.4049 35.3185 24.7109 35.0124 24.7109 34.6349V30.8375C25.1485 30.3406 25.3945 29.6976 25.3945 29.0295C25.3945 28.3614 25.1485 27.7183 24.7109 27.2215V24.1076H28.1289C28.5064 24.1076 28.8125 23.8015 28.8125 23.424V20.6897C28.8125 20.3121 28.5064 20.0061 28.1289 20.0061ZM9.67187 9.8889C9.67187 5.3657 13.3518 1.68579 17.875 1.68579C22.3982 1.68579 26.0781 5.3657 26.0781 9.8889V20.0061H24.7109V17.9553V13.8537C24.7109 13.4763 24.4049 13.1701 24.0273 13.1701H18.832C18.609 13.1701 18.3999 13.279 18.272 13.4618C18.1441 13.6445 18.1134 13.8782 18.1897 14.0877L19.684 18.1893C19.7824 18.4592 20.039 18.6389 20.3263 18.6389H23.3437V20.0061H12.4062V18.6389H17.4161C17.6391 18.6389 17.8482 18.5301 17.9761 18.3473C18.104 18.1645 18.1347 17.9308 18.0584 17.7213L16.5641 13.6197C16.4657 13.3498 16.2091 13.1701 15.9218 13.1701H11.7226C11.3451 13.1701 11.0391 13.4763 11.0391 13.8537V17.9553V20.0061H9.67187V9.8889ZM23.3437 14.5373V17.2717H20.8048L19.8086 14.5373H23.3437ZM12.4062 17.2717V14.5373H15.4433L16.4395 17.2717H12.4062ZM14.0011 30.0484C13.8562 30.1781 13.7735 30.3632 13.7735 30.5577V33.9514H12.4063V30.5577C12.4063 30.3632 12.3236 30.1781 12.1787 30.0484C11.889 29.7889 11.7227 29.4175 11.7227 29.0295C11.7227 28.6415 11.889 28.2701 12.1787 28.0106C12.3236 27.8809 12.4063 27.6957 12.4063 27.5013V24.1076H13.7735V27.5013C13.7735 27.6957 13.8562 27.8809 14.0011 28.0106C14.2908 28.2701 14.4571 28.6415 14.4571 29.0295C14.4571 29.4175 14.2908 29.7889 14.0011 30.0484ZM23.5713 30.0484C23.4264 30.1781 23.3437 30.3632 23.3437 30.5577V33.9514H21.9765V30.5577C21.9765 30.3632 21.8938 30.1781 21.749 30.0484C21.4592 29.7889 21.2929 29.4175 21.2929 29.0295C21.2929 28.6415 21.4592 28.2701 21.749 28.0106C21.8938 27.8809 21.9765 27.6957 21.9765 27.5013V24.1076H23.3437V27.5013C23.3437 27.6957 23.4264 27.8809 23.5713 28.0106C23.8611 28.2701 24.0273 28.6415 24.0273 29.0295C24.0273 29.4175 23.8611 29.7889 23.5713 30.0484ZM8.30468 22.7404V21.3733H27.4453V22.7404H8.30468ZM15.2534 5.26221C15.0703 4.93784 14.6448 4.82054 14.3217 5.00381C13.3954 5.52744 12.6175 6.28753 12.072 7.20361C11.5107 8.1456 11.2141 9.22704 11.2141 10.329C11.214 10.7063 11.5202 11.0125 11.8976 11.0125C12.2742 11.0125 12.5812 10.7063 12.5812 10.3289C12.5805 8.62199 13.5054 7.03749 14.9949 6.19394C15.3231 6.00869 15.4386 5.59033 15.2534 5.26221ZM30.8633 0.455316C31.1654 0.228842 31.5938 0.290091 31.8203 0.592034C32.0469 0.894045 31.9857 1.32252 31.6836 1.54906L28.9492 3.59984C28.8263 3.69206 28.6823 3.73663 28.5396 3.73663C28.3317 3.73663 28.1265 3.64216 27.9922 3.46312C27.7657 3.16111 27.8269 2.73257 28.1289 2.50609L30.8633 0.455316ZM34.6711 6.98898C34.5796 6.62271 34.2082 6.39966 33.8422 6.49167L31.1078 7.17526C30.7415 7.2668 30.5188 7.63792 30.6104 8.00426C30.6881 8.31488 30.9668 8.52214 31.273 8.52214C31.3279 8.52214 34.1737 7.81798 34.1737 7.81798C34.54 7.72644 34.7627 7.35525 34.6711 6.98898ZM31.957 11.9397H34.6914C35.0689 11.9397 35.375 12.2458 35.375 12.6233C35.375 13.0008 35.0689 13.3069 34.6914 13.3069H31.957C31.5795 13.3069 31.2734 13.0008 31.2734 12.6233C31.2734 12.2458 31.5795 11.9397 31.957 11.9397ZM33.4901 17.4291L30.7558 16.7455C30.3895 16.6537 30.0183 16.8766 29.9268 17.2428C29.8352 17.6091 30.0579 17.9803 30.4242 18.0718C30.4242 18.0718 33.27 18.776 33.3249 18.776C33.6312 18.776 33.9099 18.5687 33.9875 18.2581C34.079 17.8918 33.8564 17.5207 33.4901 17.4291ZM4.99452 16.7455C5.36072 16.6537 5.73191 16.8766 5.82345 17.2428C5.91505 17.6091 5.69233 17.9803 5.32607 18.0718C5.32607 18.0718 2.48027 18.776 2.42538 18.776C2.11913 18.776 1.84043 18.5687 1.76277 18.2581C1.67117 17.8918 1.89388 17.5207 2.26015 17.4291L4.99452 16.7455ZM3.79296 11.9397H1.05859C0.681044 11.9397 0.375 12.2458 0.375 12.6233C0.375 13.0008 0.681044 13.3069 1.05859 13.3069H3.79296C4.17051 13.3069 4.47655 13.0008 4.47655 12.6233C4.47655 12.2458 4.17051 11.9397 3.79296 11.9397ZM1.9081 6.4916L4.64247 7.17519C5.00874 7.26672 5.23145 7.63792 5.13985 8.00418C5.06227 8.31474 4.7835 8.52207 4.47725 8.52207C4.42235 8.52207 1.57656 7.8179 1.57656 7.8179C1.21029 7.72637 0.987576 7.35518 1.07918 6.98891C1.17071 6.62271 1.5417 6.39979 1.9081 6.4916ZM7.6211 2.50614L4.88673 0.455365C4.58472 0.228823 4.15624 0.290073 3.9297 0.592084C3.70323 0.894095 3.76441 1.32264 4.06642 1.54911L6.80079 3.59989C6.92377 3.69218 7.06766 3.73668 7.2104 3.73668C7.41828 3.73668 7.62356 3.6422 7.75782 3.46317C7.98429 3.16116 7.92311 2.73262 7.6211 2.50614ZM17.9434 4.89868C17.9434 5.27622 17.6373 5.58227 17.2598 5.58227C16.8822 5.58227 16.5762 5.27622 16.5762 4.89868C16.5762 4.52114 16.8822 4.21509 17.2598 4.21509C17.6373 4.21509 17.9434 4.52114 17.9434 4.89868Z" fill="black"/>
<path d="M27.4453 20.0061H27.1953V20.2561H27.4453V20.0061ZM8.30468 20.0061V20.2561H8.55468V20.0061H8.30468ZM11.0391 24.1076H11.2891V23.8576H11.0391V24.1076ZM11.0391 27.2215L11.2267 27.3867L11.2891 27.3158V27.2215H11.0391ZM11.0391 30.8375H11.2891V30.7431L11.2267 30.6723L11.0391 30.8375ZM15.1406 30.8375L14.953 30.6723L14.8906 30.7431V30.8375H15.1406ZM15.1406 27.2215H14.8906V27.3159L14.953 27.3867L15.1406 27.2215ZM15.1406 24.1076V23.8576H14.8906V24.1076H15.1406ZM20.6093 24.1076H20.8593V23.8576H20.6093V24.1076ZM20.6093 27.2215L20.797 27.3867L20.8593 27.3158V27.2215H20.6093ZM20.6093 30.8375H20.8593V30.7431L20.7969 30.6723L20.6093 30.8375ZM24.7109 30.8375L24.5233 30.6723L24.4609 30.7431V30.8375H24.7109ZM24.7109 27.2215H24.4609V27.3159L24.5233 27.3867L24.7109 27.2215ZM24.7109 24.1076V23.8576H24.4609V24.1076H24.7109ZM26.0781 20.0061V20.2561H26.3281V20.0061H26.0781ZM24.7109 20.0061H24.4609V20.2561H24.7109V20.0061ZM18.272 13.4618L18.4768 13.6051L18.4768 13.6051L18.272 13.4618ZM18.1897 14.0877L17.9548 14.1733L17.9548 14.1733L18.1897 14.0877ZM19.684 18.1893L19.4491 18.2749L19.4491 18.2749L19.684 18.1893ZM23.3437 18.6389H23.5937V18.3889H23.3437V18.6389ZM23.3437 20.0061V20.2561H23.5937V20.0061H23.3437ZM12.4062 20.0061H12.1562V20.2561H12.4062V20.0061ZM12.4062 18.6389V18.3889H12.1562V18.6389H12.4062ZM17.9761 18.3473L17.7713 18.2039L17.7712 18.2039L17.9761 18.3473ZM18.0584 17.7213L18.2933 17.6358L18.2933 17.6357L18.0584 17.7213ZM16.5641 13.6197L16.7989 13.5342L16.7989 13.5341L16.5641 13.6197ZM11.0391 20.0061V20.2561H11.2891V20.0061H11.0391ZM9.67187 20.0061H9.42187V20.2561H9.67187V20.0061ZM23.3437 17.2717V17.5217H23.5937V17.2717H23.3437ZM23.3437 14.5373H23.5937V14.2873H23.3437V14.5373ZM20.8048 17.2717L20.5699 17.3573L20.6298 17.5217H20.8048V17.2717ZM19.8086 14.5373V14.2873H19.4514L19.5737 14.6229L19.8086 14.5373ZM12.4062 14.5373V14.2873H12.1562V14.5373H12.4062ZM12.4062 17.2717H12.1562V17.5217H12.4062V17.2717ZM15.4433 14.5373L15.6782 14.4517L15.6183 14.2873H15.4433V14.5373ZM16.4395 17.2717V17.5217H16.7967L16.6744 17.1861L16.4395 17.2717ZM14.0011 30.0484L14.1678 30.2346L14.1678 30.2346L14.0011 30.0484ZM13.7735 33.9514V34.2014H14.0235V33.9514H13.7735ZM12.4063 33.9514H12.1563V34.2014H12.4063V33.9514ZM12.1787 30.0484L12.012 30.2346L12.012 30.2346L12.1787 30.0484ZM12.1787 28.0106L12.012 27.8243L12.012 27.8244L12.1787 28.0106ZM12.4063 24.1076V23.8576H12.1563V24.1076H12.4063ZM13.7735 24.1076H14.0235V23.8576H13.7735V24.1076ZM14.0011 28.0106L14.1678 27.8244L14.1678 27.8243L14.0011 28.0106ZM23.5713 30.0484L23.738 30.2346L23.738 30.2346L23.5713 30.0484ZM23.3437 33.9514V34.2014H23.5937V33.9514H23.3437ZM21.9765 33.9514H21.7265V34.2014H21.9765V33.9514ZM21.749 30.0484L21.5822 30.2346L21.5822 30.2346L21.749 30.0484ZM21.749 28.0106L21.5822 27.8243L21.5822 27.8244L21.749 28.0106ZM21.9765 24.1076V23.8576H21.7265V24.1076H21.9765ZM23.3437 24.1076H23.5937V23.8576H23.3437V24.1076ZM23.5713 28.0106L23.7381 27.8244L23.738 27.8243L23.5713 28.0106ZM8.30468 21.3733V21.1233H8.05468V21.3733H8.30468ZM8.30468 22.7404H8.05468V22.9904H8.30468V22.7404ZM27.4453 21.3733H27.6953V21.1233H27.4453V21.3733ZM27.4453 22.7404V22.9904H27.6953V22.7404H27.4453ZM14.3217 5.00381L14.4447 5.22144L14.445 5.22127L14.3217 5.00381ZM15.2534 5.26221L15.4711 5.13933L15.4711 5.13933L15.2534 5.26221ZM12.072 7.20361L12.2867 7.33157L12.2868 7.33152L12.072 7.20361ZM11.2141 10.329L11.4641 10.329V10.329H11.2141ZM12.5812 10.3289H12.8312V10.3288L12.5812 10.3289ZM14.9949 6.19394L14.872 5.97624L14.8717 5.9764L14.9949 6.19394ZM31.8203 0.592034L32.0203 0.442019L32.0203 0.441998L31.8203 0.592034ZM30.8633 0.455316L30.7133 0.255288L30.7133 0.255316L30.8633 0.455316ZM31.6836 1.54906L31.5336 1.34906L31.5336 1.34906L31.6836 1.54906ZM28.9492 3.59984L29.0992 3.79985L29.0992 3.79984L28.9492 3.59984ZM27.9922 3.46312L27.7922 3.61311L27.7922 3.61316L27.9922 3.46312ZM28.1289 2.50609L28.2789 2.7061L28.2789 2.70609L28.1289 2.50609ZM33.8422 6.49167L33.9028 6.73421L33.9031 6.73413L33.8422 6.49167ZM34.6711 6.98898L34.4286 7.04959L34.4286 7.04964L34.6711 6.98898ZM31.1078 7.17526L31.1684 7.4178L31.1684 7.4178L31.1078 7.17526ZM30.6104 8.00426L30.853 7.94362L30.853 7.94361L30.6104 8.00426ZM34.1737 7.81798L34.2338 8.06066L34.2343 8.06052L34.1737 7.81798ZM30.7558 16.7455L30.6949 16.988L30.6951 16.9881L30.7558 16.7455ZM33.4901 17.4291L33.4295 17.6717L33.4295 17.6717L33.4901 17.4291ZM29.9268 17.2428L30.1694 17.3035L30.1694 17.3034L29.9268 17.2428ZM30.4242 18.0718L30.3636 18.3144L30.3642 18.3145L30.4242 18.0718ZM33.9875 18.2581L33.745 18.1975L33.745 18.1975L33.9875 18.2581ZM5.82345 17.2428L5.58091 17.3035L5.58092 17.3035L5.82345 17.2428ZM4.99452 16.7455L5.05516 16.9881L5.05536 16.988L4.99452 16.7455ZM5.32607 18.0718L5.38612 18.3145L5.38668 18.3144L5.32607 18.0718ZM1.76277 18.2581L2.00531 18.1975L2.0053 18.1975L1.76277 18.2581ZM2.26015 17.4291L2.32077 17.6717L2.32079 17.6717L2.26015 17.4291ZM4.64247 7.17519L4.58184 7.41773L4.58186 7.41773L4.64247 7.17519ZM1.9081 6.4916L1.84734 6.7341L1.84747 6.73413L1.9081 6.4916ZM5.13985 8.00418L4.89732 7.94353L4.89731 7.94359L5.13985 8.00418ZM1.57656 7.8179L1.51595 8.06045L1.51651 8.06059L1.57656 7.8179ZM1.07918 6.98891L1.32171 7.04957L1.32172 7.04954L1.07918 6.98891ZM4.88673 0.455365L4.73672 0.655354L4.73673 0.655365L4.88673 0.455365ZM7.6211 2.50614L7.4711 2.70614L7.47111 2.70615L7.6211 2.50614ZM3.9297 0.592084L3.72971 0.442069L3.72969 0.442098L3.9297 0.592084ZM4.06642 1.54911L4.21642 1.34911L4.21641 1.3491L4.06642 1.54911ZM6.80079 3.59989L6.95084 3.39993L6.95079 3.39989L6.80079 3.59989ZM7.75782 3.46317L7.95783 3.61316L7.95783 3.61316L7.75782 3.46317ZM27.4453 20.2561H28.1289V19.7561H27.4453V20.2561ZM27.1953 9.8889V20.0061H27.6953V9.8889H27.1953ZM17.875 0.568604C23.014 0.568604 27.1953 4.74991 27.1953 9.8889H27.6953C27.6953 4.47377 23.2901 0.0686035 17.875 0.0686035V0.568604ZM8.55468 9.8889C8.55468 4.74991 12.736 0.568604 17.875 0.568604V0.0686035C12.4598 0.0686035 8.05468 4.47377 8.05468 9.8889H8.55468ZM8.55468 20.0061V9.8889H8.05468V20.0061H8.55468ZM7.62109 20.2561H8.30468V19.7561H7.62109V20.2561ZM7.1875 20.6897C7.1875 20.4502 7.38163 20.2561 7.62109 20.2561V19.7561C7.10546 19.7561 6.6875 20.1741 6.6875 20.6897H7.1875ZM7.1875 23.424V20.6897H6.6875V23.424H7.1875ZM7.62109 23.8576C7.38163 23.8576 7.1875 23.6635 7.1875 23.424H6.6875C6.6875 23.9396 7.10546 24.3576 7.62109 24.3576V23.8576ZM11.0391 23.8576H7.62109V24.3576H11.0391V23.8576ZM11.2891 27.2215V24.1076H10.7891V27.2215H11.2891ZM10.6055 29.0295C10.6055 28.4228 10.8289 27.8383 11.2267 27.3867L10.8514 27.0562C10.3739 27.5984 10.1055 28.3001 10.1055 29.0295H10.6055ZM11.2267 30.6723C10.8289 30.2207 10.6055 29.6362 10.6055 29.0295H10.1055C10.1055 29.7589 10.3739 30.4607 10.8515 31.0028L11.2267 30.6723ZM11.2891 34.6349V30.8375H10.7891V34.6349H11.2891ZM11.7226 35.0685C11.4832 35.0685 11.2891 34.8744 11.2891 34.6349H10.7891C10.7891 35.1505 11.207 35.5685 11.7226 35.5685V35.0685ZM14.457 35.0685H11.7226V35.5685H14.457V35.0685ZM14.8906 34.6349C14.8906 34.8744 14.6965 35.0685 14.457 35.0685V35.5685C14.9727 35.5685 15.3906 35.1505 15.3906 34.6349H14.8906ZM14.8906 30.8375V34.6349H15.3906V30.8375H14.8906ZM15.5742 29.0295C15.5742 29.6362 15.3508 30.2206 14.953 30.6723L15.3282 31.0028C15.8057 30.4606 16.0742 29.7589 16.0742 29.0295H15.5742ZM14.953 27.3867C15.3508 27.8383 15.5742 28.4228 15.5742 29.0295H16.0742C16.0742 28.3001 15.8057 27.5983 15.3282 27.0562L14.953 27.3867ZM14.8906 24.1076V27.2215H15.3906V24.1076H14.8906ZM20.6093 23.8576H15.1406V24.3576H20.6093V23.8576ZM20.8593 27.2215V24.1076H20.3593V27.2215H20.8593ZM20.1758 29.0295C20.1758 28.4228 20.3992 27.8383 20.797 27.3867L20.4217 27.0562C19.9442 27.5984 19.6758 28.3001 19.6758 29.0295H20.1758ZM20.7969 30.6723C20.3992 30.2207 20.1758 29.6362 20.1758 29.0295H19.6758C19.6758 29.7589 19.9442 30.4607 20.4217 31.0028L20.7969 30.6723ZM20.8593 34.6349V30.8375H20.3593V34.6349H20.8593ZM21.2929 35.0685C21.0535 35.0685 20.8593 34.8744 20.8593 34.6349H20.3593C20.3593 35.1505 20.7773 35.5685 21.2929 35.5685V35.0685ZM24.0273 35.0685H21.2929V35.5685H24.0273V35.0685ZM24.4609 34.6349C24.4609 34.8744 24.2668 35.0685 24.0273 35.0685V35.5685C24.5429 35.5685 24.9609 35.1505 24.9609 34.6349H24.4609ZM24.4609 30.8375V34.6349H24.9609V30.8375H24.4609ZM25.1445 29.0295C25.1445 29.6362 24.9211 30.2206 24.5233 30.6723L24.8985 31.0028C25.376 30.4606 25.6445 29.7589 25.6445 29.0295H25.1445ZM24.5233 27.3867C24.9211 27.8383 25.1445 28.4228 25.1445 29.0295H25.6445C25.6445 28.3001 25.376 27.5983 24.8985 27.0562L24.5233 27.3867ZM24.4609 24.1076V27.2215H24.9609V24.1076H24.4609ZM28.1289 23.8576H24.7109V24.3576H28.1289V23.8576ZM28.5625 23.424C28.5625 23.6635 28.3683 23.8576 28.1289 23.8576V24.3576C28.6445 24.3576 29.0625 23.9396 29.0625 23.424H28.5625ZM28.5625 20.6897V23.424H29.0625V20.6897H28.5625ZM28.1289 20.2561C28.3683 20.2561 28.5625 20.4502 28.5625 20.6897H29.0625C29.0625 20.174 28.6445 19.7561 28.1289 19.7561V20.2561ZM17.875 1.43579C13.2137 1.43579 9.42187 5.22763 9.42187 9.8889H9.92187C9.92187 5.50377 13.4899 1.93579 17.875 1.93579V1.43579ZM26.3281 9.8889C26.3281 5.22763 22.5362 1.43579 17.875 1.43579V1.93579C22.2601 1.93579 25.8281 5.50377 25.8281 9.8889H26.3281ZM26.3281 20.0061V9.8889H25.8281V20.0061H26.3281ZM24.7109 20.2561H26.0781V19.7561H24.7109V20.2561ZM24.4609 17.9553V20.0061H24.9609V17.9553H24.4609ZM24.4609 13.8537V17.9553H24.9609V13.8537H24.4609ZM24.0273 13.4201C24.2668 13.4201 24.4609 13.6143 24.4609 13.8537H24.9609C24.9609 13.3382 24.5429 12.9201 24.0273 12.9201V13.4201ZM18.832 13.4201H24.0273V12.9201H18.832V13.4201ZM18.4768 13.6051C18.558 13.4892 18.6905 13.4201 18.832 13.4201V12.9201C18.5274 12.9201 18.2419 13.0688 18.0672 13.3184L18.4768 13.6051ZM18.4246 14.0022C18.3762 13.8693 18.3957 13.721 18.4768 13.6051L18.0672 13.3184C17.8925 13.568 17.8506 13.8871 17.9548 14.1733L18.4246 14.0022ZM19.9189 18.1037L18.4246 14.0021L17.9548 14.1733L19.4491 18.2749L19.9189 18.1037ZM20.3263 18.3889C20.1441 18.3889 19.9813 18.2749 19.9189 18.1037L19.4491 18.2749C19.5835 18.6435 19.9339 18.8889 20.3263 18.8889V18.3889ZM23.3437 18.3889H20.3263V18.8889H23.3437V18.3889ZM23.5937 20.0061V18.6389H23.0937V20.0061H23.5937ZM12.4062 20.2561H23.3437V19.7561H12.4062V20.2561ZM12.1562 18.6389V20.0061H12.6562V18.6389H12.1562ZM17.4161 18.3889H12.4062V18.8889H17.4161V18.3889ZM17.7712 18.2039C17.6901 18.3199 17.5576 18.3889 17.4161 18.3889V18.8889C17.7207 18.8889 18.0062 18.7402 18.1809 18.4906L17.7712 18.2039ZM17.8235 17.8068C17.8719 17.9397 17.8524 18.088 17.7713 18.2039L18.1809 18.4906C18.3556 18.2411 18.3975 17.9219 18.2933 17.6358L17.8235 17.8068ZM16.3292 13.7053L17.8235 17.8069L18.2933 17.6357L16.7989 13.5342L16.3292 13.7053ZM15.9218 13.4201C16.104 13.4201 16.2668 13.5341 16.3292 13.7053L16.7989 13.5341C16.6646 13.1655 16.3141 12.9201 15.9218 12.9201V13.4201ZM11.7226 13.4201H15.9218V12.9201H11.7226V13.4201ZM11.2891 13.8537C11.2891 13.6143 11.4832 13.4201 11.7226 13.4201V12.9201C11.207 12.9201 10.7891 13.3382 10.7891 13.8537H11.2891ZM11.2891 17.9553V13.8537H10.7891V17.9553H11.2891ZM11.2891 20.0061V17.9553H10.7891V20.0061H11.2891ZM9.67187 20.2561H11.0391V19.7561H9.67187V20.2561ZM9.42187 9.8889V20.0061H9.92187V9.8889H9.42187ZM23.5937 17.2717V14.5373H23.0937V17.2717H23.5937ZM20.8048 17.5217H23.3437V17.0217H20.8048V17.5217ZM19.5737 14.6229L20.5699 17.3573L21.0397 17.1861L20.0435 14.4517L19.5737 14.6229ZM23.3437 14.2873H19.8086V14.7873H23.3437V14.2873ZM12.1562 14.5373V17.2717H12.6562V14.5373H12.1562ZM15.4433 14.2873H12.4062V14.7873H15.4433V14.2873ZM16.6744 17.1861L15.6782 14.4517L15.2084 14.6229L16.2046 17.3573L16.6744 17.1861ZM12.4062 17.5217H16.4395V17.0217H12.4062V17.5217ZM14.0235 30.5577C14.0235 30.4343 14.076 30.3169 14.1678 30.2346L13.8343 29.8621C13.6364 30.0393 13.5235 30.2922 13.5235 30.5577H14.0235ZM14.0235 33.9514V30.5577H13.5235V33.9514H14.0235ZM12.4063 34.2014H13.7735V33.7014H12.4063V34.2014ZM12.1563 30.5577V33.9514H12.6563V30.5577H12.1563ZM12.012 30.2346C12.1038 30.3169 12.1563 30.4343 12.1563 30.5577H12.6563C12.6563 30.2922 12.5434 30.0393 12.3455 29.8621L12.012 30.2346ZM11.4727 29.0295C11.4727 29.4888 11.6694 29.9279 12.012 30.2346L12.3455 29.8621C12.1085 29.6499 11.9727 29.3462 11.9727 29.0295H11.4727ZM12.012 27.8244C11.6694 28.1311 11.4727 28.5702 11.4727 29.0295H11.9727C11.9727 28.7128 12.1085 28.409 12.3455 28.1968L12.012 27.8244ZM12.1563 27.5013C12.1563 27.6247 12.1038 27.7421 12.012 27.8243L12.3455 28.1969C12.5434 28.0197 12.6563 27.7668 12.6563 27.5013H12.1563ZM12.1563 24.1076V27.5013H12.6563V24.1076H12.1563ZM13.7735 23.8576H12.4063V24.3576H13.7735V23.8576ZM14.0235 27.5013V24.1076H13.5235V27.5013H14.0235ZM14.1678 27.8243C14.076 27.7421 14.0235 27.6247 14.0235 27.5013H13.5235C13.5235 27.7668 13.6364 28.0197 13.8343 28.1969L14.1678 27.8243ZM14.7071 29.0295C14.7071 28.5702 14.5104 28.1311 14.1678 27.8244L13.8343 28.1968C14.0713 28.409 14.2071 28.7128 14.2071 29.0295H14.7071ZM14.1678 30.2346C14.5104 29.9279 14.7071 29.4888 14.7071 29.0295H14.2071C14.2071 29.3462 14.0713 29.6499 13.8343 29.8621L14.1678 30.2346ZM23.5937 30.5577C23.5937 30.4343 23.6462 30.3169 23.738 30.2346L23.4045 29.8621C23.2067 30.0392 23.0937 30.2922 23.0937 30.5577H23.5937ZM23.5937 33.9514V30.5577H23.0937V33.9514H23.5937ZM21.9765 34.2014H23.3437V33.7014H21.9765V34.2014ZM21.7265 30.5577V33.9514H22.2265V30.5577H21.7265ZM21.5822 30.2346C21.6741 30.3169 21.7265 30.4343 21.7265 30.5577H22.2265C22.2265 30.2922 22.1136 30.0392 21.9157 29.8621L21.5822 30.2346ZM21.0429 29.0295C21.0429 29.4888 21.2396 29.9279 21.5822 30.2346L21.9157 29.8621C21.6788 29.6499 21.5429 29.3462 21.5429 29.0295H21.0429ZM21.5822 27.8244C21.2396 28.1311 21.0429 28.5702 21.0429 29.0295H21.5429C21.5429 28.7128 21.6788 28.409 21.9157 28.1968L21.5822 27.8244ZM21.7265 27.5013C21.7265 27.6247 21.6741 27.7421 21.5822 27.8243L21.9157 28.1969C22.1136 28.0197 22.2265 27.7668 22.2265 27.5013H21.7265ZM21.7265 24.1076V27.5013H22.2265V24.1076H21.7265ZM23.3437 23.8576H21.9765V24.3576H23.3437V23.8576ZM23.5937 27.5013V24.1076H23.0937V27.5013H23.5937ZM23.738 27.8243C23.6462 27.7421 23.5937 27.6247 23.5937 27.5013H23.0937C23.0937 27.7668 23.2067 28.0197 23.4045 28.1969L23.738 27.8243ZM24.2773 29.0295C24.2773 28.5702 24.0806 28.1311 23.7381 27.8244L23.4045 28.1968C23.6415 28.409 23.7773 28.7128 23.7773 29.0295H24.2773ZM23.738 30.2346C24.0807 29.9278 24.2773 29.4888 24.2773 29.0295H23.7773C23.7773 29.3462 23.6415 29.6499 23.4045 29.8621L23.738 30.2346ZM8.05468 21.3733V22.7404H8.55468V21.3733H8.05468ZM27.4453 21.1233H8.30468V21.6233H27.4453V21.1233ZM27.6953 22.7404V21.3733H27.1953V22.7404H27.6953ZM8.30468 22.9904H27.4453V22.4904H8.30468V22.9904ZM14.445 5.22127C14.6481 5.1061 14.9207 5.18134 15.0357 5.38508L15.4711 5.13933C15.22 4.69434 14.6416 4.53497 14.1983 4.78635L14.445 5.22127ZM12.2868 7.33152C12.81 6.45283 13.5563 5.72366 14.4447 5.22144L14.1986 4.78618C13.2345 5.33121 12.4249 6.12222 11.8572 7.0757L12.2868 7.33152ZM11.4641 10.329C11.4641 9.27181 11.7487 8.23462 12.2867 7.33157L11.8572 7.07565C11.2728 8.05658 10.9641 9.18227 10.9641 10.329H11.4641ZM11.8976 10.7625C11.6583 10.7625 11.464 10.5682 11.4641 10.329L10.9641 10.3289C10.964 10.8444 11.3822 11.2625 11.8976 11.2625V10.7625ZM12.3312 10.3289C12.3312 10.5681 12.1364 10.7625 11.8976 10.7625V11.2625C12.4121 11.2625 12.8312 10.8446 12.8312 10.3289H12.3312ZM14.8717 5.9764C13.3041 6.8642 12.3305 8.53168 12.3312 10.329L12.8312 10.3288C12.8305 8.71231 13.7067 7.21079 15.1181 6.41148L14.8717 5.9764ZM15.0357 5.38508C15.1533 5.5935 15.0794 5.85916 14.872 5.97624L15.1179 6.41164C15.5667 6.15822 15.7239 5.58716 15.4711 5.13933L15.0357 5.38508ZM32.0203 0.441998C31.7109 0.0296541 31.1259 -0.0539966 30.7133 0.255288L31.0133 0.655343C31.2049 0.51168 31.4766 0.550529 31.6203 0.74207L32.0203 0.441998ZM31.8336 1.74907C32.2461 1.43968 32.3297 0.854489 32.0203 0.442019L31.6203 0.742049C31.764 0.933601 31.7252 1.20536 31.5336 1.34906L31.8336 1.74907ZM29.0992 3.79984L31.8336 1.74906L31.5336 1.34906L28.7992 3.39984L29.0992 3.79984ZM28.5396 3.98663C28.7346 3.98663 28.9315 3.92559 29.0992 3.79985L28.7992 3.39983C28.721 3.45853 28.63 3.48663 28.5396 3.48663V3.98663ZM27.7922 3.61316C27.9757 3.85772 28.2564 3.98663 28.5396 3.98663V3.48663C28.4071 3.48663 28.2773 3.42659 28.1922 3.31309L27.7922 3.61316ZM27.9789 2.30608C27.5664 2.61542 27.4829 3.20067 27.7922 3.61311L28.1922 3.31314C28.0485 3.12155 28.0874 2.84972 28.2789 2.7061L27.9789 2.30608ZM30.7133 0.255316L27.9789 2.30609L28.2789 2.70609L31.0133 0.655316L30.7133 0.255316ZM33.9031 6.73413C34.1348 6.67589 34.3705 6.81708 34.4286 7.04959L34.9136 6.92837C34.7887 6.42835 34.2816 6.12342 33.7812 6.24921L33.9031 6.73413ZM31.1684 7.4178L33.9028 6.73421L33.7815 6.24913L31.0472 6.93273L31.1684 7.4178ZM30.853 7.94361C30.7949 7.71123 30.9361 7.47586 31.1684 7.4178L31.0472 6.93272C30.547 7.05773 30.2428 7.5646 30.3679 8.0649L30.853 7.94361ZM31.273 8.27214C31.0787 8.27214 30.9021 8.1403 30.853 7.94362L30.3679 8.06489C30.474 8.48946 30.8548 8.77214 31.273 8.77214V8.27214ZM34.1737 7.81798C34.1137 7.5753 34.1137 7.5753 34.1136 7.5753C34.1136 7.57531 34.1136 7.57532 34.1135 7.57533C34.1135 7.57535 34.1133 7.57538 34.1132 7.57542C34.1128 7.57551 34.1123 7.57563 34.1116 7.5758C34.1103 7.57614 34.1082 7.57665 34.1055 7.57731C34.1001 7.57864 34.0922 7.58062 34.0817 7.58319C34.0609 7.58835 34.0303 7.59591 33.9914 7.60553C33.9135 7.62478 33.8021 7.65228 33.6683 7.68528C33.4008 7.75128 33.0434 7.83926 32.6845 7.92725C32.3254 8.01525 31.9649 8.10316 31.691 8.16905C31.5539 8.20201 31.439 8.22933 31.357 8.24834C31.3158 8.25789 31.2839 8.26512 31.2618 8.26988C31.2506 8.2723 31.2434 8.27378 31.2394 8.27454C31.2373 8.27495 31.2376 8.27484 31.2396 8.27454C31.2406 8.2744 31.2433 8.27398 31.2472 8.27355C31.2495 8.27329 31.2597 8.27214 31.273 8.27214V8.77214C31.2955 8.77214 31.3148 8.76886 31.3157 8.76872C31.322 8.76775 31.3281 8.76663 31.333 8.76571C31.3429 8.76381 31.3548 8.76133 31.3675 8.75859C31.3932 8.75304 31.428 8.74514 31.4699 8.73543C31.554 8.71594 31.6704 8.68824 31.8079 8.65519C32.0829 8.58904 32.4442 8.50092 32.8035 8.41287C33.1628 8.32481 33.5204 8.23676 33.7881 8.17073C33.9219 8.13771 34.0334 8.1102 34.1113 8.09093C34.1503 8.0813 34.1809 8.07374 34.2018 8.06857C34.2122 8.06599 34.2202 8.06402 34.2256 8.06268C34.2283 8.06202 34.2303 8.06151 34.2317 8.06117C34.2324 8.061 34.2329 8.06087 34.2332 8.06079C34.2334 8.06074 34.2336 8.06071 34.2336 8.06069C34.2337 8.06068 34.2337 8.06067 34.2337 8.06067C34.2338 8.06066 34.2338 8.06066 34.1737 7.81798ZM34.4286 7.04964C34.4867 7.28195 34.3454 7.51738 34.1131 7.57544L34.2343 8.06052C34.7346 7.9355 35.0387 7.42855 34.9136 6.92833L34.4286 7.04964ZM34.6914 11.6897H31.957V12.1897H34.6914V11.6897ZM35.625 12.6233C35.625 12.1078 35.207 11.6897 34.6914 11.6897V12.1897C34.9309 12.1897 35.125 12.3839 35.125 12.6233H35.625ZM34.6914 13.5569C35.207 13.5569 35.625 13.1388 35.625 12.6233H35.125C35.125 12.8627 34.9309 13.0569 34.6914 13.0569V13.5569ZM31.957 13.5569H34.6914V13.0569H31.957V13.5569ZM31.0234 12.6233C31.0234 13.1388 31.4414 13.5569 31.957 13.5569V13.0569C31.7176 13.0569 31.5234 12.8627 31.5234 12.6233H31.0234ZM31.957 11.6897C31.4414 11.6897 31.0234 12.1078 31.0234 12.6233H31.5234C31.5234 12.3839 31.7176 12.1897 31.957 12.1897V11.6897ZM30.6951 16.9881L33.4295 17.6717L33.5508 17.1866L30.8164 16.503L30.6951 16.9881ZM30.1694 17.3034C30.2274 17.0711 30.4629 16.9298 30.6949 16.988L30.8166 16.503C30.3161 16.3775 29.8092 16.6822 29.6843 17.1823L30.1694 17.3034ZM30.4848 17.8293C30.2525 17.7712 30.1113 17.5358 30.1694 17.3035L29.6843 17.1822C29.5592 17.6824 29.8634 18.1894 30.3636 18.3144L30.4848 17.8293ZM33.3249 18.526C33.3383 18.526 33.3484 18.5271 33.3507 18.5274C33.3546 18.5278 33.3574 18.5283 33.3583 18.5284C33.3603 18.5287 33.3607 18.5288 33.3585 18.5284C33.3545 18.5276 33.3473 18.5262 33.3361 18.5237C33.3141 18.519 33.2821 18.5117 33.241 18.5022C33.1589 18.4832 33.044 18.4559 32.907 18.4229C32.633 18.357 32.2726 18.2691 31.9135 18.1811C31.5545 18.0931 31.1972 18.0051 30.9296 17.9391C30.7958 17.9061 30.6845 17.8786 30.6066 17.8594C30.5676 17.8498 30.537 17.8422 30.5162 17.8371C30.5058 17.8345 30.4978 17.8325 30.4924 17.8312C30.4897 17.8305 30.4877 17.83 30.4863 17.8297C30.4856 17.8295 30.4851 17.8294 30.4848 17.8293C30.4846 17.8292 30.4845 17.8292 30.4844 17.8292C30.4844 17.8292 30.4843 17.8292 30.4843 17.8292C30.4843 17.8292 30.4843 17.8292 30.4242 18.0718C30.3642 18.3145 30.3642 18.3145 30.3642 18.3145C30.3642 18.3145 30.3643 18.3145 30.3643 18.3145C30.3644 18.3146 30.3645 18.3146 30.3647 18.3146C30.365 18.3147 30.3656 18.3149 30.3662 18.315C30.3676 18.3154 30.3697 18.3159 30.3723 18.3165C30.3777 18.3179 30.3857 18.3199 30.3962 18.3224C30.417 18.3276 30.4477 18.3352 30.4866 18.3448C30.5646 18.3641 30.676 18.3916 30.8099 18.4246C31.0776 18.4906 31.4351 18.5787 31.7945 18.6667C32.1537 18.7548 32.515 18.8429 32.7901 18.909C32.9275 18.9421 33.044 18.9698 33.1281 18.9893C33.17 18.999 33.2048 19.0069 33.2305 19.0124C33.2431 19.0152 33.255 19.0177 33.265 19.0196C33.2698 19.0205 33.2759 19.0216 33.2823 19.0226C33.2831 19.0227 33.3024 19.026 33.3249 19.026V18.526ZM33.745 18.1975C33.6959 18.3941 33.5192 18.526 33.3249 18.526V19.026C33.7431 19.026 34.124 18.7433 34.2301 18.3187L33.745 18.1975ZM33.4295 17.6717C33.6618 17.7297 33.803 17.9651 33.745 18.1975L34.2301 18.3187C34.355 17.8185 34.051 17.3116 33.5507 17.1866L33.4295 17.6717ZM6.06599 17.1822C5.94101 16.6821 5.43411 16.3775 4.93369 16.503L5.05536 16.988C5.28733 16.9298 5.52282 17.071 5.58091 17.3035L6.06599 17.1822ZM5.38668 18.3144C5.88692 18.1894 6.19108 17.6824 6.06598 17.1822L5.58092 17.3035C5.63902 17.5358 5.49775 17.7712 5.26545 17.8293L5.38668 18.3144ZM2.42538 19.026C2.44788 19.026 2.46714 19.0227 2.46801 19.0226C2.47436 19.0216 2.48046 19.0205 2.48531 19.0196C2.49529 19.0177 2.50716 19.0152 2.51982 19.0125C2.54552 19.0069 2.58033 18.999 2.62223 18.9893C2.70632 18.9698 2.82279 18.9421 2.96022 18.909C3.23528 18.8429 3.59657 18.7548 3.95581 18.6667C4.31513 18.5787 4.6727 18.4906 4.94042 18.4246C5.07429 18.3916 5.1857 18.3641 5.26365 18.3448C5.30263 18.3352 5.33324 18.3276 5.35411 18.3224C5.36454 18.3199 5.37254 18.3179 5.37793 18.3165C5.38063 18.3159 5.38267 18.3154 5.38404 18.315C5.38473 18.3149 5.38525 18.3147 5.38559 18.3146C5.38577 18.3146 5.3859 18.3146 5.38598 18.3146C5.38603 18.3145 5.38606 18.3145 5.38608 18.3145C5.3861 18.3145 5.38612 18.3145 5.32607 18.0718C5.26602 17.8292 5.26601 17.8292 5.26598 17.8292C5.26596 17.8292 5.26593 17.8292 5.26589 17.8292C5.2658 17.8292 5.26567 17.8292 5.2655 17.8293C5.26516 17.8294 5.26464 17.8295 5.26396 17.8297C5.2626 17.83 5.26056 17.8305 5.25787 17.8312C5.25249 17.8325 5.2445 17.8345 5.23408 17.8371C5.21324 17.8422 5.18265 17.8498 5.14371 17.8594C5.06581 17.8786 4.95447 17.9061 4.82068 17.9391C4.5531 18.0051 4.19579 18.0931 3.8368 18.1811C3.47773 18.2691 3.11728 18.357 2.84331 18.4229C2.70623 18.4559 2.59137 18.4832 2.50933 18.5022C2.46815 18.5117 2.4362 18.519 2.41418 18.5237C2.40298 18.5262 2.39576 18.5276 2.39175 18.5284C2.38961 18.5288 2.38999 18.5287 2.39194 18.5284C2.3929 18.5283 2.39566 18.5278 2.39954 18.5274C2.40186 18.5271 2.412 18.526 2.42538 18.526V19.026ZM1.52024 18.3188C1.62638 18.7433 2.00717 19.026 2.42538 19.026V18.526C2.23109 18.526 2.05448 18.3942 2.00531 18.1975L1.52024 18.3188ZM2.19954 17.1866C1.6993 17.3116 1.39514 17.8185 1.52024 18.3188L2.0053 18.1975C1.9472 17.9652 2.08847 17.7297 2.32077 17.6717L2.19954 17.1866ZM4.93389 16.503L2.19952 17.1866L2.32079 17.6717L5.05516 16.9881L4.93389 16.503ZM1.05859 12.1897H3.79296V11.6897H1.05859V12.1897ZM0.625 12.6233C0.625 12.3839 0.819132 12.1897 1.05859 12.1897V11.6897C0.542957 11.6897 0.125 12.1078 0.125 12.6233H0.625ZM1.05859 13.0569C0.819132 13.0569 0.625 12.8627 0.625 12.6233H0.125C0.125 13.1388 0.542957 13.5569 1.05859 13.5569V13.0569ZM3.79296 13.0569H1.05859V13.5569H3.79296V13.0569ZM4.22655 12.6233C4.22655 12.8627 4.03242 13.0569 3.79296 13.0569V13.5569C4.3086 13.5569 4.72655 13.1388 4.72655 12.6233H4.22655ZM3.79296 12.1897C4.03242 12.1897 4.22655 12.3839 4.22655 12.6233H4.72655C4.72655 12.1078 4.3086 11.6897 3.79296 11.6897V12.1897ZM4.70311 6.93266L1.96874 6.24906L1.84747 6.73413L4.58184 7.41773L4.70311 6.93266ZM5.38238 8.06484C5.50749 7.56461 5.20333 7.05766 4.70308 6.93265L4.58186 7.41773C4.81416 7.47578 4.95542 7.71122 4.89732 7.94353L5.38238 8.06484ZM4.47725 8.77207C4.89544 8.77207 5.27633 8.48933 5.3824 8.06478L4.89731 7.94359C4.8482 8.14015 4.67155 8.27207 4.47725 8.27207V8.77207ZM1.57656 7.8179C1.51651 8.06059 1.51652 8.06059 1.51654 8.06059C1.51657 8.0606 1.5166 8.06061 1.51664 8.06062C1.51673 8.06064 1.51686 8.06067 1.51703 8.06072C1.51738 8.0608 1.5179 8.06093 1.51858 8.0611C1.51995 8.06144 1.522 8.06194 1.52469 8.06261C1.53009 8.06394 1.53808 8.06592 1.54852 8.0685C1.56939 8.07366 1.6 8.08123 1.63898 8.09086C1.71693 8.11012 1.82834 8.13764 1.9622 8.17066C2.22992 8.23669 2.58749 8.32474 2.94681 8.4128C3.30605 8.50084 3.66735 8.58897 3.9424 8.65512C4.07983 8.68817 4.1963 8.71587 4.2804 8.73536C4.32229 8.74507 4.35711 8.75297 4.3828 8.75852C4.39547 8.76126 4.40734 8.76374 4.41732 8.76564C4.42217 8.76656 4.42827 8.76767 4.43462 8.76865C4.43548 8.76879 4.45474 8.77207 4.47725 8.77207V8.27207C4.49063 8.27207 4.50076 8.27322 4.50309 8.27348C4.50696 8.27391 4.50972 8.27432 4.51068 8.27447C4.51264 8.27477 4.51302 8.27488 4.51088 8.27447C4.50687 8.27371 4.49964 8.27223 4.48845 8.26981C4.46642 8.26505 4.43447 8.25782 4.3933 8.24827C4.31126 8.22926 4.19639 8.20194 4.05931 8.16898C3.78534 8.10309 3.4249 8.01517 3.06583 7.92717C2.70683 7.83919 2.34952 7.7512 2.08194 7.68521C1.94815 7.65221 1.83681 7.62471 1.75892 7.60546C1.71997 7.59584 1.68939 7.58828 1.66855 7.58312C1.65812 7.58055 1.65014 7.57857 1.64476 7.57724C1.64207 7.57657 1.64003 7.57607 1.63866 7.57573C1.63798 7.57556 1.63747 7.57544 1.63712 7.57535C1.63695 7.57531 1.63682 7.57528 1.63674 7.57526C1.63669 7.57524 1.63666 7.57524 1.63664 7.57523C1.63662 7.57523 1.63661 7.57522 1.57656 7.8179ZM0.836648 6.92826C0.711544 7.42848 1.01571 7.93543 1.51595 8.06045L1.63717 7.57536C1.40488 7.51731 1.26361 7.28188 1.32171 7.04957L0.836648 6.92826ZM1.96886 6.2491C1.46828 6.12367 0.96162 6.42828 0.836639 6.92829L1.32172 7.04954C1.3798 6.81715 1.61511 6.67592 1.84734 6.7341L1.96886 6.2491ZM4.73673 0.655365L7.4711 2.70614L7.7711 2.30614L5.03673 0.255365L4.73673 0.655365ZM4.12969 0.742098C4.27341 0.5505 4.54519 0.511691 4.73672 0.655354L5.03674 0.255376C4.62425 -0.0540455 4.03908 0.0296448 3.72971 0.442069L4.12969 0.742098ZM4.21641 1.3491C4.02489 1.20549 3.98604 0.933655 4.12971 0.742069L3.72969 0.442098C3.42041 0.854535 3.50392 1.43979 3.91643 1.74912L4.21641 1.3491ZM6.95079 3.39989L4.21642 1.34911L3.91642 1.74911L6.65079 3.79989L6.95079 3.39989ZM7.2104 3.48668C7.11988 3.48668 7.02904 3.45861 6.95084 3.39993L6.65074 3.79985C6.81849 3.92574 7.01545 3.98668 7.2104 3.98668V3.48668ZM7.55781 3.31318C7.47275 3.42661 7.34296 3.48668 7.2104 3.48668V3.98668C7.4936 3.98668 7.77437 3.8578 7.95783 3.61316L7.55781 3.31318ZM7.47111 2.70615C7.66262 2.84976 7.70148 3.1216 7.55781 3.31319L7.95783 3.61316C8.26711 3.20072 8.1836 2.61547 7.77109 2.30613L7.47111 2.70615ZM17.2598 5.83227C17.7754 5.83227 18.1934 5.41429 18.1934 4.89868H17.6934C17.6934 5.13815 17.4992 5.33227 17.2598 5.33227V5.83227ZM16.3262 4.89868C16.3262 5.41429 16.7442 5.83227 17.2598 5.83227V5.33227C17.0203 5.33227 16.8262 5.13815 16.8262 4.89868H16.3262ZM17.2598 3.96509C16.7442 3.96509 16.3262 4.38307 16.3262 4.89868H16.8262C16.8262 4.65921 17.0203 4.46509 17.2598 4.46509V3.96509ZM18.1934 4.89868C18.1934 4.38307 17.7754 3.96509 17.2598 3.96509V4.46509C17.4992 4.46509 17.6934 4.65921 17.6934 4.89868H18.1934Z" fill="#FEFDFC"/>
</g>
<defs>
<clipPath id="clip0_405_1275">
<rect width="35" height="35" fill="white" transform="translate(0.375 0.318604)"/>
</clipPath>
</defs>
</svg>
