<svg width="37" height="37" viewBox="0 0 37 37" fill="none" xmlns="http://www.w3.org/2000/svg">
<g clip-path="url(#clip0_1557_404)">
<path d="M35.0527 27.7974H1.16211V35.5317H35.0527V27.7974Z" stroke="black" stroke-width="0.9" stroke-miterlimit="10" stroke-linecap="round" stroke-linejoin="round"/>
<path d="M33.9277 19.3599H2.28711V27.7974H33.9277V19.3599Z" stroke="black" stroke-width="0.9" stroke-miterlimit="10" stroke-linecap="round" stroke-linejoin="round"/>
<path d="M32.873 11.6255H28.6543V19.3599H32.873V11.6255Z" stroke="black" stroke-width="0.9" stroke-miterlimit="10" stroke-linecap="round" stroke-linejoin="round"/>
<path d="M24.4355 11.6255H20.2168V19.3599H24.4355V11.6255Z" stroke="black" stroke-width="0.9" stroke-miterlimit="10" stroke-linecap="round" stroke-linejoin="round"/>
<path d="M3.3418 19.3599L7.56055 19.3599L7.56055 11.6255L3.3418 11.6255L3.3418 19.3599Z" stroke="black" stroke-width="0.9" stroke-miterlimit="10" stroke-linecap="round" stroke-linejoin="round"/>
<path d="M11.7793 19.3599L15.998 19.3599L15.998 11.6255L11.7793 11.6255L11.7793 19.3599Z" stroke="black" stroke-width="0.9" stroke-miterlimit="10" stroke-linecap="round" stroke-linejoin="round"/>
<path d="M33.5762 1.64111C31.7753 3.44196 30.7637 5.88433 30.7637 8.43105V11.6255" stroke="black" stroke-width="0.9" stroke-miterlimit="10" stroke-linecap="round" stroke-linejoin="round"/>
<path d="M24.4355 1.64111C23.0664 3.46671 22.3262 5.68718 22.3262 7.96924V11.6255" stroke="black" stroke-width="0.9" stroke-miterlimit="10" stroke-linecap="round" stroke-linejoin="round"/>
<path d="M2.63867 1.64111C4.43952 3.44196 5.45117 5.88433 5.45117 8.43105V11.6255" stroke="black" stroke-width="0.9" stroke-miterlimit="10" stroke-linecap="round" stroke-linejoin="round"/>
<path d="M11.7793 1.64111C13.1485 3.46671 13.8887 5.68718 13.8887 7.96924V11.6255" stroke="black" stroke-width="0.9" stroke-miterlimit="10" stroke-linecap="round" stroke-linejoin="round"/>
</g>
<defs>
<clipPath id="clip0_1557_404">
<rect width="36" height="36" fill="white" transform="translate(0.107422 0.586426)"/>
</clipPath>
</defs>
</svg>
