<svg width="36" height="36" viewBox="0 0 36 36" fill="none" xmlns="http://www.w3.org/2000/svg">
<path d="M34.3077 15.9726L32.1005 15.6739C31.7392 13.6822 30.9543 11.7913 29.799 10.1292L31.1544 8.35597C31.3343 8.11891 31.4224 7.82484 31.4025 7.52795C31.3827 7.23105 31.2562 6.95134 31.0464 6.74033L29.4532 5.14719C29.2422 4.93732 28.9624 4.81085 28.6654 4.7911C28.3684 4.77135 28.0743 4.85966 27.8373 5.03975L26.0641 6.38917C24.3998 5.23674 22.5075 4.45507 20.5151 4.09701L20.221 1.88559C20.1809 1.59062 20.0354 1.32011 19.8114 1.12401C19.5875 0.927896 19.3001 0.819422 19.0024 0.818604H16.7475C16.4497 0.819344 16.1623 0.92783 15.9383 1.12402C15.7143 1.3202 15.5689 1.59083 15.5289 1.8859L15.2303 4.09281C13.2387 4.45471 11.3479 5.23973 9.68555 6.39487L7.91266 5.03976C7.67567 4.8597 7.38157 4.77139 7.08459 4.79114C6.78761 4.81089 6.50779 4.93735 6.29672 5.14721L4.70359 6.74034C4.49368 6.95137 4.36718 7.23121 4.34744 7.5282C4.32769 7.8252 4.41602 8.11931 4.59614 8.35628L5.94556 10.1292C4.7931 11.7937 4.01144 13.6862 3.65341 15.6787L1.44259 15.9726C1.14747 16.0125 0.876775 16.1579 0.680528 16.3819C0.48428 16.6059 0.375752 16.8933 0.375 17.1911V19.4461C0.375741 19.7438 0.484224 20.0313 0.680405 20.2552C0.876587 20.4792 1.14721 20.6247 1.44227 20.6646L3.64918 20.9633C4.01098 22.9549 4.796 24.8458 5.95121 26.508L4.59612 28.2809C4.416 28.5179 4.32766 28.812 4.34741 29.109C4.36716 29.406 4.49366 29.6858 4.70357 29.8969L6.2967 31.49C6.50769 31.7 6.78753 31.8265 7.08455 31.8463C7.38157 31.866 7.6757 31.7776 7.91264 31.5974L9.68556 30.248C11.35 31.4005 13.2425 32.1821 15.2351 32.5402L15.5289 34.751C15.5688 35.0461 15.7142 35.3168 15.9382 35.5131C16.1622 35.7093 16.4497 35.8179 16.7475 35.8186H19.0024C19.3002 35.8178 19.5876 35.7093 19.8115 35.5131C20.0355 35.3169 20.1809 35.0463 20.221 34.7513L20.5199 32.5444C22.5116 32.1825 24.4024 31.3975 26.0647 30.2424L27.8379 31.5977C28.0748 31.7777 28.3689 31.8659 28.6657 31.8461C28.9626 31.8263 29.2423 31.6998 29.4532 31.49L31.0464 29.8969C31.2562 29.6858 31.3827 29.406 31.4024 29.109C31.4222 28.812 31.3339 28.5179 31.1538 28.2809L29.8044 26.5077C30.9572 24.8435 31.739 22.951 32.0969 20.9585L34.3077 20.6646C34.6027 20.6246 34.8733 20.4792 35.0695 20.2552C35.2657 20.0312 35.3742 19.7438 35.375 19.4461V17.1911C35.3742 16.8934 35.2657 16.606 35.0695 16.382C34.8733 16.158 34.6027 16.0126 34.3077 15.9726ZM34.1456 19.4461L31.9348 19.7399C31.6772 19.775 31.4375 19.8909 31.25 20.0709C31.0625 20.251 30.937 20.4858 30.8915 20.7418C30.5605 22.5614 29.8448 24.2893 28.7924 25.8102C28.6437 26.0231 28.5665 26.2777 28.5719 26.5374C28.5772 26.797 28.665 27.0482 28.8224 27.2547L30.1772 29.0277L28.5841 30.6208L26.8115 29.2657C26.6048 29.1085 26.3535 29.0209 26.0939 29.0155C25.8342 29.0102 25.5796 29.0874 25.3666 29.236C23.8456 30.2883 22.1175 31.0041 20.2979 31.3354C20.0419 31.3805 19.807 31.5058 19.627 31.6933C19.447 31.8807 19.3313 32.1206 19.2966 32.3781L19.0025 34.5892H16.7475L16.4537 32.3778C16.4186 32.1203 16.3027 31.8807 16.1227 31.6933C15.9426 31.506 15.7077 31.3806 15.4518 31.3354C13.6323 31.0041 11.9043 30.2883 10.3834 29.236C10.1765 29.0926 9.93073 29.0156 9.67897 29.0154C9.41145 29.0152 9.15132 29.1032 8.93883 29.2657L7.16592 30.6208L5.57278 29.0277L6.9279 27.2545C7.08513 27.0478 7.17272 26.7966 7.17806 26.537C7.1834 26.2774 7.10621 26.0228 6.95762 25.8099C5.90519 24.289 5.18943 22.5611 4.85816 20.7415C4.81287 20.4856 4.68748 20.2507 4.50008 20.0707C4.31268 19.8907 4.07295 19.7749 3.81546 19.7399L1.60434 19.4461V17.1911L3.81576 16.8973C4.07323 16.8623 4.31293 16.7464 4.50027 16.5663C4.68761 16.3862 4.81293 16.1513 4.85814 15.8955C5.18952 14.0759 5.90527 12.348 6.9576 10.827C7.10619 10.6141 7.18337 10.3595 7.17803 10.0999C7.17269 9.84031 7.08511 9.5891 6.92789 9.38246L5.57276 7.60954L7.1659 6.01641L8.93912 7.37153C9.14576 7.52861 9.3969 7.61611 9.65641 7.62145C9.91593 7.62679 10.1704 7.54969 10.3834 7.40125C11.9044 6.34889 13.6324 5.63314 15.4521 5.30179C15.708 5.2565 15.9429 5.13112 16.1229 4.94372C16.3029 4.75632 16.4187 4.5166 16.4537 4.25911L16.7475 2.04799H19.0024L19.2966 4.25788C19.331 4.51564 19.4466 4.75575 19.6267 4.94342C19.8067 5.1311 20.0417 5.2566 20.2978 5.30177C22.1175 5.63307 23.8456 6.34882 25.3666 7.40123C25.5796 7.54968 25.8342 7.62678 26.0938 7.62144C26.3535 7.6161 26.6047 7.5286 26.8114 7.37151L28.5841 6.01639L30.1772 7.60953L28.8224 9.38214C28.665 9.58875 28.5772 9.84 28.5718 10.0997C28.5665 10.3594 28.6437 10.614 28.7924 10.827C29.845 12.3481 30.5606 14.0764 30.8915 15.8963C30.9372 16.1521 31.0628 16.3867 31.2502 16.5666C31.4377 16.7465 31.6774 16.8622 31.9348 16.8973L34.1456 17.1914L34.1456 19.4461Z" fill="black" stroke="#FEFDFC" stroke-width="0.1"/>
<path d="M17.8751 7.03833C14.8844 7.04176 12.0172 8.23134 9.90252 10.3461C7.78783 12.4608 6.59832 15.3281 6.59497 18.3187C7.21474 33.2833 28.5377 33.2789 29.1552 18.3186C29.1518 15.328 27.9623 12.4608 25.8476 10.3461C23.7329 8.23133 20.8657 7.04176 17.8751 7.03833ZM17.8751 28.3694C15.2104 28.3664 12.6557 27.3066 10.7714 25.4223C8.8872 23.5381 7.82733 20.9834 7.82434 18.3187C8.37647 4.98467 27.3757 4.98855 27.9258 18.3188C27.9228 20.9835 26.8629 23.5382 24.9787 25.4224C23.0944 27.3066 20.5398 28.3665 17.8751 28.3694Z" fill="black" stroke="#FEFDFC" stroke-width="0.1"/>
<path d="M22.057 16.2554L19.2783 16.341L21.2436 12.1739C21.382 11.8796 21.409 11.5452 21.3196 11.2326C21.2302 10.92 21.0305 10.6504 20.7574 10.4738C20.4844 10.2973 20.1565 10.2258 19.8348 10.2725C19.513 10.3193 19.2191 10.4812 19.0076 10.7281L12.6861 18.1127C12.5154 18.3179 12.4078 18.5681 12.3763 18.8332C12.3449 19.0983 12.3909 19.3668 12.5087 19.6062C12.6266 19.8457 12.8114 20.0459 13.0406 20.1826C13.2699 20.3193 13.5338 20.3867 13.8005 20.3766L16.3265 20.2451L14.4014 24.4867C14.3114 24.6909 14.2735 24.9142 14.291 25.1366C14.3085 25.359 14.381 25.5736 14.5018 25.7612C14.6227 25.9487 14.7882 26.1034 14.9835 26.2113C15.1788 26.3192 15.3978 26.3769 15.6209 26.3793C15.8139 26.3794 16.0046 26.3375 16.1799 26.2567C16.3552 26.1759 16.5109 26.058 16.6362 25.9111L23.0817 18.3978C23.2419 18.2058 23.3437 17.9717 23.3748 17.7235C23.4058 17.4753 23.365 17.2234 23.2571 16.9977C23.1491 16.772 22.9787 16.5821 22.7659 16.4505C22.5532 16.3189 22.3071 16.2512 22.057 16.2554ZM22.1488 17.5977L15.7034 25.1107C15.686 25.13 15.6624 25.1424 15.6367 25.1459C15.611 25.1494 15.5849 25.1437 15.563 25.1298C15.5411 25.1158 15.5249 25.0946 15.5172 25.0699C15.5095 25.0451 15.5108 25.0184 15.5209 24.9945L17.645 20.3148C17.7114 20.1683 17.739 20.0073 17.7251 19.8471C17.7113 19.6868 17.6564 19.5329 17.5658 19.4C17.4752 19.2672 17.3519 19.1599 17.2078 19.0885C17.0637 19.0171 16.9036 18.984 16.7431 18.9924L13.7369 19.1491C13.709 19.15 13.6814 19.1429 13.6575 19.1286C13.6336 19.1143 13.6143 19.0934 13.602 19.0684C13.5896 19.0434 13.5848 19.0153 13.588 18.9876C13.5912 18.9599 13.6024 18.9338 13.6201 18.9123L19.9416 11.5277C19.9597 11.5073 19.9846 11.4941 20.0116 11.4904C20.0386 11.4868 20.066 11.4929 20.0889 11.5077C20.1118 11.5224 20.1287 11.5449 20.1365 11.5711C20.1442 11.5972 20.1424 11.6252 20.1313 11.6501L17.9406 16.2951C17.8768 16.4353 17.8496 16.5895 17.8614 16.7431C17.8733 16.8968 17.9238 17.0449 18.0083 17.1738C18.0928 17.3026 18.2086 17.408 18.3448 17.4801C18.481 17.5521 18.6332 17.5885 18.7873 17.5859L22.1488 17.5085C22.1594 17.5209 22.1653 17.5367 22.1653 17.5531C22.1653 17.5694 22.1594 17.5852 22.1488 17.5977Z" fill="black" stroke="#FEFDFC" stroke-width="0.1"/>
</svg>
