<svg width="37" height="38" viewBox="0 0 37 38" fill="none" xmlns="http://www.w3.org/2000/svg">
<path d="M5.29473 6.82422V10.5147C5.29473 10.9665 4.92849 11.3327 4.47671 11.3327V11.3327C4.02493 11.3327 3.65869 11.6989 3.65869 12.1507V35.1687C3.65869 36.1374 4.44401 36.9227 5.41275 36.9227H32.0483C33.017 36.9227 33.8023 36.1374 33.8023 35.1687V11.8633C33.8023 11.5703 33.5647 11.3327 33.2717 11.3327V11.3327C32.9786 11.3327 32.741 11.0951 32.741 10.8021V6.82422" stroke="black"/>
<path d="M5.29843 6.82432V6.82432C4.31813 6.82432 3.52344 6.02963 3.52344 5.04933V3.81337C3.52344 2.21698 4.81757 0.922852 6.41395 0.922852H15.0783V6.82432V6.82432C14.8138 6.82432 14.5993 7.03877 14.5993 7.30329V8.77838C14.5993 9.85758 15.4742 10.7324 16.5534 10.7324H20.1947" stroke="black"/>
<path d="M32.6391 6.82432V6.82432C33.6194 6.82432 34.4141 6.02963 34.4141 5.04933V3.81337C34.4141 2.21698 33.1199 0.922852 31.5235 0.922852H22.8592V6.82432V6.82432C23.1237 6.82432 23.3382 7.03877 23.3382 7.30329V8.77838C23.3382 9.85758 22.4633 10.7324 21.3841 10.7324H19.6917" stroke="black"/>
<path d="M5.29541 6.85693H14.8822M32.7283 6.85693H22.9467" stroke="black"/>
</svg>
