<svg width="36" height="36" viewBox="0 0 36 36" fill="none" xmlns="http://www.w3.org/2000/svg">
<g clip-path="url(#clip0_405_1126)">
<path d="M8.6135 23.8019C7.67239 23.8019 6.73127 23.4434 6.01494 22.7271L5.31961 22.0309C4.62583 21.3372 4.24316 20.4139 4.24316 19.4324C4.24316 18.4508 4.62583 17.5276 5.31961 16.8338L7.63972 14.5145C7.79139 14.3628 8.03794 14.3628 8.18961 14.5145C8.35839 14.6825 8.63216 14.6825 8.80016 14.5145L14.5892 8.7255C14.6708 8.64384 14.7159 8.53572 14.7159 8.41984C14.7159 8.30395 14.6708 8.19584 14.5892 8.11417C14.5161 8.04106 14.4756 7.94228 14.4756 7.83884C14.4756 7.73539 14.5168 7.63661 14.5892 7.5635L16.9085 5.24417C17.6023 4.55039 18.5255 4.16772 19.5071 4.16772C20.4886 4.16772 21.4118 4.55039 22.1056 5.24417L22.8017 5.9395C23.4955 6.63328 23.8782 7.5565 23.8782 8.53806C23.8782 9.51961 23.4955 10.4428 22.8017 11.1366L20.4824 13.4559C20.3307 13.6076 20.0842 13.6076 19.9325 13.4559C19.8508 13.3743 19.7427 13.3292 19.6268 13.3292C19.5109 13.3292 19.4028 13.3743 19.3212 13.4559L13.5322 19.2449C13.4505 19.3266 13.4054 19.4347 13.4054 19.5506C13.4054 19.6665 13.4505 19.7746 13.5322 19.8563C13.6838 20.0079 13.6838 20.2545 13.5322 20.4062L11.2128 22.7263C10.4957 23.4434 9.55461 23.8019 8.6135 23.8019ZM7.95939 15.2938L5.8695 17.3837C5.32194 17.9313 5.02094 18.6585 5.02094 19.4324C5.02094 20.2063 5.32272 20.9335 5.8695 21.4811L6.56483 22.1772C7.69416 23.3065 9.53283 23.3065 10.6622 22.1772L12.7521 20.0873C12.6712 19.9232 12.6276 19.7404 12.6276 19.5514C12.6276 19.2286 12.7536 18.9245 12.9815 18.6958L18.7705 12.9068C18.9992 12.6782 19.3025 12.5522 19.6261 12.5522C19.8151 12.5522 19.9971 12.5949 20.1619 12.6766L22.2518 10.5867C22.7994 10.0392 23.1004 9.31195 23.1004 8.53806C23.1004 7.76417 22.7986 7.03695 22.2518 6.48939L21.5557 5.79406C21.0082 5.2465 20.2809 4.9455 19.5071 4.9455C18.7332 4.9455 18.0059 5.24728 17.4584 5.79406L15.3685 7.88395C15.5909 8.33583 15.5147 8.89895 15.1391 9.27461L9.35005 15.0636C8.97439 15.4401 8.41127 15.5163 7.95939 15.2938Z" fill="black"/>
<path d="M14.5849 18.0324C14.4853 18.0324 14.3858 17.9943 14.3095 17.9188L10.1274 13.7367C9.97576 13.585 9.97576 13.3385 10.1274 13.1868L13.2603 10.0539C13.412 9.90227 13.6585 9.90227 13.8102 10.0539L17.9923 14.236C18.144 14.3877 18.144 14.6343 17.9923 14.7859L14.8594 17.9188C14.784 17.9943 14.6844 18.0324 14.5849 18.0324ZM10.9534 13.4614L14.5856 17.0936L17.1686 14.5106L13.5364 10.8784L10.9534 13.4614Z" fill="black"/>
<path d="M10.966 22.8119C10.8665 22.8119 10.7669 22.7738 10.6907 22.6983L5.34813 17.3558C5.19646 17.2041 5.19646 16.9576 5.34813 16.8059C5.49979 16.6542 5.74635 16.6542 5.89801 16.8059L11.2406 22.1484C11.3922 22.3001 11.3922 22.5467 11.2406 22.6983C11.1651 22.7738 11.0656 22.8119 10.966 22.8119Z" fill="black"/>
<path d="M22.4971 11.2806C22.3975 11.2806 22.298 11.2425 22.2217 11.1671L16.8784 5.82453C16.7267 5.67286 16.7267 5.42631 16.8784 5.27464C17.0301 5.12297 17.2766 5.12297 17.4283 5.27464L22.7708 10.6172C22.9225 10.7689 22.9225 11.0154 22.7708 11.1671C22.6962 11.2425 22.5966 11.2806 22.4971 11.2806Z" fill="black"/>
<path d="M23.6025 4.83282C23.5029 4.83282 23.4034 4.79471 23.3271 4.71926C23.1755 4.5676 23.1755 4.32104 23.3271 4.16938L26.6716 0.824932C26.8232 0.673265 27.0698 0.673265 27.2215 0.824932C27.3731 0.976598 27.3731 1.22315 27.2215 1.37482L23.877 4.71926C23.8016 4.79549 23.702 4.83282 23.6025 4.83282Z" fill="black"/>
<path d="M23.265 7.73242C23.1483 7.73242 23.0332 7.68031 22.957 7.58153C22.8255 7.41197 22.8566 7.16775 23.027 7.03631C23.0853 6.99119 23.1421 6.94064 23.1965 6.88697C23.5084 6.57508 23.6912 6.17453 23.7106 5.75764C23.7301 5.35553 23.594 4.98686 23.3272 4.72086C23.0604 4.45408 22.691 4.31719 22.2896 4.33742C21.8735 4.35764 21.4722 4.54042 21.1603 4.85153C21.1066 4.90519 21.0561 4.96275 21.011 5.02108C20.8795 5.19064 20.6353 5.22175 20.465 5.09031C20.2954 4.95886 20.2643 4.71464 20.395 4.54508C20.4603 4.46031 20.5326 4.37864 20.6096 4.30164C21.0584 3.85286 21.641 3.58997 22.2515 3.56042C22.8761 3.53008 23.4524 3.74708 23.8763 4.17097C24.3002 4.59486 24.5164 5.17197 24.4869 5.79575C24.4573 6.40553 24.1944 6.98886 23.7456 7.43764C23.6686 7.51464 23.5862 7.58697 23.5014 7.65231C23.4314 7.70519 23.3482 7.73242 23.265 7.73242Z" fill="black"/>
<path d="M1.15276 27.2749C1.0532 27.2749 0.953644 27.2368 0.877422 27.1614C0.725755 27.0097 0.725755 26.7631 0.877422 26.6115L4.22187 23.2678C4.37353 23.1161 4.62009 23.1161 4.77176 23.2678C4.92342 23.4195 4.92342 23.666 4.77176 23.8177L1.42731 27.1614C1.35187 27.2376 1.25231 27.2749 1.15276 27.2749Z" fill="black"/>
<path d="M5.75641 24.415C5.19719 24.415 4.65352 24.2128 4.24363 23.8037C3.37874 22.9388 3.43785 21.4735 4.3743 20.537C4.4513 20.46 4.53374 20.3877 4.61852 20.3216C4.78808 20.1901 5.0323 20.2212 5.16374 20.3916C5.29519 20.5619 5.26408 20.8061 5.09374 20.9368C5.03541 20.9819 4.97785 21.0325 4.92419 21.0861C4.29108 21.7192 4.23197 22.6915 4.79352 23.253C5.3543 23.8138 6.32652 23.7547 6.95963 23.1216C7.0133 23.0679 7.06385 23.0103 7.10897 22.952C7.24041 22.7825 7.48463 22.7513 7.65419 22.882C7.82374 23.0135 7.85485 23.2577 7.72419 23.428C7.65885 23.5128 7.58652 23.5945 7.50952 23.6715C7.01719 24.1653 6.37785 24.415 5.75641 24.415Z" fill="black"/>
<path d="M16.2649 31.4524C15.3238 31.4524 14.3826 31.0938 13.6663 30.3775L12.971 29.6814C12.2772 28.9876 11.8945 28.0644 11.8945 27.0828C11.8945 26.1013 12.2764 25.1781 12.971 24.4843L15.2903 22.1642C15.442 22.0125 15.6885 22.0125 15.8402 22.1642C16.009 22.3329 16.2828 22.3329 16.4508 22.1642L22.2398 16.3752C22.3214 16.2935 22.3665 16.1854 22.3665 16.0695C22.3665 15.9536 22.3214 15.8455 22.2398 15.7638C22.1666 15.6907 22.1262 15.5919 22.1262 15.4885C22.1262 15.3851 22.1674 15.2863 22.2398 15.2132L24.5599 12.8938C25.9925 11.4612 28.3243 11.4612 29.757 12.8938L30.4531 13.5892C31.8858 15.0218 31.8858 17.3536 30.4531 18.7863L28.133 21.1064C28.0599 21.1795 27.9611 21.2199 27.8576 21.2199C27.7542 21.2199 27.6554 21.1787 27.5823 21.1064C27.5006 21.0247 27.3925 20.9796 27.2766 20.9796C27.1608 20.9796 27.0526 21.0247 26.971 21.1064L21.182 26.8954C21.014 27.0642 21.0132 27.3379 21.182 27.5059C21.3336 27.6576 21.3336 27.9042 21.182 28.0558L18.8619 30.3759C18.1471 31.0946 17.2068 31.4524 16.2649 31.4524ZM15.6108 22.9451L13.5209 25.0349C12.9733 25.5825 12.6723 26.3097 12.6723 27.0836C12.6723 27.8575 12.9741 28.5847 13.5209 29.1323L14.2162 29.8284C15.3455 30.9577 17.1834 30.9577 18.3135 29.8284L20.4034 27.7385C20.181 27.2866 20.2572 26.7235 20.6329 26.3478L26.4219 20.5588C26.6505 20.3302 26.9539 20.2042 27.2774 20.2042C27.4664 20.2042 27.6484 20.2469 27.8133 20.3286L29.9032 18.2387C31.0325 17.1094 31.0325 15.2715 29.9032 14.1414L29.2071 13.4453C28.0778 12.3159 26.2391 12.3159 25.1098 13.4453L23.0199 15.5352C23.1015 15.6993 23.1443 15.8821 23.1443 16.0703C23.1443 16.3931 23.0183 16.6972 22.7896 16.9258L17.0006 22.7148C16.6258 23.0905 16.0634 23.1675 15.6108 22.9451Z" fill="black"/>
<path d="M22.2362 25.6828C22.1367 25.6828 22.0371 25.6447 21.9609 25.5692L17.7788 21.3871C17.6271 21.2354 17.6271 20.9889 17.7788 20.8372L20.9117 17.7043C21.0633 17.5527 21.3099 17.5527 21.4616 17.7043L25.6437 21.8864C25.7953 22.0381 25.7953 22.2847 25.6437 22.4363L22.5108 25.5692C22.4353 25.6454 22.3358 25.6828 22.2362 25.6828ZM18.604 21.1125L22.2362 24.7448L24.8192 22.1618L21.187 18.5295L18.604 21.1125Z" fill="black"/>
<path d="M18.6174 30.463C18.5178 30.463 18.4183 30.4249 18.342 30.3495L12.9995 25.0069C12.8478 24.8552 12.8478 24.6087 12.9995 24.457C13.1512 24.3053 13.3977 24.3053 13.5494 24.457L18.8919 29.7996C19.0436 29.9512 19.0436 30.1978 18.8919 30.3495C18.8165 30.4249 18.7169 30.463 18.6174 30.463Z" fill="black"/>
<path d="M30.1486 18.9318C30.0491 18.9318 29.9495 18.8937 29.8733 18.8182L24.5307 13.4757C24.3791 13.324 24.3791 13.0774 24.5307 12.9258C24.6824 12.7741 24.929 12.7741 25.0806 12.9258L30.4232 18.2683C30.5749 18.42 30.5749 18.6665 30.4232 18.8182C30.3477 18.8937 30.2482 18.9318 30.1486 18.9318Z" fill="black"/>
<path d="M31.2538 12.4839C31.1543 12.4839 31.0547 12.4458 30.9785 12.3704C30.8268 12.2187 30.8268 11.9722 30.9785 11.8205L34.3222 8.47605C34.4738 8.32439 34.7204 8.32439 34.8721 8.47605C35.0237 8.62772 35.0237 8.87428 34.8721 9.02594L31.5284 12.3704C31.4522 12.4458 31.3526 12.4839 31.2538 12.4839Z" fill="black"/>
<path d="M30.9163 15.3827C30.8004 15.3827 30.6853 15.3306 30.6083 15.2318C30.4769 15.0623 30.508 14.818 30.6783 14.6866C30.7367 14.6415 30.7942 14.5909 30.8479 14.5373C31.481 13.9042 31.5401 12.9319 30.9793 12.3712C30.4178 11.8096 29.4455 11.8687 28.8124 12.5018C28.7588 12.5555 28.7082 12.613 28.6631 12.6714C28.5317 12.8409 28.2874 12.8728 28.1179 12.7414C27.9475 12.6099 27.9164 12.3657 28.0479 12.1962C28.1132 12.1114 28.1855 12.0297 28.2633 11.9519C29.1998 11.0155 30.6651 10.9564 31.53 11.8213C32.3941 12.6854 32.3358 14.1507 31.3985 15.0872C31.3215 15.1642 31.2391 15.2365 31.1551 15.3018C31.0828 15.3563 30.9988 15.3827 30.9163 15.3827Z" fill="black"/>
<path d="M8.80412 34.926C8.70457 34.926 8.60501 34.8879 8.52879 34.8125C8.37712 34.6608 8.37712 34.4143 8.52879 34.2626L11.8732 30.9189C12.0249 30.7673 12.2715 30.7673 12.4231 30.9189C12.5748 31.0706 12.5748 31.3171 12.4231 31.4688L9.07868 34.8125C9.00323 34.8879 8.90368 34.926 8.80412 34.926Z" fill="black"/>
<path d="M13.4054 32.0669C12.8252 32.0669 12.2924 31.8515 11.895 31.454C11.0301 30.5891 11.0892 29.1238 12.0257 28.1874C12.1027 28.1104 12.1843 28.038 12.2691 27.9727C12.4387 27.8412 12.6829 27.8724 12.8143 28.0427C12.9458 28.2122 12.9147 28.4565 12.7443 28.5887C12.6852 28.6346 12.6284 28.6844 12.5748 28.738C11.9417 29.3711 11.8826 30.3434 12.4441 30.9049C12.7109 31.1717 13.0796 31.3078 13.4817 31.2884C13.8978 31.2681 14.2991 31.0854 14.611 30.7742C14.6654 30.7198 14.7152 30.663 14.7603 30.6047C14.8918 30.4344 15.136 30.4032 15.3056 30.5347C15.4751 30.6661 15.507 30.9104 15.3756 31.0799C15.3102 31.1647 15.2379 31.2464 15.1609 31.3241C14.7121 31.7729 14.1296 32.0358 13.5198 32.0654C13.4817 32.0661 13.4436 32.0669 13.4054 32.0669Z" fill="black"/>
</g>
<defs>
<clipPath id="clip0_405_1126">
<rect width="35" height="35" fill="white" transform="translate(0.375 0.318604)"/>
</clipPath>
</defs>
</svg>
