<svg width="36" height="36" viewBox="0 0 36 36" fill="none" xmlns="http://www.w3.org/2000/svg">
<g clip-path="url(#clip0_1458_3227)">
<mask id="mask0_1458_3227" style="mask-type:luminance" maskUnits="userSpaceOnUse" x="0" y="0" width="36" height="36">
<mask id="path-1-inside-1_1458_3227" fill="white">
<path d="M35.6471 0.352539H0.353027V35.6467H35.6471V0.352539Z"/>
</mask>
<path d="M35.6471 0.352539H0.353027V35.6467H35.6471V0.352539Z" fill="white" stroke="white" stroke-width="0.2" mask="url(#path-1-inside-1_1458_3227)"/>
</mask>
<g mask="url(#mask0_1458_3227)">
<mask id="path-2-inside-2_1458_3227" fill="white">
<path d="M16.6092 15.5198C16.7473 15.408 16.8274 15.2397 16.8271 15.0623C16.8254 13.6655 15.843 12.4617 14.4746 12.1806V10.3574C14.4746 10.0326 14.2116 9.76923 13.8866 9.76923H13.2984V0.947488C13.2984 0.622707 13.0354 0.359375 12.7103 0.359375C12.3855 0.359375 12.1222 0.622707 12.1222 0.947488V9.76923H11.5341C11.2093 9.76923 10.9459 10.0326 10.9459 10.3574V12.1217H6.24103V10.3574C6.24103 10.0326 5.97798 9.76923 5.65292 9.76923H5.0648V0.947488C5.0648 0.622707 4.80175 0.359375 4.47668 0.359375C4.15189 0.359375 3.88856 0.622707 3.88856 0.947488V9.76923H3.30045C2.97566 9.76923 2.71233 10.0326 2.71233 10.3574V12.1806C1.34428 12.4617 0.361877 13.6655 0.359866 15.0623C0.360154 15.2438 0.443719 15.4149 0.587015 15.5263C0.955162 15.7971 1.28885 16.1121 1.58089 16.4637C1.63689 16.6903 1.64178 16.9263 1.59497 17.1549C1.29345 17.5184 0.951429 17.8469 0.575816 18.1332C0.43855 18.2455 0.359292 18.4138 0.359866 18.591V29.1771C0.360154 29.3586 0.443719 29.5297 0.587015 29.6412C0.955162 29.9119 1.28885 30.227 1.58089 30.5784C1.63689 30.805 1.64178 31.0411 1.59497 31.2696C1.29345 31.6332 0.951429 31.9617 0.575816 32.2481C0.43855 32.3603 0.359292 32.5286 0.359866 32.7058C0.361877 34.3289 1.67738 35.6443 3.30045 35.6464H13.8866C15.5099 35.6443 16.8254 34.3289 16.8271 32.7058C16.8271 32.5243 16.7436 32.3532 16.6003 32.2417C16.2321 31.9706 15.8984 31.6559 15.6064 31.3041C15.5496 31.0781 15.5441 30.8421 15.5897 30.6132C15.8916 30.2494 16.2333 29.9211 16.6092 29.6345C16.7473 29.5229 16.8274 29.3546 16.8271 29.1771V18.591C16.8271 18.4095 16.7436 18.2383 16.6003 18.1269C16.2321 17.8558 15.8984 17.5411 15.6064 17.1893C15.5496 16.9633 15.5441 16.7273 15.5897 16.4984C15.8916 16.1346 16.2333 15.8064 16.6092 15.5198ZM12.1222 10.9454H13.2984V12.1217H12.1222V10.9454ZM3.88856 10.9454H5.0648V12.1217H3.88856V10.9454ZM14.5195 17.6393C14.8133 18.12 15.1977 18.539 15.6509 18.8733V28.9C15.2161 29.2351 14.8388 29.6388 14.5335 30.0952C14.3371 30.6299 14.3316 31.216 14.5183 31.7541C14.8066 32.2279 15.184 32.6414 15.63 32.9717C15.4987 33.8329 14.7581 34.4695 13.8866 34.4701H3.30045C2.42718 34.469 1.68514 33.83 1.55505 32.9662C1.98178 32.636 2.35252 32.2389 2.6526 31.79C2.84903 31.2553 2.85448 30.6692 2.66782 30.131C2.37405 29.6495 1.98982 29.2296 1.5361 28.8948V18.8678C1.97087 18.5327 2.34849 18.1292 2.65375 17.6729C2.85017 17.1382 2.85563 16.5521 2.66897 16.0137C2.38065 15.5398 2.00332 15.1263 1.55735 14.7964C1.68858 13.9349 2.42919 13.2985 3.30045 13.2979H13.8866C14.7601 13.2988 15.5018 13.938 15.6322 14.8018C15.2052 15.1321 14.8348 15.5292 14.5347 15.978C14.3377 16.5134 14.3322 17.1006 14.5195 17.6393Z"/>
</mask>
<path d="M16.6092 15.5198C16.7473 15.408 16.8274 15.2397 16.8271 15.0623C16.8254 13.6655 15.843 12.4617 14.4746 12.1806V10.3574C14.4746 10.0326 14.2116 9.76923 13.8866 9.76923H13.2984V0.947488C13.2984 0.622707 13.0354 0.359375 12.7103 0.359375C12.3855 0.359375 12.1222 0.622707 12.1222 0.947488V9.76923H11.5341C11.2093 9.76923 10.9459 10.0326 10.9459 10.3574V12.1217H6.24103V10.3574C6.24103 10.0326 5.97798 9.76923 5.65292 9.76923H5.0648V0.947488C5.0648 0.622707 4.80175 0.359375 4.47668 0.359375C4.15189 0.359375 3.88856 0.622707 3.88856 0.947488V9.76923H3.30045C2.97566 9.76923 2.71233 10.0326 2.71233 10.3574V12.1806C1.34428 12.4617 0.361877 13.6655 0.359866 15.0623C0.360154 15.2438 0.443719 15.4149 0.587015 15.5263C0.955162 15.7971 1.28885 16.1121 1.58089 16.4637C1.63689 16.6903 1.64178 16.9263 1.59497 17.1549C1.29345 17.5184 0.951429 17.8469 0.575816 18.1332C0.43855 18.2455 0.359292 18.4138 0.359866 18.591V29.1771C0.360154 29.3586 0.443719 29.5297 0.587015 29.6412C0.955162 29.9119 1.28885 30.227 1.58089 30.5784C1.63689 30.805 1.64178 31.0411 1.59497 31.2696C1.29345 31.6332 0.951429 31.9617 0.575816 32.2481C0.43855 32.3603 0.359292 32.5286 0.359866 32.7058C0.361877 34.3289 1.67738 35.6443 3.30045 35.6464H13.8866C15.5099 35.6443 16.8254 34.3289 16.8271 32.7058C16.8271 32.5243 16.7436 32.3532 16.6003 32.2417C16.2321 31.9706 15.8984 31.6559 15.6064 31.3041C15.5496 31.0781 15.5441 30.8421 15.5897 30.6132C15.8916 30.2494 16.2333 29.9211 16.6092 29.6345C16.7473 29.5229 16.8274 29.3546 16.8271 29.1771V18.591C16.8271 18.4095 16.7436 18.2383 16.6003 18.1269C16.2321 17.8558 15.8984 17.5411 15.6064 17.1893C15.5496 16.9633 15.5441 16.7273 15.5897 16.4984C15.8916 16.1346 16.2333 15.8064 16.6092 15.5198ZM12.1222 10.9454H13.2984V12.1217H12.1222V10.9454ZM3.88856 10.9454H5.0648V12.1217H3.88856V10.9454ZM14.5195 17.6393C14.8133 18.12 15.1977 18.539 15.6509 18.8733V28.9C15.2161 29.2351 14.8388 29.6388 14.5335 30.0952C14.3371 30.6299 14.3316 31.216 14.5183 31.7541C14.8066 32.2279 15.184 32.6414 15.63 32.9717C15.4987 33.8329 14.7581 34.4695 13.8866 34.4701H3.30045C2.42718 34.469 1.68514 33.83 1.55505 32.9662C1.98178 32.636 2.35252 32.2389 2.6526 31.79C2.84903 31.2553 2.85448 30.6692 2.66782 30.131C2.37405 29.6495 1.98982 29.2296 1.5361 28.8948V18.8678C1.97087 18.5327 2.34849 18.1292 2.65375 17.6729C2.85017 17.1382 2.85563 16.5521 2.66897 16.0137C2.38065 15.5398 2.00332 15.1263 1.55735 14.7964C1.68858 13.9349 2.42919 13.2985 3.30045 13.2979H13.8866C14.7601 13.2988 15.5018 13.938 15.6322 14.8018C15.2052 15.1321 14.8348 15.5292 14.5347 15.978C14.3377 16.5134 14.3322 17.1006 14.5195 17.6393Z" fill="black" stroke="white" stroke-width="0.2" mask="url(#path-2-inside-2_1458_3227)"/>
<mask id="path-3-inside-3_1458_3227" fill="white">
<path d="M32.7063 34.4704C31.9867 34.4704 30.942 32.4086 30.942 29.1775V19.1794H31.5301C31.8551 19.1794 32.1182 18.9161 32.1182 18.5913V15.3432C35.0706 13.2873 36.3465 9.55308 35.2693 6.12056C34.1918 2.68806 31.0109 0.352539 27.4133 0.352539C23.8159 0.352539 20.635 2.68806 19.5575 6.12056C18.4804 9.55308 19.7563 13.2873 22.7083 15.3432V18.5913C22.7083 18.9161 22.9717 19.1794 23.2965 19.1794H23.8846V29.1775C23.8846 32.4086 22.8402 34.4704 22.1203 34.4704C21.7955 34.4704 21.5321 34.7338 21.5321 35.0586C21.5321 35.3834 21.7955 35.6467 22.1203 35.6467C24.0304 35.6467 25.0608 32.3138 25.0608 29.1775V19.1794H25.649C25.974 19.1794 26.237 18.9161 26.237 18.5913V16.7383C27.017 16.8563 27.8099 16.8563 28.5895 16.7383V18.5913C28.5895 18.9161 28.8528 19.1794 29.1777 19.1794H29.7657V29.1775C29.7657 32.3138 30.7964 35.6467 32.7063 35.6467C33.0314 35.6467 33.2944 35.3834 33.2944 35.0586C33.2944 34.7338 33.0314 34.4704 32.7063 34.4704ZM29.0423 15.4538C27.9721 15.7148 26.8547 15.7148 25.7842 15.4538C25.6093 15.4124 25.4253 15.4532 25.2842 15.5649C25.1433 15.6763 25.0611 15.8463 25.0608 16.0258V18.0032H23.8846V15.029C23.8849 14.8286 23.783 14.6419 23.6141 14.5339C20.9719 12.846 19.76 9.6171 20.639 6.60731C21.5183 3.5978 24.278 1.52906 27.4133 1.52906C30.5488 1.52906 33.3085 3.5978 34.1875 6.60731C35.0668 9.6171 33.855 12.846 31.2128 14.5339C31.0439 14.6419 30.942 14.8286 30.942 15.029V18.0032H29.7657V16.0258C29.7657 15.8463 29.6836 15.6763 29.5426 15.5649C29.4016 15.4532 29.2175 15.4124 29.0423 15.4538Z"/>
</mask>
<path d="M32.7063 34.4704C31.9867 34.4704 30.942 32.4086 30.942 29.1775V19.1794H31.5301C31.8551 19.1794 32.1182 18.9161 32.1182 18.5913V15.3432C35.0706 13.2873 36.3465 9.55308 35.2693 6.12056C34.1918 2.68806 31.0109 0.352539 27.4133 0.352539C23.8159 0.352539 20.635 2.68806 19.5575 6.12056C18.4804 9.55308 19.7563 13.2873 22.7083 15.3432V18.5913C22.7083 18.9161 22.9717 19.1794 23.2965 19.1794H23.8846V29.1775C23.8846 32.4086 22.8402 34.4704 22.1203 34.4704C21.7955 34.4704 21.5321 34.7338 21.5321 35.0586C21.5321 35.3834 21.7955 35.6467 22.1203 35.6467C24.0304 35.6467 25.0608 32.3138 25.0608 29.1775V19.1794H25.649C25.974 19.1794 26.237 18.9161 26.237 18.5913V16.7383C27.017 16.8563 27.8099 16.8563 28.5895 16.7383V18.5913C28.5895 18.9161 28.8528 19.1794 29.1777 19.1794H29.7657V29.1775C29.7657 32.3138 30.7964 35.6467 32.7063 35.6467C33.0314 35.6467 33.2944 35.3834 33.2944 35.0586C33.2944 34.7338 33.0314 34.4704 32.7063 34.4704ZM29.0423 15.4538C27.9721 15.7148 26.8547 15.7148 25.7842 15.4538C25.6093 15.4124 25.4253 15.4532 25.2842 15.5649C25.1433 15.6763 25.0611 15.8463 25.0608 16.0258V18.0032H23.8846V15.029C23.8849 14.8286 23.783 14.6419 23.6141 14.5339C20.9719 12.846 19.76 9.6171 20.639 6.60731C21.5183 3.5978 24.278 1.52906 27.4133 1.52906C30.5488 1.52906 33.3085 3.5978 34.1875 6.60731C35.0668 9.6171 33.855 12.846 31.2128 14.5339C31.0439 14.6419 30.942 14.8286 30.942 15.029V18.0032H29.7657V16.0258C29.7657 15.8463 29.6836 15.6763 29.5426 15.5649C29.4016 15.4532 29.2175 15.4124 29.0423 15.4538Z" fill="black" stroke="white" stroke-width="0.2" mask="url(#path-3-inside-3_1458_3227)"/>
<mask id="path-4-inside-4_1458_3227" fill="white">
<path d="M12.7107 20.3555C12.3859 20.3555 12.1226 20.6188 12.1226 20.9435V29.1772C12.1226 29.502 12.3859 29.7653 12.7107 29.7653C13.0358 29.7653 13.2988 29.502 13.2988 29.1772V20.9435C13.2988 20.6188 13.0358 20.3555 12.7107 20.3555Z"/>
</mask>
<path d="M12.7107 20.3555C12.3859 20.3555 12.1226 20.6188 12.1226 20.9435V29.1772C12.1226 29.502 12.3859 29.7653 12.7107 29.7653C13.0358 29.7653 13.2988 29.502 13.2988 29.1772V20.9435C13.2988 20.6188 13.0358 20.3555 12.7107 20.3555Z" fill="black" stroke="white" stroke-width="0.2" mask="url(#path-4-inside-4_1458_3227)"/>
<mask id="path-5-inside-5_1458_3227" fill="white">
<path d="M12.7107 30.9414C12.3859 30.9414 12.1226 31.2047 12.1226 31.5295V32.7057C12.1226 33.0305 12.3859 33.2938 12.7107 33.2938C13.0358 33.2938 13.2988 33.0305 13.2988 32.7057V31.5295C13.2988 31.2047 13.0358 30.9414 12.7107 30.9414Z"/>
</mask>
<path d="M12.7107 30.9414C12.3859 30.9414 12.1226 31.2047 12.1226 31.5295V32.7057C12.1226 33.0305 12.3859 33.2938 12.7107 33.2938C13.0358 33.2938 13.2988 33.0305 13.2988 32.7057V31.5295C13.2988 31.2047 13.0358 30.9414 12.7107 30.9414Z" fill="black" stroke="white" stroke-width="0.2" mask="url(#path-5-inside-5_1458_3227)"/>
<mask id="path-6-inside-6_1458_3227" fill="white">
<path d="M32.1183 8.59309C32.1183 8.91787 32.3816 9.18116 32.7064 9.18116C33.0315 9.18116 33.2945 8.91787 33.2945 8.59309C33.2911 5.34638 30.66 2.71536 27.4133 2.71191C27.0886 2.71191 26.8252 2.97524 26.8252 3.30003C26.8252 3.62482 27.0886 3.88815 27.4133 3.88815C30.0108 3.89102 32.1154 5.99566 32.1183 8.59309Z"/>
</mask>
<path d="M32.1183 8.59309C32.1183 8.91787 32.3816 9.18116 32.7064 9.18116C33.0315 9.18116 33.2945 8.91787 33.2945 8.59309C33.2911 5.34638 30.66 2.71536 27.4133 2.71191C27.0886 2.71191 26.8252 2.97524 26.8252 3.30003C26.8252 3.62482 27.0886 3.88815 27.4133 3.88815C30.0108 3.89102 32.1154 5.99566 32.1183 8.59309Z" fill="black" stroke="white" stroke-width="0.2" mask="url(#path-6-inside-6_1458_3227)"/>
</g>
</g>
<defs>
<clipPath id="clip0_1458_3227">
<rect width="36" height="36" fill="white"/>
</clipPath>
</defs>
</svg>
