<svg width="36" height="36" viewBox="0 0 36 36" fill="none" xmlns="http://www.w3.org/2000/svg">
<g clip-path="url(#clip0_1458_3173)">
<path fill-rule="evenodd" clip-rule="evenodd" d="M35.2941 15.5942C35.2941 16.037 34.9356 16.3962 34.492 16.3962L30.4812 16.3964V19.605H34.492C34.9355 19.605 35.294 19.9643 35.294 20.4071C35.294 20.8498 34.9355 21.2092 34.492 21.2092H30.4812V22.0113C30.4812 22.4541 30.1227 22.8134 29.6791 22.8134C29.2355 22.8134 28.877 22.4541 28.877 22.0113V9.17704C28.877 7.85034 27.7974 6.77064 26.4706 6.77064H8.82353C7.49682 6.77064 6.41712 7.85027 6.41712 9.17704V26.8241C6.41712 28.1508 7.49675 29.2305 8.82353 29.2305H26.4707C27.7974 29.2305 28.8771 28.1509 28.8771 26.8241V25.2198C28.8771 24.7771 29.2356 24.4177 29.6792 24.4177H34.492C34.9356 24.4177 35.2941 24.7771 35.2941 25.2198C35.2941 25.6626 34.9356 26.022 34.492 26.022H30.4813V26.8241C30.4813 29.0356 28.682 30.8348 26.4706 30.8348H25.6681V34.8455C25.6681 35.2883 25.3096 35.6476 24.866 35.6476C24.4224 35.6476 24.0639 35.2883 24.0639 34.8455V30.8348H20.8554V34.8455C20.8554 35.2883 20.4968 35.6476 20.0533 35.6476C19.6097 35.6476 19.2512 35.2883 19.2512 34.8455V30.8348H16.0427V34.8455C16.0427 35.2883 15.6841 35.6476 15.2405 35.6476C14.7969 35.6476 14.4384 35.2883 14.4384 34.8455V30.8348H11.2299V34.8455C11.2299 35.2883 10.8714 35.6476 10.4278 35.6476C9.98414 35.6476 9.62562 35.2883 9.62562 34.8455V30.8348H8.82353C6.61199 30.8348 4.81282 29.0356 4.81282 26.8241V26.0219H0.802115C0.358525 26.0219 0 25.6626 0 25.2198C0 24.777 0.358525 24.4177 0.802115 24.4176H4.81282V21.2091H0.802115C0.358525 21.2091 0 20.8497 0 20.407C0 19.9642 0.358525 19.6049 0.802115 19.6048H4.81282V16.3962H0.802115C0.358525 16.3962 0 16.037 0 15.5942C0 15.1514 0.358525 14.7921 0.802115 14.792H4.81282V11.5835H0.802115C0.358525 11.5835 0 11.2241 0 10.7814C0 10.3385 0.358525 9.97914 0.802115 9.97914H4.81282V9.17704C4.81282 6.96551 6.61206 5.16633 8.82353 5.16633H9.62569V1.15563C9.62569 0.712866 9.98421 0.353516 10.4279 0.353516C10.8714 0.353516 11.23 0.712866 11.23 1.15563V5.16633H14.4385V1.15563C14.4385 0.712866 14.7971 0.353516 15.2406 0.353516C15.6842 0.353516 16.0427 0.712866 16.0428 1.15563V5.16633H19.2514V1.15563C19.2514 0.712866 19.6099 0.353516 20.0535 0.353516C20.4971 0.353516 20.8556 0.712866 20.8556 1.15563V5.16633H24.0642V1.15563C24.0642 0.712866 24.4227 0.353516 24.8663 0.353516C25.3099 0.353516 25.6685 0.712866 25.6685 1.15563V5.16633H26.4706C28.6821 5.16633 30.4813 6.96558 30.4813 9.17704V9.97928H34.492C34.9356 9.97928 35.2941 10.3386 35.2941 10.7814C35.2941 11.2242 34.9356 11.5835 34.492 11.5835H30.4813V14.7921H34.492C34.9356 14.7921 35.2941 15.1514 35.2941 15.5942ZM8.82325 9.97886C9.26626 9.97886 9.62534 9.61977 9.62534 9.17676C9.62534 8.73375 9.26626 8.37467 8.82325 8.37467C8.38024 8.37467 8.02115 8.73375 8.02115 9.17676C8.02115 9.61977 8.38024 9.97886 8.82325 9.97886ZM26.4703 9.97886C26.9133 9.97886 27.2724 9.61977 27.2724 9.17676C27.2724 8.73375 26.9133 8.37467 26.4703 8.37467C26.0273 8.37467 25.6682 8.73375 25.6682 9.17676C25.6682 9.61977 26.0273 9.97886 26.4703 9.97886ZM9.62534 26.8238C9.62534 27.2668 9.26626 27.6259 8.82325 27.6259C8.38024 27.6259 8.02115 27.2668 8.02115 26.8238C8.02115 26.3808 8.38024 26.0217 8.82325 26.0217C9.26626 26.0217 9.62534 26.3808 9.62534 26.8238ZM26.4703 27.6259C26.9133 27.6259 27.2724 27.2668 27.2724 26.8238C27.2724 26.3808 26.9133 26.0217 26.4703 26.0217C26.0273 26.0217 25.6682 26.3808 25.6682 26.8238C25.6682 27.2668 26.0273 27.6259 26.4703 27.6259ZM15.2408 13.1879C13.914 13.1879 12.8344 14.2677 12.8344 15.5944C12.8344 16.6388 13.5074 17.5211 14.4387 17.8532V24.4179H12.0323C11.5902 24.4179 11.2309 24.0577 11.2309 23.6158V12.3858C11.2309 11.9438 11.5902 11.5837 12.033 11.5837H16.8451C17.2887 11.5837 17.6472 11.2243 17.6472 10.7815C17.6472 10.3388 17.2887 9.97942 16.8451 9.97942H12.033C10.7063 9.97942 9.62661 11.0591 9.62661 12.3858V23.6158C9.62661 24.9426 10.7063 26.0222 12.0322 26.0222H15.2407C15.6843 26.0222 16.0428 25.6629 16.0428 25.2201V17.8532C16.9741 17.5211 17.6471 16.6388 17.6471 15.5944C17.6472 14.2676 16.5675 13.1879 15.2408 13.1879ZM15.2408 16.3965C14.798 16.3965 14.4387 16.0363 14.4387 15.5944C14.4387 15.1523 14.798 14.7923 15.2408 14.7923C15.6836 14.7923 16.0429 15.1524 16.0429 15.5944C16.0429 16.0364 15.6836 16.3965 15.2408 16.3965ZM20.0536 9.97942H23.2613C24.588 9.97942 25.6677 11.0591 25.6676 12.3858V23.6157C25.6676 24.9424 24.588 26.0221 23.2612 26.0221H18.4492C18.0056 26.0221 17.6471 25.6628 17.6471 25.22C17.6471 24.7773 18.0056 24.4179 18.4492 24.4179H23.2612C23.704 24.4179 24.0633 24.0578 24.0633 23.6158V12.3858C24.0633 11.9439 23.704 11.5838 23.2612 11.5838H20.8556V18.1485C21.7869 18.4805 22.46 19.3629 22.46 20.4073C22.46 21.734 21.3803 22.8137 20.0536 22.8137C18.7268 22.8137 17.6471 21.7341 17.6471 20.4073C17.6471 19.3629 18.3201 18.4806 19.2515 18.1484V10.7815C19.2515 10.3388 19.61 9.97942 20.0536 9.97942ZM19.2515 20.4073C19.2515 20.8492 19.6108 21.2094 20.0536 21.2094C20.4963 21.2094 20.8556 20.8492 20.8556 20.4073C20.8556 19.9653 20.4963 19.6051 20.0536 19.6051C19.6108 19.6051 19.2515 19.9653 19.2515 20.4073Z" fill="black"/>
<mask id="path-2-outside-1_1458_3173" maskUnits="userSpaceOnUse" x="-1.17627" y="-0.823242" width="37" height="37" fill="black">
<rect fill="white" x="-1.17627" y="-0.823242" width="37" height="37"/>
<path d="M34.4922 16.396V16.2195H34.3158V16.396H34.4922ZM34.4922 16.396V16.5726H34.6687V16.3961L34.4922 16.396ZM30.4814 16.3961V16.2196H30.3049V16.3961H30.4814ZM30.4814 19.6047H30.3049V19.7812H30.4814V19.6047ZM30.4814 21.2089V21.0324H30.3049V21.2089H30.4814ZM30.4815 26.0217V25.8453H30.305V26.0217H30.4815ZM25.6683 30.8345V30.658H25.4919V30.8345H25.6683ZM24.0641 30.8345H24.2406V30.658H24.0641V30.8345ZM20.8556 30.8345V30.658H20.6791V30.8345H20.8556ZM19.2514 30.8345H19.4278V30.658H19.2514V30.8345ZM16.0429 30.8345V30.658H15.8664V30.8345H16.0429ZM14.4386 30.8345H14.6151V30.658H14.4386V30.8345ZM11.2301 30.8345V30.658H11.0536V30.8345H11.2301ZM9.62582 30.8345H9.80229V30.658H9.62582V30.8345ZM4.81302 26.0217H4.98949V25.8452H4.81302V26.0217ZM4.81302 24.4173V24.5938H4.98949V24.4173H4.81302ZM4.81302 21.2088H4.98949V21.0323H4.81302V21.2088ZM4.81302 19.6045V19.781H4.98949V19.6045H4.81302ZM4.81302 16.396H4.98949V16.2195H4.81302V16.396ZM4.81302 14.7917V14.9682H4.98949V14.7917H4.81302ZM4.81302 11.5832H4.98949V11.4067H4.81302V11.5832ZM4.81302 9.97885V10.1553H4.98949V9.97885H4.81302ZM9.62589 5.16605V5.34252H9.80237V5.16605H9.62589ZM11.2302 5.16605H11.0538V5.34252H11.2302V5.16605ZM14.4387 5.16605V5.34252H14.6152V5.16605H14.4387ZM16.043 5.16605H15.8665V5.34252H16.043V5.16605ZM19.2516 5.16605V5.34252H19.4281V5.16605H19.2516ZM20.8558 5.16605H20.6794V5.34252H20.8558V5.16605ZM24.0644 5.16605V5.34252H24.2408V5.16605H24.0644ZM25.6687 5.16605H25.4922V5.34252H25.6687V5.16605ZM30.4815 9.97899H30.305V10.1555H30.4815V9.97899ZM30.4815 11.5833V11.4068H30.305V11.5833H30.4815ZM30.4815 14.7918H30.305V14.9682H30.4815V14.7918ZM14.4389 17.8529H14.6154V17.7285L14.4981 17.6867L14.4389 17.8529ZM14.4389 24.4176V24.5941H14.6154V24.4176H14.4389ZM16.043 17.8529L15.9838 17.6867L15.8665 17.7285V17.8529H16.043ZM20.8558 11.5835V11.407H20.6794V11.5835H20.8558ZM20.8558 18.1482H20.6794V18.2725L20.7966 18.3144L20.8558 18.1482ZM19.2517 18.1481L19.3109 18.3143L19.4281 18.2725V18.1481H19.2517ZM34.4922 16.5726C35.0334 16.5726 35.4708 16.134 35.4708 15.5939H35.1178C35.1178 15.9393 34.8382 16.2195 34.4922 16.2195V16.5726ZM30.4814 16.5726H34.4922V16.2195L30.4814 16.2196V16.5726ZM30.6579 19.6047V16.3961H30.3049V19.6047H30.6579ZM34.4922 19.4282H30.4814V19.7812H34.4922V19.4282ZM35.4707 20.4068C35.4707 19.8666 35.0333 19.4282 34.4922 19.4282V19.7812C34.8382 19.7812 35.1178 20.0613 35.1178 20.4068H35.4707ZM34.4922 21.3853C35.0333 21.3853 35.4707 20.9469 35.4707 20.4068H35.1178C35.1178 20.7522 34.8382 21.0324 34.4922 21.0324V21.3853ZM30.4814 21.3853H34.4922V21.0324H30.4814V21.3853ZM30.6579 22.011V21.2089H30.3049V22.011H30.6579ZM29.6793 22.9896C30.2205 22.9896 30.6579 22.5511 30.6579 22.011H30.3049C30.3049 22.3564 30.0253 22.6367 29.6793 22.6367V22.9896ZM28.7007 22.011C28.7007 22.5511 29.1382 22.9896 29.6793 22.9896V22.6367C29.3333 22.6367 29.0537 22.3564 29.0537 22.011H28.7007ZM28.7007 9.17676V22.011H29.0537V9.17676H28.7007ZM26.4708 6.94682C27.7001 6.94682 28.7007 7.94753 28.7007 9.17676H29.0537C29.0537 7.75257 27.895 6.59388 26.4708 6.59388V6.94682ZM8.82373 6.94682H26.4708V6.59388H8.82373V6.94682ZM6.59379 9.17676C6.59379 7.94746 7.59451 6.94682 8.82373 6.94682V6.59388C7.39954 6.59388 6.24085 7.7525 6.24085 9.17676H6.59379ZM6.59379 26.8238V9.17676H6.24085V26.8238H6.59379ZM8.82373 29.0538C7.59444 29.0538 6.59379 28.053 6.59379 26.8238H6.24085C6.24085 28.248 7.39947 29.4067 8.82373 29.4067V29.0538ZM26.4709 29.0538H8.82373V29.4067H26.4709V29.0538ZM28.7008 26.8238C28.7008 28.0531 27.7001 29.0538 26.4709 29.0538V29.4067C27.895 29.4067 29.0538 28.2481 29.0538 26.8238H28.7008ZM28.7008 25.2196V26.8238H29.0538V25.2196H28.7008ZM29.6794 24.241C29.1382 24.241 28.7008 24.6795 28.7008 25.2196H29.0538C29.0538 24.8742 29.3334 24.5939 29.6794 24.5939V24.241ZM34.4922 24.241H29.6794V24.5939H34.4922V24.241ZM35.4708 25.2196C35.4708 24.6795 35.0334 24.241 34.4922 24.241V24.5939C34.8382 24.5939 35.1178 24.8742 35.1178 25.2196H35.4708ZM34.4922 26.1982C35.0334 26.1982 35.4708 25.7597 35.4708 25.2196H35.1178C35.1178 25.565 34.8382 25.8453 34.4922 25.8453V26.1982ZM30.4815 26.1982H34.4922V25.8453H30.4815V26.1982ZM30.6579 26.8238V26.0217H30.305V26.8238H30.6579ZM26.4708 31.011C28.7797 31.011 30.6579 29.1328 30.6579 26.8238H30.305C30.305 28.9379 28.5848 30.658 26.4708 30.658V31.011ZM25.6683 31.011H26.4708V30.658H25.6683V31.011ZM25.8448 34.8453V30.8345H25.4919V34.8453H25.8448ZM24.8662 35.8238C25.4074 35.8238 25.8448 35.3853 25.8448 34.8453H25.4919C25.4919 35.1906 25.2122 35.4709 24.8662 35.4709V35.8238ZM23.8876 34.8453C23.8876 35.3853 24.325 35.8238 24.8662 35.8238V35.4709C24.5202 35.4709 24.2406 35.1906 24.2406 34.8453H23.8876ZM23.8876 30.8345V34.8453H24.2406V30.8345H23.8876ZM20.8556 31.011H24.0641V30.658H20.8556V31.011ZM21.032 34.8453V30.8345H20.6791V34.8453H21.032ZM20.0535 35.8238C20.5946 35.8238 21.032 35.3853 21.032 34.8453H20.6791C20.6791 35.1906 20.3995 35.4709 20.0535 35.4709V35.8238ZM19.0749 34.8453C19.0749 35.3853 19.5123 35.8238 20.0535 35.8238V35.4709C19.7074 35.4709 19.4278 35.1906 19.4278 34.8453H19.0749ZM19.0749 30.8345V34.8453H19.4278V30.8345H19.0749ZM16.0429 31.011H19.2514V30.658H16.0429V31.011ZM16.2193 34.8453V30.8345H15.8664V34.8453H16.2193ZM15.2407 35.8238C15.7819 35.8238 16.2193 35.3853 16.2193 34.8453H15.8664C15.8664 35.1906 15.5867 35.4709 15.2407 35.4709V35.8238ZM14.2621 34.8453C14.2621 35.3853 14.6996 35.8238 15.2407 35.8238V35.4709C14.8947 35.4709 14.6151 35.1906 14.6151 34.8453H14.2621ZM14.2621 30.8345V34.8453H14.6151V30.8345H14.2621ZM11.2301 31.011H14.4386V30.658H11.2301V31.011ZM11.4066 34.8453V30.8345H11.0536V34.8453H11.4066ZM10.428 35.8238C10.9691 35.8238 11.4066 35.3853 11.4066 34.8453H11.0536C11.0536 35.1906 10.7739 35.4709 10.428 35.4709V35.8238ZM9.44935 34.8453C9.44935 35.3853 9.88679 35.8238 10.428 35.8238V35.4709C10.082 35.4709 9.80229 35.1906 9.80229 34.8453H9.44935ZM9.44935 30.8345V34.8453H9.80229V30.8345H9.44935ZM8.82373 31.011H9.62582V30.658H8.82373V31.011ZM4.63655 26.8238C4.63655 29.1328 6.51473 31.011 8.82373 31.011V30.658C6.70966 30.658 4.98949 28.9378 4.98949 26.8238H4.63655ZM4.63655 26.0217V26.8238H4.98949V26.0217H4.63655ZM0.802316 26.1981H4.81302V25.8452H0.802316V26.1981ZM-0.17627 25.2195C-0.17627 25.7596 0.261145 26.1981 0.802316 26.1981V25.8452C0.456307 25.8452 0.176672 25.5649 0.176672 25.2195H-0.17627ZM0.802316 24.2409C0.261173 24.2409 -0.17627 24.6794 -0.17627 25.2195H0.176672C0.176672 24.8741 0.456307 24.5939 0.802344 24.5938L0.802316 24.2409ZM4.81302 24.2409H0.802316L0.802344 24.5938H4.81302V24.2409ZM4.63655 21.2088V24.4173H4.98949V21.2088H4.63655ZM0.802316 21.3853H4.81302V21.0323H0.802316V21.3853ZM-0.17627 20.4067C-0.17627 20.9468 0.261145 21.3853 0.802316 21.3853V21.0323C0.456307 21.0323 0.176672 20.7521 0.176672 20.4067H-0.17627ZM0.802316 19.4281C0.261173 19.4281 -0.17627 19.8666 -0.17627 20.4067H0.176672C0.176672 20.0613 0.456307 19.781 0.802344 19.781L0.802316 19.4281ZM4.81302 19.4281H0.802316L0.802344 19.781H4.81302V19.4281ZM4.63655 16.396V19.6045H4.98949V16.396H4.63655ZM0.802316 16.5724H4.81302V16.2195H0.802316V16.5724ZM-0.17627 15.5939C-0.17627 16.134 0.261145 16.5724 0.802316 16.5724V16.2195C0.456307 16.2195 0.176672 15.9393 0.176672 15.5939H-0.17627ZM0.802316 14.6152C0.261173 14.6153 -0.17627 15.0538 -0.17627 15.5939H0.176672C0.176672 15.2485 0.456307 14.9682 0.802344 14.9682L0.802316 14.6152ZM4.81302 14.6152H0.802316L0.802344 14.9682H4.81302V14.6152ZM4.63655 11.5832V14.7917H4.98949V11.5832H4.63655ZM0.802316 11.7597H4.81302V11.4067H0.802316V11.7597ZM-0.17627 10.7811C-0.17627 11.3212 0.261145 11.7597 0.802316 11.7597V11.4067C0.456306 11.4067 0.176672 11.1265 0.176672 10.7811H-0.17627ZM0.802316 9.80238C0.261135 9.80238 -0.17627 10.2409 -0.17627 10.7811H0.176672C0.176672 10.4356 0.456316 10.1553 0.802316 10.1553V9.80238ZM4.81302 9.80238H0.802316V10.1553H4.81302V9.80238ZM4.63655 9.17676V9.97885H4.98949V9.17676H4.63655ZM8.82373 4.98958C6.5148 4.98958 4.63655 6.86776 4.63655 9.17676H4.98949C4.98949 7.06271 6.70973 5.34252 8.82373 5.34252V4.98958ZM9.62589 4.98958H8.82373V5.34252H9.62589V4.98958ZM9.44942 1.15534V5.16605H9.80237V1.15534H9.44942ZM10.4281 0.176758C9.88686 0.176758 9.44942 0.615237 9.44942 1.15534H9.80237C9.80237 0.809927 10.082 0.529699 10.4281 0.529699V0.176758ZM11.4067 1.15534C11.4066 0.615265 10.9692 0.176758 10.4281 0.176758V0.529699C10.774 0.529699 11.0537 0.809927 11.0538 1.15537L11.4067 1.15534ZM11.4067 5.16605V1.15534L11.0538 1.15537V5.16605H11.4067ZM14.4387 4.98958H11.2302V5.34252H14.4387V4.98958ZM14.2623 1.15534V5.16605H14.6152V1.15534H14.2623ZM15.2408 0.176758C14.6997 0.176758 14.2623 0.615237 14.2623 1.15534H14.6152C14.6152 0.809927 14.8948 0.529699 15.2408 0.529699V0.176758ZM16.2195 1.15534C16.2194 0.615265 15.782 0.176758 15.2408 0.176758V0.529699C15.5869 0.529699 15.8665 0.809927 15.8665 1.15537L16.2195 1.15534ZM16.2195 5.16605V1.15534L15.8665 1.15537V5.16605H16.2195ZM19.2516 4.98958H16.043V5.34252H19.2516V4.98958ZM19.0751 1.15534V5.16605H19.4281V1.15534H19.0751ZM20.0537 0.176758C19.5125 0.176758 19.0751 0.615237 19.0751 1.15534H19.4281C19.4281 0.809927 19.7077 0.529699 20.0537 0.529699V0.176758ZM21.0323 1.15534C21.0322 0.615265 20.5948 0.176758 20.0537 0.176758V0.529699C20.3997 0.529699 20.6793 0.809927 20.6794 1.15537L21.0323 1.15534ZM21.0323 5.16605V1.15534L20.6794 1.15537V5.16605H21.0323ZM24.0644 4.98958H20.8558V5.34252H24.0644V4.98958ZM23.8879 1.15534V5.16605H24.2408V1.15534H23.8879ZM24.8665 0.176758C24.3253 0.176758 23.8879 0.615237 23.8879 1.15534H24.2408C24.2408 0.80992 24.5205 0.529699 24.8665 0.529699V0.176758ZM25.8452 1.15534C25.8452 0.615217 25.4077 0.176758 24.8665 0.176758V0.529699C25.2126 0.529699 25.4922 0.809941 25.4922 1.15534H25.8452ZM25.8452 5.16605V1.15534H25.4922V5.16605H25.8452ZM26.4708 4.98958H25.6687V5.34252H26.4708V4.98958ZM30.6579 9.17676C30.6579 6.86783 28.7798 4.98958 26.4708 4.98958V5.34252C28.5848 5.34252 30.305 7.06278 30.305 9.17676H30.6579ZM30.6579 9.97899V9.17676H30.305V9.97899H30.6579ZM34.4922 9.80252H30.4815V10.1555H34.4922V9.80252ZM35.4708 10.7812C35.4708 10.241 35.0334 9.80252 34.4922 9.80252V10.1555C34.8382 10.1555 35.1178 10.4357 35.1178 10.7812H35.4708ZM34.4922 11.7597C35.0334 11.7597 35.4708 11.3212 35.4708 10.7812H35.1178C35.1178 11.1265 34.8382 11.4068 34.4922 11.4068V11.7597ZM30.4815 11.7597H34.4922V11.4068H30.4815V11.7597ZM30.6579 14.7918V11.5833H30.305V14.7918H30.6579ZM34.4922 14.6153H30.4815V14.9682H34.4922V14.6153ZM35.4708 15.5939C35.4708 15.0538 35.0334 14.6153 34.4922 14.6153V14.9682C34.8382 14.9682 35.1178 15.2485 35.1178 15.5939H35.4708ZM9.44907 9.17648C9.44907 9.52201 9.16898 9.8021 8.82345 9.8021V10.155C9.36394 10.155 9.80201 9.71697 9.80201 9.17648H9.44907ZM8.82345 8.55085C9.16898 8.55085 9.44907 8.83095 9.44907 9.17648H9.80201C9.80201 8.63605 9.36394 8.19791 8.82345 8.19791V8.55085ZM8.19782 9.17648C8.19782 8.83095 8.47792 8.55085 8.82345 8.55085V8.19791C8.28302 8.19791 7.84488 8.63605 7.84488 9.17648H8.19782ZM8.82345 9.8021C8.47792 9.8021 8.19782 9.52201 8.19782 9.17648H7.84488C7.84488 9.71697 8.28302 10.155 8.82345 10.155V9.8021ZM27.0961 9.17648C27.0961 9.52201 26.816 9.8021 26.4705 9.8021V10.155C27.011 10.155 27.4491 9.71697 27.4491 9.17648H27.0961ZM26.4705 8.55085C26.816 8.55085 27.0961 8.83095 27.0961 9.17648H27.4491C27.4491 8.63605 27.011 8.19791 26.4705 8.19791V8.55085ZM25.8449 9.17648C25.8449 8.83095 26.125 8.55085 26.4705 8.55085V8.19791C25.9301 8.19791 25.4919 8.63605 25.4919 9.17648H25.8449ZM26.4705 9.8021C26.125 9.8021 25.8449 9.52201 25.8449 9.17648H25.4919C25.4919 9.71697 25.9301 10.155 26.4705 10.155V9.8021ZM8.82345 27.8021C9.36394 27.8021 9.80201 27.364 9.80201 26.8235H9.44907C9.44907 27.1691 9.16898 27.4492 8.82345 27.4492V27.8021ZM7.84488 26.8235C7.84488 27.364 8.28302 27.8021 8.82345 27.8021V27.4492C8.47792 27.4492 8.19782 27.1691 8.19782 26.8235H7.84488ZM8.82345 25.845C8.28302 25.845 7.84488 26.2831 7.84488 26.8235H8.19782C8.19782 26.478 8.47792 26.1979 8.82345 26.1979V25.845ZM9.80201 26.8235C9.80201 26.2831 9.36394 25.845 8.82345 25.845V26.1979C9.16898 26.1979 9.44907 26.478 9.44907 26.8235H9.80201ZM27.0961 26.8235C27.0961 27.1691 26.816 27.4492 26.4705 27.4492V27.8021C27.011 27.8021 27.4491 27.364 27.4491 26.8235H27.0961ZM26.4705 26.1979C26.816 26.1979 27.0961 26.478 27.0961 26.8235H27.4491C27.4491 26.2831 27.011 25.845 26.4705 25.845V26.1979ZM25.8449 26.8235C25.8449 26.478 26.125 26.1979 26.4705 26.1979V25.845C25.9301 25.845 25.4919 26.2831 25.4919 26.8235H25.8449ZM26.4705 27.4492C26.125 27.4492 25.8449 27.1691 25.8449 26.8235H25.4919C25.4919 27.364 25.9301 27.8021 26.4705 27.8021V27.4492ZM13.011 15.5941C13.011 14.3649 14.0117 13.3641 15.241 13.3641V13.0112C13.8168 13.0112 12.6581 14.17 12.6581 15.5941H13.011ZM14.4981 17.6867C13.6335 17.3784 13.011 16.5601 13.011 15.5941H12.6581C12.6581 16.7169 13.3816 17.6633 14.3796 18.0191L14.4981 17.6867ZM14.6154 24.4176V17.8529H14.2624V24.4176H14.6154ZM12.0325 24.5941H14.4389V24.2411H12.0325V24.5941ZM11.0546 23.6155C11.0546 24.1547 11.4927 24.5941 12.0325 24.5941V24.2411C11.6881 24.2411 11.4075 23.9602 11.4075 23.6155H11.0546ZM11.0546 12.3855V23.6155H11.4075V12.3855H11.0546ZM12.0332 11.4069C11.4929 11.4069 11.0546 11.8461 11.0546 12.3855H11.4075C11.4075 12.0408 11.6881 11.7599 12.0332 11.7599V11.4069ZM16.8453 11.4069H12.0332V11.7599H16.8453V11.4069ZM17.4709 10.7812C17.4709 11.1267 17.1913 11.4069 16.8453 11.4069V11.7599C17.3864 11.7599 17.8239 11.3214 17.8239 10.7812H17.4709ZM16.8453 10.1556C17.1913 10.1556 17.4709 10.4358 17.4709 10.7812H17.8239C17.8239 10.2412 17.3864 9.80266 16.8453 9.80266V10.1556ZM12.0332 10.1556H16.8453V9.80266H12.0332V10.1556ZM9.80328 12.3856C9.80328 11.1563 10.8039 10.1556 12.0332 10.1556V9.80266C10.609 9.80266 9.45034 10.9614 9.45034 12.3856H9.80328ZM9.80328 23.6155V12.3856H9.45034V23.6155H9.80328ZM12.0324 25.8455C10.804 25.8455 9.80328 24.8449 9.80328 23.6155H9.45034C9.45034 25.0397 10.609 26.1984 12.0324 26.1984V25.8455ZM15.2409 25.8455H12.0324V26.1984H15.2409V25.8455ZM15.8665 25.2198C15.8665 25.5652 15.5869 25.8455 15.2409 25.8455V26.1984C15.7821 26.1984 16.2195 25.7599 16.2195 25.2198H15.8665ZM15.8665 17.8529V25.2198H16.2195V17.8529H15.8665ZM17.4709 15.5941C17.4709 16.5601 16.8484 17.3784 15.9838 17.6867L16.1023 18.0191C17.1003 17.6633 17.8238 16.7169 17.8238 15.5941H17.4709ZM15.241 13.3641C16.4702 13.3641 17.4709 14.3648 17.4709 15.5941H17.8238C17.8239 14.1698 16.6652 13.0112 15.241 13.0112V13.3641ZM14.2624 15.5941C14.2624 16.1334 14.7006 16.5726 15.241 16.5726V16.2197C14.8958 16.2197 14.6154 15.9387 14.6154 15.5941H14.2624ZM15.241 14.6155C14.7006 14.6155 14.2624 15.0547 14.2624 15.5941H14.6154C14.6154 15.2495 14.8958 14.9685 15.241 14.9685V14.6155ZM16.2195 15.5941C16.2195 15.0548 15.7813 14.6155 15.241 14.6155V14.9685C15.5862 14.9685 15.8666 15.2495 15.8666 15.5941H16.2195ZM15.241 16.5726C15.7813 16.5726 16.2195 16.1334 16.2195 15.5941H15.8666C15.8666 15.9388 15.5862 16.2197 15.241 16.2197V16.5726ZM23.2615 9.80266H20.0538V10.1556H23.2615V9.80266ZM25.8443 12.3856C25.8444 10.9614 24.6857 9.80266 23.2615 9.80266V10.1556C24.4907 10.1556 25.4914 11.1563 25.4914 12.3856H25.8443ZM25.8443 23.6154V12.3856H25.4914V23.6154H25.8443ZM23.2614 26.1983C24.6857 26.1983 25.8443 25.0396 25.8443 23.6154H25.4914C25.4914 24.8447 24.4907 25.8454 23.2614 25.8454V26.1983ZM18.4494 26.1983H23.2614V25.8454H18.4494V26.1983ZM17.4708 25.2197C17.4708 25.7598 17.9082 26.1983 18.4494 26.1983V25.8454C18.1034 25.8454 17.8237 25.5652 17.8237 25.2197H17.4708ZM18.4494 24.2411C17.9082 24.2411 17.4708 24.6796 17.4708 25.2197H17.8237C17.8237 24.8743 18.1034 24.5941 18.4494 24.5941V24.2411ZM23.2614 24.2411H18.4494V24.5941H23.2614V24.2411ZM23.887 23.6155C23.887 23.9601 23.6066 24.2411 23.2614 24.2411V24.5941C23.8018 24.5941 24.24 24.1549 24.24 23.6155H23.887ZM23.887 12.3856V23.6155H24.24V12.3856H23.887ZM23.2614 11.7599C23.6066 11.7599 23.887 12.0409 23.887 12.3856H24.24C24.24 11.8463 23.8018 11.407 23.2614 11.407V11.7599ZM20.8558 11.7599H23.2614V11.407H20.8558V11.7599ZM21.0323 18.1482V11.5835H20.6794V18.1482H21.0323ZM22.6366 20.407C22.6366 19.2842 21.9131 18.3378 20.9151 17.9819L20.7966 18.3144C21.6612 18.6227 22.2837 19.4409 22.2837 20.407H22.6366ZM20.0538 22.9899C21.4779 22.9899 22.6366 21.8311 22.6366 20.407H22.2837C22.2837 21.6362 21.283 22.6369 20.0538 22.6369V22.9899ZM17.4709 20.407C17.4709 21.8312 18.6296 22.9899 20.0538 22.9899V22.6369C18.8245 22.6369 17.8238 21.6363 17.8238 20.407H17.4709ZM19.1924 17.9819C18.1944 18.3378 17.4709 19.2843 17.4709 20.407H17.8238C17.8238 19.441 18.4462 18.6227 19.3109 18.3143L19.1924 17.9819ZM19.0752 10.7812V18.1481H19.4281V10.7812H19.0752ZM20.0538 9.80266C19.5126 9.80266 19.0752 10.2412 19.0752 10.7812H19.4281C19.4281 10.4358 19.7077 10.1556 20.0538 10.1556V9.80266ZM20.0538 21.0326C19.7086 21.0326 19.4281 20.7515 19.4281 20.407H19.0752C19.0752 20.9463 19.5134 21.3856 20.0538 21.3856V21.0326ZM20.6794 20.407C20.6794 20.7516 20.3989 21.0326 20.0538 21.0326V21.3856C20.5941 21.3856 21.0323 20.9464 21.0323 20.407H20.6794ZM20.0538 19.7813C20.3989 19.7813 20.6794 20.0624 20.6794 20.407H21.0323C21.0323 19.8677 20.5941 19.4284 20.0538 19.4284V19.7813ZM19.4281 20.407C19.4281 20.0623 19.7086 19.7813 20.0538 19.7813V19.4284C19.5134 19.4284 19.0752 19.8676 19.0752 20.407H19.4281Z"/>
</mask>
<path d="M34.4922 16.396V16.2195H34.3158V16.396H34.4922ZM34.4922 16.396V16.5726H34.6687V16.3961L34.4922 16.396ZM30.4814 16.3961V16.2196H30.3049V16.3961H30.4814ZM30.4814 19.6047H30.3049V19.7812H30.4814V19.6047ZM30.4814 21.2089V21.0324H30.3049V21.2089H30.4814ZM30.4815 26.0217V25.8453H30.305V26.0217H30.4815ZM25.6683 30.8345V30.658H25.4919V30.8345H25.6683ZM24.0641 30.8345H24.2406V30.658H24.0641V30.8345ZM20.8556 30.8345V30.658H20.6791V30.8345H20.8556ZM19.2514 30.8345H19.4278V30.658H19.2514V30.8345ZM16.0429 30.8345V30.658H15.8664V30.8345H16.0429ZM14.4386 30.8345H14.6151V30.658H14.4386V30.8345ZM11.2301 30.8345V30.658H11.0536V30.8345H11.2301ZM9.62582 30.8345H9.80229V30.658H9.62582V30.8345ZM4.81302 26.0217H4.98949V25.8452H4.81302V26.0217ZM4.81302 24.4173V24.5938H4.98949V24.4173H4.81302ZM4.81302 21.2088H4.98949V21.0323H4.81302V21.2088ZM4.81302 19.6045V19.781H4.98949V19.6045H4.81302ZM4.81302 16.396H4.98949V16.2195H4.81302V16.396ZM4.81302 14.7917V14.9682H4.98949V14.7917H4.81302ZM4.81302 11.5832H4.98949V11.4067H4.81302V11.5832ZM4.81302 9.97885V10.1553H4.98949V9.97885H4.81302ZM9.62589 5.16605V5.34252H9.80237V5.16605H9.62589ZM11.2302 5.16605H11.0538V5.34252H11.2302V5.16605ZM14.4387 5.16605V5.34252H14.6152V5.16605H14.4387ZM16.043 5.16605H15.8665V5.34252H16.043V5.16605ZM19.2516 5.16605V5.34252H19.4281V5.16605H19.2516ZM20.8558 5.16605H20.6794V5.34252H20.8558V5.16605ZM24.0644 5.16605V5.34252H24.2408V5.16605H24.0644ZM25.6687 5.16605H25.4922V5.34252H25.6687V5.16605ZM30.4815 9.97899H30.305V10.1555H30.4815V9.97899ZM30.4815 11.5833V11.4068H30.305V11.5833H30.4815ZM30.4815 14.7918H30.305V14.9682H30.4815V14.7918ZM14.4389 17.8529H14.6154V17.7285L14.4981 17.6867L14.4389 17.8529ZM14.4389 24.4176V24.5941H14.6154V24.4176H14.4389ZM16.043 17.8529L15.9838 17.6867L15.8665 17.7285V17.8529H16.043ZM20.8558 11.5835V11.407H20.6794V11.5835H20.8558ZM20.8558 18.1482H20.6794V18.2725L20.7966 18.3144L20.8558 18.1482ZM19.2517 18.1481L19.3109 18.3143L19.4281 18.2725V18.1481H19.2517ZM34.4922 16.5726C35.0334 16.5726 35.4708 16.134 35.4708 15.5939H35.1178C35.1178 15.9393 34.8382 16.2195 34.4922 16.2195V16.5726ZM30.4814 16.5726H34.4922V16.2195L30.4814 16.2196V16.5726ZM30.6579 19.6047V16.3961H30.3049V19.6047H30.6579ZM34.4922 19.4282H30.4814V19.7812H34.4922V19.4282ZM35.4707 20.4068C35.4707 19.8666 35.0333 19.4282 34.4922 19.4282V19.7812C34.8382 19.7812 35.1178 20.0613 35.1178 20.4068H35.4707ZM34.4922 21.3853C35.0333 21.3853 35.4707 20.9469 35.4707 20.4068H35.1178C35.1178 20.7522 34.8382 21.0324 34.4922 21.0324V21.3853ZM30.4814 21.3853H34.4922V21.0324H30.4814V21.3853ZM30.6579 22.011V21.2089H30.3049V22.011H30.6579ZM29.6793 22.9896C30.2205 22.9896 30.6579 22.5511 30.6579 22.011H30.3049C30.3049 22.3564 30.0253 22.6367 29.6793 22.6367V22.9896ZM28.7007 22.011C28.7007 22.5511 29.1382 22.9896 29.6793 22.9896V22.6367C29.3333 22.6367 29.0537 22.3564 29.0537 22.011H28.7007ZM28.7007 9.17676V22.011H29.0537V9.17676H28.7007ZM26.4708 6.94682C27.7001 6.94682 28.7007 7.94753 28.7007 9.17676H29.0537C29.0537 7.75257 27.895 6.59388 26.4708 6.59388V6.94682ZM8.82373 6.94682H26.4708V6.59388H8.82373V6.94682ZM6.59379 9.17676C6.59379 7.94746 7.59451 6.94682 8.82373 6.94682V6.59388C7.39954 6.59388 6.24085 7.7525 6.24085 9.17676H6.59379ZM6.59379 26.8238V9.17676H6.24085V26.8238H6.59379ZM8.82373 29.0538C7.59444 29.0538 6.59379 28.053 6.59379 26.8238H6.24085C6.24085 28.248 7.39947 29.4067 8.82373 29.4067V29.0538ZM26.4709 29.0538H8.82373V29.4067H26.4709V29.0538ZM28.7008 26.8238C28.7008 28.0531 27.7001 29.0538 26.4709 29.0538V29.4067C27.895 29.4067 29.0538 28.2481 29.0538 26.8238H28.7008ZM28.7008 25.2196V26.8238H29.0538V25.2196H28.7008ZM29.6794 24.241C29.1382 24.241 28.7008 24.6795 28.7008 25.2196H29.0538C29.0538 24.8742 29.3334 24.5939 29.6794 24.5939V24.241ZM34.4922 24.241H29.6794V24.5939H34.4922V24.241ZM35.4708 25.2196C35.4708 24.6795 35.0334 24.241 34.4922 24.241V24.5939C34.8382 24.5939 35.1178 24.8742 35.1178 25.2196H35.4708ZM34.4922 26.1982C35.0334 26.1982 35.4708 25.7597 35.4708 25.2196H35.1178C35.1178 25.565 34.8382 25.8453 34.4922 25.8453V26.1982ZM30.4815 26.1982H34.4922V25.8453H30.4815V26.1982ZM30.6579 26.8238V26.0217H30.305V26.8238H30.6579ZM26.4708 31.011C28.7797 31.011 30.6579 29.1328 30.6579 26.8238H30.305C30.305 28.9379 28.5848 30.658 26.4708 30.658V31.011ZM25.6683 31.011H26.4708V30.658H25.6683V31.011ZM25.8448 34.8453V30.8345H25.4919V34.8453H25.8448ZM24.8662 35.8238C25.4074 35.8238 25.8448 35.3853 25.8448 34.8453H25.4919C25.4919 35.1906 25.2122 35.4709 24.8662 35.4709V35.8238ZM23.8876 34.8453C23.8876 35.3853 24.325 35.8238 24.8662 35.8238V35.4709C24.5202 35.4709 24.2406 35.1906 24.2406 34.8453H23.8876ZM23.8876 30.8345V34.8453H24.2406V30.8345H23.8876ZM20.8556 31.011H24.0641V30.658H20.8556V31.011ZM21.032 34.8453V30.8345H20.6791V34.8453H21.032ZM20.0535 35.8238C20.5946 35.8238 21.032 35.3853 21.032 34.8453H20.6791C20.6791 35.1906 20.3995 35.4709 20.0535 35.4709V35.8238ZM19.0749 34.8453C19.0749 35.3853 19.5123 35.8238 20.0535 35.8238V35.4709C19.7074 35.4709 19.4278 35.1906 19.4278 34.8453H19.0749ZM19.0749 30.8345V34.8453H19.4278V30.8345H19.0749ZM16.0429 31.011H19.2514V30.658H16.0429V31.011ZM16.2193 34.8453V30.8345H15.8664V34.8453H16.2193ZM15.2407 35.8238C15.7819 35.8238 16.2193 35.3853 16.2193 34.8453H15.8664C15.8664 35.1906 15.5867 35.4709 15.2407 35.4709V35.8238ZM14.2621 34.8453C14.2621 35.3853 14.6996 35.8238 15.2407 35.8238V35.4709C14.8947 35.4709 14.6151 35.1906 14.6151 34.8453H14.2621ZM14.2621 30.8345V34.8453H14.6151V30.8345H14.2621ZM11.2301 31.011H14.4386V30.658H11.2301V31.011ZM11.4066 34.8453V30.8345H11.0536V34.8453H11.4066ZM10.428 35.8238C10.9691 35.8238 11.4066 35.3853 11.4066 34.8453H11.0536C11.0536 35.1906 10.7739 35.4709 10.428 35.4709V35.8238ZM9.44935 34.8453C9.44935 35.3853 9.88679 35.8238 10.428 35.8238V35.4709C10.082 35.4709 9.80229 35.1906 9.80229 34.8453H9.44935ZM9.44935 30.8345V34.8453H9.80229V30.8345H9.44935ZM8.82373 31.011H9.62582V30.658H8.82373V31.011ZM4.63655 26.8238C4.63655 29.1328 6.51473 31.011 8.82373 31.011V30.658C6.70966 30.658 4.98949 28.9378 4.98949 26.8238H4.63655ZM4.63655 26.0217V26.8238H4.98949V26.0217H4.63655ZM0.802316 26.1981H4.81302V25.8452H0.802316V26.1981ZM-0.17627 25.2195C-0.17627 25.7596 0.261145 26.1981 0.802316 26.1981V25.8452C0.456307 25.8452 0.176672 25.5649 0.176672 25.2195H-0.17627ZM0.802316 24.2409C0.261173 24.2409 -0.17627 24.6794 -0.17627 25.2195H0.176672C0.176672 24.8741 0.456307 24.5939 0.802344 24.5938L0.802316 24.2409ZM4.81302 24.2409H0.802316L0.802344 24.5938H4.81302V24.2409ZM4.63655 21.2088V24.4173H4.98949V21.2088H4.63655ZM0.802316 21.3853H4.81302V21.0323H0.802316V21.3853ZM-0.17627 20.4067C-0.17627 20.9468 0.261145 21.3853 0.802316 21.3853V21.0323C0.456307 21.0323 0.176672 20.7521 0.176672 20.4067H-0.17627ZM0.802316 19.4281C0.261173 19.4281 -0.17627 19.8666 -0.17627 20.4067H0.176672C0.176672 20.0613 0.456307 19.781 0.802344 19.781L0.802316 19.4281ZM4.81302 19.4281H0.802316L0.802344 19.781H4.81302V19.4281ZM4.63655 16.396V19.6045H4.98949V16.396H4.63655ZM0.802316 16.5724H4.81302V16.2195H0.802316V16.5724ZM-0.17627 15.5939C-0.17627 16.134 0.261145 16.5724 0.802316 16.5724V16.2195C0.456307 16.2195 0.176672 15.9393 0.176672 15.5939H-0.17627ZM0.802316 14.6152C0.261173 14.6153 -0.17627 15.0538 -0.17627 15.5939H0.176672C0.176672 15.2485 0.456307 14.9682 0.802344 14.9682L0.802316 14.6152ZM4.81302 14.6152H0.802316L0.802344 14.9682H4.81302V14.6152ZM4.63655 11.5832V14.7917H4.98949V11.5832H4.63655ZM0.802316 11.7597H4.81302V11.4067H0.802316V11.7597ZM-0.17627 10.7811C-0.17627 11.3212 0.261145 11.7597 0.802316 11.7597V11.4067C0.456306 11.4067 0.176672 11.1265 0.176672 10.7811H-0.17627ZM0.802316 9.80238C0.261135 9.80238 -0.17627 10.2409 -0.17627 10.7811H0.176672C0.176672 10.4356 0.456316 10.1553 0.802316 10.1553V9.80238ZM4.81302 9.80238H0.802316V10.1553H4.81302V9.80238ZM4.63655 9.17676V9.97885H4.98949V9.17676H4.63655ZM8.82373 4.98958C6.5148 4.98958 4.63655 6.86776 4.63655 9.17676H4.98949C4.98949 7.06271 6.70973 5.34252 8.82373 5.34252V4.98958ZM9.62589 4.98958H8.82373V5.34252H9.62589V4.98958ZM9.44942 1.15534V5.16605H9.80237V1.15534H9.44942ZM10.4281 0.176758C9.88686 0.176758 9.44942 0.615237 9.44942 1.15534H9.80237C9.80237 0.809927 10.082 0.529699 10.4281 0.529699V0.176758ZM11.4067 1.15534C11.4066 0.615265 10.9692 0.176758 10.4281 0.176758V0.529699C10.774 0.529699 11.0537 0.809927 11.0538 1.15537L11.4067 1.15534ZM11.4067 5.16605V1.15534L11.0538 1.15537V5.16605H11.4067ZM14.4387 4.98958H11.2302V5.34252H14.4387V4.98958ZM14.2623 1.15534V5.16605H14.6152V1.15534H14.2623ZM15.2408 0.176758C14.6997 0.176758 14.2623 0.615237 14.2623 1.15534H14.6152C14.6152 0.809927 14.8948 0.529699 15.2408 0.529699V0.176758ZM16.2195 1.15534C16.2194 0.615265 15.782 0.176758 15.2408 0.176758V0.529699C15.5869 0.529699 15.8665 0.809927 15.8665 1.15537L16.2195 1.15534ZM16.2195 5.16605V1.15534L15.8665 1.15537V5.16605H16.2195ZM19.2516 4.98958H16.043V5.34252H19.2516V4.98958ZM19.0751 1.15534V5.16605H19.4281V1.15534H19.0751ZM20.0537 0.176758C19.5125 0.176758 19.0751 0.615237 19.0751 1.15534H19.4281C19.4281 0.809927 19.7077 0.529699 20.0537 0.529699V0.176758ZM21.0323 1.15534C21.0322 0.615265 20.5948 0.176758 20.0537 0.176758V0.529699C20.3997 0.529699 20.6793 0.809927 20.6794 1.15537L21.0323 1.15534ZM21.0323 5.16605V1.15534L20.6794 1.15537V5.16605H21.0323ZM24.0644 4.98958H20.8558V5.34252H24.0644V4.98958ZM23.8879 1.15534V5.16605H24.2408V1.15534H23.8879ZM24.8665 0.176758C24.3253 0.176758 23.8879 0.615237 23.8879 1.15534H24.2408C24.2408 0.80992 24.5205 0.529699 24.8665 0.529699V0.176758ZM25.8452 1.15534C25.8452 0.615217 25.4077 0.176758 24.8665 0.176758V0.529699C25.2126 0.529699 25.4922 0.809941 25.4922 1.15534H25.8452ZM25.8452 5.16605V1.15534H25.4922V5.16605H25.8452ZM26.4708 4.98958H25.6687V5.34252H26.4708V4.98958ZM30.6579 9.17676C30.6579 6.86783 28.7798 4.98958 26.4708 4.98958V5.34252C28.5848 5.34252 30.305 7.06278 30.305 9.17676H30.6579ZM30.6579 9.97899V9.17676H30.305V9.97899H30.6579ZM34.4922 9.80252H30.4815V10.1555H34.4922V9.80252ZM35.4708 10.7812C35.4708 10.241 35.0334 9.80252 34.4922 9.80252V10.1555C34.8382 10.1555 35.1178 10.4357 35.1178 10.7812H35.4708ZM34.4922 11.7597C35.0334 11.7597 35.4708 11.3212 35.4708 10.7812H35.1178C35.1178 11.1265 34.8382 11.4068 34.4922 11.4068V11.7597ZM30.4815 11.7597H34.4922V11.4068H30.4815V11.7597ZM30.6579 14.7918V11.5833H30.305V14.7918H30.6579ZM34.4922 14.6153H30.4815V14.9682H34.4922V14.6153ZM35.4708 15.5939C35.4708 15.0538 35.0334 14.6153 34.4922 14.6153V14.9682C34.8382 14.9682 35.1178 15.2485 35.1178 15.5939H35.4708ZM9.44907 9.17648C9.44907 9.52201 9.16898 9.8021 8.82345 9.8021V10.155C9.36394 10.155 9.80201 9.71697 9.80201 9.17648H9.44907ZM8.82345 8.55085C9.16898 8.55085 9.44907 8.83095 9.44907 9.17648H9.80201C9.80201 8.63605 9.36394 8.19791 8.82345 8.19791V8.55085ZM8.19782 9.17648C8.19782 8.83095 8.47792 8.55085 8.82345 8.55085V8.19791C8.28302 8.19791 7.84488 8.63605 7.84488 9.17648H8.19782ZM8.82345 9.8021C8.47792 9.8021 8.19782 9.52201 8.19782 9.17648H7.84488C7.84488 9.71697 8.28302 10.155 8.82345 10.155V9.8021ZM27.0961 9.17648C27.0961 9.52201 26.816 9.8021 26.4705 9.8021V10.155C27.011 10.155 27.4491 9.71697 27.4491 9.17648H27.0961ZM26.4705 8.55085C26.816 8.55085 27.0961 8.83095 27.0961 9.17648H27.4491C27.4491 8.63605 27.011 8.19791 26.4705 8.19791V8.55085ZM25.8449 9.17648C25.8449 8.83095 26.125 8.55085 26.4705 8.55085V8.19791C25.9301 8.19791 25.4919 8.63605 25.4919 9.17648H25.8449ZM26.4705 9.8021C26.125 9.8021 25.8449 9.52201 25.8449 9.17648H25.4919C25.4919 9.71697 25.9301 10.155 26.4705 10.155V9.8021ZM8.82345 27.8021C9.36394 27.8021 9.80201 27.364 9.80201 26.8235H9.44907C9.44907 27.1691 9.16898 27.4492 8.82345 27.4492V27.8021ZM7.84488 26.8235C7.84488 27.364 8.28302 27.8021 8.82345 27.8021V27.4492C8.47792 27.4492 8.19782 27.1691 8.19782 26.8235H7.84488ZM8.82345 25.845C8.28302 25.845 7.84488 26.2831 7.84488 26.8235H8.19782C8.19782 26.478 8.47792 26.1979 8.82345 26.1979V25.845ZM9.80201 26.8235C9.80201 26.2831 9.36394 25.845 8.82345 25.845V26.1979C9.16898 26.1979 9.44907 26.478 9.44907 26.8235H9.80201ZM27.0961 26.8235C27.0961 27.1691 26.816 27.4492 26.4705 27.4492V27.8021C27.011 27.8021 27.4491 27.364 27.4491 26.8235H27.0961ZM26.4705 26.1979C26.816 26.1979 27.0961 26.478 27.0961 26.8235H27.4491C27.4491 26.2831 27.011 25.845 26.4705 25.845V26.1979ZM25.8449 26.8235C25.8449 26.478 26.125 26.1979 26.4705 26.1979V25.845C25.9301 25.845 25.4919 26.2831 25.4919 26.8235H25.8449ZM26.4705 27.4492C26.125 27.4492 25.8449 27.1691 25.8449 26.8235H25.4919C25.4919 27.364 25.9301 27.8021 26.4705 27.8021V27.4492ZM13.011 15.5941C13.011 14.3649 14.0117 13.3641 15.241 13.3641V13.0112C13.8168 13.0112 12.6581 14.17 12.6581 15.5941H13.011ZM14.4981 17.6867C13.6335 17.3784 13.011 16.5601 13.011 15.5941H12.6581C12.6581 16.7169 13.3816 17.6633 14.3796 18.0191L14.4981 17.6867ZM14.6154 24.4176V17.8529H14.2624V24.4176H14.6154ZM12.0325 24.5941H14.4389V24.2411H12.0325V24.5941ZM11.0546 23.6155C11.0546 24.1547 11.4927 24.5941 12.0325 24.5941V24.2411C11.6881 24.2411 11.4075 23.9602 11.4075 23.6155H11.0546ZM11.0546 12.3855V23.6155H11.4075V12.3855H11.0546ZM12.0332 11.4069C11.4929 11.4069 11.0546 11.8461 11.0546 12.3855H11.4075C11.4075 12.0408 11.6881 11.7599 12.0332 11.7599V11.4069ZM16.8453 11.4069H12.0332V11.7599H16.8453V11.4069ZM17.4709 10.7812C17.4709 11.1267 17.1913 11.4069 16.8453 11.4069V11.7599C17.3864 11.7599 17.8239 11.3214 17.8239 10.7812H17.4709ZM16.8453 10.1556C17.1913 10.1556 17.4709 10.4358 17.4709 10.7812H17.8239C17.8239 10.2412 17.3864 9.80266 16.8453 9.80266V10.1556ZM12.0332 10.1556H16.8453V9.80266H12.0332V10.1556ZM9.80328 12.3856C9.80328 11.1563 10.8039 10.1556 12.0332 10.1556V9.80266C10.609 9.80266 9.45034 10.9614 9.45034 12.3856H9.80328ZM9.80328 23.6155V12.3856H9.45034V23.6155H9.80328ZM12.0324 25.8455C10.804 25.8455 9.80328 24.8449 9.80328 23.6155H9.45034C9.45034 25.0397 10.609 26.1984 12.0324 26.1984V25.8455ZM15.2409 25.8455H12.0324V26.1984H15.2409V25.8455ZM15.8665 25.2198C15.8665 25.5652 15.5869 25.8455 15.2409 25.8455V26.1984C15.7821 26.1984 16.2195 25.7599 16.2195 25.2198H15.8665ZM15.8665 17.8529V25.2198H16.2195V17.8529H15.8665ZM17.4709 15.5941C17.4709 16.5601 16.8484 17.3784 15.9838 17.6867L16.1023 18.0191C17.1003 17.6633 17.8238 16.7169 17.8238 15.5941H17.4709ZM15.241 13.3641C16.4702 13.3641 17.4709 14.3648 17.4709 15.5941H17.8238C17.8239 14.1698 16.6652 13.0112 15.241 13.0112V13.3641ZM14.2624 15.5941C14.2624 16.1334 14.7006 16.5726 15.241 16.5726V16.2197C14.8958 16.2197 14.6154 15.9387 14.6154 15.5941H14.2624ZM15.241 14.6155C14.7006 14.6155 14.2624 15.0547 14.2624 15.5941H14.6154C14.6154 15.2495 14.8958 14.9685 15.241 14.9685V14.6155ZM16.2195 15.5941C16.2195 15.0548 15.7813 14.6155 15.241 14.6155V14.9685C15.5862 14.9685 15.8666 15.2495 15.8666 15.5941H16.2195ZM15.241 16.5726C15.7813 16.5726 16.2195 16.1334 16.2195 15.5941H15.8666C15.8666 15.9388 15.5862 16.2197 15.241 16.2197V16.5726ZM23.2615 9.80266H20.0538V10.1556H23.2615V9.80266ZM25.8443 12.3856C25.8444 10.9614 24.6857 9.80266 23.2615 9.80266V10.1556C24.4907 10.1556 25.4914 11.1563 25.4914 12.3856H25.8443ZM25.8443 23.6154V12.3856H25.4914V23.6154H25.8443ZM23.2614 26.1983C24.6857 26.1983 25.8443 25.0396 25.8443 23.6154H25.4914C25.4914 24.8447 24.4907 25.8454 23.2614 25.8454V26.1983ZM18.4494 26.1983H23.2614V25.8454H18.4494V26.1983ZM17.4708 25.2197C17.4708 25.7598 17.9082 26.1983 18.4494 26.1983V25.8454C18.1034 25.8454 17.8237 25.5652 17.8237 25.2197H17.4708ZM18.4494 24.2411C17.9082 24.2411 17.4708 24.6796 17.4708 25.2197H17.8237C17.8237 24.8743 18.1034 24.5941 18.4494 24.5941V24.2411ZM23.2614 24.2411H18.4494V24.5941H23.2614V24.2411ZM23.887 23.6155C23.887 23.9601 23.6066 24.2411 23.2614 24.2411V24.5941C23.8018 24.5941 24.24 24.1549 24.24 23.6155H23.887ZM23.887 12.3856V23.6155H24.24V12.3856H23.887ZM23.2614 11.7599C23.6066 11.7599 23.887 12.0409 23.887 12.3856H24.24C24.24 11.8463 23.8018 11.407 23.2614 11.407V11.7599ZM20.8558 11.7599H23.2614V11.407H20.8558V11.7599ZM21.0323 18.1482V11.5835H20.6794V18.1482H21.0323ZM22.6366 20.407C22.6366 19.2842 21.9131 18.3378 20.9151 17.9819L20.7966 18.3144C21.6612 18.6227 22.2837 19.4409 22.2837 20.407H22.6366ZM20.0538 22.9899C21.4779 22.9899 22.6366 21.8311 22.6366 20.407H22.2837C22.2837 21.6362 21.283 22.6369 20.0538 22.6369V22.9899ZM17.4709 20.407C17.4709 21.8312 18.6296 22.9899 20.0538 22.9899V22.6369C18.8245 22.6369 17.8238 21.6363 17.8238 20.407H17.4709ZM19.1924 17.9819C18.1944 18.3378 17.4709 19.2843 17.4709 20.407H17.8238C17.8238 19.441 18.4462 18.6227 19.3109 18.3143L19.1924 17.9819ZM19.0752 10.7812V18.1481H19.4281V10.7812H19.0752ZM20.0538 9.80266C19.5126 9.80266 19.0752 10.2412 19.0752 10.7812H19.4281C19.4281 10.4358 19.7077 10.1556 20.0538 10.1556V9.80266ZM20.0538 21.0326C19.7086 21.0326 19.4281 20.7515 19.4281 20.407H19.0752C19.0752 20.9463 19.5134 21.3856 20.0538 21.3856V21.0326ZM20.6794 20.407C20.6794 20.7516 20.3989 21.0326 20.0538 21.0326V21.3856C20.5941 21.3856 21.0323 20.9464 21.0323 20.407H20.6794ZM20.0538 19.7813C20.3989 19.7813 20.6794 20.0624 20.6794 20.407H21.0323C21.0323 19.8677 20.5941 19.4284 20.0538 19.4284V19.7813ZM19.4281 20.407C19.4281 20.0623 19.7086 19.7813 20.0538 19.7813V19.4284C19.5134 19.4284 19.0752 19.8676 19.0752 20.407H19.4281Z" fill="white"/>
<path d="M0.802316 24.2409L0.852316 24.2408L0.752316 24.2409H0.802316ZM0.802316 19.4281L0.852316 19.4281L0.752316 19.4281H0.802316ZM0.802316 14.6152L0.852316 14.6152L0.752316 14.6152H0.802316ZM11.4067 1.15534L11.4067 1.20534L11.4067 1.10534V1.15534ZM16.2195 1.15534L16.2195 1.20534L16.2195 1.10534V1.15534ZM21.0323 1.15534L21.0323 1.20534L21.0323 1.10534V1.15534ZM0.852316 24.4173V24.2409H0.752316V24.4173H0.852316ZM0.852316 19.6045V19.4281H0.752316V19.6045H0.852316ZM0.852316 14.7917V14.6152H0.752316V14.7917H0.852316ZM11.2302 1.20534H11.4067V1.10534H11.2302V1.20534ZM16.043 1.20534H16.2195V1.10534H16.043V1.20534ZM20.8558 1.20534H21.0323V1.10534H20.8558V1.20534ZM17.6473 15.5441H17.4709V15.6441H17.6473V15.5441ZM25.6678 12.3356H25.4914V12.4356H25.6678V12.3356ZM35.4708 15.5439H35.1178V15.6439H35.4708V15.5439ZM34.4422 16.2195V16.5726H34.5422V16.2195H34.4422ZM34.6687 16.3461L34.3158 16.346L34.3157 16.446L34.6687 16.4461L34.6687 16.3461ZM34.5422 19.7812V19.4282H34.4422V19.7812H34.5422ZM35.1178 20.4568H35.4707V20.3568H35.1178V20.4568ZM34.4422 21.0324V21.3853H34.5422V21.0324H34.4422ZM30.3049 22.061H30.6579V21.961H30.3049V22.061ZM29.6293 22.6367V22.9896H29.7293V22.6367H29.6293ZM29.0537 21.961H28.7007V22.061H29.0537V21.961ZM29.0537 9.12676H28.7007V9.22676H29.0537V9.12676ZM26.4208 6.59388V6.94682H26.5208V6.59388H26.4208ZM8.77373 6.59388V6.94682H8.87373V6.59388H8.77373ZM6.24085 9.22676H6.59379V9.12676H6.24085V9.22676ZM6.24085 26.8738H6.59379V26.7738H6.24085V26.8738ZM8.87373 29.4067V29.0538H8.77373V29.4067H8.87373ZM26.5209 29.4067V29.0538H26.4209V29.4067H26.5209ZM29.0538 26.7738H28.7008V26.8738H29.0538V26.7738ZM29.0538 25.1696H28.7008V25.2696H29.0538V25.1696ZM29.7294 24.5939V24.241H29.6294V24.5939H29.7294ZM34.5422 24.5939V24.241H34.4422V24.5939H34.5422ZM35.1178 25.2696H35.4708V25.1696H35.1178V25.2696ZM34.4422 25.8453V26.1982H34.5422V25.8453H34.4422ZM30.305 26.8738H30.6579V26.7738H30.305V26.8738ZM26.4208 30.658V31.011H26.5208V30.658H26.4208ZM25.4919 34.8953H25.8448V34.7953H25.4919V34.8953ZM24.8162 35.4709V35.8238H24.9162V35.4709H24.8162ZM24.2406 34.7953H23.8876V34.8953H24.2406V34.7953ZM20.6791 34.8953H21.032V34.7953H20.6791V34.8953ZM20.0035 35.4709V35.8238H20.1035V35.4709H20.0035ZM19.4278 34.7953H19.0749V34.8953H19.4278V34.7953ZM15.8664 34.8953H16.2193V34.7953H15.8664V34.8953ZM15.1907 35.4709V35.8238H15.2907V35.4709H15.1907ZM14.6151 34.7953H14.2621V34.8953H14.6151V34.7953ZM11.0536 34.8953H11.4066V34.7953H11.0536V34.8953ZM10.378 35.4709V35.8238H10.478V35.4709H10.378ZM9.80229 34.7953H9.44935V34.8953H9.80229V34.7953ZM8.77373 30.658V31.011H8.87373V30.658H8.77373ZM4.98949 26.7738H4.63655V26.8738H4.98949V26.7738ZM0.752316 25.8452V26.1981H0.852316V25.8452H0.752316ZM0.176672 25.1695H-0.17627V25.2695H0.176672V25.1695ZM0.852344 24.5938L0.852316 24.2408L0.752316 24.2409L0.752344 24.5938L0.852344 24.5938ZM0.752316 21.0323V21.3853H0.852316V21.0323H0.752316ZM0.176672 20.3567H-0.17627V20.4567H0.176672V20.3567ZM0.852344 19.781L0.852316 19.4281L0.752316 19.4281L0.752344 19.781L0.852344 19.781ZM0.752316 16.2195V16.5724H0.852316V16.2195H0.752316ZM0.176672 15.5439H-0.17627V15.6439H0.176672V15.5439ZM0.852344 14.9682L0.852316 14.6152L0.752316 14.6152L0.752344 14.9682L0.852344 14.9682ZM0.752316 11.4067V11.7597H0.852316V11.4067H0.752316ZM0.176672 10.7311H-0.17627V10.8311H0.176672V10.7311ZM0.852316 10.1553V9.80238H0.752316V10.1553H0.852316ZM4.98949 9.12676H4.63655V9.22676H4.98949V9.12676ZM8.87373 5.34252V4.98958H8.77373V5.34252H8.87373ZM9.80237 1.10534H9.44942V1.20534H9.80237V1.10534ZM10.4781 0.529699V0.176758H10.3781V0.529699H10.4781ZM11.0538 1.20537L11.4067 1.20534L11.4067 1.10534L11.0537 1.10537L11.0538 1.20537ZM14.6152 1.10534H14.2623V1.20534H14.6152V1.10534ZM15.2908 0.529699V0.176758H15.1908V0.529699H15.2908ZM15.8665 1.20537L16.2195 1.20534L16.2195 1.10534L15.8665 1.10537L15.8665 1.20537ZM19.4281 1.10534H19.0751V1.20534H19.4281V1.10534ZM20.1037 0.529699V0.176758H20.0037V0.529699H20.1037ZM20.6794 1.20537L21.0323 1.20534L21.0323 1.10534L20.6794 1.10537L20.6794 1.20537ZM24.2408 1.10534H23.8879V1.20534H24.2408V1.10534ZM24.9165 0.529699V0.176758H24.8165V0.529699H24.9165ZM25.4922 1.20534H25.8452V1.10534H25.4922V1.20534ZM26.5208 5.34252V4.98958H26.4208V5.34252H26.5208ZM30.305 9.22676H30.6579V9.12676H30.305V9.22676ZM34.5422 10.1555V9.80252H34.4422V10.1555H34.5422ZM35.1178 10.8312H35.4708V10.7312H35.1178V10.8312ZM34.4422 11.4068V11.7597H34.5422V11.4068H34.4422ZM34.5422 14.9682V14.6153H34.4422V14.9682H34.5422ZM8.77345 9.8021V10.155H8.87345V9.8021H8.77345ZM9.80201 9.12648H9.44907V9.22648H9.80201V9.12648ZM8.77345 8.19791V8.55085H8.87345V8.19791H8.77345ZM7.84488 9.22648H8.19782V9.12648H7.84488V9.22648ZM26.4205 9.8021V10.155H26.5205V9.8021H26.4205ZM27.4491 9.12648H27.0961V9.22648H27.4491V9.12648ZM26.4205 8.19791V8.55085H26.5205V8.19791H26.4205ZM25.4919 9.22648H25.8449V9.12648H25.4919V9.22648ZM9.80201 26.7735H9.44907V26.8735H9.80201V26.7735ZM8.77345 27.4492V27.8021H8.87345V27.4492H8.77345ZM8.19782 26.7735H7.84488V26.8735H8.19782V26.7735ZM8.87345 26.1979V25.845H8.77345V26.1979H8.87345ZM26.4205 27.4492V27.8021H26.5205V27.4492H26.4205ZM27.4491 26.7735H27.0961V26.8735H27.4491V26.7735ZM26.4205 25.845V26.1979H26.5205V25.845H26.4205ZM25.4919 26.8735H25.8449V26.7735H25.4919V26.8735ZM15.291 13.3641V13.0112H15.191V13.3641H15.291ZM12.6581 15.6441H13.011V15.5441H12.6581V15.6441ZM11.9825 24.2411V24.5941H12.0825V24.2411H11.9825ZM11.4075 23.5655H11.0546V23.6655H11.4075V23.5655ZM11.4075 12.3355H11.0546V12.4355H11.4075V12.3355ZM12.0832 11.7599V11.4069H11.9832V11.7599H12.0832ZM16.8953 11.7599V11.4069H16.7953V11.7599H16.8953ZM17.8239 10.7312H17.4709V10.8312H17.8239V10.7312ZM16.7953 9.80266V10.1556H16.8953V9.80266H16.7953ZM11.9832 9.80266V10.1556H12.0832V9.80266H11.9832ZM9.45034 12.4356H9.80328V12.3356H9.45034V12.4356ZM9.45034 23.6655H9.80328V23.5655H9.45034V23.6655ZM12.0824 26.1984V25.8455H11.9824V26.1984H12.0824ZM15.2909 26.1984V25.8455H15.1909V26.1984H15.2909ZM16.2195 25.1698H15.8665V25.2698H16.2195V25.1698ZM17.8238 15.5441H17.4709V15.6441H17.8238V15.5441ZM15.291 16.5726V16.2197H15.191V16.5726H15.291ZM14.6154 15.5441H14.2624V15.6441H14.6154V15.5441ZM15.291 14.9685V14.6155H15.191V14.9685H15.291ZM15.8666 15.6441H16.2195V15.5441H15.8666V15.6441ZM20.0038 9.80266V10.1556H20.1038V9.80266H20.0038ZM23.3115 10.1556V9.80266H23.2115V10.1556H23.3115ZM25.4914 12.4356H25.8443V12.3356H25.4914V12.4356ZM25.4914 23.6654H25.8443V23.5654H25.4914V23.6654ZM23.2114 25.8454V26.1983H23.3114V25.8454H23.2114ZM18.3994 25.8454V26.1983H18.4994V25.8454H18.3994ZM17.8237 25.1697H17.4708V25.2697H17.8237V25.1697ZM18.4994 24.5941V24.2411H18.3994V24.5941H18.4994ZM23.3114 24.5941V24.2411H23.2114V24.5941H23.3114ZM24.24 23.5655H23.887V23.6655H24.24V23.5655ZM24.24 12.3356H23.887V12.4356H24.24V12.3356ZM23.2114 11.407V11.7599H23.3114V11.407H23.2114ZM22.2837 20.457H22.6366V20.357H22.2837V20.457ZM20.0038 22.6369V22.9899H20.1038V22.6369H20.0038ZM17.8238 20.357H17.4709V20.457H17.8238V20.357ZM19.4281 10.7312H19.0752V10.8312H19.4281V10.7312ZM19.4281 20.357H19.0752V20.457H19.4281V20.357ZM20.1038 21.3856V21.0326H20.0038V21.3856H20.1038ZM21.0323 20.357H20.6794V20.457H21.0323V20.357ZM20.0038 19.4284V19.7813H20.1038V19.4284H20.0038ZM34.3158 16.2195V16.1195H34.2158V16.2195H34.3158ZM34.3158 16.396H34.2158V16.496H34.3158V16.396ZM34.6687 16.5726V16.6726H34.7687V16.5726H34.6687ZM34.6687 16.3961H34.7687V16.2962L34.6688 16.2961L34.6687 16.3961ZM30.4814 16.3961V16.4961H30.5814V16.3961H30.4814ZM30.3049 16.2196V16.1196H30.2049V16.2196H30.3049ZM30.4814 19.6047H30.5814V19.5047H30.4814V19.6047ZM30.3049 19.7812H30.2049V19.8812H30.3049V19.7812ZM30.4814 21.2089V21.3089H30.5814V21.2089H30.4814ZM30.3049 21.0324V20.9324H30.2049V21.0324H30.3049ZM30.4815 26.0217V26.1217H30.5815V26.0217H30.4815ZM30.305 25.8453V25.7453H30.205V25.8453H30.305ZM25.6683 30.8345V30.9345H25.7683V30.8345H25.6683ZM25.4919 30.658V30.558H25.3919V30.658H25.4919ZM24.0641 30.8345H23.9641V30.9345H24.0641V30.8345ZM24.2406 30.658H24.3406V30.558H24.2406V30.658ZM20.8556 30.8345V30.9345H20.9556V30.8345H20.8556ZM20.6791 30.658V30.558H20.5791V30.658H20.6791ZM19.2514 30.8345H19.1514V30.9345H19.2514V30.8345ZM19.4278 30.658H19.5278V30.558H19.4278V30.658ZM16.0429 30.8345V30.9345H16.1429V30.8345H16.0429ZM15.8664 30.658V30.558H15.7664V30.658H15.8664ZM14.4386 30.8345H14.3386V30.9345H14.4386V30.8345ZM14.6151 30.658H14.7151V30.558H14.6151V30.658ZM11.2301 30.8345V30.9345H11.3301V30.8345H11.2301ZM11.0536 30.658V30.558H10.9536V30.658H11.0536ZM9.62582 30.8345H9.52582V30.9345H9.62582V30.8345ZM9.80229 30.658H9.90229V30.558H9.80229V30.658ZM4.81302 26.0217H4.71302V26.1217H4.81302V26.0217ZM4.98949 25.8452H5.08949V25.7452H4.98949V25.8452ZM0.802316 24.2409L0.802316 24.1409L0.802303 24.1409L0.802316 24.2409ZM4.81302 24.4173V24.3173H4.71302V24.4173H4.81302ZM4.98949 24.5938V24.6938H5.08949V24.5938H4.98949ZM4.81302 21.2088H4.71302V21.3088H4.81302V21.2088ZM4.98949 21.0323H5.08949V20.9323H4.98949V21.0323ZM0.802316 19.4281L0.802316 19.3281L0.802303 19.3281L0.802316 19.4281ZM4.81302 19.6045V19.5045H4.71302V19.6045H4.81302ZM4.98949 19.781V19.881H5.08949V19.781H4.98949ZM4.81302 16.396H4.71302V16.496H4.81302V16.396ZM4.98949 16.2195H5.08949V16.1195H4.98949V16.2195ZM0.802316 14.6152L0.802316 14.5152L0.802303 14.5152L0.802316 14.6152ZM4.81302 14.7917V14.6917H4.71302V14.7917H4.81302ZM4.98949 14.9682V15.0682H5.08949V14.9682H4.98949ZM4.81302 11.5832H4.71302V11.6832H4.81302V11.5832ZM4.98949 11.4067H5.08949V11.3067H4.98949V11.4067ZM4.81302 9.97885V9.87885H4.71302V9.97885H4.81302ZM4.98949 10.1553V10.2553H5.08949V10.1553H4.98949ZM9.62589 5.16605V5.06605H9.52589V5.16605H9.62589ZM9.80237 5.34252V5.44252H9.90237V5.34252H9.80237ZM11.4067 1.15534L11.5067 1.15534L11.5067 1.15533L11.4067 1.15534ZM11.2302 5.16605H11.3302V5.06605H11.2302V5.16605ZM11.0538 5.34252H10.9538V5.44252H11.0538V5.34252ZM14.4387 5.16605V5.06605H14.3387V5.16605H14.4387ZM14.6152 5.34252V5.44252H14.7152V5.34252H14.6152ZM16.2195 1.15534L16.3195 1.15534L16.3195 1.15533L16.2195 1.15534ZM16.043 5.16605H16.143V5.06605H16.043V5.16605ZM15.8665 5.34252H15.7665V5.44252H15.8665V5.34252ZM19.2516 5.16605V5.06605H19.1516V5.16605H19.2516ZM19.4281 5.34252V5.44252H19.5281V5.34252H19.4281ZM21.0323 1.15534L21.1323 1.15534L21.1323 1.15533L21.0323 1.15534ZM20.8558 5.16605H20.9558V5.06605H20.8558V5.16605ZM20.6794 5.34252H20.5794V5.44252H20.6794V5.34252ZM24.0644 5.16605V5.06605H23.9644V5.16605H24.0644ZM24.2408 5.34252V5.44252H24.3408V5.34252H24.2408ZM25.6687 5.16605H25.7687V5.06605H25.6687V5.16605ZM25.4922 5.34252H25.3922V5.44252H25.4922V5.34252ZM30.4815 9.97899H30.5815V9.87899H30.4815V9.97899ZM30.305 10.1555H30.205V10.2555H30.305V10.1555ZM30.4815 11.5833V11.6833H30.5815V11.5833H30.4815ZM30.305 11.4068V11.3068H30.205V11.4068H30.305ZM30.4815 14.7918H30.5815V14.6918H30.4815V14.7918ZM30.305 14.9682H30.205V15.0682H30.305V14.9682ZM14.4389 17.8529L14.3447 17.8193L14.2971 17.9529H14.4389V17.8529ZM14.6154 17.7285H14.7154V17.6579L14.6489 17.6343L14.6154 17.7285ZM14.4389 24.4176V24.3176H14.3389V24.4176H14.4389ZM14.6154 24.5941V24.6941H14.7154V24.5941H14.6154ZM16.043 17.8529V17.9529H16.1848L16.1372 17.8193L16.043 17.8529ZM15.8665 17.7285L15.833 17.6343L15.7665 17.6579V17.7285H15.8665ZM17.4709 15.5941L17.3709 15.5941V15.5941H17.4709ZM25.4914 12.3856L25.3914 12.3856V12.3856H25.4914ZM20.8558 11.5835V11.6835H20.9558V11.5835H20.8558ZM20.6794 11.407V11.307H20.5794V11.407H20.6794ZM20.8558 18.1482L20.95 18.1818L20.9977 18.0482H20.8558V18.1482ZM20.6794 18.2725H20.5794V18.343L20.6457 18.3667L20.6794 18.2725ZM20.7966 18.3144L20.7629 18.4086L20.763 18.4086L20.7966 18.3144ZM19.2517 18.1481V18.0481H19.1099L19.1575 18.1817L19.2517 18.1481ZM19.4281 18.2725L19.4617 18.3667L19.5281 18.343V18.2725H19.4281ZM30.4814 16.5726H30.3814V16.6726H30.4814V16.5726ZM30.6579 19.6047V19.7047H30.7579V19.6047H30.6579ZM30.6579 16.3961H30.7579V16.2961H30.6579V16.3961ZM30.4814 19.4282V19.3282H30.3814V19.4282H30.4814ZM30.4814 21.3853H30.3814V21.4853H30.4814V21.3853ZM30.6579 21.2089H30.7579V21.1089H30.6579V21.2089ZM30.4815 26.1982H30.3815V26.2982H30.4815V26.1982ZM30.6579 26.0217H30.7579V25.9217H30.6579V26.0217ZM25.6683 31.011H25.5683V31.111H25.6683V31.011ZM25.8448 30.8345H25.9448V30.7345H25.8448V30.8345ZM23.8876 30.8345V30.7345H23.7876V30.8345H23.8876ZM20.8556 31.011H20.7556V31.111H20.8556V31.011ZM24.0641 31.011V31.111H24.1641V31.011H24.0641ZM21.032 30.8345H21.132V30.7345H21.032V30.8345ZM19.0749 30.8345V30.7345H18.9749V30.8345H19.0749ZM16.0429 31.011H15.9429V31.111H16.0429V31.011ZM19.2514 31.011V31.111H19.3514V31.011H19.2514ZM16.2193 30.8345H16.3193V30.7345H16.2193V30.8345ZM14.2621 30.8345V30.7345H14.1621V30.8345H14.2621ZM11.2301 31.011H11.1301V31.111H11.2301V31.011ZM14.4386 31.011V31.111H14.5386V31.011H14.4386ZM11.4066 30.8345H11.5066V30.7345H11.4066V30.8345ZM9.44935 30.8345V30.7345H9.34935V30.8345H9.44935ZM9.62582 31.011V31.111H9.72582V31.011H9.62582ZM4.63655 26.0217V25.9217H4.53655V26.0217H4.63655ZM4.81302 26.1981V26.2981H4.91302V26.1981H4.81302ZM0.802344 24.5938L0.802344 24.4938L0.802324 24.4938L0.802344 24.5938ZM4.81302 24.2409H4.91302V24.1409H4.81302V24.2409ZM4.63655 21.2088V21.1088H4.53655V21.2088H4.63655ZM4.63655 24.4173H4.53655V24.5173H4.63655V24.4173ZM4.81302 21.3853V21.4853H4.91302V21.3853H4.81302ZM4.81302 19.4281H4.91302V19.3281H4.81302V19.4281ZM4.63655 16.396V16.296H4.53655V16.396H4.63655ZM4.63655 19.6045H4.53655V19.7045H4.63655V19.6045ZM4.81302 16.5724V16.6724H4.91302V16.5724H4.81302ZM0.802344 14.9682L0.802344 14.8682L0.802324 14.8682L0.802344 14.9682ZM4.81302 14.6152H4.91302V14.5152H4.81302V14.6152ZM4.63655 11.5832V11.4832H4.53655V11.5832H4.63655ZM4.63655 14.7917H4.53655V14.8917H4.63655V14.7917ZM4.81302 11.7597V11.8597H4.91302V11.7597H4.81302ZM4.81302 9.80238H4.91302V9.70238H4.81302V9.80238ZM4.63655 9.97885H4.53655V10.0789H4.63655V9.97885ZM9.62589 4.98958H9.72589V4.88958H9.62589V4.98958ZM9.44942 5.16605H9.34942V5.26605H9.44942V5.16605ZM11.0538 1.15537L11.1538 1.15537L11.1538 1.15535L11.0538 1.15537ZM11.4067 5.16605V5.26605H11.5067V5.16605H11.4067ZM14.4387 4.98958H14.5387V4.88958H14.4387V4.98958ZM11.2302 4.98958V4.88958H11.1302V4.98958H11.2302ZM14.2623 5.16605H14.1623V5.26605H14.2623V5.16605ZM16.2195 5.16605V5.26605H16.3195V5.16605H16.2195ZM19.2516 4.98958H19.3516V4.88958H19.2516V4.98958ZM16.043 4.98958V4.88958H15.943V4.98958H16.043ZM19.0751 5.16605H18.9751V5.26605H19.0751V5.16605ZM20.6794 1.15537L20.7794 1.15537L20.7794 1.15535L20.6794 1.15537ZM21.0323 5.16605V5.26605H21.1323V5.16605H21.0323ZM24.0644 4.98958H24.1644V4.88958H24.0644V4.98958ZM20.8558 4.98958V4.88958H20.7558V4.98958H20.8558ZM23.8879 5.16605H23.7879V5.26605H23.8879V5.16605ZM25.8452 5.16605V5.26605H25.9452V5.16605H25.8452ZM25.6687 4.98958V4.88958H25.5687V4.98958H25.6687ZM30.6579 9.97899V10.079H30.7579V9.97899H30.6579ZM30.4815 9.80252V9.70252H30.3815V9.80252H30.4815ZM30.4815 11.7597H30.3815V11.8597H30.4815V11.7597ZM30.6579 14.7918V14.8918H30.7579V14.7918H30.6579ZM30.6579 11.5833H30.7579V11.4833H30.6579V11.5833ZM30.4815 14.6153V14.5153H30.3815V14.6153H30.4815ZM14.3796 18.0191L14.346 18.1133L14.4402 18.1469L14.4738 18.0527L14.3796 18.0191ZM14.2624 17.8529V17.7529H14.1624V17.8529H14.2624ZM14.2624 24.4176H14.1624V24.5176H14.2624V24.4176ZM14.4389 24.2411H14.5389V24.1411H14.4389V24.2411ZM16.2195 17.8529H16.3195V17.7529H16.2195V17.8529ZM16.1023 18.0191L16.0081 18.0527L16.0417 18.1469L16.1359 18.1133L16.1023 18.0191ZM17.8238 15.5941L17.7238 15.5941V15.5941H17.8238ZM25.8443 12.3856L25.7443 12.3856V12.3856H25.8443ZM20.8558 11.7599H20.7558V11.8599H20.8558V11.7599ZM21.0323 18.1482V18.2482H21.1323V18.1482H21.0323ZM21.0323 11.5835H21.1323V11.4835H21.0323V11.5835ZM20.9151 17.9819L20.9487 17.8877L20.8545 17.8542L20.821 17.9483L20.9151 17.9819ZM19.1924 17.9819L19.2866 17.9483L19.253 17.8541L19.1588 17.8877L19.1924 17.9819ZM19.0752 18.1481H18.9752V18.2481H19.0752V18.1481ZM34.5922 16.396V16.2195H34.3922V16.396H34.5922ZM34.4922 16.1195H34.3158V16.3195H34.4922V16.1195ZM34.2158 16.2195V16.396H34.4158V16.2195H34.2158ZM34.3158 16.496H34.4922V16.296H34.3158V16.496ZM34.3922 16.396V16.5726H34.5922V16.396H34.3922ZM34.4922 16.6726H34.6687V16.4726H34.4922V16.6726ZM34.7687 16.5726V16.3961H34.5687V16.5726H34.7687ZM34.6688 16.2961L34.4923 16.296L34.4921 16.496L34.6686 16.4961L34.6688 16.2961ZM30.5814 16.3961V16.2196H30.3814V16.3961H30.5814ZM30.4814 16.1196H30.3049V16.3196H30.4814V16.1196ZM30.2049 16.2196V16.3961H30.4049V16.2196H30.2049ZM30.3049 16.4961H30.4814V16.2961H30.3049V16.4961ZM30.4814 19.5047H30.3049V19.7047H30.4814V19.5047ZM30.2049 19.6047V19.7812H30.4049V19.6047H30.2049ZM30.3049 19.8812H30.4814V19.6812H30.3049V19.8812ZM30.5814 19.7812V19.6047H30.3814V19.7812H30.5814ZM30.5814 21.2089V21.0324H30.3814V21.2089H30.5814ZM30.4814 20.9324H30.3049V21.1324H30.4814V20.9324ZM30.2049 21.0324V21.2089H30.4049V21.0324H30.2049ZM30.3049 21.3089H30.4814V21.1089H30.3049V21.3089ZM30.5815 26.0217V25.8453H30.3815V26.0217H30.5815ZM30.4815 25.7453H30.305V25.9453H30.4815V25.7453ZM30.205 25.8453V26.0217H30.405V25.8453H30.205ZM30.305 26.1217H30.4815V25.9217H30.305V26.1217ZM25.7683 30.8345V30.658H25.5683V30.8345H25.7683ZM25.6683 30.558H25.4919V30.758H25.6683V30.558ZM25.3919 30.658V30.8345H25.5919V30.658H25.3919ZM25.4919 30.9345H25.6683V30.7345H25.4919V30.9345ZM24.0641 30.9345H24.2406V30.7345H24.0641V30.9345ZM24.3406 30.8345V30.658H24.1406V30.8345H24.3406ZM24.2406 30.558H24.0641V30.758H24.2406V30.558ZM23.9641 30.658V30.8345H24.1641V30.658H23.9641ZM20.9556 30.8345V30.658H20.7556V30.8345H20.9556ZM20.8556 30.558H20.6791V30.758H20.8556V30.558ZM20.5791 30.658V30.8345H20.7791V30.658H20.5791ZM20.6791 30.9345H20.8556V30.7345H20.6791V30.9345ZM19.2514 30.9345H19.4278V30.7345H19.2514V30.9345ZM19.5278 30.8345V30.658H19.3278V30.8345H19.5278ZM19.4278 30.558H19.2514V30.758H19.4278V30.558ZM19.1514 30.658V30.8345H19.3514V30.658H19.1514ZM16.1429 30.8345V30.658H15.9429V30.8345H16.1429ZM16.0429 30.558H15.8664V30.758H16.0429V30.558ZM15.7664 30.658V30.8345H15.9664V30.658H15.7664ZM15.8664 30.9345H16.0429V30.7345H15.8664V30.9345ZM14.4386 30.9345H14.6151V30.7345H14.4386V30.9345ZM14.7151 30.8345V30.658H14.5151V30.8345H14.7151ZM14.6151 30.558H14.4386V30.758H14.6151V30.558ZM14.3386 30.658V30.8345H14.5386V30.658H14.3386ZM11.3301 30.8345V30.658H11.1301V30.8345H11.3301ZM11.2301 30.558H11.0536V30.758H11.2301V30.558ZM10.9536 30.658V30.8345H11.1536V30.658H10.9536ZM11.0536 30.9345H11.2301V30.7345H11.0536V30.9345ZM9.62582 30.9345H9.80229V30.7345H9.62582V30.9345ZM9.90229 30.8345V30.658H9.70229V30.8345H9.90229ZM9.80229 30.558H9.62582V30.758H9.80229V30.558ZM9.52582 30.658V30.8345H9.72582V30.658H9.52582ZM4.81302 26.1217H4.98949V25.9217H4.81302V26.1217ZM5.08949 26.0217V25.8452H4.88949V26.0217H5.08949ZM4.98949 25.7452H4.81302V25.9452H4.98949V25.7452ZM4.71302 25.8452V26.0217H4.91302V25.8452H4.71302ZM4.71302 24.4173V24.5938H4.91302V24.4173H4.71302ZM4.81302 24.6938H4.98949V24.4938H4.81302V24.6938ZM5.08949 24.5938V24.4173H4.88949V24.5938H5.08949ZM4.98949 24.3173H4.81302V24.5173H4.98949V24.3173ZM4.81302 21.3088H4.98949V21.1088H4.81302V21.3088ZM5.08949 21.2088V21.0323H4.88949V21.2088H5.08949ZM4.98949 20.9323H4.81302V21.1323H4.98949V20.9323ZM4.71302 21.0323V21.2088H4.91302V21.0323H4.71302ZM4.71302 19.6045V19.781H4.91302V19.6045H4.71302ZM4.81302 19.881H4.98949V19.681H4.81302V19.881ZM5.08949 19.781V19.6045H4.88949V19.781H5.08949ZM4.98949 19.5045H4.81302V19.7045H4.98949V19.5045ZM4.81302 16.496H4.98949V16.296H4.81302V16.496ZM5.08949 16.396V16.2195H4.88949V16.396H5.08949ZM4.98949 16.1195H4.81302V16.3195H4.98949V16.1195ZM4.71302 16.2195V16.396H4.91302V16.2195H4.71302ZM4.71302 14.7917V14.9682H4.91302V14.7917H4.71302ZM4.81302 15.0682H4.98949V14.8682H4.81302V15.0682ZM5.08949 14.9682V14.7917H4.88949V14.9682H5.08949ZM4.98949 14.6917H4.81302V14.8917H4.98949V14.6917ZM4.81302 11.6832H4.98949V11.4832H4.81302V11.6832ZM5.08949 11.5832V11.4067H4.88949V11.5832H5.08949ZM4.98949 11.3067H4.81302V11.5067H4.98949V11.3067ZM4.71302 11.4067V11.5832H4.91302V11.4067H4.71302ZM4.71302 9.97885V10.1553H4.91302V9.97885H4.71302ZM4.81302 10.2553H4.98949V10.0553H4.81302V10.2553ZM5.08949 10.1553V9.97885H4.88949V10.1553H5.08949ZM4.98949 9.87885H4.81302V10.0789H4.98949V9.87885ZM9.52589 5.16605V5.34252H9.72589V5.16605H9.52589ZM9.62589 5.44252H9.80237V5.24252H9.62589V5.44252ZM9.90237 5.34252V5.16605H9.70237V5.34252H9.90237ZM9.80237 5.06605H9.62589V5.26605H9.80237V5.06605ZM11.2302 5.06605H11.0538V5.26605H11.2302V5.06605ZM10.9538 5.16605V5.34252H11.1538V5.16605H10.9538ZM11.0538 5.44252H11.2302V5.24252H11.0538V5.44252ZM11.3302 5.34252V5.16605H11.1302V5.34252H11.3302ZM14.3387 5.16605V5.34252H14.5387V5.16605H14.3387ZM14.4387 5.44252H14.6152V5.24252H14.4387V5.44252ZM14.7152 5.34252V5.16605H14.5152V5.34252H14.7152ZM14.6152 5.06605H14.4387V5.26605H14.6152V5.06605ZM16.043 5.06605H15.8665V5.26605H16.043V5.06605ZM15.7665 5.16605V5.34252H15.9665V5.16605H15.7665ZM15.8665 5.44252H16.043V5.24252H15.8665V5.44252ZM16.143 5.34252V5.16605H15.943V5.34252H16.143ZM19.1516 5.16605V5.34252H19.3516V5.16605H19.1516ZM19.2516 5.44252H19.4281V5.24252H19.2516V5.44252ZM19.5281 5.34252V5.16605H19.3281V5.34252H19.5281ZM19.4281 5.06605H19.2516V5.26605H19.4281V5.06605ZM20.8558 5.06605H20.6794V5.26605H20.8558V5.06605ZM20.5794 5.16605V5.34252H20.7794V5.16605H20.5794ZM20.6794 5.44252H20.8558V5.24252H20.6794V5.44252ZM20.9558 5.34252V5.16605H20.7558V5.34252H20.9558ZM23.9644 5.16605V5.34252H24.1644V5.16605H23.9644ZM24.0644 5.44252H24.2408V5.24252H24.0644V5.44252ZM24.3408 5.34252V5.16605H24.1408V5.34252H24.3408ZM24.2408 5.06605H24.0644V5.26605H24.2408V5.06605ZM25.6687 5.06605H25.4922V5.26605H25.6687V5.06605ZM25.3922 5.16605V5.34252H25.5922V5.16605H25.3922ZM25.4922 5.44252H25.6687V5.24252H25.4922V5.44252ZM25.7687 5.34252V5.16605H25.5687V5.34252H25.7687ZM30.4815 9.87899H30.305V10.079H30.4815V9.87899ZM30.205 9.97899V10.1555H30.405V9.97899H30.205ZM30.305 10.2555H30.4815V10.0555H30.305V10.2555ZM30.5815 10.1555V9.97899H30.3815V10.1555H30.5815ZM30.5815 11.5833V11.4068H30.3815V11.5833H30.5815ZM30.4815 11.3068H30.305V11.5068H30.4815V11.3068ZM30.205 11.4068V11.5833H30.405V11.4068H30.205ZM30.305 11.6833H30.4815V11.4833H30.305V11.6833ZM30.4815 14.6918H30.305V14.8918H30.4815V14.6918ZM30.205 14.7918V14.9682H30.405V14.7918H30.205ZM30.305 15.0682H30.4815V14.8682H30.305V15.0682ZM30.5815 14.9682V14.7918H30.3815V14.9682H30.5815ZM14.4389 17.9529H14.6154V17.7529H14.4389V17.9529ZM14.7154 17.8529V17.7285H14.5154V17.8529H14.7154ZM14.6489 17.6343L14.5317 17.5925L14.4645 17.7809L14.5818 17.8226L14.6489 17.6343ZM14.4039 17.6531L14.3447 17.8193L14.5331 17.8865L14.5923 17.7202L14.4039 17.6531ZM14.3389 24.4176V24.5941H14.5389V24.4176H14.3389ZM14.4389 24.6941H14.6154V24.4941H14.4389V24.6941ZM14.7154 24.5941V24.4176H14.5154V24.5941H14.7154ZM14.6154 24.3176H14.4389V24.5176H14.6154V24.3176ZM16.1372 17.8193L16.078 17.6531L15.8896 17.7202L15.9488 17.8865L16.1372 17.8193ZM15.9502 17.5925L15.833 17.6343L15.9001 17.8226L16.0173 17.7809L15.9502 17.5925ZM15.7665 17.7285V17.8529H15.9665V17.7285H15.7665ZM15.8665 17.9529H16.043V17.7529H15.8665V17.9529ZM20.9558 11.5835V11.407H20.7558V11.5835H20.9558ZM20.8558 11.307H20.6794V11.507H20.8558V11.307ZM20.5794 11.407V11.5835H20.7794V11.407H20.5794ZM20.6794 11.6835H20.8558V11.4835H20.6794V11.6835ZM20.8558 18.0482H20.6794V18.2482H20.8558V18.0482ZM20.5794 18.1482V18.2725H20.7794V18.1482H20.5794ZM20.6457 18.3667L20.7629 18.4086L20.8302 18.2202L20.713 18.1784L20.6457 18.3667ZM20.8907 18.348L20.95 18.1818L20.7617 18.1146L20.7024 18.2808L20.8907 18.348ZM19.1575 18.1817L19.2167 18.3478L19.4051 18.2807L19.3459 18.1145L19.1575 18.1817ZM19.3445 18.4085L19.4617 18.3667L19.3946 18.1783L19.2773 18.2201L19.3445 18.4085ZM19.5281 18.2725V18.1481H19.3281V18.2725H19.5281ZM19.4281 18.0481H19.2517V18.2481H19.4281V18.0481ZM34.4922 16.6726C35.0887 16.6726 35.5708 16.1891 35.5708 15.5939H35.3708C35.3708 16.0789 34.978 16.4726 34.4922 16.4726V16.6726ZM35.0178 15.5939C35.0178 15.8842 34.783 16.1195 34.4922 16.1195V16.3195C34.8935 16.3195 35.2178 15.9945 35.2178 15.5939H35.0178ZM30.4814 16.6726H34.4922V16.4726H30.4814V16.6726ZM34.4922 16.1195L30.4814 16.1196L30.4814 16.3196L34.4922 16.3195L34.4922 16.1195ZM30.3814 16.2196V16.5726H30.5814V16.2196H30.3814ZM30.7579 19.6047V16.3961H30.5579V19.6047H30.7579ZM30.6579 16.2961H30.3049V16.4961H30.6579V16.2961ZM30.2049 16.3961V19.6047H30.4049V16.3961H30.2049ZM30.3049 19.7047H30.6579V19.5047H30.3049V19.7047ZM34.4922 19.3282H30.4814V19.5282H34.4922V19.3282ZM30.3814 19.4282V19.7812H30.5814V19.4282H30.3814ZM30.4814 19.8812H34.4922V19.6812H30.4814V19.8812ZM35.5707 20.4068C35.5707 19.8115 35.0886 19.3282 34.4922 19.3282V19.5282C34.978 19.5282 35.3707 19.9218 35.3707 20.4068H35.5707ZM34.4922 19.8812C34.7829 19.8812 35.0178 20.1165 35.0178 20.4068H35.2178C35.2178 20.0062 34.8935 19.6812 34.4922 19.6812V19.8812ZM34.4922 21.4853C35.0886 21.4853 35.5707 21.002 35.5707 20.4068H35.3707C35.3707 20.8917 34.978 21.2853 34.4922 21.2853V21.4853ZM35.0178 20.4068C35.0178 20.697 34.7829 20.9324 34.4922 20.9324V21.1324C34.8935 21.1324 35.2178 20.8073 35.2178 20.4068H35.0178ZM30.4814 21.4853H34.4922V21.2853H30.4814V21.4853ZM34.4922 20.9324H30.4814V21.1324H34.4922V20.9324ZM30.3814 21.0324V21.3853H30.5814V21.0324H30.3814ZM30.7579 22.011V21.2089H30.5579V22.011H30.7579ZM30.6579 21.1089H30.3049V21.3089H30.6579V21.1089ZM30.2049 21.2089V22.011H30.4049V21.2089H30.2049ZM29.6793 23.0896C30.2758 23.0896 30.7579 22.6063 30.7579 22.011H30.5579C30.5579 22.496 30.1652 22.8896 29.6793 22.8896V23.0896ZM30.2049 22.011C30.2049 22.3013 29.97 22.5367 29.6793 22.5367V22.7367C30.0806 22.7367 30.4049 22.4116 30.4049 22.011H30.2049ZM28.6007 22.011C28.6007 22.6063 29.0829 23.0896 29.6793 23.0896V22.8896C29.1935 22.8896 28.8007 22.496 28.8007 22.011H28.6007ZM29.6793 22.5367C29.3886 22.5367 29.1537 22.3013 29.1537 22.011H28.9537C28.9537 22.4116 29.278 22.7367 29.6793 22.7367V22.5367ZM28.6007 9.17676V22.011H28.8007V9.17676H28.6007ZM29.1537 22.011V9.17676H28.9537V22.011H29.1537ZM26.4708 7.04682C27.6449 7.04682 28.6007 8.00276 28.6007 9.17676H28.8007C28.8007 7.89231 27.7553 6.84682 26.4708 6.84682V7.04682ZM29.1537 9.17676C29.1537 7.69734 27.9503 6.49388 26.4708 6.49388V6.69388C27.8398 6.69388 28.9537 7.8078 28.9537 9.17676H29.1537ZM8.82373 7.04682H26.4708V6.84682H8.82373V7.04682ZM26.4708 6.49388H8.82373V6.69388H26.4708V6.49388ZM6.69379 9.17676C6.69379 8.00269 7.64973 7.04682 8.82373 7.04682V6.84682C7.53928 6.84682 6.49379 7.89223 6.49379 9.17676H6.69379ZM8.82373 6.49388C7.34432 6.49388 6.14085 7.69727 6.14085 9.17676H6.34085C6.34085 7.80773 7.45477 6.69388 8.82373 6.69388V6.49388ZM6.69379 26.8238V9.17676H6.49379V26.8238H6.69379ZM6.14085 9.17676V26.8238H6.34085V9.17676H6.14085ZM8.82373 28.9538C7.64967 28.9538 6.69379 27.9978 6.69379 26.8238H6.49379C6.49379 28.1083 7.5392 29.1538 8.82373 29.1538V28.9538ZM6.14085 26.8238C6.14085 28.3032 7.34424 29.5067 8.82373 29.5067V29.3067C7.4547 29.3067 6.34085 28.1928 6.34085 26.8238H6.14085ZM26.4709 28.9538H8.82373V29.1538H26.4709V28.9538ZM8.82373 29.5067H26.4709V29.3067H8.82373V29.5067ZM28.6008 26.8238C28.6008 27.9979 27.6449 28.9538 26.4709 28.9538V29.1538C27.7553 29.1538 28.8008 28.1083 28.8008 26.8238H28.6008ZM26.4709 29.5067C27.9503 29.5067 29.1538 28.3033 29.1538 26.8238H28.9538C28.9538 28.1928 27.8398 29.3067 26.4709 29.3067V29.5067ZM28.6008 25.2196V26.8238H28.8008V25.2196H28.6008ZM29.1538 26.8238V25.2196H28.9538V26.8238H29.1538ZM29.6794 24.141C29.0829 24.141 28.6008 24.6243 28.6008 25.2196H28.8008C28.8008 24.7346 29.1935 24.341 29.6794 24.341V24.141ZM29.1538 25.2196C29.1538 24.9293 29.3886 24.6939 29.6794 24.6939V24.4939C29.2781 24.4939 28.9538 24.819 28.9538 25.2196H29.1538ZM34.4922 24.141H29.6794V24.341H34.4922V24.141ZM29.6794 24.6939H34.4922V24.4939H29.6794V24.6939ZM35.5708 25.2196C35.5708 24.6243 35.0887 24.141 34.4922 24.141V24.341C34.9781 24.341 35.3708 24.7346 35.3708 25.2196H35.5708ZM34.4922 24.6939C34.783 24.6939 35.0178 24.9293 35.0178 25.2196H35.2178C35.2178 24.819 34.8935 24.4939 34.4922 24.4939V24.6939ZM34.4922 26.2982C35.0887 26.2982 35.5708 25.8149 35.5708 25.2196H35.3708C35.3708 25.7045 34.978 26.0982 34.4922 26.0982V26.2982ZM35.0178 25.2196C35.0178 25.5099 34.7829 25.7453 34.4922 25.7453V25.9453C34.8935 25.9453 35.2178 25.6202 35.2178 25.2196H35.0178ZM30.4815 26.2982H34.4922V26.0982H30.4815V26.2982ZM34.4922 25.7453H30.4815V25.9453H34.4922V25.7453ZM30.3815 25.8453V26.1982H30.5815V25.8453H30.3815ZM30.7579 26.8238V26.0217H30.5579V26.8238H30.7579ZM30.6579 25.9217H30.305V26.1217H30.6579V25.9217ZM30.205 26.0217V26.8238H30.405V26.0217H30.205ZM26.4708 31.111C28.835 31.111 30.7579 29.1881 30.7579 26.8238H30.5579C30.5579 29.0776 28.7245 30.911 26.4708 30.911V31.111ZM30.205 26.8238C30.205 28.8826 28.5295 30.558 26.4708 30.558V30.758C28.64 30.758 30.405 28.9931 30.405 26.8238H30.205ZM25.6683 31.111H26.4708V30.911H25.6683V31.111ZM26.4708 30.558H25.6683V30.758H26.4708V30.558ZM25.5683 30.658V31.011H25.7683V30.658H25.5683ZM25.9448 34.8453V30.8345H25.7448V34.8453H25.9448ZM25.8448 30.7345H25.4919V30.9345H25.8448V30.7345ZM25.3919 30.8345V34.8453H25.5919V30.8345H25.3919ZM24.8662 35.9238C25.4627 35.9238 25.9448 35.4405 25.9448 34.8453H25.7448C25.7448 35.3302 25.3521 35.7238 24.8662 35.7238V35.9238ZM25.3919 34.8453C25.3919 35.1355 25.1569 35.3709 24.8662 35.3709V35.5709C25.2675 35.5709 25.5919 35.2458 25.5919 34.8453H25.3919ZM23.7876 34.8453C23.7876 35.4405 24.2698 35.9238 24.8662 35.9238V35.7238C24.3803 35.7238 23.9876 35.3302 23.9876 34.8453H23.7876ZM24.8662 35.3709C24.5755 35.3709 24.3406 35.1355 24.3406 34.8453H24.1406C24.1406 35.2458 24.4649 35.5709 24.8662 35.5709V35.3709ZM23.7876 30.8345V34.8453H23.9876V30.8345H23.7876ZM24.3406 34.8453V30.8345H24.1406V34.8453H24.3406ZM24.2406 30.7345H23.8876V30.9345H24.2406V30.7345ZM20.8556 31.111H24.0641V30.911H20.8556V31.111ZM24.1641 31.011V30.658H23.9641V31.011H24.1641ZM24.0641 30.558H20.8556V30.758H24.0641V30.558ZM20.7556 30.658V31.011H20.9556V30.658H20.7556ZM21.132 34.8453V30.8345H20.932V34.8453H21.132ZM21.032 30.7345H20.6791V30.9345H21.032V30.7345ZM20.5791 30.8345V34.8453H20.7791V30.8345H20.5791ZM20.0535 35.9238C20.6499 35.9238 21.132 35.4405 21.132 34.8453H20.932C20.932 35.3302 20.5393 35.7238 20.0535 35.7238V35.9238ZM20.5791 34.8453C20.5791 35.1355 20.3442 35.3709 20.0535 35.3709V35.5709C20.4548 35.5709 20.7791 35.2458 20.7791 34.8453H20.5791ZM18.9749 34.8453C18.9749 35.4405 19.457 35.9238 20.0535 35.9238V35.7238C19.5676 35.7238 19.1749 35.3302 19.1749 34.8453H18.9749ZM20.0535 35.3709C19.7627 35.3709 19.5278 35.1355 19.5278 34.8453H19.3278C19.3278 35.2458 19.6522 35.5709 20.0535 35.5709V35.3709ZM18.9749 30.8345V34.8453H19.1749V30.8345H18.9749ZM19.5278 34.8453V30.8345H19.3278V34.8453H19.5278ZM19.4278 30.7345H19.0749V30.9345H19.4278V30.7345ZM16.0429 31.111H19.2514V30.911H16.0429V31.111ZM19.3514 31.011V30.658H19.1514V31.011H19.3514ZM19.2514 30.558H16.0429V30.758H19.2514V30.558ZM15.9429 30.658V31.011H16.1429V30.658H15.9429ZM16.3193 34.8453V30.8345H16.1193V34.8453H16.3193ZM16.2193 30.7345H15.8664V30.9345H16.2193V30.7345ZM15.7664 30.8345V34.8453H15.9664V30.8345H15.7664ZM15.2407 35.9238C15.8372 35.9238 16.3193 35.4405 16.3193 34.8453H16.1193C16.1193 35.3302 15.7266 35.7238 15.2407 35.7238V35.9238ZM15.7664 34.8453C15.7664 35.1355 15.5314 35.3709 15.2407 35.3709V35.5709C15.642 35.5709 15.9664 35.2458 15.9664 34.8453H15.7664ZM14.1621 34.8453C14.1621 35.4405 14.6443 35.9238 15.2407 35.9238V35.7238C14.7549 35.7238 14.3621 35.3302 14.3621 34.8453H14.1621ZM15.2407 35.3709C14.95 35.3709 14.7151 35.1355 14.7151 34.8453H14.5151C14.5151 35.2458 14.8394 35.5709 15.2407 35.5709V35.3709ZM14.1621 30.8345V34.8453H14.3621V30.8345H14.1621ZM14.7151 34.8453V30.8345H14.5151V34.8453H14.7151ZM14.6151 30.7345H14.2621V30.9345H14.6151V30.7345ZM11.2301 31.111H14.4386V30.911H11.2301V31.111ZM14.5386 31.011V30.658H14.3386V31.011H14.5386ZM14.4386 30.558H11.2301V30.758H14.4386V30.558ZM11.1301 30.658V31.011H11.3301V30.658H11.1301ZM11.5066 34.8453V30.8345H11.3066V34.8453H11.5066ZM11.4066 30.7345H11.0536V30.9345H11.4066V30.7345ZM10.9536 30.8345V34.8453H11.1536V30.8345H10.9536ZM10.428 35.9238C11.0244 35.9238 11.5066 35.4405 11.5066 34.8453H11.3066C11.3066 35.3302 10.9138 35.7238 10.428 35.7238V35.9238ZM10.9536 34.8453C10.9536 35.1355 10.7187 35.3709 10.428 35.3709V35.5709C10.8292 35.5709 11.1536 35.2458 11.1536 34.8453H10.9536ZM9.34935 34.8453C9.34935 35.4405 9.83149 35.9238 10.428 35.9238V35.7238C9.94208 35.7238 9.54935 35.3302 9.54935 34.8453H9.34935ZM10.428 35.3709C10.1372 35.3709 9.90229 35.1355 9.90229 34.8453H9.70229C9.70229 35.2458 10.0267 35.5709 10.428 35.5709V35.3709ZM9.34935 30.8345V34.8453H9.54935V30.8345H9.34935ZM9.90229 34.8453V30.8345H9.70229V34.8453H9.90229ZM9.80229 30.7345H9.44935V30.9345H9.80229V30.7345ZM8.82373 31.111H9.62582V30.911H8.82373V31.111ZM9.72582 31.011V30.658H9.52582V31.011H9.72582ZM9.62582 30.558H8.82373V30.758H9.62582V30.558ZM4.53655 26.8238C4.53655 29.188 6.4595 31.111 8.82373 31.111V30.911C6.56996 30.911 4.73655 29.0775 4.73655 26.8238H4.53655ZM8.82373 30.558C6.76489 30.558 5.08949 28.8826 5.08949 26.8238H4.88949C4.88949 28.993 6.65443 30.758 8.82373 30.758V30.558ZM4.53655 26.0217V26.8238H4.73655V26.0217H4.53655ZM5.08949 26.8238V26.0217H4.88949V26.8238H5.08949ZM4.98949 25.9217H4.63655V26.1217H4.98949V25.9217ZM0.802316 26.2981H4.81302V26.0981H0.802316V26.2981ZM4.91302 26.1981V25.8452H4.71302V26.1981H4.91302ZM4.81302 25.7452H0.802316V25.9452H4.81302V25.7452ZM-0.27627 25.2195C-0.27627 25.8148 0.205841 26.2981 0.802316 26.2981V26.0981C0.316449 26.0981 -0.0762695 25.7045 -0.0762695 25.2195H-0.27627ZM0.802316 25.7452C0.511603 25.7452 0.276672 25.5098 0.276672 25.2195H0.0766716C0.0766716 25.6201 0.401011 25.9452 0.802316 25.9452V25.7452ZM0.802303 24.1409C0.205876 24.1409 -0.27627 24.6243 -0.27627 25.2195H-0.0762695C-0.0762695 24.7346 0.316471 24.3409 0.802329 24.3409L0.802303 24.1409ZM0.276672 25.2195C0.276672 24.9293 0.511593 24.6939 0.802365 24.6938L0.802324 24.4938C0.401021 24.4939 0.0766716 24.8189 0.0766716 25.2195H0.276672ZM4.81302 24.1409H0.802316V24.3409H4.81302V24.1409ZM0.802344 24.6938H4.81302V24.4938H0.802344V24.6938ZM4.91302 24.5938V24.2409H4.71302V24.5938H4.91302ZM4.53655 21.2088V24.4173H4.73655V21.2088H4.53655ZM4.63655 24.5173H4.98949V24.3173H4.63655V24.5173ZM5.08949 24.4173V21.2088H4.88949V24.4173H5.08949ZM4.98949 21.1088H4.63655V21.3088H4.98949V21.1088ZM0.802316 21.4853H4.81302V21.2853H0.802316V21.4853ZM4.91302 21.3853V21.0323H4.71302V21.3853H4.91302ZM4.81302 20.9323H0.802316V21.1323H4.81302V20.9323ZM-0.27627 20.4067C-0.27627 21.0019 0.205846 21.4853 0.802316 21.4853V21.2853C0.316444 21.2853 -0.0762695 20.8916 -0.0762695 20.4067H-0.27627ZM0.802316 20.9323C0.511596 20.9323 0.276672 20.6969 0.276672 20.4067H0.0766716C0.0766716 20.8073 0.401018 21.1323 0.802316 21.1323V20.9323ZM0.802303 19.3281C0.20588 19.3282 -0.27627 19.8114 -0.27627 20.4067H-0.0762695C-0.0762695 19.9217 0.316466 19.5281 0.802329 19.5281L0.802303 19.3281ZM0.276672 20.4067C0.276672 20.1164 0.5116 19.881 0.802344 19.881V19.681C0.401014 19.681 0.0766716 20.0061 0.0766716 20.4067H0.276672ZM4.81302 19.3281H0.802316V19.5281H4.81302V19.3281ZM0.802344 19.881H4.81302V19.681H0.802344V19.881ZM4.91302 19.781V19.4281H4.71302V19.781H4.91302ZM4.53655 16.396V19.6045H4.73655V16.396H4.53655ZM4.63655 19.7045H4.98949V19.5045H4.63655V19.7045ZM5.08949 19.6045V16.396H4.88949V19.6045H5.08949ZM4.98949 16.296H4.63655V16.496H4.98949V16.296ZM0.802316 16.6724H4.81302V16.4724H0.802316V16.6724ZM4.91302 16.5724V16.2195H4.71302V16.5724H4.91302ZM4.81302 16.1195H0.802316V16.3195H4.81302V16.1195ZM-0.27627 15.5939C-0.27627 16.1892 0.205851 16.6724 0.802316 16.6724V16.4724C0.316439 16.4724 -0.0762695 16.0788 -0.0762695 15.5939H-0.27627ZM0.802316 16.1195C0.511588 16.1195 0.276672 15.8841 0.276672 15.5939H0.0766716C0.0766716 15.9945 0.401026 16.3195 0.802316 16.3195V16.1195ZM0.802303 14.5152C0.205875 14.5153 -0.27627 14.9986 -0.27627 15.5939H-0.0762695C-0.0762695 15.109 0.31647 14.7153 0.802329 14.7152L0.802303 14.5152ZM0.276672 15.5939C0.276672 15.3037 0.511593 15.0682 0.802365 15.0682L0.802324 14.8682C0.40102 14.8683 0.0766716 15.1933 0.0766716 15.5939H0.276672ZM4.81302 14.5152H0.802316V14.7152H4.81302V14.5152ZM0.802344 15.0682H4.81302V14.8682H0.802344V15.0682ZM4.91302 14.9682V14.6152H4.71302V14.9682H4.91302ZM4.53655 11.5832V14.7917H4.73655V11.5832H4.53655ZM4.63655 14.8917H4.98949V14.6917H4.63655V14.8917ZM5.08949 14.7917V11.5832H4.88949V14.7917H5.08949ZM4.98949 11.4832H4.63655V11.6832H4.98949V11.4832ZM0.802316 11.8597H4.81302V11.6597H0.802316V11.8597ZM4.91302 11.7597V11.4067H4.71302V11.7597H4.91302ZM4.81302 11.3067H0.802316V11.5067H4.81302V11.3067ZM-0.27627 10.7811C-0.27627 11.3763 0.205846 11.8597 0.802316 11.8597V11.6597C0.316444 11.6597 -0.0762695 11.266 -0.0762695 10.7811H-0.27627ZM0.802316 11.3067C0.511595 11.3067 0.276672 11.0713 0.276672 10.7811H0.0766716C0.0766716 11.1816 0.401018 11.5067 0.802316 11.5067V11.3067ZM0.802316 9.70238C0.205826 9.70238 -0.27627 10.1857 -0.27627 10.7811H-0.0762695C-0.0762695 10.296 0.316444 9.90238 0.802316 9.90238V9.70238ZM0.276672 10.7811C0.276672 10.4907 0.511619 10.2553 0.802316 10.2553V10.0553C0.401014 10.0553 0.0766716 10.3804 0.0766716 10.7811H0.276672ZM4.81302 9.70238H0.802316V9.90238H4.81302V9.70238ZM0.802316 10.2553H4.81302V10.0553H0.802316V10.2553ZM4.91302 10.1553V9.80238H4.71302V10.1553H4.91302ZM4.53655 9.17676V9.97885H4.73655V9.17676H4.53655ZM4.63655 10.0789H4.98949V9.87885H4.63655V10.0789ZM5.08949 9.97885V9.17676H4.88949V9.97885H5.08949ZM8.82373 4.88958C6.45958 4.88958 4.53655 6.81253 4.53655 9.17676H4.73655C4.73655 6.92299 6.57003 5.08958 8.82373 5.08958V4.88958ZM5.08949 9.17676C5.08949 7.11794 6.76495 5.44252 8.82373 5.44252V5.24252C6.6545 5.24252 4.88949 7.00748 4.88949 9.17676H5.08949ZM9.62589 4.88958H8.82373V5.08958H9.62589V4.88958ZM8.82373 5.44252H9.62589V5.24252H8.82373V5.44252ZM9.72589 5.34252V4.98958H9.52589V5.34252H9.72589ZM9.34942 1.15534V5.16605H9.54942V1.15534H9.34942ZM9.44942 5.26605H9.80237V5.06605H9.44942V5.26605ZM9.90237 5.16605V1.15534H9.70237V5.16605H9.90237ZM10.4281 0.0767578C9.83156 0.0767578 9.34942 0.560075 9.34942 1.15534H9.54942C9.54942 0.670399 9.94215 0.276758 10.4281 0.276758V0.0767578ZM9.90237 1.15534C9.90237 0.865103 10.1373 0.629699 10.4281 0.629699V0.429699C10.0268 0.429699 9.70237 0.754752 9.70237 1.15534H9.90237ZM11.5067 1.15533C11.5066 0.560109 11.0245 0.0767578 10.4281 0.0767578V0.276758C10.9139 0.276758 11.3066 0.670421 11.3067 1.15536L11.5067 1.15533ZM10.4281 0.629699C10.7187 0.629699 10.9537 0.865093 10.9538 1.15539L11.1538 1.15535C11.1537 0.754761 10.8293 0.429699 10.4281 0.429699V0.629699ZM11.5067 5.16605V1.15534H11.3067V5.16605H11.5067ZM10.9538 1.15537V5.16605H11.1538V1.15537H10.9538ZM11.0538 5.26605H11.4067V5.06605H11.0538V5.26605ZM14.4387 4.88958H11.2302V5.08958H14.4387V4.88958ZM11.1302 4.98958V5.34252H11.3302V4.98958H11.1302ZM11.2302 5.44252H14.4387V5.24252H11.2302V5.44252ZM14.5387 5.34252V4.98958H14.3387V5.34252H14.5387ZM14.1623 1.15534V5.16605H14.3623V1.15534H14.1623ZM14.2623 5.26605H14.6152V5.06605H14.2623V5.26605ZM14.7152 5.16605V1.15534H14.5152V5.16605H14.7152ZM15.2408 0.0767578C14.6444 0.0767578 14.1623 0.560079 14.1623 1.15534H14.3623C14.3623 0.670395 14.755 0.276758 15.2408 0.276758V0.0767578ZM14.7152 1.15534C14.7152 0.865088 14.9501 0.629699 15.2408 0.629699V0.429699C14.8395 0.429699 14.5152 0.754766 14.5152 1.15534H14.7152ZM16.3195 1.15533C16.3194 0.560113 15.8373 0.0767578 15.2408 0.0767578V0.276758C15.7267 0.276758 16.1194 0.670416 16.1195 1.15536L16.3195 1.15533ZM15.2408 0.629699C15.5316 0.629699 15.7665 0.8651 15.7665 1.15537H15.9665C15.9665 0.754755 15.6421 0.429699 15.2408 0.429699V0.629699ZM16.3195 5.16605V1.15534H16.1195V5.16605H16.3195ZM15.7665 1.15537V5.16605H15.9665V1.15537H15.7665ZM15.8665 5.26605H16.2195V5.06605H15.8665V5.26605ZM19.2516 4.88958H16.043V5.08958H19.2516V4.88958ZM15.943 4.98958V5.34252H16.143V4.98958H15.943ZM16.043 5.44252H19.2516V5.24252H16.043V5.44252ZM19.3516 5.34252V4.98958H19.1516V5.34252H19.3516ZM18.9751 1.15534V5.16605H19.1751V1.15534H18.9751ZM19.0751 5.26605H19.4281V5.06605H19.0751V5.26605ZM19.5281 5.16605V1.15534H19.3281V5.16605H19.5281ZM20.0537 0.0767578C19.4572 0.0767578 18.9751 0.560084 18.9751 1.15534H19.1751C19.1751 0.67039 19.5678 0.276758 20.0537 0.276758V0.0767578ZM19.5281 1.15534C19.5281 0.865088 19.763 0.629699 20.0537 0.629699V0.429699C19.6524 0.429699 19.3281 0.754767 19.3281 1.15534H19.5281ZM21.1323 1.15533C21.1322 0.560109 20.6501 0.0767578 20.0537 0.0767578V0.276758C20.5395 0.276758 20.9323 0.670421 20.9323 1.15536L21.1323 1.15533ZM20.0537 0.629699C20.3444 0.629699 20.5793 0.865086 20.5794 1.15539L20.7794 1.15535C20.7793 0.754769 20.455 0.429699 20.0537 0.429699V0.629699ZM21.1323 5.16605V1.15534H20.9323V5.16605H21.1323ZM20.5794 1.15537V5.16605H20.7794V1.15537H20.5794ZM20.6794 5.26605H21.0323V5.06605H20.6794V5.26605ZM24.0644 4.88958H20.8558V5.08958H24.0644V4.88958ZM20.7558 4.98958V5.34252H20.9558V4.98958H20.7558ZM20.8558 5.44252H24.0644V5.24252H20.8558V5.44252ZM24.1644 5.34252V4.98958H23.9644V5.34252H24.1644ZM23.7879 1.15534V5.16605H23.9879V1.15534H23.7879ZM23.8879 5.26605H24.2408V5.06605H23.8879V5.26605ZM24.3408 5.16605V1.15534H24.1408V5.16605H24.3408ZM24.8665 0.0767578C24.27 0.0767578 23.7879 0.56008 23.7879 1.15534H23.9879C23.9879 0.670395 24.3806 0.276758 24.8665 0.276758V0.0767578ZM24.3408 1.15534C24.3408 0.865089 24.5758 0.629699 24.8665 0.629699V0.429699C24.4652 0.429699 24.1408 0.754751 24.1408 1.15534H24.3408ZM25.9452 1.15534C25.9452 0.560044 25.4629 0.0767578 24.8665 0.0767578V0.276758C25.3524 0.276758 25.7452 0.67039 25.7452 1.15534H25.9452ZM24.8665 0.629699C25.1573 0.629699 25.3922 0.865123 25.3922 1.15534H25.5922C25.5922 0.75476 25.2678 0.429699 24.8665 0.429699V0.629699ZM25.9452 5.16605V1.15534H25.7452V5.16605H25.9452ZM25.3922 1.15534V5.16605H25.5922V1.15534H25.3922ZM25.4922 5.26605H25.8452V5.06605H25.4922V5.26605ZM26.4708 4.88958H25.6687V5.08958H26.4708V4.88958ZM25.5687 4.98958V5.34252H25.7687V4.98958H25.5687ZM25.6687 5.44252H26.4708V5.24252H25.6687V5.44252ZM30.7579 9.17676C30.7579 6.8126 28.835 4.88958 26.4708 4.88958V5.08958C28.7246 5.08958 30.5579 6.92306 30.5579 9.17676H30.7579ZM26.4708 5.44252C28.5296 5.44252 30.205 7.11801 30.205 9.17676H30.405C30.405 7.00756 28.6401 5.24252 26.4708 5.24252V5.44252ZM30.7579 9.97899V9.17676H30.5579V9.97899H30.7579ZM30.205 9.17676V9.97899H30.405V9.17676H30.205ZM30.305 10.079H30.6579V9.87899H30.305V10.079ZM34.4922 9.70252H30.4815V9.90252H34.4922V9.70252ZM30.3815 9.80252V10.1555H30.5815V9.80252H30.3815ZM30.4815 10.2555H34.4922V10.0555H30.4815V10.2555ZM35.5708 10.7812C35.5708 10.1859 35.0887 9.70252 34.4922 9.70252V9.90252C34.978 9.90252 35.3708 10.2962 35.3708 10.7812H35.5708ZM34.4922 10.2555C34.7829 10.2555 35.0178 10.4909 35.0178 10.7812H35.2178C35.2178 10.3805 34.8935 10.0555 34.4922 10.0555V10.2555ZM34.4922 11.8597C35.0887 11.8597 35.5708 11.3764 35.5708 10.7812H35.3708C35.3708 11.2661 34.9781 11.6597 34.4922 11.6597V11.8597ZM35.0178 10.7812C35.0178 11.0714 34.783 11.3068 34.4922 11.3068V11.5068C34.8935 11.5068 35.2178 11.1817 35.2178 10.7812H35.0178ZM30.4815 11.8597H34.4922V11.6597H30.4815V11.8597ZM34.4922 11.3068H30.4815V11.5068H34.4922V11.3068ZM30.3815 11.4068V11.7597H30.5815V11.4068H30.3815ZM30.7579 14.7918V11.5833H30.5579V14.7918H30.7579ZM30.6579 11.4833H30.305V11.6833H30.6579V11.4833ZM30.205 11.5833V14.7918H30.405V11.5833H30.205ZM30.305 14.8918H30.6579V14.6918H30.305V14.8918ZM34.4922 14.5153H30.4815V14.7153H34.4922V14.5153ZM30.3815 14.6153V14.9682H30.5815V14.6153H30.3815ZM30.4815 15.0682H34.4922V14.8682H30.4815V15.0682ZM35.5708 15.5939C35.5708 14.9986 35.0887 14.5153 34.4922 14.5153V14.7153C34.9781 14.7153 35.3708 15.109 35.3708 15.5939H35.5708ZM34.4922 15.0682C34.783 15.0682 35.0178 15.3036 35.0178 15.5939H35.2178C35.2178 15.1933 34.8935 14.8682 34.4922 14.8682V15.0682ZM9.34907 9.17648C9.34907 9.46678 9.11375 9.7021 8.82345 9.7021V9.9021C9.22421 9.9021 9.54907 9.57723 9.54907 9.17648H9.34907ZM8.82345 10.255C9.41917 10.255 9.90201 9.7722 9.90201 9.17648H9.70201C9.70201 9.66174 9.30871 10.055 8.82345 10.055V10.255ZM8.82345 8.65085C9.11375 8.65085 9.34907 8.88617 9.34907 9.17648H9.54907C9.54907 8.77572 9.22421 8.45085 8.82345 8.45085V8.65085ZM9.90201 9.17648C9.90201 8.58083 9.41918 8.09791 8.82345 8.09791V8.29791C9.30871 8.29791 9.70201 8.69128 9.70201 9.17648H9.90201ZM8.29782 9.17648C8.29782 8.88618 8.53315 8.65085 8.82345 8.65085V8.45085C8.42269 8.45085 8.09782 8.77572 8.09782 9.17648H8.29782ZM8.82345 8.09791C8.2278 8.09791 7.74488 8.58082 7.74488 9.17648H7.94488C7.94488 8.69128 8.33825 8.29791 8.82345 8.29791V8.09791ZM8.82345 9.7021C8.53315 9.7021 8.29782 9.46678 8.29782 9.17648H8.09782C8.09782 9.57723 8.42269 9.9021 8.82345 9.9021V9.7021ZM7.74488 9.17648C7.74488 9.7722 8.2278 10.255 8.82345 10.255V10.055C8.33825 10.055 7.94488 9.66174 7.94488 9.17648H7.74488ZM26.9961 9.17648C26.9961 9.46678 26.7608 9.7021 26.4705 9.7021V9.9021C26.8713 9.9021 27.1961 9.57723 27.1961 9.17648H26.9961ZM26.4705 10.255C27.0662 10.255 27.5491 9.7722 27.5491 9.17648H27.3491C27.3491 9.66174 26.9558 10.055 26.4705 10.055V10.255ZM26.4705 8.65085C26.7608 8.65085 26.9961 8.88617 26.9961 9.17648H27.1961C27.1961 8.77572 26.8713 8.45085 26.4705 8.45085V8.65085ZM27.5491 9.17648C27.5491 8.58083 27.0662 8.09791 26.4705 8.09791V8.29791C26.9558 8.29791 27.3491 8.69128 27.3491 9.17648H27.5491ZM25.9449 9.17648C25.9449 8.88617 26.1802 8.65085 26.4705 8.65085V8.45085C26.0697 8.45085 25.7449 8.77572 25.7449 9.17648H25.9449ZM26.4705 8.09791C25.8749 8.09791 25.3919 8.58082 25.3919 9.17648H25.5919C25.5919 8.69128 25.9853 8.29791 26.4705 8.29791V8.09791ZM26.4705 9.7021C26.1802 9.7021 25.9449 9.46678 25.9449 9.17648H25.7449C25.7449 9.57723 26.0697 9.9021 26.4705 9.9021V9.7021ZM25.3919 9.17648C25.3919 9.7722 25.8749 10.255 26.4705 10.255V10.055C25.9853 10.055 25.5919 9.66174 25.5919 9.17648H25.3919ZM8.82345 27.9021C9.41917 27.9021 9.90201 27.4193 9.90201 26.8235H9.70201C9.70201 27.3088 9.30871 27.7021 8.82345 27.7021V27.9021ZM9.34907 26.8235C9.34907 27.1138 9.11375 27.3492 8.82345 27.3492V27.5492C9.22421 27.5492 9.54907 27.2243 9.54907 26.8235H9.34907ZM7.74488 26.8235C7.74488 27.4193 8.2278 27.9021 8.82345 27.9021V27.7021C8.33825 27.7021 7.94488 27.3088 7.94488 26.8235H7.74488ZM8.82345 27.3492C8.53315 27.3492 8.29782 27.1138 8.29782 26.8235H8.09782C8.09782 27.2243 8.42269 27.5492 8.82345 27.5492V27.3492ZM8.82345 25.745C8.2278 25.745 7.74488 26.2279 7.74488 26.8235H7.94488C7.94488 26.3383 8.33825 25.945 8.82345 25.945V25.745ZM8.29782 26.8235C8.29782 26.5332 8.53315 26.2979 8.82345 26.2979V26.0979C8.42269 26.0979 8.09782 26.4228 8.09782 26.8235H8.29782ZM9.90201 26.8235C9.90201 26.2279 9.41918 25.745 8.82345 25.745V25.945C9.30871 25.945 9.70201 26.3383 9.70201 26.8235H9.90201ZM8.82345 26.2979C9.11375 26.2979 9.34907 26.5332 9.34907 26.8235H9.54907C9.54907 26.4228 9.22421 26.0979 8.82345 26.0979V26.2979ZM26.9961 26.8235C26.9961 27.1138 26.7608 27.3492 26.4705 27.3492V27.5492C26.8713 27.5492 27.1961 27.2243 27.1961 26.8235H26.9961ZM26.4705 27.9021C27.0662 27.9021 27.5491 27.4193 27.5491 26.8235H27.3491C27.3491 27.3088 26.9558 27.7021 26.4705 27.7021V27.9021ZM26.4705 26.2979C26.7608 26.2979 26.9961 26.5332 26.9961 26.8235H27.1961C27.1961 26.4228 26.8713 26.0979 26.4705 26.0979V26.2979ZM27.5491 26.8235C27.5491 26.2279 27.0662 25.745 26.4705 25.745V25.945C26.9558 25.945 27.3491 26.3383 27.3491 26.8235H27.5491ZM25.9449 26.8235C25.9449 26.5332 26.1802 26.2979 26.4705 26.2979V26.0979C26.0697 26.0979 25.7449 26.4228 25.7449 26.8235H25.9449ZM26.4705 25.745C25.8749 25.745 25.3919 26.2279 25.3919 26.8235H25.5919C25.5919 26.3383 25.9853 25.945 26.4705 25.945V25.745ZM26.4705 27.3492C26.1802 27.3492 25.9449 27.1138 25.9449 26.8235H25.7449C25.7449 27.2243 26.0697 27.5492 26.4705 27.5492V27.3492ZM25.3919 26.8235C25.3919 27.4193 25.8749 27.9021 26.4705 27.9021V27.7021C25.9853 27.7021 25.5919 27.3088 25.5919 26.8235H25.3919ZM13.111 15.5941C13.111 14.4201 14.0669 13.4641 15.241 13.4641V13.2641C13.9565 13.2641 12.911 14.3096 12.911 15.5941H13.111ZM15.241 12.9112C13.7616 12.9112 12.5581 14.1147 12.5581 15.5941H12.7581C12.7581 14.2252 13.872 13.1112 15.241 13.1112V12.9112ZM14.5317 17.5925C13.7049 17.2977 13.111 16.5158 13.111 15.5941H12.911C12.911 16.6045 13.5621 17.4591 14.4645 17.7809L14.5317 17.5925ZM12.5581 15.5941C12.5581 16.7613 13.3103 17.744 14.346 18.1133L14.4132 17.9249C13.453 17.5826 12.7581 16.6724 12.7581 15.5941H12.5581ZM14.4738 18.0527L14.5923 17.7202L14.4039 17.6531L14.2854 17.9856L14.4738 18.0527ZM14.7154 24.4176V17.8529H14.5154V24.4176H14.7154ZM14.6154 17.7529H14.2624V17.9529H14.6154V17.7529ZM14.1624 17.8529V24.4176H14.3624V17.8529H14.1624ZM14.2624 24.5176H14.6154V24.3176H14.2624V24.5176ZM12.0325 24.6941H14.4389V24.4941H12.0325V24.6941ZM14.5389 24.5941V24.2411H14.3389V24.5941H14.5389ZM14.4389 24.1411H12.0325V24.3411H14.4389V24.1411ZM10.9546 23.6155C10.9546 24.2098 11.4374 24.6941 12.0325 24.6941V24.4941C11.5481 24.4941 11.1546 24.0996 11.1546 23.6155H10.9546ZM12.0325 24.1411C11.7435 24.1411 11.5075 23.9051 11.5075 23.6155H11.3075C11.3075 24.0153 11.6328 24.3411 12.0325 24.3411V24.1411ZM10.9546 12.3855V23.6155H11.1546V12.3855H10.9546ZM11.5075 23.6155V12.3855H11.3075V23.6155H11.5075ZM12.0332 11.3069C11.4376 11.3069 10.9546 11.791 10.9546 12.3855H11.1546C11.1546 11.9013 11.5482 11.5069 12.0332 11.5069V11.3069ZM11.5075 12.3855C11.5075 12.096 11.7433 11.8599 12.0332 11.8599V11.6599C11.6328 11.6599 11.3075 11.9856 11.3075 12.3855H11.5075ZM16.8453 11.3069H12.0332V11.5069H16.8453V11.3069ZM12.0332 11.8599H16.8453V11.6599H12.0332V11.8599ZM17.3709 10.7812C17.3709 11.0715 17.136 11.3069 16.8453 11.3069V11.5069C17.2466 11.5069 17.5709 11.1818 17.5709 10.7812H17.3709ZM16.8453 11.8599C17.4417 11.8599 17.9239 11.3765 17.9239 10.7812H17.7239C17.7239 11.2662 17.3311 11.6599 16.8453 11.6599V11.8599ZM16.8453 10.2556C17.136 10.2556 17.3709 10.491 17.3709 10.7812H17.5709C17.5709 10.3807 17.2465 10.0556 16.8453 10.0556V10.2556ZM17.9239 10.7812C17.9239 10.186 17.4417 9.70266 16.8453 9.70266V9.90266C17.3311 9.90266 17.7239 10.2963 17.7239 10.7812H17.9239ZM12.0332 10.2556H16.8453V10.0556H12.0332V10.2556ZM16.8453 9.70266H12.0332V9.90266H16.8453V9.70266ZM9.90328 12.3856C9.90328 11.2116 10.8592 10.2556 12.0332 10.2556V10.0556C10.7487 10.0556 9.70328 11.1011 9.70328 12.3856H9.90328ZM12.0332 9.70266C10.5537 9.70266 9.35034 10.9061 9.35034 12.3856H9.55034C9.55034 11.0166 10.6642 9.90266 12.0332 9.90266V9.70266ZM9.90328 23.6155V12.3856H9.70328V23.6155H9.90328ZM9.35034 12.3856V23.6155H9.55034V12.3856H9.35034ZM12.0324 25.7455C10.8593 25.7455 9.90328 24.7897 9.90328 23.6155H9.70328C9.70328 24.9001 10.7488 25.9455 12.0324 25.9455V25.7455ZM9.35034 23.6155C9.35034 25.0949 10.5538 26.2984 12.0324 26.2984V26.0984C10.6643 26.0984 9.55034 24.9845 9.55034 23.6155H9.35034ZM15.2409 25.7455H12.0324V25.9455H15.2409V25.7455ZM12.0324 26.2984H15.2409V26.0984H12.0324V26.2984ZM15.7665 25.2198C15.7665 25.5101 15.5316 25.7455 15.2409 25.7455V25.9455C15.6422 25.9455 15.9665 25.6204 15.9665 25.2198H15.7665ZM15.2409 26.2984C15.8374 26.2984 16.3195 25.8151 16.3195 25.2198H16.1195C16.1195 25.7048 15.7268 26.0984 15.2409 26.0984V26.2984ZM15.7665 17.8529V25.2198H15.9665V17.8529H15.7665ZM16.3195 25.2198V17.8529H16.1195V25.2198H16.3195ZM16.2195 17.7529H15.8665V17.9529H16.2195V17.7529ZM17.3709 15.5941C17.3709 16.5158 16.777 17.2977 15.9502 17.5925L16.0174 17.7809C16.9198 17.4591 17.5709 16.6045 17.5709 15.5941H17.3709ZM15.8896 17.7202L16.0081 18.0527L16.1965 17.9856L16.078 17.6531L15.8896 17.7202ZM16.1359 18.1133C17.1716 17.744 17.9238 16.7613 17.9238 15.5941H17.7238C17.7238 16.6724 17.0289 17.5826 16.0687 17.9249L16.1359 18.1133ZM15.241 13.4641C16.415 13.4641 17.3709 14.42 17.3709 15.5941L17.5709 15.5941C17.5709 14.3096 16.5254 13.2641 15.241 13.2641V13.4641ZM17.9238 15.5941C17.9239 14.1146 16.7204 12.9112 15.241 12.9112V13.1112C16.6099 13.1112 17.7239 14.225 17.7238 15.5941L17.9238 15.5941ZM14.1624 15.5941C14.1624 16.1885 14.6453 16.6726 15.241 16.6726V16.4726C14.7559 16.4726 14.3624 16.0782 14.3624 15.5941H14.1624ZM15.241 16.1197C14.9511 16.1197 14.7154 15.8835 14.7154 15.5941H14.5154C14.5154 15.9939 14.8405 16.3197 15.241 16.3197V16.1197ZM15.241 14.5155C14.6453 14.5155 14.1624 14.9995 14.1624 15.5941H14.3624C14.3624 15.1099 14.7559 14.7155 15.241 14.7155V14.5155ZM14.7154 15.5941C14.7154 15.3046 14.9511 15.0685 15.241 15.0685V14.8685C14.8405 14.8685 14.5154 15.1943 14.5154 15.5941H14.7154ZM16.3195 15.5941C16.3195 14.9996 15.8366 14.5155 15.241 14.5155V14.7155C15.726 14.7155 16.1195 15.1099 16.1195 15.5941H16.3195ZM15.241 15.0685C15.5309 15.0685 15.7666 15.3046 15.7666 15.5941H15.9666C15.9666 15.1943 15.6414 14.8685 15.241 14.8685V15.0685ZM15.241 16.6726C15.8366 16.6726 16.3195 16.1886 16.3195 15.5941H16.1195C16.1195 16.0783 15.726 16.4726 15.241 16.4726V16.6726ZM15.7666 15.5941C15.7666 15.8836 15.5309 16.1197 15.241 16.1197V16.3197C15.6414 16.3197 15.9666 15.9939 15.9666 15.5941H15.7666ZM23.2615 9.70266H20.0538V9.90266H23.2615V9.70266ZM20.0538 10.2556H23.2615V10.0556H20.0538V10.2556ZM25.9443 12.3856C25.9444 10.9061 24.7409 9.70266 23.2615 9.70266V9.90266C24.6305 9.90266 25.7444 11.0166 25.7443 12.3856L25.9443 12.3856ZM23.2615 10.2556C24.4355 10.2556 25.3914 11.2116 25.3914 12.3856L25.5914 12.3856C25.5914 11.1011 24.5459 10.0556 23.2615 10.0556V10.2556ZM25.9443 23.6154V12.3856H25.7443V23.6154H25.9443ZM25.3914 12.3856V23.6154H25.5914V12.3856H25.3914ZM23.2614 26.2983C24.7409 26.2983 25.9443 25.0948 25.9443 23.6154H25.7443C25.7443 24.9843 24.6304 26.0983 23.2614 26.0983V26.2983ZM25.3914 23.6154C25.3914 24.7894 24.4355 25.7454 23.2614 25.7454V25.9454C24.5459 25.9454 25.5914 24.8999 25.5914 23.6154H25.3914ZM18.4494 26.2983H23.2614V26.0983H18.4494V26.2983ZM23.2614 25.7454H18.4494V25.9454H23.2614V25.7454ZM17.3708 25.2197C17.3708 25.815 17.8529 26.2983 18.4494 26.2983V26.0983C17.9635 26.0983 17.5708 25.7047 17.5708 25.2197H17.3708ZM18.4494 25.7454C18.1587 25.7454 17.9237 25.51 17.9237 25.2197H17.7237C17.7237 25.6203 18.0481 25.9454 18.4494 25.9454V25.7454ZM18.4494 24.1411C17.8529 24.1411 17.3708 24.6245 17.3708 25.2197H17.5708C17.5708 24.7348 17.9635 24.3411 18.4494 24.3411V24.1411ZM17.9237 25.2197C17.9237 24.9295 18.1587 24.6941 18.4494 24.6941V24.4941C18.0481 24.4941 17.7237 24.8191 17.7237 25.2197H17.9237ZM23.2614 24.1411H18.4494V24.3411H23.2614V24.1411ZM18.4494 24.6941H23.2614V24.4941H18.4494V24.6941ZM23.787 23.6155C23.787 23.905 23.5513 24.1411 23.2614 24.1411V24.3411C23.6619 24.3411 23.987 24.0153 23.987 23.6155H23.787ZM23.2614 24.6941C23.8571 24.6941 24.34 24.21 24.34 23.6155H24.14C24.14 24.0997 23.7465 24.4941 23.2614 24.4941V24.6941ZM23.787 12.3856V23.6155H23.987V12.3856H23.787ZM24.34 23.6155V12.3856H24.14V23.6155H24.34ZM23.2614 11.8599C23.5513 11.8599 23.787 12.0961 23.787 12.3856H23.987C23.987 11.9858 23.6619 11.6599 23.2614 11.6599V11.8599ZM24.34 12.3856C24.34 11.7911 23.8571 11.307 23.2614 11.307V11.507C23.7465 11.507 24.14 11.9014 24.14 12.3856H24.34ZM20.8558 11.8599H23.2614V11.6599H20.8558V11.8599ZM23.2614 11.307H20.8558V11.507H23.2614V11.307ZM20.7558 11.407V11.7599H20.9558V11.407H20.7558ZM21.1323 18.1482V11.5835H20.9323V18.1482H21.1323ZM21.0323 11.4835H20.6794V11.6835H21.0323V11.4835ZM20.5794 11.5835V18.1482H20.7794V11.5835H20.5794ZM20.6794 18.2482H21.0323V18.0482H20.6794V18.2482ZM22.7366 20.407C22.7366 19.2398 21.9845 18.257 20.9487 17.8877L20.8816 18.0761C21.8418 18.4185 22.5366 19.3286 22.5366 20.407H22.7366ZM20.821 17.9483L20.7024 18.2808L20.8907 18.348L21.0093 18.0155L20.821 17.9483ZM20.763 18.4086C21.5898 18.7034 22.1837 19.4853 22.1837 20.407H22.3837C22.3837 19.3965 21.7326 18.542 20.8301 18.2202L20.763 18.4086ZM20.0538 23.0899C21.5332 23.0899 22.7366 21.8863 22.7366 20.407H22.5366C22.5366 21.7759 21.4227 22.8899 20.0538 22.8899V23.0899ZM22.1837 20.407C22.1837 21.581 21.2278 22.5369 20.0538 22.5369V22.7369C21.3383 22.7369 22.3837 21.6914 22.3837 20.407H22.1837ZM17.3709 20.407C17.3709 21.8864 18.5743 23.0899 20.0538 23.0899V22.8899C18.6848 22.8899 17.5709 21.776 17.5709 20.407H17.3709ZM20.0538 22.5369C18.8798 22.5369 17.9238 21.5811 17.9238 20.407H17.7238C17.7238 21.6915 18.7693 22.7369 20.0538 22.7369V22.5369ZM19.1588 17.8877C18.123 18.2571 17.3709 19.2399 17.3709 20.407H17.5709C17.5709 19.3287 18.2657 18.4186 19.226 18.0761L19.1588 17.8877ZM17.9238 20.407C17.9238 19.4854 18.5176 18.7034 19.3445 18.4084L19.2773 18.2201C18.3749 18.542 17.7238 19.3966 17.7238 20.407H17.9238ZM19.4051 18.2807L19.2866 17.9483L19.0982 18.0154L19.2167 18.3478L19.4051 18.2807ZM18.9752 10.7812V18.1481H19.1752V10.7812H18.9752ZM19.0752 18.2481H19.4281V18.0481H19.0752V18.2481ZM19.5281 18.1481V10.7812H19.3281V18.1481H19.5281ZM20.0538 9.70266C19.4572 9.70266 18.9752 10.186 18.9752 10.7812H19.1752C19.1752 10.2963 19.5679 9.90266 20.0538 9.90266V9.70266ZM19.5281 10.7812C19.5281 10.491 19.763 10.2556 20.0538 10.2556V10.0556C19.6524 10.0556 19.3281 10.3807 19.3281 10.7812H19.5281ZM20.0538 20.9326C19.7639 20.9326 19.5281 20.6964 19.5281 20.407H19.3281C19.3281 20.8067 19.6533 21.1326 20.0538 21.1326V20.9326ZM18.9752 20.407C18.9752 21.0014 19.4581 21.4856 20.0538 21.4856V21.2856C19.5687 21.2856 19.1752 20.8911 19.1752 20.407H18.9752ZM20.5794 20.407C20.5794 20.6964 20.3436 20.9326 20.0538 20.9326V21.1326C20.4542 21.1326 20.7794 20.8068 20.7794 20.407H20.5794ZM20.0538 21.4856C20.6494 21.4856 21.1323 21.0015 21.1323 20.407H20.9323C20.9323 20.8912 20.5388 21.2856 20.0538 21.2856V21.4856ZM20.0538 19.8813C20.3436 19.8813 20.5794 20.1175 20.5794 20.407H20.7794C20.7794 20.0072 20.4542 19.6813 20.0538 19.6813V19.8813ZM21.1323 20.407C21.1323 19.8126 20.6494 19.3284 20.0538 19.3284V19.5284C20.5388 19.5284 20.9323 19.9228 20.9323 20.407H21.1323ZM19.5281 20.407C19.5281 20.1175 19.7639 19.8813 20.0538 19.8813V19.6813C19.6533 19.6813 19.3281 20.0071 19.3281 20.407H19.5281ZM20.0538 19.3284C19.4581 19.3284 18.9752 19.8125 18.9752 20.407H19.1752C19.1752 19.9228 19.5687 19.5284 20.0538 19.5284V19.3284Z" fill="white" mask="url(#path-2-outside-1_1458_3173)"/>
</g>
<defs>
<clipPath id="clip0_1458_3173">
<rect width="35.2941" height="36" fill="white"/>
</clipPath>
</defs>
</svg>
