<svg width="37" height="37" viewBox="0 0 37 37" fill="none" xmlns="http://www.w3.org/2000/svg">
<g clip-path="url(#clip0_1411_2625)">
<mask id="mask0_1411_2625" style="mask-type:luminance" maskUnits="userSpaceOnUse" x="0" y="0" width="37" height="37">
<path d="M0.0419922 0.565434H36.042V36.5654H0.0419922V0.565434Z" fill="white"/>
</mask>
<g mask="url(#mask0_1411_2625)">
<path d="M33.4756 28.2905H2.6084C1.48227 28.2905 0.569336 27.3776 0.569336 26.2515V8.39321C0.569336 7.26702 1.48227 6.35415 2.6084 6.35415H33.4756C34.6017 6.35415 35.5146 7.26702 35.5146 8.39321V26.2515C35.5146 27.3776 34.6017 28.2905 33.4756 28.2905Z" stroke="black" stroke-width="0.8" stroke-miterlimit="10" stroke-linecap="round" stroke-linejoin="round"/>
<path d="M18.042 17.1348C17.6925 17.1348 17.4092 16.8515 17.4092 16.502C17.4092 16.1524 17.6925 15.8691 18.042 15.8691C18.3915 15.8691 18.6748 16.1524 18.6748 16.502C18.6748 16.8515 18.3915 17.1348 18.042 17.1348Z" fill="black"/>
<path d="M18.042 19.7256C17.6925 19.7256 17.4092 19.4423 17.4092 19.0928C17.4092 18.7433 17.6925 18.46 18.042 18.46C18.3915 18.46 18.6748 18.7433 18.6748 19.0928C18.6748 19.4423 18.3915 19.7256 18.042 19.7256Z" fill="black"/>
<path d="M6.72266 12.9805H8.48047" stroke="black" stroke-width="0.8" stroke-miterlimit="10" stroke-linecap="round" stroke-linejoin="round"/>
<path d="M6.72266 21.6641H8.48047" stroke="black" stroke-width="0.8" stroke-miterlimit="10" stroke-linecap="round" stroke-linejoin="round"/>
<path d="M9.6416 13.8618V16.5337" stroke="black" stroke-width="0.8" stroke-miterlimit="10" stroke-linecap="round" stroke-linejoin="round"/>
<path d="M5.56201 13.8618V16.5337" stroke="black" stroke-width="0.8" stroke-miterlimit="10" stroke-linecap="round" stroke-linejoin="round"/>
<path d="M9.6416 18.1108V20.7827" stroke="black" stroke-width="0.8" stroke-miterlimit="10" stroke-linecap="round" stroke-linejoin="round"/>
<path d="M5.56201 18.1108V20.7827" stroke="black" stroke-width="0.8" stroke-miterlimit="10" stroke-linecap="round" stroke-linejoin="round"/>
<path d="M12.8345 12.9805H14.5923" stroke="black" stroke-width="0.8" stroke-miterlimit="10" stroke-linecap="round" stroke-linejoin="round"/>
<path d="M12.8345 21.6641H14.5923" stroke="black" stroke-width="0.8" stroke-miterlimit="10" stroke-linecap="round" stroke-linejoin="round"/>
<path d="M15.7529 13.8618V16.5337" stroke="black" stroke-width="0.8" stroke-miterlimit="10" stroke-linecap="round" stroke-linejoin="round"/>
<path d="M11.6738 18.0967V20.7686" stroke="black" stroke-width="0.8" stroke-miterlimit="10" stroke-linecap="round" stroke-linejoin="round"/>
<path d="M12.8345 17.3223H14.5923" stroke="black" stroke-width="0.8" stroke-miterlimit="10" stroke-linecap="round" stroke-linejoin="round"/>
<path d="M2.95996 25.0562V9.58853C2.95996 9.1225 3.33775 8.74478 3.80371 8.74478H32.2803C32.7462 8.74478 33.124 9.1225 33.124 9.58853V25.0562C33.124 25.5221 32.7462 25.8999 32.2803 25.8999H3.80371C3.33775 25.8999 2.95996 25.5221 2.95996 25.0562Z" stroke="black" stroke-width="0.8" stroke-miterlimit="10" stroke-linecap="round" stroke-linejoin="round"/>
<path d="M26.8545 28.2905V30.0732C26.8545 30.4616 27.1693 30.7764 27.5576 30.7764H32.0455C32.4338 30.7764 32.7486 30.4616 32.7486 30.0732V28.2905H26.8545Z" stroke="black" stroke-width="0.8" stroke-miterlimit="10" stroke-linecap="round" stroke-linejoin="round"/>
<path d="M3.33545 28.2905V30.0732C3.33545 30.4616 3.65024 30.7764 4.03857 30.7764H8.52641C8.91475 30.7764 9.22954 30.4616 9.22954 30.0732V28.2905H3.33545Z" stroke="black" stroke-width="0.8" stroke-miterlimit="10" stroke-linecap="round" stroke-linejoin="round"/>
<path d="M21.4917 12.9805H23.2495" stroke="black" stroke-width="0.8" stroke-miterlimit="10" stroke-linecap="round" stroke-linejoin="round"/>
<path d="M21.4917 21.6641H23.2495" stroke="black" stroke-width="0.8" stroke-miterlimit="10" stroke-linecap="round" stroke-linejoin="round"/>
<path d="M24.4102 13.8618V16.5337" stroke="black" stroke-width="0.8" stroke-miterlimit="10" stroke-linecap="round" stroke-linejoin="round"/>
<path d="M20.3311 13.8618V16.5337" stroke="black" stroke-width="0.8" stroke-miterlimit="10" stroke-linecap="round" stroke-linejoin="round"/>
<path d="M24.4102 18.1108V20.7827" stroke="black" stroke-width="0.8" stroke-miterlimit="10" stroke-linecap="round" stroke-linejoin="round"/>
<path d="M20.3311 18.1108V20.7827" stroke="black" stroke-width="0.8" stroke-miterlimit="10" stroke-linecap="round" stroke-linejoin="round"/>
<path d="M27.6035 12.9805H29.3613" stroke="black" stroke-width="0.8" stroke-miterlimit="10" stroke-linecap="round" stroke-linejoin="round"/>
<path d="M27.6035 21.6641H29.3613" stroke="black" stroke-width="0.8" stroke-miterlimit="10" stroke-linecap="round" stroke-linejoin="round"/>
<path d="M30.522 13.8618V16.5337" stroke="black" stroke-width="0.8" stroke-miterlimit="10" stroke-linecap="round" stroke-linejoin="round"/>
<path d="M26.4424 13.8618V16.5337" stroke="black" stroke-width="0.8" stroke-miterlimit="10" stroke-linecap="round" stroke-linejoin="round"/>
<path d="M30.522 18.1108V20.7827" stroke="black" stroke-width="0.8" stroke-miterlimit="10" stroke-linecap="round" stroke-linejoin="round"/>
<path d="M26.4424 18.1108V20.7827" stroke="black" stroke-width="0.8" stroke-miterlimit="10" stroke-linecap="round" stroke-linejoin="round"/>
<path d="M6.72266 12.9805H8.48047" stroke="black" stroke-width="0.8" stroke-miterlimit="10" stroke-linecap="round" stroke-linejoin="round"/>
<path d="M6.72266 21.6641H8.48047" stroke="black" stroke-width="0.8" stroke-miterlimit="10" stroke-linecap="round" stroke-linejoin="round"/>
<path d="M9.6416 13.8618V16.5337" stroke="black" stroke-width="0.8" stroke-miterlimit="10" stroke-linecap="round" stroke-linejoin="round"/>
<path d="M5.56201 13.8618V16.5337" stroke="black" stroke-width="0.8" stroke-miterlimit="10" stroke-linecap="round" stroke-linejoin="round"/>
<path d="M9.6416 18.1108V20.7827" stroke="black" stroke-width="0.8" stroke-miterlimit="10" stroke-linecap="round" stroke-linejoin="round"/>
<path d="M5.56201 18.1108V20.7827" stroke="black" stroke-width="0.8" stroke-miterlimit="10" stroke-linecap="round" stroke-linejoin="round"/>
<path d="M12.8345 12.9805H14.5923" stroke="black" stroke-width="0.8" stroke-miterlimit="10" stroke-linecap="round" stroke-linejoin="round"/>
<path d="M12.8345 21.6641H14.5923" stroke="black" stroke-width="0.8" stroke-miterlimit="10" stroke-linecap="round" stroke-linejoin="round"/>
<path d="M15.7529 13.8618V16.5337" stroke="black" stroke-width="0.8" stroke-miterlimit="10" stroke-linecap="round" stroke-linejoin="round"/>
<path d="M11.6738 18.0967V20.7686" stroke="black" stroke-width="0.8" stroke-miterlimit="10" stroke-linecap="round" stroke-linejoin="round"/>
<path d="M12.8345 17.3223H14.5923" stroke="black" stroke-width="0.8" stroke-miterlimit="10" stroke-linecap="round" stroke-linejoin="round"/>
<path d="M21.4917 12.9805H23.2495" stroke="black" stroke-width="0.8" stroke-miterlimit="10" stroke-linecap="round" stroke-linejoin="round"/>
<path d="M21.4917 21.6641H23.2495" stroke="black" stroke-width="0.8" stroke-miterlimit="10" stroke-linecap="round" stroke-linejoin="round"/>
<path d="M24.4102 13.8618V16.5337" stroke="black" stroke-width="0.8" stroke-miterlimit="10" stroke-linecap="round" stroke-linejoin="round"/>
<path d="M20.3311 13.8618V16.5337" stroke="black" stroke-width="0.8" stroke-miterlimit="10" stroke-linecap="round" stroke-linejoin="round"/>
<path d="M24.4102 18.1108V20.7827" stroke="black" stroke-width="0.8" stroke-miterlimit="10" stroke-linecap="round" stroke-linejoin="round"/>
<path d="M20.3311 18.1108V20.7827" stroke="black" stroke-width="0.8" stroke-miterlimit="10" stroke-linecap="round" stroke-linejoin="round"/>
<path d="M27.6035 12.9805H29.3613" stroke="black" stroke-width="0.8" stroke-miterlimit="10" stroke-linecap="round" stroke-linejoin="round"/>
<path d="M27.6035 21.6641H29.3613" stroke="black" stroke-width="0.8" stroke-miterlimit="10" stroke-linecap="round" stroke-linejoin="round"/>
<path d="M30.522 13.8618V16.5337" stroke="black" stroke-width="0.8" stroke-miterlimit="10" stroke-linecap="round" stroke-linejoin="round"/>
<path d="M26.4424 13.8618V16.5337" stroke="black" stroke-width="0.8" stroke-miterlimit="10" stroke-linecap="round" stroke-linejoin="round"/>
<path d="M30.522 18.1108V20.7827" stroke="black" stroke-width="0.8" stroke-miterlimit="10" stroke-linecap="round" stroke-linejoin="round"/>
<path d="M26.4424 18.1108V20.7827" stroke="black" stroke-width="0.8" stroke-miterlimit="10" stroke-linecap="round" stroke-linejoin="round"/>
</g>
</g>
<defs>
<clipPath id="clip0_1411_2625">
<rect width="36" height="36" fill="white" transform="translate(0.0419922 0.56543)"/>
</clipPath>
</defs>
</svg>
