<svg width="37" height="37" viewBox="0 0 37 37" fill="none" xmlns="http://www.w3.org/2000/svg">
<g clip-path="url(#clip0_1412_3663)">
<path d="M25.6133 26.0231C29.7321 21.9044 29.7321 15.2265 25.6133 11.1077C21.4945 6.98896 14.8167 6.98896 10.6979 11.1077C6.57916 15.2265 6.57916 21.9044 10.6979 26.0231C14.8167 30.1419 21.4945 30.1419 25.6133 26.0231Z" stroke="black" stroke-miterlimit="10"/>
<path d="M19.647 20.057C20.4707 19.2332 20.4707 17.8976 19.647 17.0739C18.8232 16.2501 17.4877 16.2501 16.6639 17.0739C15.8401 17.8976 15.8401 19.2332 16.6639 20.057C17.4877 20.8807 18.8232 20.8807 19.647 20.057Z" stroke="black" stroke-miterlimit="10"/>
<path d="M13.6812 14.0908C16.1524 11.6195 20.1592 11.6195 22.6305 14.0908" stroke="black" stroke-miterlimit="10"/>
<path d="M13.6812 23.04C16.1524 25.5113 20.1592 25.5113 22.6305 23.04" stroke="black" stroke-miterlimit="10"/>
<path d="M33.9837 8.13177C35.4733 6.64215 35.4733 4.22699 33.9837 2.73737C32.4941 1.24775 30.0789 1.24775 28.5893 2.73737C27.0997 4.22699 27.0997 6.64215 28.5893 8.13177C30.0789 9.62139 32.4941 9.62139 33.9837 8.13177Z" stroke="black" stroke-miterlimit="10"/>
<path d="M28.5896 8.13184L25.6138 11.1077" stroke="black" stroke-miterlimit="10"/>
<path d="M7.72197 8.13177C9.21159 6.64215 9.21159 4.22699 7.72197 2.73737C6.23235 1.24775 3.81719 1.24775 2.32757 2.73737C0.837949 4.22699 0.837949 6.64215 2.32757 8.13177C3.81719 9.62139 6.23235 9.62139 7.72197 8.13177Z" stroke="black" stroke-miterlimit="10"/>
<path d="M7.72217 8.13184L10.698 11.1077" stroke="black" stroke-miterlimit="10"/>
<path d="M7.72197 34.393C9.21159 32.9034 9.21159 30.4882 7.72197 28.9986C6.23235 27.509 3.81719 27.509 2.32757 28.9986C0.837949 30.4882 0.837949 32.9034 2.32757 34.393C3.81719 35.8826 6.23235 35.8826 7.72197 34.393Z" stroke="black" stroke-miterlimit="10"/>
<path d="M7.72217 28.9988L10.698 26.0229" stroke="black" stroke-miterlimit="10"/>
<path d="M33.9837 34.3935C35.4733 32.9039 35.4733 30.4887 33.9837 28.9991C32.4941 27.5095 30.0789 27.5095 28.5893 28.9991C27.0997 30.4887 27.0997 32.9039 28.5893 34.3935C30.0789 35.8831 32.4941 35.8831 33.9837 34.3935Z" stroke="black" stroke-miterlimit="10"/>
<path d="M28.5896 28.9988L25.6138 26.0229" stroke="black" stroke-miterlimit="10"/>
</g>
<defs>
<clipPath id="clip0_1412_3663">
<rect width="36" height="36" fill="white" transform="translate(0.155762 0.56543)"/>
</clipPath>
</defs>
</svg>
