<svg width="37" height="37" viewBox="0 0 37 37" fill="none" xmlns="http://www.w3.org/2000/svg">
<g clip-path="url(#clip0_1410_724)">
<path d="M21.5686 24.2642V25.932C21.5686 26.0824 21.5081 26.2266 21.4012 26.3321C20.651 27.0753 20.1208 27.547 19.3537 28.3106C19.301 28.3634 19.2293 28.3936 19.1547 28.3936H17.4714C17.3969 28.3936 17.3252 28.3634 17.2725 28.3106C16.5054 27.547 15.9752 27.0753 15.225 26.3321C15.1181 26.2266 15.0576 26.0824 15.0576 25.932V24.2642" stroke="black" stroke-width="0.8" stroke-miterlimit="10" stroke-linecap="round" stroke-linejoin="round"/>
<path d="M15.6167 16.397V14.4585C15.6167 14.1484 15.8684 13.896 16.1792 13.896H20.4472C20.758 13.896 21.0097 14.1484 21.0097 14.4585V16.397" stroke="black" stroke-width="0.8" stroke-miterlimit="10" stroke-linecap="round" stroke-linejoin="round"/>
<path d="M19.7437 13.8959V11.186" stroke="black" stroke-width="0.8" stroke-miterlimit="10" stroke-linecap="round" stroke-linejoin="round"/>
<path d="M16.8823 13.8959V11.186" stroke="black" stroke-width="0.8" stroke-miterlimit="10" stroke-linecap="round" stroke-linejoin="round"/>
<path d="M20.5955 11.186H16.0308C15.8754 11.186 15.7495 11.0601 15.7495 10.9048V10.0029C15.7495 9.30395 16.3162 8.7373 17.0151 8.7373H19.6111C20.3101 8.7373 20.8768 9.30395 20.8768 10.0029V10.9048C20.8768 11.0601 20.7508 11.186 20.5955 11.186Z" stroke="black" stroke-width="0.8" stroke-miterlimit="10" stroke-linecap="round" stroke-linejoin="round"/>
<path d="M12.2448 24.2642V25.9327C12.2448 26.0824 12.1851 26.2259 12.0789 26.3313C11.3378 27.0661 10.3211 28.0378 10.0286 28.3156C9.97654 28.3655 9.90693 28.3936 9.83521 28.3936H8.1442C8.07178 28.3936 8.00287 28.3655 7.95014 28.3156C7.65834 28.0378 6.64092 27.0661 5.90053 26.3313C5.79365 26.2259 5.73389 26.0824 5.73389 25.9327V24.2642" stroke="black" stroke-width="0.8" stroke-miterlimit="10" stroke-linecap="round" stroke-linejoin="round"/>
<path d="M6.29297 16.397V14.4585C6.29297 14.1484 6.54539 13.896 6.85547 13.896H11.1234C11.4342 13.896 11.6859 14.1484 11.6859 14.4585V16.397" stroke="black" stroke-width="0.8" stroke-miterlimit="10" stroke-linecap="round" stroke-linejoin="round"/>
<path d="M10.4204 13.8959V11.186" stroke="black" stroke-width="0.8" stroke-miterlimit="10" stroke-linecap="round" stroke-linejoin="round"/>
<path d="M7.55859 13.8959V11.186" stroke="black" stroke-width="0.8" stroke-miterlimit="10" stroke-linecap="round" stroke-linejoin="round"/>
<path d="M11.2723 11.186H6.70752C6.5522 11.186 6.42627 11.0601 6.42627 10.9048V10.0029C6.42627 9.30395 6.99292 8.7373 7.69189 8.7373H10.2879C10.9869 8.7373 11.5535 9.30395 11.5535 10.0029V10.9048C11.5535 11.0601 11.4276 11.186 11.2723 11.186Z" stroke="black" stroke-width="0.8" stroke-miterlimit="10" stroke-linecap="round" stroke-linejoin="round"/>
<path d="M30.8918 24.2642V25.932C30.8918 26.0824 30.8313 26.2266 30.7245 26.3321C29.9742 27.0753 29.4441 27.547 28.677 28.3106C28.6235 28.3634 28.5525 28.3936 28.478 28.3936H26.7947C26.7202 28.3936 26.6484 28.3634 26.5957 28.3106C25.8279 27.547 25.2984 27.0753 24.5475 26.3321C24.4413 26.2266 24.3809 26.0824 24.3809 25.932V24.2642" stroke="black" stroke-width="0.8" stroke-miterlimit="10" stroke-linecap="round" stroke-linejoin="round"/>
<path d="M24.9399 16.397V14.4585C24.9399 14.1484 25.1917 13.896 25.5024 13.896H29.7704C30.0805 13.896 30.3329 14.1484 30.3329 14.4585V16.397" stroke="black" stroke-width="0.8" stroke-miterlimit="10" stroke-linecap="round" stroke-linejoin="round"/>
<path d="M29.0674 13.8959V11.186" stroke="black" stroke-width="0.8" stroke-miterlimit="10" stroke-linecap="round" stroke-linejoin="round"/>
<path d="M26.2056 13.8959V11.186" stroke="black" stroke-width="0.8" stroke-miterlimit="10" stroke-linecap="round" stroke-linejoin="round"/>
<path d="M29.9188 11.186H25.354C25.1987 11.186 25.0728 11.0601 25.0728 10.9048V10.0029C25.0728 9.30395 25.6394 8.7373 26.3384 8.7373H28.9344C29.6334 8.7373 30.2 9.30395 30.2 10.0029V10.9048C30.2 11.0601 30.0741 11.186 29.9188 11.186Z" stroke="black" stroke-width="0.8" stroke-miterlimit="10" stroke-linecap="round" stroke-linejoin="round"/>
<path d="M7.35252 16.397H4.77979C4.31432 16.397 3.93604 16.7746 3.93604 17.2407V23.4205C3.93604 23.8867 4.31432 24.2642 4.77979 24.2642H27.1624" stroke="black" stroke-width="0.8" stroke-miterlimit="10" stroke-linecap="round" stroke-linejoin="round"/>
<path d="M9.81348 16.397H31.8459C32.3114 16.397 32.6896 16.7746 32.6896 17.2407V23.4205C32.6896 23.8867 32.3114 24.2642 31.8459 24.2642H29.6233" stroke="black" stroke-width="0.8" stroke-miterlimit="10" stroke-linecap="round" stroke-linejoin="round"/>
<path d="M32.6899 18.1582H35.2233C35.5341 18.1582 35.7858 18.4099 35.7858 18.7207V21.941C35.7858 22.2518 35.5341 22.5035 35.2233 22.5035H32.6899" stroke="black" stroke-width="0.8" stroke-miterlimit="10" stroke-linecap="round" stroke-linejoin="round"/>
<path d="M3.93619 22.5035H1.40283C1.09205 22.5035 0.840332 22.2518 0.840332 21.941V18.7207C0.840332 18.4099 1.09205 18.1582 1.40283 18.1582H3.93619" stroke="black" stroke-width="0.8" stroke-miterlimit="10" stroke-linecap="round" stroke-linejoin="round"/>
<path d="M7.28369 20.3306H10.6954" stroke="black" stroke-width="0.8" stroke-miterlimit="10" stroke-linecap="round" stroke-linejoin="round"/>
<path d="M16.6069 20.3306H20.0186" stroke="black" stroke-width="0.8" stroke-miterlimit="10" stroke-linecap="round" stroke-linejoin="round"/>
<path d="M25.9307 20.3306H29.3424" stroke="black" stroke-width="0.8" stroke-miterlimit="10" stroke-linecap="round" stroke-linejoin="round"/>
</g>
<defs>
<clipPath id="clip0_1410_724">
<rect width="36" height="36" fill="white" transform="translate(0.312988 0.56543)"/>
</clipPath>
</defs>
</svg>
