<svg width="37" height="37" viewBox="0 0 37 37" fill="none" xmlns="http://www.w3.org/2000/svg">
<g clip-path="url(#clip0_1410_633)">
<path d="M21.7197 18.4951H18.9072V35.8623H21.7197V18.4951Z" stroke="black" stroke-width="0.7" stroke-miterlimit="10" stroke-linecap="round" stroke-linejoin="round"/>
<path d="M18.9072 18.4951H16.0947V35.8623H18.9072V18.4951Z" stroke="black" stroke-width="0.7" stroke-miterlimit="10" stroke-linecap="round" stroke-linejoin="round"/>
<path d="M16.0947 18.4951H13.2822V35.8623H16.0947V18.4951Z" stroke="black" stroke-width="0.7" stroke-miterlimit="10" stroke-linecap="round" stroke-linejoin="round"/>
<path d="M13.2822 18.4951H10.4697V35.8623H13.2822V18.4951Z" stroke="black" stroke-width="0.7" stroke-miterlimit="10" stroke-linecap="round" stroke-linejoin="round"/>
<path d="M22.4229 18.4951V15.6826L15.3916 15.6826V18.4951H22.4229Z" stroke="black" stroke-width="0.7" stroke-miterlimit="10" stroke-linecap="round" stroke-linejoin="round"/>
<path d="M30.5088 18.4951V15.6826L7.30566 15.6826V18.4951L30.5088 18.4951Z" stroke="black" stroke-width="0.7" stroke-miterlimit="10" stroke-linecap="round" stroke-linejoin="round"/>
<path d="M15.3916 11.1123H7.30566V15.6826H15.3916V11.1123Z" stroke="black" stroke-width="0.7" stroke-miterlimit="10" stroke-linecap="round" stroke-linejoin="round"/>
<path d="M30.5088 11.1123H22.4229V15.6826H30.5088V11.1123Z" stroke="black" stroke-width="0.7" stroke-miterlimit="10" stroke-linecap="round" stroke-linejoin="round"/>
<path d="M22.4229 8.2998H15.3916V15.6826H22.4229V8.2998Z" stroke="black" stroke-width="0.7" stroke-miterlimit="10" stroke-linecap="round" stroke-linejoin="round"/>
<path d="M27.3447 28.5674V35.8623H24.5322V18.4951H27.3447V22.2129" stroke="black" stroke-width="0.7" stroke-miterlimit="10" stroke-linecap="round" stroke-linejoin="round"/>
<circle cx="27.3447" cy="25.3857" r="0.703125" fill="black"/>
<path d="M24.5322 18.4951H21.7197V35.8623H24.5322V18.4951Z" stroke="black" stroke-width="0.7" stroke-miterlimit="10" stroke-linecap="round" stroke-linejoin="round"/>
<path d="M22.4229 1.26855H18.9072V8.2998H22.4229V1.26855Z" stroke="black" stroke-width="0.7" stroke-miterlimit="10" stroke-linecap="round" stroke-linejoin="round"/>
<path d="M18.9072 1.26855H15.3916V8.2998H18.9072V1.26855Z" stroke="black" stroke-width="0.7" stroke-miterlimit="10" stroke-linecap="round" stroke-linejoin="round"/>
<path d="M15.3916 1.26855H11.876V11.1123H15.3916V1.26855Z" stroke="black" stroke-width="0.7" stroke-miterlimit="10" stroke-linecap="round" stroke-linejoin="round"/>
<path d="M11.876 1.26855H8.36035V11.1123H11.876V1.26855Z" stroke="black" stroke-width="0.7" stroke-miterlimit="10" stroke-linecap="round" stroke-linejoin="round"/>
<path d="M29.4541 1.26855H25.9385V11.1123H29.4541V1.26855Z" stroke="black" stroke-width="0.7" stroke-miterlimit="10" stroke-linecap="round" stroke-linejoin="round"/>
<path d="M25.9385 1.26855H22.4229V11.1123H25.9385V1.26855Z" stroke="black" stroke-width="0.7" stroke-miterlimit="10" stroke-linecap="round" stroke-linejoin="round"/>
</g>
<defs>
<clipPath id="clip0_1410_633">
<rect width="36" height="36" fill="white" transform="translate(0.907227 0.56543)"/>
</clipPath>
</defs>
</svg>
