<svg width="36" height="36" viewBox="0 0 36 36" fill="none" xmlns="http://www.w3.org/2000/svg">
<g clip-path="url(#clip0_405_1219)">
<path fill-rule="evenodd" clip-rule="evenodd" d="M30.372 28.901C28.1166 28.901 26.3123 27.0761 26.3123 24.8207C26.3123 23.8365 26.6813 22.8728 27.3169 22.1347V13.5436C26.6813 12.8055 26.3123 11.8418 26.3123 10.8371C26.3123 8.58168 28.1166 6.77734 30.372 6.77734C32.6069 6.77734 34.4318 8.56117 34.4318 10.8166C34.4318 11.8008 34.0627 12.7645 33.3861 13.5436V22.0937C34.0627 22.8728 34.4318 23.8365 34.4318 24.8002C34.4318 27.0761 32.6069 28.901 30.372 28.901ZM30.372 7.74102C28.6702 7.74102 27.2964 9.13528 27.2964 10.8166C27.2964 11.6367 27.604 12.4364 28.1781 12.9695C28.2601 13.0515 28.3216 13.195 28.3216 13.3181V22.2782C28.3216 22.4012 28.2601 22.5243 28.1781 22.6063C27.604 23.2009 27.2964 23.98 27.2964 24.7797C27.2964 26.4815 28.6907 27.8348 30.372 27.8348C32.0738 27.8348 33.4476 26.4405 33.4476 24.7797C33.4476 23.98 33.1195 23.2009 32.5249 22.6063C32.4429 22.5243 32.3814 22.3807 32.3814 22.2782V13.3386C32.3814 13.195 32.4429 13.0925 32.5249 12.99C33.099 12.4364 33.4476 11.6367 33.4476 10.8371C33.4476 9.13528 32.0738 7.74102 30.372 7.74102Z" fill="black"/>
<path fill-rule="evenodd" clip-rule="evenodd" d="M30.3717 35.3186C30.0847 35.3186 29.8591 35.0931 29.8591 34.806V28.4088C29.8591 28.1218 30.0847 27.8962 30.3717 27.8962C30.6588 27.8962 30.8843 28.1218 30.8843 28.4088V34.806C30.8433 35.0931 30.6588 35.3186 30.3717 35.3186ZM30.3717 7.74098C30.0847 7.74098 29.8591 7.51544 29.8591 7.22839V0.831199C29.8591 0.544145 30.0847 0.318604 30.3717 0.318604C30.6588 0.318604 30.8843 0.544145 30.8843 0.831199V7.22839C30.8433 7.51544 30.6588 7.74098 30.3717 7.74098Z" fill="black"/>
<path fill-rule="evenodd" clip-rule="evenodd" d="M33.9602 24.9436H26.8249C26.5378 24.9436 26.3123 24.7181 26.3123 24.4311C26.3123 24.144 26.5378 23.9185 26.8249 23.9185H33.9602C34.2267 23.9185 34.4728 24.144 34.4728 24.4311C34.4728 24.7181 34.2062 24.9436 33.9602 24.9436Z" fill="black"/>
<path fill-rule="evenodd" clip-rule="evenodd" d="M32.8939 21.2735H27.809C27.5219 21.2735 27.2964 21.0479 27.2964 20.7609C27.2964 20.4738 27.5219 20.2483 27.809 20.2483H32.8939C33.181 20.2483 33.4065 20.4738 33.4065 20.7609C33.4065 21.0479 33.181 21.2735 32.8939 21.2735Z" fill="black"/>
<path fill-rule="evenodd" clip-rule="evenodd" d="M32.8939 18.8335H27.809C27.5219 18.8335 27.2964 18.608 27.2964 18.3209C27.2964 18.0339 27.5219 17.8083 27.809 17.8083H32.8939C33.181 17.8083 33.4065 18.0339 33.4065 18.3209C33.4065 18.608 33.181 18.8335 32.8939 18.8335Z" fill="black"/>
<path fill-rule="evenodd" clip-rule="evenodd" d="M32.8939 13.8306H27.809C27.5219 13.8306 27.2964 13.6051 27.2964 13.318C27.2964 13.031 27.5219 12.8054 27.809 12.8054H32.8939C33.181 12.8054 33.4065 13.031 33.4065 13.318C33.4065 13.6051 33.181 13.8306 32.8939 13.8306Z" fill="black"/>
<path fill-rule="evenodd" clip-rule="evenodd" d="M8.84344 21.9091C7.79775 21.9091 6.77255 21.499 5.9524 20.6993C4.35311 19.1205 4.35311 16.5166 5.9524 14.9378C6.69054 14.2201 7.61321 13.7896 8.6179 13.728L9.56107 12.8054L14.6665 7.65892C14.728 6.65423 15.1381 5.71105 15.8762 5.01392C16.6349 4.23478 17.6601 3.8042 18.7468 3.8042C19.813 3.8042 20.8382 4.23478 21.6173 5.01392C22.376 5.77256 22.8065 6.79776 22.8065 7.88446C22.8065 8.97116 22.376 9.97585 21.6173 10.755C20.9202 11.4726 19.9975 11.8827 18.9723 11.9442L12.9032 18.0133C12.8622 18.9975 12.4521 19.9407 11.714 20.6583C10.9143 21.499 9.88913 21.9091 8.84344 21.9091ZM18.7468 4.80889C17.9061 4.80889 17.1475 5.11644 16.5734 5.71105C15.9993 6.28516 15.6712 7.0643 15.6712 7.88446C15.6712 8.02798 15.6097 8.1305 15.5277 8.21252L10.2582 13.5025L9.192 14.5892C9.08949 14.6712 8.96646 14.7327 8.84344 14.7327C8.04379 14.7327 7.28515 15.0403 6.69054 15.6349C5.48081 16.8446 5.48081 18.8335 6.69054 20.0227C7.90026 21.2119 9.84813 21.2119 11.0579 20.0227C11.632 19.4486 11.9395 18.69 11.9395 17.8698C11.9395 17.7263 12.001 17.6033 12.083 17.5212L18.4187 11.1856C18.5212 11.1036 18.6443 11.042 18.7673 11.042C19.5669 11.042 20.3666 10.714 20.8997 10.1604C21.4943 9.56577 21.8018 8.78662 21.8018 7.96647C21.8018 7.14632 21.4943 6.36718 20.8997 5.81357C20.3256 5.15745 19.5669 4.80889 18.7468 4.80889Z" fill="black"/>
<path fill-rule="evenodd" clip-rule="evenodd" d="M1.7897 25.3743C1.68718 25.3743 1.54365 25.3127 1.44114 25.2307C1.2566 25.0257 1.2566 24.7181 1.44114 24.5131L5.97248 20.0023C6.17752 19.7972 6.48507 19.7972 6.69011 20.0023C6.87464 20.1868 6.87464 20.5149 6.69011 20.6994L2.15877 25.2307C2.05625 25.3127 1.91272 25.3743 1.7897 25.3743ZM21.2683 5.85463C21.1658 5.85463 21.0223 5.81362 20.9198 5.7111C20.7352 5.52657 20.7352 5.19851 20.9198 5.01397L25.4716 0.462128C25.6766 0.25709 25.9842 0.25709 26.1892 0.462128C26.3943 0.667166 26.3943 0.974723 26.1892 1.15926L21.6374 5.7111C21.5349 5.83413 21.4118 5.85463 21.2683 5.85463Z" fill="black"/>
<path fill-rule="evenodd" clip-rule="evenodd" d="M11.6517 20.5559C11.5492 20.5559 11.4057 20.5149 11.3237 20.4124L6.25925 15.3685C6.05421 15.1634 6.05421 14.8559 6.25925 14.6508C6.46429 14.4458 6.77184 14.4458 6.95638 14.6508L12.0208 19.7153C12.2259 19.8998 12.2259 20.2279 12.0208 20.4124C11.9183 20.5354 11.7748 20.5559 11.6517 20.5559Z" fill="black"/>
<path fill-rule="evenodd" clip-rule="evenodd" d="M13.4977 17.2342C13.3952 17.2342 13.2517 17.1727 13.1697 17.0907L9.56101 13.5025C9.35597 13.318 9.35597 12.9899 9.56101 12.8054C9.74554 12.6004 10.0736 12.6004 10.2581 12.8054L13.8668 16.3731C14.0718 16.5781 14.0718 16.8856 13.8668 17.0907C13.7643 17.1727 13.6413 17.2342 13.4977 17.2342Z" fill="black"/>
<path fill-rule="evenodd" clip-rule="evenodd" d="M15.2402 15.4915C15.1376 15.4915 14.9941 15.4505 14.8916 15.3685L11.2829 11.7393C11.0984 11.5548 11.0984 11.2267 11.2829 11.0422C11.488 10.8372 11.7955 10.8372 12.0006 11.0422L15.6092 14.6509C15.8143 14.8559 15.8143 15.1635 15.6092 15.3685C15.5067 15.471 15.3632 15.4915 15.2402 15.4915Z" fill="black"/>
<path fill-rule="evenodd" clip-rule="evenodd" d="M18.7665 11.9852C18.6435 11.9852 18.5205 11.9237 18.418 11.8417L14.8093 8.21248C14.6248 8.02795 14.6248 7.69989 14.8093 7.51535C15.0143 7.31031 15.3219 7.31031 15.5269 7.51535L19.1356 11.124C19.3406 11.3291 19.3406 11.6366 19.1356 11.8417C19.0331 11.9237 18.9101 11.9852 18.7665 11.9852Z" fill="black"/>
<path fill-rule="evenodd" clip-rule="evenodd" d="M21.1042 33.1862C20.4481 33.1862 19.8125 32.9607 19.3409 32.5711H14.1944C13.6818 32.9812 13.0872 33.1862 12.4516 33.1862C10.9548 33.1862 9.74512 31.956 9.74512 30.4797C9.74512 29.0034 10.9753 27.7937 12.4516 27.7937C13.1077 27.7937 13.7024 28.0192 14.1944 28.4088H19.3614C19.8535 28.0192 20.4686 27.7937 21.1247 27.7937C22.642 27.7937 23.8312 29.0034 23.8312 30.4797C23.8312 31.956 22.601 33.1862 21.1042 33.1862ZM14.0099 31.5459H19.5254C19.669 31.5459 19.792 31.5869 19.874 31.6894C20.1816 31.997 20.6121 32.161 21.0632 32.161C22.0064 32.161 22.7855 31.4024 22.7855 30.4592C22.7855 29.516 22.0064 28.7574 21.0632 28.7574C20.6121 28.7574 20.1816 28.9214 19.874 29.229C19.792 29.311 19.6485 29.3725 19.5254 29.3725H14.0099C13.9074 29.3725 13.7639 29.311 13.6818 29.229C13.4563 29.0034 13.0257 28.7164 12.4516 28.7164C11.4879 28.7164 10.7498 29.4545 10.7498 30.4387C10.7498 31.4024 11.4879 32.1405 12.4516 32.1405C13.0257 32.1405 13.4153 31.8535 13.6818 31.6279C13.7844 31.5869 13.9074 31.5459 14.0099 31.5459Z" fill="black"/>
<path fill-rule="evenodd" clip-rule="evenodd" d="M27.2758 30.9717H23.3186C23.0315 30.9717 22.806 30.7462 22.806 30.4591C22.806 30.1721 23.0315 29.9465 23.3186 29.9465H27.2758C27.5629 29.9465 27.7884 30.1721 27.7884 30.4591C27.7884 30.7462 27.5629 30.9717 27.2758 30.9717ZM10.2577 30.9717H6.32094C6.03389 30.9717 5.80835 30.7462 5.80835 30.4591C5.80835 30.1721 6.03389 29.9465 6.32094 29.9465H10.2577C10.5447 29.9465 10.7703 30.1721 10.7703 30.4591C10.7703 30.7462 10.5447 30.9717 10.2577 30.9717Z" fill="black"/>
<path fill-rule="evenodd" clip-rule="evenodd" d="M20.8786 33.1862C20.5915 33.1862 20.366 32.9607 20.366 32.6736V28.2653C20.366 27.9782 20.5915 27.7527 20.8786 27.7527C21.1656 27.7527 21.3912 27.9782 21.3912 28.2653V32.6736C21.3501 32.9607 21.1246 33.1862 20.8786 33.1862Z" fill="black"/>
<path fill-rule="evenodd" clip-rule="evenodd" d="M14.0094 32.53C13.7429 32.53 13.4968 32.3044 13.4968 32.0174V28.9008C13.4968 28.6137 13.7429 28.3882 14.0094 28.3882C14.2965 28.3882 14.522 28.6137 14.522 28.9008V32.0584C14.522 32.3249 14.2965 32.53 14.0094 32.53Z" fill="black"/>
<path fill-rule="evenodd" clip-rule="evenodd" d="M33.9602 35.3186H1.78969C1.50264 35.3186 1.2771 35.0931 1.2771 34.8061C1.2771 34.519 1.50264 34.2935 1.78969 34.2935H33.9602C34.2267 34.2935 34.4728 34.519 34.4728 34.8061C34.4728 35.0931 34.2062 35.3186 33.9602 35.3186Z" fill="black"/>
</g>
<defs>
<clipPath id="clip0_405_1219">
<rect width="35" height="35" fill="white" transform="translate(0.375 0.318604)"/>
</clipPath>
</defs>
</svg>
