<svg width="37" height="37" viewBox="0 0 37 37" fill="none" xmlns="http://www.w3.org/2000/svg">
<g clip-path="url(#clip0_1412_3648)">
<path d="M6.01367 23.11L17.1495 13.3413L12.022 8.21387V28.0754" stroke="black" stroke-linecap="round" stroke-linejoin="round"/>
<path d="M6.01367 13.3949L17.1495 23.1636L12.022 28.291V23.9736" stroke="black" stroke-linecap="round" stroke-linejoin="round"/>
<path d="M15.3593 33.5416H8.24955C4.59168 33.5416 1.62646 30.5763 1.62646 26.9186V10.2124C1.62646 6.55465 4.59168 3.58936 8.24955 3.58936H15.3593C19.0171 3.58936 21.9824 6.55457 21.9824 10.2124V26.9185C21.9823 30.5763 19.0171 33.5416 15.3593 33.5416Z" stroke="black" stroke-miterlimit="10" stroke-linecap="round" stroke-linejoin="round"/>
<path d="M25.854 21.9509C27.7238 20.081 27.7238 17.0495 25.854 15.1797" stroke="black" stroke-miterlimit="10" stroke-linecap="round" stroke-linejoin="round"/>
<path d="M29.022 25.1188C32.6412 21.4995 32.6412 15.6315 29.022 12.0122" stroke="black" stroke-miterlimit="10" stroke-linecap="round" stroke-linejoin="round"/>
<path d="M32.1924 28.2894C37.5629 22.9189 37.5629 14.2118 32.1924 8.84131" stroke="black" stroke-miterlimit="10" stroke-linecap="round" stroke-linejoin="round"/>
</g>
<defs>
<clipPath id="clip0_1412_3648">
<rect width="36" height="36" fill="white" transform="translate(0.92334 0.56543)"/>
</clipPath>
</defs>
</svg>
