<svg width="36" height="36" viewBox="0 0 36 36" fill="none" xmlns="http://www.w3.org/2000/svg">
<g clip-path="url(#clip0_405_1067)">
<path fill-rule="evenodd" clip-rule="evenodd" d="M7.6799 13.1198C7.6799 12.4731 8.11308 11.8181 8.98773 11.281C10.6022 10.2897 13.8507 9.58778 17.6011 9.58778C21.3514 9.58778 24.5999 10.2897 26.2144 11.281C27.089 11.8181 27.5222 12.4731 27.5222 13.1198V31.3062C27.5222 31.953 27.089 32.6079 26.2144 33.145C24.5999 34.1364 21.3514 34.8383 17.6011 34.8383C13.8507 34.8383 10.6022 34.1364 8.98773 33.145C8.11308 32.6079 7.6799 31.953 7.6799 31.3062V13.1198ZM26.4242 13.1198C26.4242 12.9243 26.2998 12.7495 26.116 12.5738C25.8443 12.3139 25.4445 12.078 24.9463 11.8616C23.2905 11.1427 20.6163 10.6858 17.6011 10.6858C14.5859 10.6858 11.9116 11.1427 10.2559 11.8616C9.7576 12.078 9.35784 12.3139 9.08615 12.5738C8.90229 12.7495 8.77794 12.9243 8.77794 13.1198C8.77794 13.3152 8.90229 13.49 9.08615 13.6658C9.35784 13.9256 9.7576 14.1615 10.2559 14.3778C11.9116 15.0968 14.5859 15.5537 17.6011 15.5537C20.6163 15.5537 23.2905 15.0968 24.9463 14.3778C25.4445 14.1615 25.8443 13.9256 26.116 13.6658C26.2998 13.49 26.4242 13.3152 26.4242 13.1198ZM26.4242 19.182V14.8216C26.3573 14.868 26.2874 14.9136 26.2144 14.9585C24.5999 15.9497 21.3514 16.6517 17.6011 16.6517C13.8507 16.6517 10.6022 15.9497 8.9878 14.9585C8.91478 14.9136 8.84485 14.868 8.77794 14.8216V19.182C8.77794 19.3774 8.90229 19.5522 9.08615 19.728C9.35784 19.9877 9.7576 20.2237 10.2559 20.44C11.9116 21.159 14.5859 21.6158 17.6011 21.6158C20.6163 21.6158 23.2905 21.159 24.9463 20.44C25.4445 20.2237 25.8443 19.9877 26.116 19.728C26.2998 19.5522 26.4242 19.3774 26.4242 19.182ZM26.4242 25.2441V20.8838C26.3573 20.9302 26.2874 20.9758 26.2144 21.0206C24.5999 22.012 21.3514 22.7139 17.6011 22.7139C13.8507 22.7139 10.6022 22.012 8.9878 21.0206C8.91478 20.9758 8.84485 20.9302 8.77794 20.8838V25.2441C8.77794 25.4396 8.90229 25.6143 9.08615 25.7901C9.35784 26.0499 9.7576 26.2859 10.2559 26.5022C11.9116 27.2211 14.5859 27.678 17.6011 27.678C20.6163 27.678 23.2905 27.2211 24.9463 26.5022C25.4445 26.2859 25.8443 26.0499 26.116 25.7901C26.2998 25.6143 26.4242 25.4396 26.4242 25.2441ZM8.77794 26.9459V31.3062C8.77794 31.5018 8.90229 31.6765 9.08615 31.8523C9.35784 32.1121 9.7576 32.3481 10.2559 32.5645C11.9116 33.2833 14.5859 33.7402 17.6011 33.7402C20.6163 33.7402 23.2905 33.2833 24.9463 32.5645C25.4445 32.3481 25.8443 32.1121 26.116 31.8523C26.2998 31.6765 26.4242 31.5018 26.4242 31.3062V26.9459C26.3573 26.9923 26.2874 27.038 26.2144 27.0828C24.5999 28.0742 21.3514 28.7761 17.6011 28.7761C13.8507 28.7761 10.6022 28.0742 8.98773 27.0828C8.91478 27.038 8.84485 26.9923 8.77794 26.9459ZM16.6625 25.745C16.3595 25.745 16.1135 25.4991 16.1135 25.1961C16.1135 24.893 16.3595 24.647 16.6625 24.647H18.5396C18.8426 24.647 19.0887 24.893 19.0887 25.1961C19.0887 25.4991 18.8426 25.745 18.5396 25.745H16.6625ZM16.6625 31.8072C16.3595 31.8072 16.1135 31.5613 16.1135 31.2582C16.1135 30.9552 16.3595 30.7092 16.6625 30.7092H18.5396C18.8426 30.7092 19.0887 30.9552 19.0887 31.2582C19.0887 31.5613 18.8426 31.8072 18.5396 31.8072H16.6625ZM16.6625 19.6829C16.3595 19.6829 16.1135 19.4368 16.1135 19.1339C16.1135 18.8308 16.3595 18.5848 16.6625 18.5848H18.5396C18.8426 18.5848 19.0887 18.8308 19.0887 19.1339C19.0887 19.4368 18.8426 19.6829 18.5396 19.6829H16.6625ZM18.4237 5.70271L19.0292 5.26274C19.2744 5.08465 19.618 5.13907 19.7961 5.38421C19.9742 5.62935 19.9198 5.97296 19.6747 6.15112L18.1973 7.22445C18.0049 7.36425 17.7444 7.36425 17.552 7.22445L16.0746 6.15112C15.8295 5.97296 15.7751 5.62935 15.9531 5.38421C16.1313 5.13907 16.4749 5.08465 16.7201 5.26274L17.3256 5.70271V1.34809C17.3256 1.0451 17.5717 0.799072 17.8746 0.799072C18.1776 0.799072 18.4237 1.0451 18.4237 1.34809V5.70271ZM27.1026 7.38662L30.9638 5.37398V1.34809C30.9638 1.0451 31.2098 0.799072 31.5128 0.799072C31.8158 0.799072 32.0618 1.0451 32.0618 1.34809V5.70696C32.0618 5.91154 31.948 6.09917 31.7666 6.19381L27.7121 8.30719L28.3412 8.58726C28.618 8.71051 28.7427 9.03533 28.6194 9.3121C28.4962 9.58894 28.1714 9.71357 27.8946 9.59039L26.2264 8.84763C26.0091 8.75087 25.8789 8.52522 25.9037 8.28873L26.0946 6.47264C26.1263 6.1713 26.3967 5.95238 26.698 5.98401C26.9994 6.01572 27.2183 6.28611 27.1866 6.58745L27.1026 7.38662ZM8.64666 7.38662L8.56266 6.58745C8.53102 6.28611 8.74994 6.01572 9.05128 5.98401C9.35263 5.95238 9.62302 6.1713 9.65473 6.47264L9.84558 8.28873C9.87042 8.52522 9.74017 8.75087 9.52289 8.84763L7.8547 9.59039C7.57785 9.71357 7.25311 9.58894 7.12985 9.3121C7.0066 9.03533 7.13129 8.71051 7.40807 8.58726L8.03718 8.30719L3.98274 6.19381C3.80128 6.09917 3.6875 5.91154 3.6875 5.70696V1.34809C3.6875 1.0451 3.93353 0.799072 4.23652 0.799072C4.53951 0.799072 4.78554 1.0451 4.78554 1.34809V5.37398L8.64666 7.38662Z" fill="black"/>
</g>
<defs>
<clipPath id="clip0_405_1067">
<rect width="35" height="35" fill="white" transform="translate(0.375 0.318604)"/>
</clipPath>
</defs>
</svg>
