<svg width="87" height="87" viewBox="0 0 87 87" fill="none" xmlns="http://www.w3.org/2000/svg">
<path d="M64.6679 65.0361C76.5413 53.1627 76.5413 33.9121 64.6679 22.0387C52.7945 10.1653 33.544 10.1653 21.6706 22.0387C9.79716 33.9121 9.79716 53.1627 21.6706 65.0361C33.544 76.9095 52.7945 76.9095 64.6679 65.0361Z" fill="white" stroke="#B3B3B3" stroke-width="0.972058" stroke-miterlimit="10"/>
<g clip-path="url(#clip0_3007_31)">
<path d="M42.3343 38.6481C42.591 38.9083 43.0177 38.8557 43.2128 38.5416L47.0532 32.3543C47.2293 32.0707 47.1566 31.6883 46.8909 31.5003C46.6255 31.3127 46.2673 31.3903 46.0912 31.6736L42.6304 37.2494L40.7073 35.3001C40.4762 35.0659 40.1111 35.0762 39.8914 35.3229C39.672 35.5696 39.6816 35.9594 39.9127 36.1936C39.9124 36.1936 42.3322 38.6462 42.3343 38.6481Z" fill="black"/>
<path d="M42.791 45.7348C42.8879 45.7792 42.9951 45.8027 43.1017 45.8027H43.106C43.2145 45.8021 43.3233 45.7773 43.4205 45.7309C51.1297 42.0645 52.4363 34.154 52.6528 31.8169C52.7024 31.2832 52.4019 30.7863 51.9053 30.5803C50.3706 29.9432 49.3273 28.5183 49.1826 26.8619C49.138 26.352 48.7023 25.9547 48.189 25.9547H48.1829L37.7967 26.0156C37.2731 26.0186 36.8477 26.4165 36.8075 26.9412C36.6797 28.5981 35.6518 30.0332 34.1248 30.6865C33.6331 30.8967 33.34 31.3962 33.396 31.9296C33.64 34.2641 35.0392 42.159 42.791 45.7348ZM34.5235 31.6186C36.3959 30.818 37.6572 29.0602 37.8175 27.0293L48.1739 26.9686C48.358 28.9949 49.6373 30.7366 51.5166 31.5166C51.6005 31.5518 51.6515 31.6347 51.6433 31.7234C51.44 33.9137 50.2235 41.299 43.0999 44.7599C35.9354 41.3832 34.6333 34.0122 34.4041 31.8243C34.3949 31.7358 34.4429 31.6532 34.5235 31.6186Z" fill="black"/>
<path d="M28.9768 51.8968C27.9879 51.8968 27.1831 52.7014 27.1831 53.6905C27.1831 54.6796 27.9879 55.4842 28.9768 55.4842C29.966 55.4842 30.7708 54.6796 30.7708 53.6905C30.7708 52.7014 29.9662 51.8968 28.9768 51.8968ZM28.9768 54.4702C28.5469 54.4702 28.1971 54.1206 28.1971 53.6905C28.1971 53.2606 28.5469 52.9108 28.9768 52.9108C29.407 52.9108 29.7568 53.2606 29.7568 53.6905C29.7568 54.1206 29.407 54.4702 28.9768 54.4702Z" fill="black"/>
<path d="M59.9704 46.9334C59.3206 45.9786 58.0122 45.7256 57.0539 46.3694L50.4262 50.8052L49.0114 50.7257L48.9753 50.3634C48.8342 48.9447 47.7498 47.8143 46.3382 47.6146C46.3292 47.6133 46.3205 47.6123 46.3115 47.6115L39.1699 46.9857C38.9283 46.9479 38.1549 46.7258 36.0298 45.507C34.9253 44.8735 33.6808 44.516 32.4165 44.4674V43.1411C32.4165 42.4754 31.8752 41.9341 31.2095 41.9341H26.9311C26.2657 41.9341 25.7241 42.4757 25.7241 43.1411V56.204C25.7241 56.8694 26.2657 57.411 26.9311 57.411H31.2095C31.875 57.411 32.4165 56.8694 32.4165 56.204V55.8441L38.6593 58.2082C38.673 58.2134 39.18 58.403 40.1121 58.3151C40.1147 58.3148 50.4848 56.8198 50.4848 56.8198C50.4875 56.8195 50.4899 56.819 50.4925 56.8185C51.3787 56.6772 52.2144 56.3025 52.9096 55.7356C52.916 55.7303 52.922 55.725 52.9281 55.7197L59.6274 49.6943C60.4169 48.9933 60.5645 47.8063 59.9704 46.9334ZM58.9517 48.9383L52.2595 54.9574C51.7056 55.4066 51.0407 55.7036 50.3362 55.8166L39.9711 57.3109C39.9687 57.3112 39.9653 57.3117 39.9621 57.3122C39.9605 57.3125 39.9587 57.3128 39.9571 57.313C39.6471 57.3619 39.3241 57.3413 38.997 57.2518L32.4165 54.7599V48.97C32.4165 48.6899 32.1894 48.463 31.9095 48.463C31.6294 48.463 31.4026 48.6899 31.4026 48.97V56.204C31.4026 56.3104 31.316 56.397 31.2095 56.397H26.9311C26.8247 56.397 26.7381 56.3104 26.7381 56.204V43.1411C26.7381 43.0347 26.8247 42.948 26.9311 42.948H31.2095C31.316 42.948 31.4026 43.0347 31.4026 43.1411V46.6799C31.4026 46.9601 31.6297 47.1869 31.9095 47.1869C32.1897 47.1869 32.4165 46.9598 32.4165 46.6799V45.4824C33.5042 45.5305 34.5741 45.841 35.5252 46.3868C38.0884 47.8568 38.8042 47.9582 39.0395 47.9914C39.0485 47.9928 39.0572 47.9936 39.0662 47.9946L46.2085 48.6204C47.1501 48.7596 47.872 49.5158 47.9663 50.4638L47.9932 50.7339L38.4311 51.3243C38.4245 51.3238 38.4179 51.3233 38.4121 51.3227C38.1021 51.2947 37.8222 51.1482 37.6234 50.91C37.4441 50.6948 37.1243 50.6658 36.9094 50.8453C36.6942 51.0246 36.6651 51.3444 36.8447 51.5593C37.2167 52.0056 37.7417 52.2725 38.3218 52.3327C38.635 52.3655 48.5509 51.7154 48.5509 51.7154L50.5387 51.8271C50.6486 51.8334 50.7576 51.8033 50.849 51.742L57.6187 47.2114C58.116 46.8774 58.7948 47.0084 59.132 47.5037C59.4402 47.9569 59.3636 48.5726 58.9517 48.9383Z" fill="black"/>
</g>
<path d="M66.6152 62.8976C70.9632 57.6388 73.5771 50.8927 73.5771 43.5352C73.5771 26.7439 59.9644 13.1321 43.1731 13.1321C39.4093 13.1321 35.8049 13.8165 32.4775 15.0665" stroke="#DFB853" stroke-width="4.86029" stroke-miterlimit="10"/>
<path d="M9.32357 31.9112C8.07253 35.5554 7.39307 39.466 7.39307 43.5351C7.39307 63.296 23.4126 79.3155 43.1735 79.3155C45.2469 79.3155 47.2795 79.1396 49.2557 78.8004" stroke="#B3B3B3" stroke-width="4.86029" stroke-miterlimit="10"/>
<defs>
<clipPath id="clip0_3007_31">
<rect width="34.6099" height="34.6099" fill="white" transform="translate(25.7241 24.8055)"/>
</clipPath>
</defs>
</svg>
