<svg width="72" height="71" viewBox="0 0 72 71" fill="none" xmlns="http://www.w3.org/2000/svg">
<path d="M29.295 63.2652C13.2092 60.6293 2.30584 45.4523 4.94171 29.3665C7.57758 13.2807 22.7545 2.37735 38.8404 5.01322C54.9262 7.6491 65.8295 22.826 63.1936 38.9119C60.5578 54.9977 45.3808 65.901 29.295 63.2652Z" fill="white" stroke="#B3B3B3" stroke-width="0.972058" stroke-miterlimit="10"/>
<g clip-path="url(#clip0_405_4788)">
<path d="M50.1448 40.259C50.155 40.2384 50.164 40.2173 50.1711 40.1956C52.2217 35.4629 51.8553 29.6608 49.192 25.2262C50.6138 23.5265 48.767 21.0924 46.7473 22.0342C46.3924 21.6715 46.0198 21.3239 45.6336 20.9952C46.3916 18.9347 43.8619 17.2444 42.2864 18.7839C37.7072 16.4716 32.0118 16.5009 27.4579 18.8621C25.8379 17.1454 23.1173 18.9861 24.0981 21.14C23.5364 21.6312 23.0047 22.1618 22.5144 22.723C22.0911 23.2074 22.858 23.8715 23.2784 23.3904C23.7344 22.8684 24.2286 22.3747 24.7506 21.9171C25.7599 22.6451 27.2235 22.2742 27.7772 21.163C29.6046 21.689 31.3497 22.4439 32.9758 23.4128C32.8397 23.9038 32.8952 24.452 33.1288 24.9052C31.7905 26.0613 30.5852 27.3691 29.5386 28.8024C28.5724 28.5104 27.5074 28.9991 27.0872 29.9141C24.9564 29.9255 22.819 30.1547 20.7205 30.5983C20.5352 30.253 20.2543 29.9668 19.9137 29.7752C20.308 28.2377 20.9325 26.7751 21.7736 25.4227C22.1088 24.8837 21.2628 24.3234 20.9122 24.8869C20.0179 26.3246 19.3537 27.8795 18.9336 29.5139C16.5037 29.5552 16.0957 32.9167 18.409 33.5634C18.3749 38.3476 20.4434 42.9989 24.0302 46.1674C23.282 48.1887 25.7111 49.8558 27.3142 48.4302C31.9926 50.9179 37.9053 50.9183 42.584 48.431C44.2144 50.0436 46.8258 48.2421 45.9074 46.134C47.7561 44.4911 49.1921 42.4817 50.1448 40.259ZM49.5057 39.1246C48.1017 37.7297 46.5652 36.4643 44.9247 35.3535C45.1577 34.6237 44.9552 33.8027 44.4112 33.2639C45.7906 30.9703 46.8736 28.5109 47.6359 25.9418C47.8899 25.9427 48.1341 25.8958 48.3591 25.811C50.6949 29.756 51.1221 34.8423 49.5057 39.1246ZM26.1654 44.8584C25.7385 40.6773 26.4876 36.506 28.3415 32.7365C29.4932 33.0959 30.738 32.3385 30.9617 31.1563C34.4591 31.5874 37.8275 32.6142 40.9885 34.2133C40.8365 34.8042 40.9624 35.4558 41.3245 35.9474C37.7614 40.4616 33.058 43.8583 27.6751 45.8052C27.3489 45.2887 26.8004 44.9273 26.1654 44.8584ZM41.9382 34.7273C41.9382 34.1525 42.4024 33.6849 42.973 33.6849C44.3457 33.7421 44.3453 35.7127 42.973 35.7696C42.4024 35.7696 41.9382 35.3021 41.9382 34.7273ZM48.6751 23.8851C48.6751 24.4599 48.2109 24.9274 47.6403 24.9274C46.2676 24.8703 46.2679 22.8997 47.6403 22.8427C48.2109 22.8427 48.6751 23.3103 48.6751 23.8851ZM45.9722 22.6927C45.2712 23.6777 45.5965 25.1016 46.6534 25.687C45.915 28.1652 44.8681 30.5375 43.5363 32.7502C43.2579 32.6702 42.9488 32.6503 42.6626 32.6941C41.2705 29.7215 39.245 27.044 36.7706 24.9053C37.0044 24.4519 37.0601 23.9046 36.9237 23.413C38.4899 22.4798 40.1676 21.7444 41.922 21.2217C42.505 22.3474 44.0692 22.6653 45.0403 21.8226C45.3621 22.0994 45.6737 22.3903 45.9722 22.6927ZM33.9149 23.9636C33.9149 23.3888 34.3792 22.9212 34.9497 22.9212C36.3225 22.9784 36.3221 24.9489 34.9497 25.0059C34.3792 25.0059 33.9149 24.5383 33.9149 23.9636ZM43.7257 19.204C44.2963 19.204 44.7605 19.6716 44.7605 20.2463C44.7036 21.6291 42.7476 21.6288 42.6909 20.2463C42.6909 19.6716 43.1551 19.204 43.7257 19.204ZM25.9435 21.2886C25.3729 21.2886 24.9087 20.821 24.9087 20.2463C24.9656 18.8634 26.9216 18.8639 26.9783 20.2463C26.9783 20.821 26.514 21.2886 25.9435 21.2886ZM27.9908 20.1685C27.9855 20.0277 27.9662 19.8906 27.934 19.7583C32.1799 17.5626 37.4842 17.5244 41.7628 19.6562C41.7078 19.8401 41.6777 20.0345 41.6767 20.2359C39.8314 20.7818 38.0669 21.5529 36.4196 22.5326C35.6278 21.7135 34.272 21.7133 33.4799 22.5325C31.7633 21.5115 29.9206 20.7178 27.9908 20.1685ZM33.8004 25.6655C34.4863 26.1336 35.413 26.1337 36.0989 25.6655C38.4613 27.7053 40.3966 30.2586 41.7296 33.0939C41.6393 33.1634 41.5549 33.2403 41.4772 33.3235C38.1446 31.6331 34.5881 30.5584 30.894 30.126C30.7942 29.8241 30.6268 29.553 30.4094 29.3311C31.4009 27.9843 32.5386 26.7542 33.8004 25.6655ZM28.9489 29.7296C29.5194 29.7296 29.9836 30.1972 29.9836 30.772C29.9267 32.1548 27.9707 32.1544 27.914 30.772C27.9141 30.1972 28.3783 29.7296 28.9489 29.7296ZM17.8802 31.5703C17.8802 30.9955 18.3445 30.528 18.915 30.528C20.2878 30.5851 20.2873 32.5557 18.915 32.6126C18.3445 32.6127 17.8802 32.1451 17.8802 31.5703ZM19.4233 33.563C19.4233 33.563 20.964 33.227 20.964 31.5837C20.964 31.5837 24.9173 30.9518 26.9063 30.9296C26.9436 31.421 27.1535 31.8644 27.4753 32.1991C25.4987 36.1757 24.7014 40.5845 25.1603 45.0025C24.9627 45.0849 24.7808 45.1975 24.62 45.3344C21.3108 42.37 19.4233 37.4031 19.4233 33.563ZM25.9435 47.9452C25.3729 47.9452 24.9087 47.4776 24.9087 46.9028C24.9087 46.3281 25.3729 45.8605 25.9435 45.8605C26.5064 45.8605 26.9783 46.3481 26.9783 46.9028C26.9783 47.4776 26.514 47.9452 25.9435 47.9452ZM34.9497 49.2894C32.488 49.2894 30.0536 48.6999 27.8779 47.5805C27.9662 47.3274 28.0052 47.039 27.988 46.7704C33.5564 44.7633 38.4223 41.2556 42.1085 36.5915C42.4113 36.7335 42.7474 36.7987 43.0812 36.7812C43.3066 37.6175 43.4846 38.4708 43.6108 39.324C43.7075 39.9771 44.7113 39.8312 44.6144 39.1756C44.4804 38.2697 44.2907 37.3636 44.0499 36.4761C44.1711 36.4007 44.2838 36.3127 44.3865 36.2143C46.0791 37.3634 47.6571 38.6825 49.0867 40.1424C48.2001 42.1023 46.9097 43.8769 45.2702 45.3433C45.1081 45.2216 44.9273 45.1237 44.7333 45.054C44.833 44.1111 44.8764 43.159 44.8618 42.2173C44.8515 41.5547 43.8371 41.5703 43.8475 42.233C43.8615 43.1382 43.8196 44.0534 43.7233 44.9598C42.527 45.15 41.7446 46.3905 42.0743 47.553C39.8849 48.6901 37.4316 49.2894 34.9497 49.2894ZM44.0451 48.0334C43.4745 48.0334 43.0103 47.5658 43.0103 46.991C43.0672 45.6082 45.0232 45.6086 45.0799 46.991C45.0799 47.5658 44.6157 48.0334 44.0451 48.0334Z" fill="black"/>
</g>
<path d="M11.322 52.5918C7.1004 47.4865 4.5643 40.9368 4.5643 33.7951C4.5643 17.4947 17.7784 4.27954 34.0798 4.27954C37.7338 4.27954 41.2332 4.94346 44.4634 6.15756" stroke="#DFB853" stroke-width="4.86029" stroke-miterlimit="10"/>
<path d="M66.9403 22.5105C68.1554 26.0488 68.8145 29.8447 68.8145 33.7951C68.8145 52.9787 53.2625 68.5306 34.079 68.5306C32.0658 68.5306 30.0935 68.3596 28.1737 68.031" stroke="#B3B3B3" stroke-width="4.86029" stroke-miterlimit="10"/>
<defs>
<clipPath id="clip0_405_4788">
<rect width="34.6099" height="34.6099" fill="white" transform="translate(16.8755 16.3783)"/>
</clipPath>
</defs>
</svg>
