<svg width="72" height="71" viewBox="0 0 72 71" fill="none" xmlns="http://www.w3.org/2000/svg">
<path d="M42.4545 63.2653C58.5403 60.6294 69.4437 45.4525 66.8078 29.3666C64.1719 13.2808 48.995 2.37747 32.9092 5.01335C16.8233 7.64922 5.92 22.8261 8.55587 38.912C11.1917 54.9978 26.3687 65.9011 42.4545 63.2653Z" fill="white" stroke="#B3B3B3" stroke-width="0.972058" stroke-miterlimit="10"/>
<path d="M40.8002 18.3696C39.5701 18.3755 38.6844 18.9568 37.9814 19.4781C37.1835 20.0795 36.4841 20.6697 35.8442 21.2525H22.8183C21.8695 21.2525 21.0889 22.0366 21.0889 22.9853V33.3671C21.0889 34.3158 21.8695 35.0953 22.8182 35.0953H42.4304C43.3792 35.0953 44.1643 34.3158 44.1643 33.3671V29.9049H45.8926C46.3531 29.9649 48.4381 29.163 49.3029 28.909C49.6499 28.8049 49.9772 28.7513 49.9293 28.7513C49.9281 29.0716 50.1881 29.3316 50.5084 29.3303H55.1196C55.44 29.3316 55.6999 29.0716 55.6987 28.7513V19.5254C55.7006 19.2047 55.4403 18.944 55.1196 18.9452H50.5084C50.2 18.9443 49.9455 19.186 49.9304 19.4939L41.3489 18.4045C41.1587 18.38 40.976 18.3687 40.8002 18.3696ZM40.8217 19.5299C40.9421 19.5291 41.0689 19.5345 41.2047 19.5457L49.9292 20.6577V27.5965C49.5928 27.5965 49.3456 27.6894 48.9716 27.8016C47.8011 28.1759 46.1589 28.7331 45.8926 28.7513H41.2768C40.9473 28.7513 40.7022 28.5063 40.7022 28.1767C40.7022 27.8472 40.9472 27.5965 41.2768 27.5965H44.7389C45.0576 27.5978 45.3169 27.3406 45.318 27.0219C45.3193 26.7016 45.0593 26.4416 44.7389 26.4429H44.1643V22.9853C44.1643 22.0365 43.3792 21.2525 42.4304 21.2525H37.5995C37.9395 20.9701 38.2937 20.6851 38.6754 20.3975C39.469 19.8359 39.9788 19.536 40.8217 19.5299ZM51.083 20.1H54.545V28.1768H51.0829L51.083 20.1ZM22.8183 22.4062H23.9742C23.9742 23.3676 23.2046 24.1382 22.2437 24.1401V22.9853C22.2437 22.6558 22.4887 22.4062 22.8183 22.4062ZM25.1278 22.4062C30.7469 22.4091 35.0076 22.4062 40.1232 22.4062C40.1232 23.9923 41.4236 25.2937 43.0096 25.2937V26.4429H41.2768C40.3281 26.4429 39.5486 27.2281 39.5486 28.1768C39.5486 29.1255 40.3281 29.9051 41.2768 29.9051H43.0096V31.0587C41.4235 31.0587 40.1232 32.3602 40.1232 33.9463H25.1278C25.1278 32.3614 23.8282 31.0606 22.2437 31.0587V25.2937C23.8282 25.2919 25.1278 23.9911 25.1278 22.4062ZM41.2768 22.4062H42.4305C42.76 22.4062 43.0096 22.6558 43.0096 22.9853V24.1401C42.047 24.1401 41.2768 23.3688 41.2768 22.4062ZM32.6244 24.7158C30.7198 24.7158 29.1623 26.2722 29.1623 28.1767C29.1623 30.0813 30.7198 31.6377 32.6244 31.6377C34.529 31.6377 36.0865 30.0813 36.0865 28.1767C36.0865 26.2722 34.529 24.7158 32.6244 24.7158ZM32.6244 25.8694C33.9055 25.8694 34.9317 26.8957 34.9317 28.1767C34.9317 29.4578 33.9055 30.4841 32.6244 30.4841C31.3433 30.4841 30.3159 29.4578 30.3159 28.1767C30.3159 26.8957 31.3433 25.8694 32.6244 25.8694ZM52.8145 25.8694C52.496 25.8694 52.2377 26.1265 52.2377 26.4451C52.2377 26.7637 52.496 27.0219 52.8145 27.0219C53.1331 27.0219 53.3914 26.7637 53.3914 26.4451C53.3914 26.1265 53.1332 25.8694 52.8145 25.8694ZM22.2437 32.2123C23.2046 32.2142 23.9742 32.9848 23.9742 33.9462H22.8183C22.4888 33.9462 22.2437 33.6967 22.2437 33.3671V32.2123ZM43.0096 32.2123V33.3671C43.0096 33.6967 42.76 33.9462 42.4305 33.9462H41.2768C41.2768 32.9836 42.047 32.2123 43.0096 32.2123ZM37.755 41.4428C35.7344 41.4475 33.6208 41.4441 32.0363 41.4428C30.8747 41.3835 28.5124 43.1078 27.4341 43.1732H26.8595C26.8582 42.8543 26.5982 42.5969 26.2793 42.5987H21.6635C21.3466 42.6 21.0902 42.8564 21.0889 43.1732V52.4003C21.0876 52.7188 21.3449 52.9781 21.6635 52.9794H26.2793C26.6001 52.9812 26.8607 52.721 26.8595 52.4003H27.434C30.1781 52.5365 32.7131 52.9638 35.5119 52.9794C36.4877 52.9794 37.6037 52.4443 38.9097 51.7108C40.2158 50.9773 41.6593 50.012 43.0095 49.0497C44.7337 47.8239 46.4185 46.527 48.0511 45.1955C48.7585 44.5868 49.2429 43.7059 48.9074 42.6663C48.7309 42.1032 48.2628 41.7213 47.7785 41.5723C47.2942 41.4234 46.7877 41.451 46.3139 41.5847L39.7694 43.4166C39.7452 42.3291 38.8497 41.4401 37.755 41.4428ZM37.755 44.3258H33.2046C32.8861 44.3245 32.6268 44.5818 32.6255 44.9003C32.6242 45.2207 32.8843 45.4807 33.2046 45.4794H37.755C38.3711 45.4794 38.9193 45.1919 39.2906 44.7516L46.6249 42.6966C47.1949 42.5402 47.7001 42.6482 47.8045 43.0109C47.9436 43.5122 47.7973 43.8877 47.2975 44.3206C47.2888 44.3295 44.9926 46.2196 42.337 48.1123C41.0066 49.0604 39.5884 50.0064 38.3431 50.7058C37.0978 51.4051 35.9783 51.8256 35.5119 51.8256C32.7106 51.7469 30.0132 51.3952 27.434 51.251H26.8594V44.3268H27.434C28.6988 44.3419 31.0861 42.6344 32.0362 42.5963C33.6271 42.5979 35.7365 42.6011 37.7549 42.5963C38.2429 42.5952 38.6202 42.9725 38.6202 43.4604C38.6155 44.0137 38.167 44.3307 37.755 44.3258ZM22.2437 43.7478H25.7047V51.8256H22.2437V43.7478ZM23.973 44.9037C23.6545 44.9037 23.3962 45.162 23.3962 45.4806C23.3962 45.7991 23.6545 46.0574 23.973 46.0574C24.2916 46.0574 24.5499 45.7991 24.5499 45.4806C24.5499 45.1619 24.2916 44.9037 23.973 44.9037Z" fill="black"/>
<path d="M60.7141 52.5919C64.9357 47.4867 67.4718 40.9369 67.4718 33.7952C67.4718 17.4948 54.2577 4.27966 37.9563 4.27966C34.3023 4.27966 30.8029 4.94358 27.5728 6.15768" stroke="#DFB853" stroke-width="4.86029" stroke-miterlimit="10"/>
<path d="M5.09579 22.5106C3.88071 26.0489 3.22168 29.8448 3.22168 33.7952C3.22168 52.9788 18.7736 68.5308 37.9572 68.5308C39.9703 68.5308 41.9426 68.3597 43.8624 68.0311" stroke="#B3B3B3" stroke-width="4.86029" stroke-miterlimit="10"/>
</svg>
