<svg width="75" height="75" viewBox="0 0 75 75" fill="none" xmlns="http://www.w3.org/2000/svg">
<path d="M40.0911 66.899C57.6244 66.899 71.8379 52.6854 71.8379 35.1521C71.8379 17.6188 57.6244 3.40527 40.0911 3.40527C22.5578 3.40527 8.34424 17.6188 8.34424 35.1521C8.34424 52.6854 22.5578 66.899 40.0911 66.899Z" fill="white" stroke="#B3B3B3" stroke-width="0.972058" stroke-miterlimit="10"/>
<g clip-path="url(#clip0_3007_30)">
<path d="M40.9718 38.0609C41.5723 38.0142 42.1197 37.7079 42.4751 37.2193L47.8759 29.7528C48.0415 29.5238 48.0167 29.2077 47.8159 29.007C47.6152 28.8068 47.2991 28.782 47.0701 28.947L39.6025 34.3496C39.1156 34.7037 38.8093 35.2512 38.7626 35.8516C38.7159 36.4521 38.9333 37.0399 39.3585 37.465C39.7455 37.8527 40.2675 38.0672 40.8103 38.0672C40.864 38.0672 40.9176 38.0649 40.9718 38.0609ZM39.9128 35.9416C39.933 35.678 40.068 35.4375 40.2802 35.2829L44.8355 31.9874L41.5412 36.5415C41.3854 36.7555 41.1449 36.8899 40.8813 36.9107C40.6188 36.928 40.361 36.8369 40.1735 36.6494C39.9878 36.4631 39.892 36.2047 39.9128 35.9416Z" fill="black"/>
<path d="M53.8926 27.4328C53.8868 27.4207 53.8868 27.408 53.8805 27.3958C53.8736 27.3843 53.8626 27.378 53.8551 27.367C53.2719 26.3668 52.582 25.4364 51.7987 24.593L53.0377 23.3546L53.8534 24.1702L56.3003 21.7227L53.8534 19.2758L51.4059 21.7227L52.2221 22.5389L50.9831 23.7774C50.1397 22.9941 49.2099 22.3036 48.2091 21.7204C48.1981 21.7129 48.1918 21.702 48.1802 21.695C48.1681 21.6881 48.1554 21.6887 48.1433 21.6823C46.3592 20.6544 44.3547 19.9697 42.2175 19.7188V19.0318H43.0828C43.8782 19.0318 44.5248 18.3852 44.5248 17.5897C44.5248 16.7943 43.8776 16.1476 43.0822 16.1476H37.8907C37.0953 16.1476 36.4486 16.7943 36.4486 17.5897C36.4486 18.3852 37.0953 19.0318 37.8907 19.0318H38.756V19.6986C38.133 19.765 37.5112 19.8665 36.8963 20.0072C36.5859 20.0782 36.3915 20.3879 36.4631 20.6983C36.534 21.0086 36.8438 21.2036 37.1541 21.1315C37.6848 21.0098 38.2207 20.918 38.7577 20.8563L39.3766 20.8084C39.5658 20.794 39.74 20.7836 39.9096 20.7756V21.916C39.9096 22.2349 40.1675 22.4928 40.4865 22.4928C40.8054 22.4928 41.0633 22.2349 41.0633 21.916V20.7796C43.2327 20.8794 45.277 21.462 47.0946 22.4207L46.5259 23.4053C46.3667 23.6816 46.4613 24.0341 46.737 24.1933C46.8276 24.2458 46.9268 24.2706 47.0248 24.2706C47.2244 24.2706 47.4182 24.1673 47.5249 23.9822L48.092 22.9998C49.8969 24.1448 51.4301 25.678 52.5751 27.483L51.5928 28.05C51.3176 28.2092 51.223 28.5616 51.3828 28.8379C51.4901 29.0231 51.6833 29.1263 51.8829 29.1263C51.981 29.1263 52.0802 29.1015 52.1707 29.049L53.1554 28.4803C54.1274 30.3238 54.7117 32.4016 54.7988 34.6057H53.6595C53.3406 34.6057 53.0827 34.8635 53.0827 35.1825C53.0827 35.5015 53.3406 35.7593 53.6595 35.7593H54.7988C54.7117 37.9634 54.1274 40.0411 53.1554 41.8847L52.1707 41.3159C51.895 41.1567 51.542 41.2502 51.3828 41.5271C51.2236 41.8034 51.3182 42.1558 51.5939 42.315L52.5763 42.882C51.4312 44.6869 49.898 46.2202 48.0931 47.3652L47.5261 46.3828C47.3663 46.1059 47.0127 46.0119 46.7381 46.1717C46.4618 46.3309 46.3672 46.6839 46.527 46.9597L47.0958 47.9443C45.2782 48.903 43.2339 49.4856 41.0644 49.5854V48.4502C41.0644 48.1312 40.8066 47.8734 40.4876 47.8734C40.1686 47.8734 39.9108 48.1312 39.9108 48.4502V49.59C38.9896 49.5583 38.0655 49.4429 37.1558 49.2341C36.8455 49.1597 36.5357 49.357 36.4648 49.6673C36.3933 49.9776 36.5877 50.2874 36.898 50.3583C38.0493 50.6237 39.2255 50.7575 40.3924 50.7575C40.4207 50.7575 40.4478 50.7558 40.4761 50.7552C40.4801 50.7552 40.483 50.7575 40.4865 50.7575C40.4911 50.7575 40.4951 50.7546 40.4997 50.7546C43.2725 50.7356 45.8741 49.9869 48.1249 48.6936C48.1427 48.6855 48.1618 48.6815 48.1791 48.6711C48.1906 48.6642 48.197 48.6532 48.2079 48.6457C50.5377 47.2879 52.4845 45.3434 53.8453 43.0153C53.8562 42.9997 53.8701 42.9876 53.8799 42.9703C53.8868 42.9582 53.8862 42.9455 53.892 42.9334C55.2095 40.6491 55.9669 38.0038 55.9669 35.1831C55.9669 32.3624 55.2095 29.717 53.8926 27.4328ZM53.8528 20.9071L54.6684 21.7227L53.8528 22.5389L53.0366 21.7227L53.8528 20.9071ZM39.9096 19.6207V17.8781H37.8907C37.7321 17.8781 37.6023 17.7484 37.6023 17.5897C37.6023 17.4311 37.7321 17.3013 37.8907 17.3013H43.0822C43.2408 17.3013 43.3706 17.4311 43.3706 17.5897C43.3706 17.7484 43.2408 17.8781 43.0822 17.8781H41.0633V19.6207C40.8625 19.6127 40.671 19.6086 40.4865 19.6086C40.4703 19.6086 40.4518 19.6098 40.4357 19.6098C40.4213 19.6098 40.4069 19.6086 40.3924 19.6086C40.2978 19.6086 40.2032 19.615 40.1086 19.6167C40.0417 19.6184 39.9788 19.6179 39.9096 19.6207Z" fill="black"/>
<path d="M35.2955 24.2233H32.4113C32.0923 24.2233 31.8345 24.4812 31.8345 24.8002C31.8345 25.1191 32.0923 25.377 32.4113 25.377H35.2955C35.6144 25.377 35.8723 25.1191 35.8723 24.8002C35.8723 24.4812 35.6144 24.2233 35.2955 24.2233Z" fill="black"/>
<path d="M35.2953 28.2611H29.527C29.208 28.2611 28.9502 28.519 28.9502 28.8379C28.9502 29.1569 29.208 29.4148 29.527 29.4148H35.2953C35.6143 29.4148 35.8722 29.1569 35.8722 28.8379C35.8722 28.519 35.6143 28.2611 35.2953 28.2611Z" fill="black"/>
<path d="M35.2952 32.2989H26.6427C26.3238 32.2989 26.0659 32.5567 26.0659 32.8757C26.0659 33.1947 26.3238 33.4526 26.6427 33.4526H35.2952C35.6142 33.4526 35.872 33.1947 35.872 32.8757C35.872 32.5567 35.6142 32.2989 35.2952 32.2989Z" fill="black"/>
<path d="M35.2954 36.3368H24.3356C24.0166 36.3368 23.7588 36.5946 23.7588 36.9136C23.7588 37.2326 24.0166 37.4905 24.3356 37.4905H35.2954C35.6144 37.4905 35.8722 37.2326 35.8722 36.9136C35.8722 36.5946 35.6144 36.3368 35.2954 36.3368Z" fill="black"/>
<path d="M35.2958 40.3747H27.797C27.4781 40.3747 27.2202 40.6325 27.2202 40.9515C27.2202 41.2705 27.4781 41.5284 27.797 41.5284H35.2958C35.6148 41.5284 35.8727 41.2705 35.8727 40.9515C35.8727 40.6325 35.6148 40.3747 35.2958 40.3747Z" fill="black"/>
<path d="M35.2958 44.4125H31.258C30.939 44.4125 30.6812 44.6703 30.6812 44.9893C30.6812 45.3083 30.939 45.5661 31.258 45.5661H35.2958C35.6148 45.5661 35.8726 45.3083 35.8726 44.9893C35.8726 44.6703 35.6148 44.4125 35.2958 44.4125Z" fill="black"/>
</g>
<path d="M64.597 55.1162C69.1375 49.6251 71.8661 42.5796 71.8661 34.8974C71.8661 17.3635 57.6517 3.14905 40.1177 3.14905C36.1867 3.14905 32.4229 3.86351 28.9487 5.16899" stroke="#DFB853" stroke-width="4.86029" stroke-miterlimit="10"/>
<path d="M4.77045 22.7593C3.464 26.5649 2.75439 30.6485 2.75439 34.8974C2.75439 55.5322 19.4826 72.2604 40.1174 72.2604C42.2822 72.2604 44.4042 72.0766 46.4688 71.7228" stroke="#B3B3B3" stroke-width="4.86029" stroke-miterlimit="10"/>
<defs>
<clipPath id="clip0_3007_30">
<rect width="34.6099" height="34.6099" fill="white" transform="translate(22.7246 16.1478)"/>
</clipPath>
</defs>
</svg>
