<svg width="77" height="77" viewBox="0 0 77 77" fill="none" xmlns="http://www.w3.org/2000/svg">
<path d="M32.1537 68.2285C14.8212 65.5826 2.91536 49.3869 5.56126 32.0544C8.20717 14.7219 24.4029 2.81607 41.7354 5.46197C59.0679 8.10788 70.9737 24.3036 68.3278 41.6361C65.6819 58.9686 49.4862 70.8744 32.1537 68.2285Z" fill="white" stroke="#B3B3B3" stroke-width="0.972058" stroke-miterlimit="10"/>
<path d="M12.4386 57.0533C7.89814 51.5621 5.16958 44.5166 5.16958 36.8345C5.16958 19.3005 19.384 5.08606 36.9179 5.08606C40.8489 5.08606 44.6128 5.80052 48.0869 7.106" stroke="#DFB853" stroke-width="4.86029" stroke-miterlimit="10"/>
<path d="M72.2652 24.6961C73.5716 28.5017 74.2812 32.5853 74.2812 36.8342C74.2812 57.469 57.5531 74.1972 36.9182 74.1972C34.7535 74.1972 32.6315 74.0135 30.5668 73.6596" stroke="#B3B3B3" stroke-width="4.86029" stroke-miterlimit="10"/>
<g clip-path="url(#clip0_405_4817)">
<path d="M25.6012 24.2514H25.593C24.3412 24.2697 23.323 25.3036 23.323 26.556V29.8493H19.924C19.6426 29.8493 19.4146 30.0774 19.4146 30.3588C19.4146 30.6401 19.6426 30.8682 19.924 30.8682H23.3231V33.5465H19.924C19.6426 33.5465 19.4146 33.7746 19.4146 34.0559C19.4146 34.3373 19.6426 34.5653 19.924 34.5653H23.3231V37.2436H19.924C19.6426 37.2437 19.4146 37.4718 19.4146 37.7531C19.4146 38.0344 19.6426 38.2625 19.924 38.2625H23.3231V40.9408H19.924C19.6426 40.9408 19.4146 41.1689 19.4146 41.4502C19.4146 41.7315 19.6426 41.9596 19.924 41.9596H23.3231V44.638H19.924C19.6426 44.638 19.4146 44.866 19.4146 45.1474C19.4146 45.4287 19.6426 45.6568 19.924 45.6568H23.3231V47.3988C23.3231 47.68 23.5513 47.9082 23.8325 47.9082C24.1137 47.9082 24.3419 47.68 24.3419 47.3988V26.5561C24.3419 25.8571 24.9097 25.2805 25.6087 25.2696C25.8899 25.2656 26.1147 25.0346 26.11 24.7527C26.1059 24.4742 25.879 24.2514 25.6012 24.2514Z" fill="black"/>
<path d="M47.1408 50.0253H25.6283C25.1033 50.0253 24.636 49.7115 24.437 49.2258C24.3303 48.965 24.0335 48.8407 23.7727 48.9473C23.5119 49.0539 23.3876 49.3514 23.4942 49.6116C23.8501 50.4817 24.6877 51.044 25.6283 51.044H28.8158V54.5484C28.8158 54.8297 29.0438 55.0578 29.3252 55.0578C29.6065 55.0578 29.8346 54.8297 29.8346 54.5484V51.044H32.5129V54.5484C32.5129 54.8297 32.741 55.0578 33.0223 55.0578C33.3037 55.0578 33.5318 54.8297 33.5318 54.5484V51.044H36.21V54.5484C36.21 54.8297 36.4381 55.0578 36.7195 55.0578C37.0008 55.0578 37.2289 54.8297 37.2289 54.5484V51.044H39.9071V54.5484C39.9071 54.8297 40.1352 55.0578 40.4166 55.0578C40.6979 55.0578 40.926 54.8297 40.926 54.5484V51.044H43.6043V54.5484C43.6043 54.8297 43.8324 55.0578 44.1137 55.0578C44.3951 55.0578 44.6231 54.8297 44.6231 54.5484V51.044H47.1408C47.422 51.044 47.6502 50.8158 47.6502 50.5346C47.6502 50.2529 47.422 50.0253 47.1408 50.0253Z" fill="black"/>
<path d="M43.6288 29.1099H29.8107C28.9127 29.1099 28.1826 29.8401 28.1826 30.738V44.5569C28.1826 45.4548 28.9128 46.185 29.8107 46.185H43.6289C44.5269 46.185 45.257 45.4548 45.257 44.5569V30.738C45.257 29.84 44.5268 29.1099 43.6288 29.1099ZM29.2014 30.738C29.2014 30.4018 29.4744 30.1288 29.8106 30.1288H40.3481V35.4491C39.4271 35.6481 38.6996 36.3756 38.5007 37.2966H34.7466V34.6843C35.709 34.4962 36.4372 33.6465 36.4372 32.6297C36.4372 31.4756 35.4978 30.5363 34.3432 30.5363C33.3264 30.5363 32.4767 31.2644 32.2885 32.2262H29.2014V30.738ZM40.8576 36.4136C41.6251 36.4136 42.2494 37.0385 42.2494 37.8061C42.2494 38.5736 41.6252 39.1978 40.8576 39.1978C40.0846 39.1978 39.4652 38.5675 39.4652 37.8061C39.4652 37.0432 40.0863 36.4136 40.8576 36.4136ZM34.3432 33.7049C33.7541 33.7049 33.268 33.2257 33.268 32.6297C33.268 32.0374 33.7502 31.5551 34.3432 31.5551C34.9361 31.5551 35.4184 32.0374 35.4184 32.6297C35.4184 33.2278 34.9314 33.7049 34.3432 33.7049ZM32.1431 42.0308C31.8477 41.8651 31.648 41.5479 31.648 41.1859C31.648 40.6513 32.0834 40.2166 32.618 40.2166C33.1525 40.2166 33.5872 40.6513 33.5872 41.1859C33.5872 41.9266 32.786 42.3942 32.1431 42.0308ZM36.2632 45.1661H32.8455V43.1611C33.8351 43.0483 34.6061 42.2054 34.6061 41.1859C34.6061 40.0896 33.7142 39.1978 32.618 39.1978C31.521 39.1978 30.6292 40.0896 30.6292 41.1859C30.6292 42.0009 31.1223 42.704 31.8267 43.0102V45.1661H29.8107C29.4745 45.1661 29.2014 44.8924 29.2014 44.5569V33.245H32.3415C32.3458 33.252 32.6196 34.2908 33.7278 34.6313V37.8061C33.7278 38.0873 33.956 38.3155 34.2372 38.3155H36.2632V45.1661ZM44.2381 44.5569C44.2381 44.8924 43.9651 45.1661 43.6289 45.1661H37.282V42.9631H44.2381V44.5569ZM44.2381 41.9443H37.282V38.3155H38.5007C38.735 39.4009 39.7029 40.2166 40.8576 40.2166C42.1868 40.2166 43.2682 39.1353 43.2682 37.8061C43.2682 36.6514 42.4524 35.6835 41.367 35.4491C41.367 35.4491 41.367 35.4491 41.3669 35.4491V30.1288H43.6288C43.9651 30.1288 44.2381 30.4018 44.2381 30.738V41.9443H44.2381Z" fill="black"/>
<path d="M53.5149 34.5654C53.7962 34.5654 54.0243 34.3374 54.0243 34.056C54.0243 33.7747 53.7962 33.5466 53.5149 33.5466H50.1158V30.8683H53.5149C53.7962 30.8683 54.0243 30.6402 54.0243 30.3588C54.0243 30.0775 53.7962 29.8494 53.5149 29.8494H50.1158V26.5561C50.1158 25.2852 49.082 24.2508 47.8105 24.2508H44.6231V20.9576C44.6231 20.6763 44.395 20.4482 44.1136 20.4482C43.8323 20.4482 43.6042 20.6763 43.6042 20.9576V24.2507H40.9259V20.9576C40.9259 20.6763 40.6978 20.4482 40.4165 20.4482C40.1351 20.4482 39.9071 20.6763 39.9071 20.9576V24.2507H37.2288V20.9576C37.2288 20.6763 37.0007 20.4482 36.7194 20.4482C36.438 20.4482 36.21 20.6763 36.21 20.9576V24.2507H33.5317V20.9576C33.5317 20.6763 33.3036 20.4482 33.0223 20.4482C32.7409 20.4482 32.5129 20.6763 32.5129 20.9576V24.2507H29.8345V20.9576C29.8345 20.6763 29.6064 20.4482 29.3251 20.4482C29.0438 20.4482 28.8157 20.6763 28.8157 20.9576V24.2507H27.6388C27.3569 24.2507 27.1294 24.4789 27.1294 24.7602C27.1294 25.0414 27.3569 25.2696 27.6388 25.2696C30.3074 25.2696 45.6748 25.2696 47.8105 25.2696C48.5203 25.2696 49.0969 25.8469 49.0969 26.556V48.7389C49.0969 49.0941 48.9556 49.425 48.6982 49.6701C48.4945 49.8644 48.4863 50.187 48.6806 50.3901C48.7811 50.4954 48.915 50.5484 49.0494 50.5484C49.1757 50.5484 49.3021 50.5015 49.4013 50.4078C49.8618 49.9683 50.1158 49.3753 50.1158 48.7389V45.6568H53.515C53.7963 45.6568 54.0244 45.4287 54.0244 45.1474C54.0244 44.8661 53.7963 44.638 53.515 44.638H50.1158V41.9596H53.515C53.7963 41.9596 54.0244 41.7316 54.0244 41.4502C54.0244 41.1689 53.7963 40.9408 53.515 40.9408H50.1158V38.2625H53.515C53.7963 38.2625 54.0244 38.0345 54.0244 37.7531C54.0244 37.4718 53.7963 37.2437 53.515 37.2437H50.1158V34.5654H53.5149Z" fill="black"/>
</g>
<defs>
<clipPath id="clip0_405_4817">
<rect width="34.6099" height="34.6099" fill="white" transform="translate(19.4146 20.4481)"/>
</clipPath>
</defs>
</svg>
