<svg width="77" height="77" viewBox="0 0 77 77" fill="none" xmlns="http://www.w3.org/2000/svg">
<path d="M68.4537 44.7384C65.8078 62.0709 49.6121 73.9767 32.2796 71.3308C14.9471 68.6849 3.04129 52.4892 5.68719 35.1567C8.3331 17.8242 24.5288 5.91837 41.8613 8.56427C59.1938 11.2102 71.0997 27.4059 68.4537 44.7384Z" fill="white" stroke="#B3B3B3" stroke-width="0.972058" stroke-miterlimit="10"/>
<g clip-path="url(#clip0_405_4840)">
<circle cx="36.4706" cy="27.4893" r="9.21262" stroke="black" stroke-width="0.991634"/>
<path d="M36.7998 32.6827C38.1529 33.3985 39.7739 33.3925 41.1216 32.6666C41.4157 32.4919 41.5124 32.1119 41.3377 31.8178C41.163 31.5238 40.783 31.4271 40.4889 31.6018C39.5132 32.1109 38.349 32.1056 37.3781 31.5876C36.4568 31.0237 35.329 30.9098 34.3136 31.278C34.4757 30.3094 34.5712 29.3308 34.5996 28.3492H38.3271C38.669 28.3492 38.9461 28.0719 38.9461 27.7301C38.9461 27.3882 38.669 27.111 38.3271 27.111H34.6126V25.6321C34.6126 24.0935 35.8598 22.8462 37.3984 22.8462C38.937 22.8462 40.1843 24.0935 40.1843 25.6321C40.1843 25.974 40.4614 26.2511 40.8034 26.2511C41.1453 26.2511 41.4224 25.9739 41.4224 25.6321C41.4224 23.4097 39.6208 21.608 37.3984 21.608C35.1759 21.608 33.3743 23.4096 33.3743 25.6321V27.111H32.1361C31.7942 27.111 31.5171 27.3882 31.5171 27.7301C31.5171 28.072 31.7943 28.3492 32.1361 28.3492H33.3551C33.3117 29.7834 33.1167 31.209 32.7732 32.6022C32.7273 32.7872 32.7691 32.9829 32.8864 33.1329C33.0038 33.2829 33.1838 33.3706 33.3743 33.3705C33.3983 33.3707 33.4224 33.3692 33.4462 33.3662C33.6325 33.3398 33.7999 33.2383 33.9092 33.0851C34.6696 32.1874 35.6149 32.0549 36.7998 32.6827Z" fill="black"/>
<circle cx="25.3769" cy="39.4402" r="9.21262" fill="white" stroke="black" stroke-width="0.991634"/>
<path d="M27.853 36.9843C27.853 37.3263 28.1302 37.6034 28.472 37.6034C28.8139 37.6034 29.0911 37.3262 29.0911 36.9843C29.0911 35.454 27.7495 34.1824 25.9956 33.9353V32.6507C25.9956 32.3088 25.7184 32.0317 25.3766 32.0317C25.0347 32.0317 24.7575 32.3089 24.7575 32.6507V33.9353C23.0037 34.183 21.6621 35.4539 21.6621 36.9843C21.6621 38.5147 23.0037 39.7863 24.7575 40.0333V43.7286C23.6927 43.5206 22.9003 42.8 22.9003 41.937C22.9003 41.5951 22.6231 41.3179 22.2812 41.3179C21.9393 41.3179 21.6622 41.5951 21.6622 41.937C21.6622 43.4673 23.0037 44.739 24.7576 44.986V46.2706C24.7576 46.6125 25.0348 46.8897 25.3767 46.8897C25.7186 46.8897 25.9957 46.6125 25.9957 46.2706V44.986C27.7496 44.7384 29.0911 43.4674 29.0911 41.937C29.0911 40.4067 27.7496 39.135 25.9957 38.888V35.1928C27.0605 35.4008 27.853 36.1214 27.853 36.9843ZM22.9003 36.9843C22.9003 36.1214 23.6927 35.4008 24.7575 35.1928V38.776C23.6927 38.5679 22.9003 37.8474 22.9003 36.9843ZM27.853 41.937C27.853 42.8 27.0605 43.5206 25.9957 43.7286V40.1453C27.0605 40.3534 27.853 41.074 27.853 41.937Z" fill="black"/>
<circle cx="36.0683" cy="50.4058" r="9.21262" fill="white" stroke="black" stroke-width="0.991634"/>
<path d="M36.6121 46.0723C37.7739 46.0933 38.8496 46.6894 39.4835 47.6633C39.6783 47.9444 40.0641 48.0143 40.3452 47.8193C40.6262 47.6244 40.6961 47.2386 40.5012 46.9576C39.6379 45.6479 38.1806 44.8522 36.6121 44.8342C34.4127 44.9196 32.5238 46.4241 31.9486 48.5486H30.4213C30.0794 48.5486 29.8022 48.8258 29.8022 49.1677C29.8022 49.5096 30.0795 49.7868 30.4213 49.7868H31.6916C31.6718 49.9904 31.6594 50.1966 31.6594 50.4058C31.6594 50.615 31.6718 50.8212 31.6916 51.0249H30.4213C30.0794 51.0249 29.8022 51.302 29.8022 51.6439C29.8022 51.9858 30.0795 52.263 30.4213 52.263H31.9486C32.5238 54.3876 34.4127 55.8921 36.6121 55.9774C38.1807 55.9594 39.6379 55.1637 40.5012 53.854C40.696 53.573 40.6262 53.1872 40.3452 52.9923C40.0641 52.7974 39.6783 52.8672 39.4835 53.1483C38.8497 54.1222 37.774 54.7182 36.6121 54.7393C35.0946 54.6746 33.7685 53.6946 33.2611 52.263H36.6121C36.9541 52.263 37.2312 51.9858 37.2312 51.644C37.2312 51.3021 36.954 51.0249 36.6121 51.0249H32.9397C32.8836 50.6141 32.8836 50.1976 32.9397 49.7868H36.6121C36.9541 49.7868 37.2312 49.5096 37.2312 49.1677C37.2312 48.8258 36.954 48.5486 36.6121 48.5486H33.2611C33.7685 47.117 35.0946 46.1371 36.6121 46.0723Z" fill="black"/>
<circle cx="48.7641" cy="39.9545" r="9.21262" fill="white" stroke="black" stroke-width="0.991634"/>
<path d="M52.7136 37.3703L52.7336 37.306H52.6662H51.0331C50.9702 36.7296 50.807 36.2211 50.5423 35.7814C50.3742 35.4973 50.1682 35.2468 49.9247 35.0299H52.3791H52.4156L52.4264 34.995L52.7136 34.0728L52.7336 34.0085H52.6662H46.7063H45.9233H45.8868H45.2881H45.252L45.2409 34.0429L44.9451 34.9652L44.9244 35.0299H44.9923H45.5688H45.6362H46.7063C47.4027 35.0299 47.9861 35.1508 48.4589 35.39L48.4589 35.39L48.4593 35.3902C48.9327 35.624 49.2905 35.9511 49.5346 36.3712C49.6964 36.6496 49.8051 36.961 49.86 37.306H45.1402H45.1034L45.0928 37.3412L44.8144 38.2635L44.7951 38.3274H44.8618H49.8643C49.8147 38.6272 49.7161 38.913 49.5687 39.1852C49.3472 39.5942 49.0204 39.9241 48.5869 40.1751C48.1557 40.4248 47.6081 40.5513 46.9412 40.5513H45.5666H45.5164L45.517 40.6014L45.5257 41.3758L45.5259 41.3935L45.5373 41.4071L50.0355 46.758L50.0504 46.7756H50.0734H51.3089H51.3585V46.7261V46.6129V46.5949L51.3469 46.5811L47.1426 41.5633C48.045 41.5514 48.7818 41.3853 49.3498 41.0616L49.3499 41.0615C49.9434 40.7207 50.3771 40.2699 50.6487 39.7091C50.86 39.2775 50.9904 38.8168 51.0399 38.3274H52.3791H52.4156L52.4264 38.2926L52.7136 37.3703Z" fill="black" stroke="black" stroke-width="0.0991634"/>
</g>
<path d="M57.2782 64.4537C51.7871 68.9941 44.7416 71.7227 37.0594 71.7227C19.5254 71.7227 5.31103 57.5083 5.31103 39.9743C5.31103 36.0433 6.0255 32.2795 7.33097 28.8054" stroke="#DFB853" stroke-width="4.86029" stroke-miterlimit="10"/>
<path d="M24.9214 4.62726C28.727 3.32081 32.8106 2.61121 37.0595 2.61121C57.6943 2.61121 74.4225 19.3394 74.4225 39.9742C74.4225 42.139 74.2387 44.261 73.8849 46.3256" stroke="#B3B3B3" stroke-width="4.86029" stroke-miterlimit="10"/>
<defs>
<clipPath id="clip0_405_4840">
<rect width="42.3334" height="42.3334" fill="white" transform="translate(15.9038 17.7809)"/>
</clipPath>
</defs>
</svg>
