<svg width="74" height="75" viewBox="0 0 74 75" fill="none" xmlns="http://www.w3.org/2000/svg">
<path d="M30.1192 65.8531C13.7323 62.6782 3.02187 46.8203 6.19676 30.4334C9.37165 14.0465 25.2296 3.33605 41.6165 6.51094C58.0034 9.68582 68.7138 25.5438 65.539 41.9307C62.3641 58.3176 46.5061 69.028 30.1192 65.8531Z" fill="white" stroke="#B3B3B3" stroke-width="0.972058" stroke-miterlimit="10"/>
<g clip-path="url(#clip0_3007_32)">
<path d="M52.8993 31.0578L44.8203 22.9788C44.6222 22.7807 44.3588 22.6716 44.0786 22.6716C43.7984 22.6716 43.535 22.7807 43.3369 22.9788L40.7256 25.59C40.5275 25.7882 40.4185 26.0515 40.4185 26.3317C40.4185 26.583 40.5068 26.8203 40.6678 27.0096L39.6133 28.064C38.4894 27.5715 37.2175 27.5204 36.063 27.9118C34.7631 27.5213 33.3723 27.57 32.1709 28.0461L31.1344 27.0096C31.2953 26.8203 31.3837 26.583 31.3837 26.3318C31.3837 26.0516 31.2746 25.7882 31.0765 25.5901L28.4653 22.9789C28.2671 22.7807 28.0038 22.6716 27.7236 22.6716C27.4434 22.6716 27.18 22.7807 26.9819 22.9789L18.9029 31.0578C18.494 31.4667 18.494 32.1322 18.9029 32.5411L21.5142 35.1524C21.7123 35.3505 21.9757 35.4595 22.2559 35.4595C22.4823 35.4595 22.6972 35.3872 22.8761 35.2553L26.6936 39.0728C26.6291 39.1245 26.5666 39.1799 26.5068 39.2396L25.4871 40.2594C24.6046 41.1418 24.6046 42.5776 25.4871 43.46C25.9283 43.9012 26.5078 44.1218 27.0873 44.1218C27.1654 44.1218 27.2434 44.1175 27.3212 44.1094C27.2537 44.7642 27.4699 45.443 27.9707 45.9436C28.4119 46.3848 28.9914 46.6054 29.5709 46.6054C29.7498 46.6054 29.9287 46.5842 30.1035 46.5422C30.1099 47.1131 30.33 47.6821 30.7647 48.1168C31.2059 48.558 31.7854 48.7786 32.365 48.7786C32.6309 48.7786 32.8966 48.7315 33.1492 48.6387L33.4885 48.9779C33.9486 49.4379 34.5786 49.6723 35.1976 49.6723C35.7376 49.6723 36.2691 49.4939 36.6716 49.1314C37.1232 48.7247 37.3871 48.1721 37.419 47.5696C38.1876 47.8183 39.0626 47.6844 39.6568 47.1493C40.1041 46.7465 40.3673 46.2003 40.4032 45.6045C41.1782 45.865 42.0666 45.7343 42.6677 45.193C43.1157 44.7896 43.379 44.2425 43.4143 43.6457C44.1883 43.9043 45.0747 43.7731 45.6747 43.2329C46.1418 42.8122 46.4082 42.2354 46.4245 41.6087C46.4407 40.9909 46.1994 40.3859 45.7625 39.949L44.9974 39.1839L48.9261 35.2553C49.1051 35.3872 49.3198 35.4595 49.5463 35.4595C49.8265 35.4595 50.0899 35.3504 50.288 35.1524L52.8993 32.5411C53.3083 32.1322 53.3083 31.4667 52.8993 31.0578ZM26.204 42.743C25.717 42.256 25.717 41.4635 26.204 40.9764L27.2237 39.9567C27.4673 39.7131 27.7872 39.5914 28.1071 39.5914C28.427 39.5914 28.7468 39.7131 28.9904 39.9567C29.4774 40.4437 29.4774 41.2362 28.9904 41.7233L27.9707 42.743C27.4836 43.2301 26.6911 43.2301 26.204 42.743ZM28.6876 45.2266C28.4517 44.9907 28.3217 44.677 28.3217 44.3433C28.3217 44.0096 28.4516 43.6959 28.6876 43.46L29.2227 42.9249C29.4663 42.6813 29.7862 42.5596 30.1061 42.5596C30.4259 42.5596 30.7458 42.6813 30.9894 42.9249C31.4764 43.4119 31.4764 44.2045 30.9894 44.6915L30.4543 45.2266C30.2183 45.4626 29.9046 45.5926 29.5709 45.5926C29.2373 45.5926 28.9235 45.4626 28.6876 45.2266ZM31.4817 47.3998C30.9946 46.9128 30.9946 46.1202 31.4817 45.6332C31.7253 45.3896 32.0451 45.2679 32.365 45.2679C32.6849 45.2679 33.0048 45.3896 33.2483 45.6332C33.7354 46.1202 33.7354 46.9128 33.2483 47.3998C32.7613 47.8869 31.9688 47.8869 31.4817 47.3998ZM45.411 41.5822C45.4019 41.9281 45.2546 42.2467 44.9962 42.4793C44.5362 42.8937 43.6841 42.8378 43.2086 42.3623L41.2877 40.4413C41.0897 40.2433 40.7686 40.2433 40.5707 40.4413C40.3727 40.6393 40.3727 40.9604 40.5707 41.1583L42.0386 42.6262C42.2833 42.8709 42.4131 43.1963 42.404 43.5424C42.3949 43.8882 42.2476 44.2068 41.9893 44.4395C41.5291 44.8538 40.6771 44.798 40.2017 44.3225L38.2768 42.3976C38.0789 42.1996 37.7578 42.1996 37.5598 42.3976C37.3618 42.5956 37.3618 42.9166 37.5598 43.1146L39.0276 44.5824C39.2723 44.8271 39.4021 45.1526 39.3931 45.4987C39.384 45.8445 39.2367 46.1631 38.9783 46.3958C38.5183 46.81 37.6663 46.7543 37.1908 46.2788L35.2917 44.3797C35.0937 44.1817 34.7726 44.1817 34.5747 44.3797C34.3767 44.5777 34.3767 44.8987 34.5747 45.0966L36.0425 46.5644L36.0443 46.5663C36.2879 46.8108 36.417 47.1354 36.4079 47.4807C36.3989 47.8265 36.2516 48.1451 35.9931 48.3778C35.5331 48.792 34.6812 48.7363 34.2056 48.2608L34.0123 48.0674C34.8469 47.1816 34.8318 45.7824 33.9654 44.9161C33.5137 44.4644 32.917 44.2445 32.3237 44.2552C32.4673 43.5375 32.2617 42.7631 31.7065 42.2078C31.303 41.8043 30.7838 41.5859 30.2547 41.5514C30.5138 40.765 30.3318 39.8638 29.7075 39.2395C29.1559 38.6879 28.3879 38.4811 27.6742 38.6191L23.6024 34.5474L23.7752 34.3745C23.9732 34.1765 23.9732 33.8555 23.7752 33.6575C23.5772 33.4595 23.2562 33.4595 23.0583 33.6575L22.2806 34.4352C22.278 34.4377 22.2704 34.4454 22.2559 34.4454C22.2415 34.4454 22.2338 34.4377 22.2313 34.4352L19.62 31.824C19.6064 31.8103 19.6064 31.7882 19.62 31.7746L27.699 23.6957C27.7015 23.6932 27.7092 23.6855 27.7236 23.6855C27.738 23.6855 27.7458 23.6932 27.7483 23.6957L30.3595 26.3069C30.3621 26.3095 30.3698 26.3171 30.3698 26.3316C30.3698 26.346 30.3621 26.3537 30.3595 26.3563L24.5815 32.1343C24.3835 32.3323 24.3835 32.6534 24.5815 32.8513C24.7795 33.0493 25.1005 33.0493 25.2984 32.8513L30.4204 27.7294L31.6981 29.0071C31.7954 29.1043 31.9251 29.1556 32.0567 29.1556C32.1307 29.1556 32.2053 29.1393 32.2751 29.1061C32.9805 28.7691 33.8102 28.6259 34.6382 28.68C34.4793 28.8036 34.3256 28.937 34.1797 29.083L31.3997 31.863C30.5173 32.7454 30.5173 34.1812 31.3997 35.0636C31.8271 35.491 32.3954 35.7265 33 35.7265C33.6045 35.7265 34.1728 35.4911 34.6003 35.0636L36.6138 33.05C36.8387 32.8252 37.2047 32.8251 37.4296 33.05L45.0454 40.6659C45.2903 40.9106 45.4201 41.236 45.411 41.5822ZM52.1824 31.8241L49.5711 34.4353C49.5685 34.4378 49.5609 34.4456 49.5464 34.4456C49.532 34.4456 49.5243 34.4378 49.5217 34.4353L43.7776 28.6912C43.5796 28.4932 43.2585 28.4932 43.0606 28.6912C42.8626 28.8892 42.8626 29.2102 43.0606 29.4081L48.2 34.5475L44.2806 38.4668L38.1467 32.3329C37.5264 31.7127 36.5172 31.7128 35.897 32.3329L33.8834 34.3465C33.3964 34.8336 32.6038 34.8336 32.1168 34.3465C31.6297 33.8595 31.6297 33.0669 32.1168 32.5799L34.8968 29.7999C36.4109 28.2858 38.8746 28.2858 40.3889 29.7999C40.5869 29.9979 40.9079 29.9979 41.1058 29.7999C41.3038 29.6019 41.3038 29.2809 41.1058 29.083C40.9226 28.8997 40.7281 28.7344 40.5249 28.5863L41.3819 27.7293L41.5244 27.8718C41.7224 28.0698 42.0434 28.0698 42.2414 27.8718C42.4394 27.6738 42.4394 27.3528 42.2414 27.1548L41.4427 26.3562C41.4402 26.3536 41.4325 26.346 41.4325 26.3315C41.4325 26.3171 41.4402 26.3094 41.4427 26.3069L44.054 23.6956C44.0565 23.6931 44.0642 23.6854 44.0787 23.6854C44.0931 23.6854 44.1008 23.6931 44.1034 23.6956L52.1824 31.7746C52.196 31.7884 52.196 31.8105 52.1824 31.8241Z" fill="black"/>
</g>
<path d="M12.5547 55.4592C8.23196 50.2315 5.63464 43.5242 5.63464 36.2105C5.63464 19.5183 19.1666 5.98627 35.8588 5.98627C39.6012 5.98627 43.1843 6.6667 46.4912 7.90899" stroke="#DFB853" stroke-width="4.86029" stroke-miterlimit="10"/>
<path d="M69.5094 24.6545C70.7536 28.2774 71.4282 32.1656 71.4282 36.2104C71.4282 55.8557 55.503 71.7809 35.8577 71.7809C33.797 71.7809 31.776 71.6059 29.8115 71.2696" stroke="#B3B3B3" stroke-width="4.86029" stroke-miterlimit="10"/>
<defs>
<clipPath id="clip0_3007_32">
<rect width="34.6099" height="34.6099" fill="white" transform="translate(18.5967 18.867)"/>
</clipPath>
</defs>
</svg>
